<svg xmlns="http://www.w3.org/2000/svg" width="500" viewBox="0 0 375 375" height="500" version="1.0"><path fill="#fff96f" d="M193.965.27c18-.125 65.945.242 109.09 34.058 32.836 25.738 46.007 57.649 51.816 72.211 26.918 67.512 5.567 129.395-1.363 148.508-8.168 22.55-20.36 56.242-53.18 83.11-54.969 44.988-134.687 43.734-190.91 16.35-9.164-4.456-44.945-22.89-72.273-64.034C32.14 282.937 7.379 244.46 5.78 188.285c-.531-18.867-2.043-71.746 34.09-117.168 23.008-28.914 50.934-41.816 69.547-50.414C124.539 13.715 153.871.54 193.965.27zm0 0"/><path d="M284.338 240.196c-.504-.375-1.133-.375-1.887-.125-.625.375-1.254.754-1.883 1.383a9.244 9.244 0 0 0-1.132 1.383c-1.13 2.011-7.54 9.93-19.23 24.007-11.692 14.078-26.145 28.657-43.49 43.614-17.347 15.086-34.944 24.886-52.792 29.664l-.125.125c-1.133.254-2.262.379-3.52.504-.379 0-.754.125-1.132.125-.63 0-1.13.125-1.633.125h-.629c-.38 0-.63 0-1.004-.125h-1.383c-3.144-.375-5.91-1.13-8.547-2.512-5.031-2.64-9.176-7.164-12.57-13.703-2.89-5.403-5.152-11.938-6.914-19.606-1.383-6.285-2.387-13.449-3.016-21.242-.629-6.914-.879-14.203-.879-21.871.125-14.582 1.004-29.16 2.637-44.121a496.331 496.331 0 0 1 6.79-43.738c2.89-14.707 6.534-28.91 10.933-42.739 4.652-14.832 9.804-28.656 15.46-41.351 6.665-15.086 13.575-27.906 20.739-38.59 4.402-6.66 8.8-12.316 13.2-16.969 2.26-2.387 4.776-4.648 7.667-7.039 3.016-2.262 5.906-4.148 8.547-5.277 3.016-1.383 6.035-2.262 8.926-2.516 3.14-.25 6.156.129 9.176 1.133 2.89.879 5.656 2.262 8.293 4.273 2.39 1.887 4.652 4.149 6.664 7.04l1.507 2.011 1.508 2.637c0 .129.125.129.125.129.125.25.125.375.254.5l1.633 3.52c5.531 11.566 8.168 23.882 8.043 37.081 0 13.196-1.508 25.766-4.399 37.707-3.015 11.942-5.906 21.746-9.05 29.54-3.016 7.667-4.778 11.812-5.153 12.44 0 0-.125.13-.25.38-.129.125-.379.504-.504.754-.254.375-.379.754-.629 1.004-.124.378-.25.628-.378.882-1.004 2.891.129 4.524 3.144 4.903 1.633.125 3.14-.254 4.399-1.258 1.257-1.008 2.011-2.262 2.261-3.899.254-1.632.754-3.265 1.383-5.027l1.762-5.402 3.265-10.813c.38-1.508.883-3.015 1.258-4.523 1.633-5.656 3.27-11.438 4.653-17.348 1.757-7.164 3.14-14.703 4.273-22.496 1.004-7.543 1.508-15.21 1.383-23.129 0-8.422-1.008-16.215-2.64-23.254-.755-3.27-2.012-7.039-3.77-11.437-.254-.63-.504-1.258-.883-1.762l-1.004-2.387c-.25-.25-.379-.629-.504-.879l-1.758-3.02-1.761-2.636c-2.766-3.773-5.657-6.789-8.672-9.176a37.398 37.398 0 0 0-11.438-6.16c-4.148-1.258-8.547-1.886-12.945-1.633-4.149.375-8.297 1.383-12.57 3.266-3.395 1.512-6.915 3.649-10.56 6.41-3.394 2.766-6.41 5.406-8.925 8.047-4.902 5.027-9.805 11.188-14.578 18.098-7.793 11.187-15.086 24.511-22.25 40.097-12.441 27.403-21.746 56.184-28.027 86.352-6.664 32.305-10.059 62.469-9.93 90.375.125 17.723 1.633 33.055 4.773 45.879 2.012 8.672 4.778 16.215 8.172 22.496 2.137 4.023 4.649 7.543 7.29 10.434 3.144 3.394 6.663 6.035 10.558 8.043a36.595 36.595 0 0 0 12.82 3.52c.754 0 1.508.128 2.137.128h1.637c.879 0 1.758-.129 2.636-.129l1.383-.125c1.637-.25 3.395-.5 5.153-.879 8.55-2.515 15.964-5.656 22-9.68 5.906-3.644 12.191-8.042 18.851-13.449 5.531-4.398 11.188-9.3 17.223-14.957 9.93-9.3 20.488-20.11 31.547-32.554 5.28-6.032 10.183-11.688 14.582-17.22l7.039-8.925.5-.5c2.012-2.766 4.273-5.531 6.539-8.172 0-.125.125-.25.125-.379 1.508-2.008 1.383-3.77-.504-5.277zm0 0"/></svg>