<svg xmlns="http://www.w3.org/2000/svg" xmlns:xlink="http://www.w3.org/1999/xlink" width="300" zoomAndPan="magnify" viewBox="0 0 224.87999 74.999997" height="100" preserveAspectRatio="xMidYMid meet" version="1.0"><defs><clipPath id="edefe46094"><path d="M 185 58 L 211 58 L 211 73.644531 L 185 73.644531 Z M 185 58 " clip-rule="nonzero"/></clipPath></defs><path fill="#fff96f" d="M 59.734375 43.125 C 59.910156 42.320312 59.734375 41.394531 59.101562 40.527344 C 58.410156 39.605469 57.714844 38.683594 57.023438 37.757812 C 53.90625 32.160156 50.152344 26.847656 45.996094 21.886719 C 44.035156 19.574219 40.285156 22.230469 41.265625 24.828125 C 41.265625 25.289062 41.324219 25.867188 41.609375 26.386719 C 42.304688 27.773438 43.054688 29.101562 43.863281 30.429688 C 44.785156 38.164062 49.75 45.148438 56.5625 48.785156 C 59.273438 50.226562 61.699219 47.398438 60.542969 44.800781 C 60.3125 44.222656 60.023438 43.703125 59.734375 43.125 Z M 59.734375 43.125 " fill-opacity="1" fill-rule="nonzero"/><path fill="#fff96f" d="M 94.082031 9.417969 C 94.195312 8.320312 93.5625 7.570312 92.753906 7.164062 C 92.695312 6.589844 92.636719 6.011719 92.578125 5.375 C 92.292969 1.796875 86.980469 1.683594 86.980469 5.375 C 86.980469 8.492188 86.980469 11.550781 86.980469 14.667969 C 86 18.882812 85.652344 23.269531 85.652344 27.65625 C 85.480469 28.464844 85.308594 29.214844 85.132812 30.023438 C 85.074219 30.371094 85.539062 30.542969 85.710938 30.3125 C 85.828125 32.621094 86.058594 34.929688 86.289062 37.179688 C 86.578125 39.546875 90.558594 40.703125 90.964844 37.816406 C 90.964844 37.699219 91.023438 37.527344 91.023438 37.414062 C 91.828125 37.066406 92.464844 36.257812 92.523438 35.101562 C 92.582031 33.429688 92.582031 31.699219 92.636719 30.023438 C 93.617188 29.675781 94.484375 28.8125 94.425781 27.597656 C 94.3125 23.386719 93.964844 19.171875 93.5625 14.957031 C 93.734375 13.109375 93.90625 11.265625 94.082031 9.417969 Z M 94.082031 9.417969 " fill-opacity="1" fill-rule="nonzero"/><path fill="#fff96f" d="M 138.644531 9.417969 C 133.792969 17.671875 129.636719 26.097656 125.769531 34.816406 C 125.425781 35.566406 126.464844 36.257812 126.925781 35.507812 C 127.097656 35.21875 127.269531 34.871094 127.503906 34.582031 C 127.789062 35.621094 128.597656 36.488281 129.582031 36.835938 C 130.851562 38.164062 133.679688 38.164062 134.542969 35.796875 C 136.277344 31.003906 138.238281 26.273438 139.738281 21.367188 C 140.664062 19.113281 141.585938 16.921875 142.566406 14.726562 C 143.03125 13.746094 142.914062 12.765625 142.511719 12.015625 C 142.625 11.726562 142.683594 11.496094 142.796875 11.207031 C 143.605469 8.722656 139.914062 7.28125 138.644531 9.417969 Z M 138.644531 9.417969 " fill-opacity="1" fill-rule="nonzero"/><path fill="#fff96f" d="M 180.605469 37.699219 C 180.433594 37.355469 180.261719 37.007812 179.972656 36.777344 C 180.78125 36.027344 180.78125 34.929688 180.375 34.121094 C 180.550781 33.949219 180.722656 33.777344 180.835938 33.660156 C 183.03125 31.582031 180.085938 27.542969 177.546875 29.390625 C 173.566406 32.21875 170.101562 35.621094 167.273438 39.546875 C 166.234375 40.761719 165.195312 41.972656 164.269531 43.183594 C 164.269531 43.183594 164.214844 43.242188 164.214844 43.242188 C 164.097656 43.414062 163.984375 43.53125 163.867188 43.703125 C 162.945312 44.859375 162.136719 46.070312 161.5 47.339844 C 161.15625 48.03125 161.960938 49.128906 162.714844 48.550781 C 162.886719 48.4375 163 48.320312 163.175781 48.207031 C 163.464844 49.589844 164.789062 50.515625 166.234375 50.285156 C 167.15625 50.804688 168.3125 50.863281 169.292969 49.9375 C 172.871094 46.707031 176.738281 43.820312 180.835938 41.335938 C 182.164062 40.414062 181.820312 38.277344 180.605469 37.699219 Z M 180.605469 37.699219 " fill-opacity="1" fill-rule="nonzero"/><path fill="#fff96f" d="M 37.628906 61.769531 C 36.070312 61.308594 34.511719 60.847656 32.953125 60.386719 C 29.199219 57.441406 25.101562 55.652344 20.3125 54.960938 C 18.753906 54.730469 17.425781 55.824219 17.773438 57.5 C 17.886719 58.078125 18.117188 58.597656 18.347656 59.058594 C 15.636719 58.652344 13.960938 62.519531 16.558594 63.964844 C 21.640625 66.792969 27.179688 68.699219 33.011719 69.160156 C 34.570312 69.273438 35.433594 68.121094 35.609375 66.851562 C 36.070312 66.851562 36.472656 66.910156 36.9375 66.910156 C 39.9375 67.023438 40.398438 62.578125 37.628906 61.769531 Z M 37.628906 61.769531 " fill-opacity="1" fill-rule="nonzero"/><g clip-path="url(#edefe46094)"><path fill="#fff96f" d="M 209.238281 65.0625 C 207.851562 64.714844 206.410156 64.773438 204.964844 64.945312 C 204.964844 64.886719 204.964844 64.832031 204.964844 64.773438 C 205.660156 64.3125 206.003906 63.617188 206.003906 62.925781 C 206.234375 62.808594 206.464844 62.695312 206.699219 62.578125 C 208.949219 61.484375 207.332031 57.960938 205.023438 58.597656 C 200.175781 59.808594 195.613281 61.714844 191.34375 64.136719 C 190.132812 64.542969 188.976562 64.945312 187.765625 65.40625 C 187.246094 65.582031 187.015625 66.15625 187.128906 66.621094 C 186.898438 66.734375 186.667969 66.851562 186.4375 66.964844 C 184.53125 67.949219 185.457031 71.007812 187.246094 71.121094 C 187.476562 72.277344 188.515625 73.316406 190.015625 73.027344 C 191.804688 72.738281 193.480469 72.277344 195.09375 71.640625 C 196.769531 71.238281 198.441406 70.832031 200.117188 70.488281 C 203.175781 69.851562 206.753906 69.792969 209.582031 68.292969 C 210.910156 67.601562 210.679688 65.40625 209.238281 65.0625 Z M 209.238281 65.0625 " fill-opacity="1" fill-rule="nonzero"/></g></svg>