<svg xmlns="http://www.w3.org/2000/svg" xmlns:xlink="http://www.w3.org/1999/xlink" width="150" zoomAndPan="magnify" viewBox="0 0 112.5 74.999997" height="100" preserveAspectRatio="xMidYMid meet" version="1.0"><defs><clipPath id="08ea1162ac"><path d="M 9.191406 5.125 L 102.234375 5.125 L 102.234375 69.875 L 9.191406 69.875 Z M 9.191406 5.125 " clip-rule="nonzero"/></clipPath><clipPath id="f67323a22d"><path d="M 21.550781 11.425781 C 53.1875 62.367188 46.082031 61.160156 45.277344 59.015625 C 43.535156 54.726562 59.621094 35.824219 64.445312 29.390625 C 66.992188 26.039062 67.796875 24.964844 70.746094 22.152344 C 75.707031 17.59375 88.710938 7.003906 93.535156 5.527344 C 95.414062 4.992188 96.484375 5.125 97.824219 5.796875 C 99.300781 6.601562 101.3125 9.011719 101.847656 10.621094 C 102.25 11.960938 101.847656 13.707031 101.3125 14.910156 C 100.773438 16.117188 99.703125 17.457031 98.363281 17.996094 C 96.753906 18.664062 93.671875 18.664062 92.0625 17.859375 C 90.722656 17.324219 89.648438 15.984375 89.113281 14.777344 C 88.578125 13.570312 88.308594 11.960938 88.710938 10.488281 C 89.246094 8.878906 91.257812 6.601562 92.867188 5.796875 C 94.074219 5.125 95.816406 5.261719 97.15625 5.527344 C 98.363281 5.929688 99.835938 6.867188 100.640625 8.074219 C 101.445312 9.148438 101.980469 10.757812 101.980469 12.097656 C 101.980469 13.4375 101.714844 14.644531 100.507812 16.117188 C 97.824219 19.738281 85.628906 26.441406 81.335938 30.195312 C 78.925781 32.339844 77.71875 33.679688 76.109375 35.824219 C 74.5 38.238281 73.964844 40.648438 71.683594 44.136719 C 67.664062 50.4375 58.011719 67.59375 51.980469 69.472656 C 48.359375 70.542969 45.410156 68.800781 41.65625 65.851562 C 33.078125 59.148438 12.300781 25.636719 9.886719 17.859375 C 9.214844 15.582031 9.351562 14.507812 9.886719 13.035156 C 10.289062 11.695312 11.628906 10.21875 12.96875 9.414062 C 14.175781 8.746094 16.1875 8.476562 17.660156 8.746094 C 19.136719 9.148438 21.550781 11.425781 21.550781 11.425781 " clip-rule="nonzero"/></clipPath></defs><g clip-path="url(#08ea1162ac)"><g clip-path="url(#f67323a22d)"><path fill="#fff96f" d="M 4.523438 0.164062 L 107.484375 0.164062 L 107.484375 74.835938 L 4.523438 74.835938 Z M 4.523438 0.164062 " fill-opacity="1" fill-rule="nonzero"/></g></g></svg>