<svg xmlns="http://www.w3.org/2000/svg" xmlns:xlink="http://www.w3.org/1999/xlink" width="50" viewBox="0 0 37.5 37.499999" height="50" preserveAspectRatio="xMidYMid meet"><defs><clipPath id="79fa3f30a3"><path d="M 5.3125 5.113281 L 32 5.113281 L 32 32 L 5.3125 32 Z M 5.3125 5.113281 " clip-rule="nonzero"></path></clipPath><clipPath id="e1503d48ca"><path d="M 14 13 L 24 13 L 24 23 L 14 23 Z M 14 13 " clip-rule="nonzero"></path></clipPath><clipPath id="44db7df332"><path d="M 4.488281 11.601562 L 34.621094 0.109375 L 42.640625 21.132812 L 12.507812 32.625 Z M 4.488281 11.601562 " clip-rule="nonzero"></path></clipPath><clipPath id="3dd414388b"><path d="M 4.488281 11.601562 L 34.621094 0.109375 L 42.640625 21.132812 L 12.507812 32.625 Z M 4.488281 11.601562 " clip-rule="nonzero"></path></clipPath><clipPath id="bc5711e987"><path d="M 4.488281 11.601562 L 34.621094 0.109375 L 42.640625 21.132812 L 12.507812 32.625 Z M 4.488281 11.601562 " clip-rule="nonzero"></path></clipPath><clipPath id="0da3125b87"><path d="M 11 10 L 27 10 L 27 27 L 11 27 Z M 11 10 " clip-rule="nonzero"></path></clipPath><clipPath id="fa21134708"><path d="M 4.488281 11.601562 L 34.621094 0.109375 L 42.640625 21.132812 L 12.507812 32.625 Z M 4.488281 11.601562 " clip-rule="nonzero"></path></clipPath><clipPath id="0eec086f10"><path d="M 4.488281 11.601562 L 34.621094 0.109375 L 42.640625 21.132812 L 12.507812 32.625 Z M 4.488281 11.601562 " clip-rule="nonzero"></path></clipPath><clipPath id="1ef796f74a"><path d="M 4.488281 11.601562 L 34.621094 0.109375 L 42.640625 21.132812 L 12.507812 32.625 Z M 4.488281 11.601562 " clip-rule="nonzero"></path></clipPath><clipPath id="3e407b1062"><path d="M 7 6 L 31 6 L 31 30 L 7 30 Z M 7 6 " clip-rule="nonzero"></path></clipPath><clipPath id="4b8c23c8de"><path d="M 4.488281 11.601562 L 34.621094 0.109375 L 42.640625 21.132812 L 12.507812 32.625 Z M 4.488281 11.601562 " clip-rule="nonzero"></path></clipPath><clipPath id="f355490fdd"><path d="M 4.488281 11.601562 L 34.621094 0.109375 L 42.640625 21.132812 L 12.507812 32.625 Z M 4.488281 11.601562 " clip-rule="nonzero"></path></clipPath><clipPath id="9163c0753b"><path d="M 4.488281 11.601562 L 34.621094 0.109375 L 42.640625 21.132812 L 12.507812 32.625 Z M 4.488281 11.601562 " clip-rule="nonzero"></path></clipPath><clipPath id="dc0305d98b"><path d="M 4.488281 11.605469 L 25.382812 3.636719 L 33.421875 24.714844 L 12.527344 32.683594 Z M 4.488281 11.605469 " clip-rule="nonzero"></path></clipPath><clipPath id="520ddda922"><path d="M 4.488281 11.605469 L 25.382812 3.636719 L 33.398438 24.652344 L 12.503906 32.621094 Z M 4.488281 11.605469 " clip-rule="nonzero"></path></clipPath><clipPath id="7df4258005"><path d="M 17 16 L 21 16 L 21 20 L 17 20 Z M 17 16 " clip-rule="nonzero"></path></clipPath><clipPath id="eeb347e9fb"><path d="M 4.488281 11.601562 L 34.621094 0.109375 L 42.640625 21.132812 L 12.507812 32.625 Z M 4.488281 11.601562 " clip-rule="nonzero"></path></clipPath><clipPath id="7e6a211424"><path d="M 4.488281 11.601562 L 34.621094 0.109375 L 42.640625 21.132812 L 12.507812 32.625 Z M 4.488281 11.601562 " clip-rule="nonzero"></path></clipPath><clipPath id="a4fe40e2e4"><path d="M 4.488281 11.601562 L 34.621094 0.109375 L 42.640625 21.132812 L 12.507812 32.625 Z M 4.488281 11.601562 " clip-rule="nonzero"></path></clipPath><clipPath id="f6b8e8d30e"><path d="M 18 1 L 37 1 L 37 19 L 18 19 Z M 18 1 " clip-rule="nonzero"></path></clipPath><clipPath id="370385c460"><path d="M 4.488281 11.601562 L 34.621094 0.109375 L 42.640625 21.132812 L 12.507812 32.625 Z M 4.488281 11.601562 " clip-rule="nonzero"></path></clipPath><clipPath id="0dbee8f33c"><path d="M 4.488281 11.601562 L 34.621094 0.109375 L 42.640625 21.132812 L 12.507812 32.625 Z M 4.488281 11.601562 " clip-rule="nonzero"></path></clipPath><clipPath id="f698218b20"><path d="M 4.488281 11.601562 L 34.621094 0.109375 L 42.640625 21.132812 L 12.507812 32.625 Z M 4.488281 11.601562 " clip-rule="nonzero"></path></clipPath><clipPath id="3e403f15b5"><path d="M 15.128906 8.738281 L 35.074219 1.128906 L 38.773438 10.839844 L 18.832031 18.445312 Z M 15.128906 8.738281 " clip-rule="nonzero"></path></clipPath><clipPath id="4c22429c73"><path d="M 15.128906 8.738281 L 35.019531 1.152344 L 38.71875 10.859375 L 18.832031 18.445312 Z M 15.128906 8.738281 " clip-rule="nonzero"></path></clipPath></defs><g clip-path="url(#79fa3f30a3)"><path fill="#fff96f" d="M 18.898438 5.132812 C 20.183594 5.125 23.609375 5.148438 26.691406 7.53125 C 29.035156 9.34375 29.976562 11.59375 30.394531 12.621094 C 32.316406 17.375 30.789062 21.734375 30.296875 23.082031 C 29.710938 24.667969 28.839844 27.042969 26.496094 28.9375 C 22.570312 32.105469 16.875 32.015625 12.859375 30.085938 C 12.207031 29.773438 9.648438 28.476562 7.699219 25.578125 C 7.339844 25.046875 5.570312 22.335938 5.457031 18.378906 C 5.417969 17.046875 5.3125 13.324219 7.894531 10.125 C 9.535156 8.085938 11.53125 7.179688 12.859375 6.574219 C 13.941406 6.082031 16.035156 5.152344 18.898438 5.132812 Z M 18.898438 5.132812 " fill-opacity="1" fill-rule="nonzero"></path></g><g clip-path="url(#e1503d48ca)"><g clip-path="url(#44db7df332)"><g clip-path="url(#3dd414388b)"><g clip-path="url(#bc5711e987)"><path fill="#000000" d="M 20.859375 22.007812 C 18.847656 22.933594 16.207031 22.429688 15.15625 20.277344 C 14.148438 18.214844 14.6875 15.679688 16.609375 14.457031 C 18.746094 13.253906 21.632812 13.753906 22.773438 16.1875 C 23.777344 18.328125 22.992188 21.023438 20.859375 22.007812 Z M 16.347656 14.097656 C 12.890625 16.304688 13.882812 22.296875 18.132812 22.851562 C 20.023438 23.101562 22.105469 22.300781 23.046875 20.574219 C 23.972656 18.871094 23.824219 16.480469 22.5 14.992188 C 20.835938 13.128906 18.417969 12.933594 16.347656 14.097656 " fill-opacity="1" fill-rule="nonzero"></path></g></g></g></g><g clip-path="url(#0da3125b87)"><g clip-path="url(#fa21134708)"><g clip-path="url(#0eec086f10)"><g clip-path="url(#1ef796f74a)"><path fill="#000000" d="M 25.894531 21.066406 C 24.800781 24.019531 21.847656 25.652344 18.8125 25.6875 C 15.636719 25.722656 12.925781 23.894531 11.910156 20.789062 C 10.800781 17.398438 11.851562 13.601562 14.875 11.726562 C 17.847656 10.011719 21.332031 10.136719 23.972656 12.53125 C 26.3125 14.652344 26.972656 18.152344 25.894531 21.066406 Z M 14.617188 11.367188 C 11.730469 13.15625 10.535156 16.636719 11.246094 19.976562 C 11.949219 23.273438 14.394531 25.695312 17.722656 26.074219 C 20.898438 26.433594 24.355469 25.054688 25.898438 22.136719 C 27.367188 19.351562 27.136719 15.429688 25.023438 12.980469 C 22.269531 9.789062 18.113281 9.351562 14.617188 11.367188 " fill-opacity="1" fill-rule="nonzero"></path></g></g></g></g><g clip-path="url(#3e407b1062)"><g clip-path="url(#4b8c23c8de)"><g clip-path="url(#f355490fdd)"><g clip-path="url(#9163c0753b)"><g clip-path="url(#dc0305d98b)"><g clip-path="url(#520ddda922)"><path fill="#000000" d="M 18.761719 28.941406 C 14.277344 28.996094 10.421875 26.429688 8.941406 22.066406 C 7.292969 17.214844 8.753906 11.660156 13.132812 8.976562 C 17.316406 6.542969 22.28125 6.691406 26.039062 10.027344 C 29.464844 13.070312 30.464844 18.125 28.882812 22.355469 C 27.308594 26.570312 23.09375 28.886719 18.761719 28.941406 Z M 27.546875 10.9375 C 25.808594 8.90625 23.414062 7.40625 20.804688 6.949219 C 18.015625 6.464844 15.269531 7.222656 12.871094 8.621094 C 8.820312 11.101562 7.136719 16.007812 8.113281 20.671875 C 9.078125 25.277344 12.4375 28.695312 17.085938 29.285156 C 21.496094 29.84375 26.375 28 28.613281 23.988281 C 30.796875 20.078125 30.546875 14.441406 27.546875 10.9375 " fill-opacity="1" fill-rule="nonzero"></path></g></g></g></g></g></g><g clip-path="url(#7df4258005)"><g clip-path="url(#eeb347e9fb)"><g clip-path="url(#7e6a211424)"><g clip-path="url(#a4fe40e2e4)"><path fill="#000000" d="M 19.363281 19.085938 C 18.867188 19.296875 18.25 19.164062 17.992188 18.640625 C 17.746094 18.132812 17.90625 17.539062 18.355469 17.230469 C 18.898438 16.960938 19.574219 17.039062 19.867188 17.664062 C 20.121094 18.195312 19.890625 18.859375 19.363281 19.085938 Z M 18.15625 16.835938 C 18.152344 16.839844 18.152344 16.839844 18.148438 16.84375 C 18.132812 16.847656 18.121094 16.855469 18.105469 16.867188 C 17.449219 17.304688 17.257812 18.191406 17.640625 18.898438 C 18.027344 19.625 18.9375 19.796875 19.628906 19.449219 C 20.339844 19.09375 20.589844 18.179688 20.246094 17.453125 C 19.859375 16.632812 18.890625 16.441406 18.15625 16.835938 " fill-opacity="1" fill-rule="nonzero"></path></g></g></g></g><g clip-path="url(#f6b8e8d30e)"><g clip-path="url(#370385c460)"><g clip-path="url(#0dbee8f33c)"><g clip-path="url(#f698218b20)"><g clip-path="url(#3e403f15b5)"><g clip-path="url(#4c22429c73)"><path fill="#000000" d="M 35.261719 2.71875 C 34.648438 3.324219 34.03125 3.921875 33.410156 4.519531 C 33.578125 3.722656 33.515625 2.855469 33.316406 2.082031 C 33.246094 1.808594 32.839844 1.964844 32.910156 2.238281 C 33.148438 3.15625 33.160156 4.25 32.757812 5.109375 C 32.75 5.125 32.746094 5.140625 32.742188 5.15625 C 32.460938 5.425781 32.179688 5.691406 31.894531 5.960938 C 32.097656 5.160156 32.128906 4.3125 31.992188 3.496094 C 31.945312 3.214844 31.511719 3.253906 31.558594 3.535156 C 31.726562 4.53125 31.640625 5.578125 31.253906 6.507812 C 31.246094 6.53125 31.242188 6.554688 31.238281 6.574219 C 30.855469 6.933594 30.46875 7.292969 30.082031 7.652344 C 30.335938 6.789062 30.453125 5.8125 30.292969 4.988281 C 30.238281 4.710938 29.804688 4.746094 29.859375 5.027344 C 30.0625 6.054688 29.792969 7.359375 29.378906 8.300781 C 25.878906 11.515625 22.320312 14.667969 18.851562 17.910156 C 18.648438 18.101562 18.90625 18.460938 19.113281 18.269531 C 22.53125 15.074219 26.035156 11.964844 29.484375 8.796875 C 29.53125 8.8125 29.582031 8.816406 29.636719 8.789062 C 30.5625 8.335938 31.847656 8.019531 32.886719 8.207031 C 33.160156 8.257812 33.230469 7.824219 32.953125 7.773438 C 32.128906 7.625 31.15625 7.761719 30.300781 8.042969 C 30.734375 7.640625 31.167969 7.242188 31.601562 6.835938 C 31.605469 6.835938 31.605469 6.835938 31.609375 6.835938 C 32.589844 6.667969 33.613281 6.804688 34.539062 7.195312 C 34.796875 7.308594 34.972656 6.90625 34.710938 6.796875 C 33.898438 6.453125 33.007812 6.285156 32.132812 6.335938 C 32.417969 6.070312 32.699219 5.800781 32.980469 5.53125 C 33.019531 5.542969 33.0625 5.550781 33.109375 5.535156 C 34.003906 5.234375 35.066406 5.390625 35.9375 5.738281 C 36.199219 5.839844 36.375 5.4375 36.113281 5.335938 C 35.324219 5.019531 34.417969 4.855469 33.566406 4.976562 C 34.25 4.320312 34.929688 3.664062 35.601562 3 C 35.800781 2.804688 35.457031 2.523438 35.261719 2.71875 " fill-opacity="1" fill-rule="nonzero"></path></g></g></g></g></g></g></svg>