<svg xmlns="http://www.w3.org/2000/svg" width="150" viewBox="0 0 112.5 112.5" height="150"><g style="stroke-width:.99974999;stroke-dasharray:none"><path fill="#141414" d="M112.203 78.09c-2.39-.297-4.918-.133-7.324-.106-2.04.024-4.055.575-6.059.895-2.66.426-5.332.754-8.011.988-1.801.16-3.712.657-5.716-.476-.667-.532-.913-.786-1.136-1.094a5.14 5.14 0 0 1-.941-2.594c-.102-1.254.312-2.48.265-3.734-.066-1.781-1.094-3.34-2.52-4.352-1.741-1.238-3.94-1.512-6.023-1.39-2.699.156-5.386.77-8.047 1.226-1.316.223-2.216.428-3.478.866-.191.066-.81.224-1.172.843 4.49-.025 9.06-.502 13.643-.697.898-.035 2.117-.367 2.816.285.883.82.863 2.172.527 3.258-.273.887-.91 1.582-1.12 2.5a4.536 4.536 0 0 0 .1 2.437c.927 2.746 3.97 3.36 7.075 2.627 1.656-.595 2.8-1.334 3.258-2.463.3-.75.344-1.683.265-2.48-.085-.914-.601-1.563-.91-2.395-.347-.941-.726-2.543.118-3.351.449-.426 1.12-.207 1.675-.164.621.05 1.239.101 1.86.16 2.55.246 5.093.582 7.625 1 .246.039.422-.137.379-.383a115.98 115.98 0 0 1 0-37.113c.043-.25-.133-.426-.38-.383-2.609.426-5.23.77-7.859 1.016-.613.054-1.226.109-1.84.156-.27.02-.664-.024-.921.098-.641.304-1.309 1.328-1.489 1.996-.226.847-.05 1.828.215 2.644.34 1.059.988 1.856.996 3.016.004 1.324-.36 2.285-1.457 3.058-.605.43-1.3.692-2.015.88-2.141.558-4.989.132-5.895-2.212-.406-1.058-.277-2.234.246-3.222.5-.942.926-1.766.957-2.86.035-1.187-.488-2.82-1.84-3.062-.82-.145-1.71-.106-2.539-.164-4.031-.282-8.07-.586-12.074-1.13a.33.33 0 0 0-.242.063.302.302 0 0 0-.293.215c-.617 1.895-.906 3.863-1.152 5.84-.258 2.105-.512 4.211-.766 6.316-.055.43-.125 1-.223 2.202.034 1.303.258 1.841.887 2.158 1.035.52 2.578-.746 3.488-1.102 1.715-.672 3.805-.8 5.418.223a4.425 4.425 0 0 1 1.621 1.82c.25.54.662 1.633.246 2.27-.418.64-1.424.642-2.186.691-.911.06-9.087-.418-11.263-.527-2.043-.106-4.09-.254-6.097-.664-1.961-.403-3.817-1.106-5.625-1.961-3.204-1.52-6.305-3.422-9.81-4.176-1.991-.43-4.03-.395-6.058-.344l-6.117.16c-1.742.047-3.504.243-5.25.114a9.213 9.213 0 0 1-2.406-.489c-.543-.187-2.152-.691-2.043-1.46.098-.711 1.187-1.223 1.77-1.43.765-.278 1.511-.426 2.335-.38 1.098.063 1.942.782 2.98 1.071.747.207 1.767.426 2.532.27.508-.106.926-.559 1.04-1.063.081-.379-.044-.86-.079-1.23a115.828 115.828 0 0 0-1.012-8.133 115.472 115.472 0 0 0 36.395.004c-.79 4.758-1.29 9.566-1.43 14.39-.023.907-.144 1.493.477 2.18.64.715 1.449.965 2.394.887 1-.082 1.903-.414 2.782-.887 1.085-.582 2.425-.5 3.554-.094.754.274 1.383.582 1.84 1.286.434.671.676 1.523.783 2.738.033 1.293-.123 2.258-.412 3.043-.363.984-1.012 1.52-1.96 1.867-.9.328-1.778.527-2.735.27-1.113-.293-1.945-1.09-3.121-1.266-.961-.14-2.035-.074-2.801.578-.344.293-.516.469-.508.899.016.648.106 1.304.164 1.949.262 2.906.61 5.804.989 8.695-3.415-.543-6.848-.95-10.293-1.187-.672-.047-1.582.062-2.215-.168-.867-.317-1.242-1.309-1.192-2.168.047-.836.305-1.66.696-2.395.316-.594.539-1.129.586-1.809.093-1.304-.122-2.625-1.133-3.527-.746-.664-1.621-1.086-2.575-1.36-2.335-.675-5.343-.3-6.62 2.06-.712 1.316-.633 2.937.07 4.23.476.879.867 1.652.87 2.68 0 .906-.26 2.218-1.378 2.289-4.426.277-8.844.656-13.227 1.355.903-5.672 1.457-11.445 1.453-17.191 0-2.008-2.41-2.305-3.953-1.918-1.308.328-2.246 1.328-3.668 1.293-.687-.02-1.308-.246-1.941-.485-1.758-.66-1.996-2.202-2.015-3.87-.078-.684-.236-.977-.377-1.051-2.504-.338-5.069-.708-7.628-.79a174.511 174.511 0 0 1-4.039-.175c-.843-.047-1.765-.024-2.597-.22" style="fill:none;stroke:#000;stroke-width:.99975;stroke-dasharray:none;stroke-opacity:1;stroke-linejoin:round"></path></g><path fill="#fff96f" d="M29.246 30.21h3.305c.55 0 1.148 0 1.699-.05.55-.05 1.148-.05 1.7-.101.687-.051 1.421-.102 2.109-.157l2.066-.152 2.02-.152h.32l1.285-.102c1.375-.101 2.754-.258 4.176-.308 1.422-.051 2.754-.102 4.086-.102h29.324c1.379 0 2.754 0 4.133-.05 1.558-.052 3.117-.102 4.726-.259.825-.05 1.606-.152 2.43-.203l1.102-.101c.324 0 .687-.051 1.011-.051" style="fill:none;stroke:#fff96f;stroke-width:.99975;stroke-dasharray:none;stroke-opacity:1;stroke-linejoin:round;stroke-linecap:round"></path></svg>