<svg xmlns="http://www.w3.org/2000/svg" xmlns:xlink="http://www.w3.org/1999/xlink" width="50" zoomAndPan="magnify" viewBox="0 0 37.5 37.499999" height="50" preserveAspectRatio="xMidYMid meet" version="1.0"><defs><clipPath id="ba0284a9e0"><path d="M 5.242188 5.046875 L 31 5.046875 L 31 31.691406 L 5.242188 31.691406 Z M 5.242188 5.046875 " clip-rule="nonzero"/></clipPath><clipPath id="1d7778ce07"><path d="M 5 4.890625 L 32.277344 4.890625 L 32.277344 32 L 5 32 Z M 5 4.890625 " clip-rule="nonzero"/></clipPath></defs><g clip-path="url(#ba0284a9e0)"><path fill="#fff96f" d="M 18.585938 5.066406 C 19.847656 5.058594 23.210938 5.082031 26.238281 7.457031 C 28.542969 9.265625 29.46875 11.503906 29.875 12.527344 C 31.761719 17.265625 30.265625 21.613281 29.777344 22.953125 C 29.207031 24.539062 28.351562 26.902344 26.046875 28.789062 C 22.191406 31.949219 16.597656 31.859375 12.65625 29.9375 C 12.011719 29.625 9.503906 28.332031 7.585938 25.441406 C 7.234375 24.914062 5.496094 22.210938 5.386719 18.265625 C 5.347656 16.941406 5.242188 13.230469 7.777344 10.039062 C 9.390625 8.011719 11.351562 7.105469 12.65625 6.5 C 13.714844 6.007812 15.773438 5.085938 18.585938 5.066406 Z M 18.585938 5.066406 " fill-opacity="1" fill-rule="nonzero"/></g><g clip-path="url(#1d7778ce07)"><path fill="#040606" d="M 27.226562 5.566406 L 25.121094 7.671875 C 24.644531 8.148438 24.644531 8.921875 25.121094 9.398438 L 27.769531 12.046875 C 28.246094 12.523438 29.019531 12.523438 29.496094 12.046875 L 31.601562 9.941406 C 31.542969 12.300781 29.585938 14.167969 27.226562 14.109375 C 26.871094 14.101562 26.519531 14.046875 26.175781 13.953125 C 25.539062 13.773438 24.855469 13.953125 24.386719 14.417969 L 13.386719 25.417969 C 12.957031 25.851562 12.769531 26.46875 12.886719 27.066406 C 13.265625 28.988281 12.015625 30.847656 10.101562 31.230469 C 8.179688 31.605469 6.320312 30.359375 5.941406 28.441406 C 5.558594 26.523438 6.808594 24.660156 8.726562 24.28125 C 9.179688 24.191406 9.644531 24.191406 10.101562 24.28125 C 10.699219 24.398438 11.316406 24.210938 11.75 23.777344 L 22.746094 12.78125 C 23.214844 12.3125 23.394531 11.628906 23.21875 10.992188 C 22.578125 8.71875 23.902344 6.359375 26.175781 5.722656 C 26.519531 5.628906 26.871094 5.574219 27.226562 5.566406 Z M 27.484375 4.953125 C 24.789062 4.867188 22.53125 6.984375 22.445312 9.679688 C 22.433594 10.179688 22.492188 10.675781 22.625 11.15625 C 22.746094 11.582031 22.625 12.035156 22.316406 12.347656 L 11.316406 23.347656 C 11.027344 23.632812 10.617188 23.761719 10.21875 23.679688 C 7.96875 23.234375 5.78125 24.699219 5.339844 26.949219 C 4.894531 29.199219 6.355469 31.382812 8.605469 31.828125 C 10.859375 32.273438 13.042969 30.808594 13.488281 28.5625 C 13.589844 28.03125 13.589844 27.480469 13.488281 26.949219 C 13.40625 26.550781 13.535156 26.140625 13.820312 25.851562 L 24.820312 14.851562 C 25.132812 14.542969 25.585938 14.421875 26.007812 14.542969 C 28.609375 15.273438 31.304688 13.753906 32.03125 11.15625 C 32.210938 10.519531 32.261719 9.851562 32.175781 9.191406 C 32.148438 9.027344 31.996094 8.910156 31.832031 8.933594 C 31.765625 8.941406 31.703125 8.972656 31.65625 9.019531 L 29.0625 11.613281 C 28.828125 11.847656 28.441406 11.847656 28.203125 11.613281 L 25.554688 8.964844 C 25.316406 8.726562 25.316406 8.339844 25.554688 8.105469 L 28.148438 5.511719 C 28.265625 5.394531 28.265625 5.199219 28.148438 5.082031 C 28.101562 5.035156 28.039062 5.003906 27.972656 4.996094 C 27.8125 4.972656 27.648438 4.960938 27.484375 4.953125 " fill-opacity="1" fill-rule="nonzero"/></g><path fill="#040606" d="M 9.851562 25.804688 L 11.320312 27.160156 L 10.882812 29.109375 L 8.976562 29.703125 L 7.507812 28.351562 L 7.945312 26.398438 Z M 10.007812 25.113281 L 7.425781 25.921875 L 6.832031 28.5625 L 8.820312 30.394531 L 11.402344 29.585938 L 11.996094 26.949219 L 10.007812 25.113281 " fill-opacity="1" fill-rule="nonzero"/></svg>