<svg xmlns="http://www.w3.org/2000/svg" xmlns:xlink="http://www.w3.org/1999/xlink" width="50" viewBox="0 0 37.5 37.499999" height="50" preserveAspectRatio="xMidYMid meet"><defs><g></g><clipPath id="f16dd03b83"><path d="M 5.3125 5.113281 L 32 5.113281 L 32 32 L 5.3125 32 Z M 5.3125 5.113281 " clip-rule="nonzero"></path></clipPath></defs><g clip-path="url(#f16dd03b83)"><path fill="#fff96f" d="M 18.898438 5.132812 C 20.183594 5.125 23.609375 5.148438 26.691406 7.53125 C 29.035156 9.34375 29.976562 11.59375 30.394531 12.621094 C 32.316406 17.375 30.789062 21.734375 30.296875 23.082031 C 29.710938 24.667969 28.839844 27.042969 26.496094 28.9375 C 22.570312 32.105469 16.875 32.015625 12.859375 30.085938 C 12.207031 29.773438 9.648438 28.476562 7.699219 25.578125 C 7.339844 25.046875 5.570312 22.335938 5.457031 18.378906 C 5.417969 17.046875 5.3125 13.324219 7.894531 10.125 C 9.535156 8.085938 11.53125 7.179688 12.859375 6.574219 C 13.941406 6.082031 16.035156 5.152344 18.898438 5.132812 Z M 18.898438 5.132812 " fill-opacity="1" fill-rule="nonzero"></path></g><g fill="#000000" fill-opacity="1"><g transform="translate(0.0000005, 16.936545)"><g><path d="M 3.894531 0.128906 C 5.496094 0.128906 7.070312 -1.328125 7.070312 -2.824219 C 7.070312 -3.984375 5.898438 -5.546875 4.425781 -6.082031 C 3.152344 -6.550781 2.136719 -7.589844 2.136719 -8.292969 C 2.136719 -9.324219 2.851562 -10.339844 3.59375 -10.339844 C 4.035156 -10.339844 4.570312 -10.117188 5.039062 -9.792969 C 5.183594 -9.648438 5.769531 -8.996094 6.328125 -8.359375 L 6.417969 -8.253906 L 6.589844 -8.253906 L 6.589844 -9.675781 L 6.523438 -9.675781 L 6.511719 -9.53125 C 6.496094 -9.386719 6.238281 -9.425781 5.964844 -9.609375 C 5.324219 -10.105469 4.375 -10.480469 3.59375 -10.480469 C 2.160156 -10.480469 0.769531 -9.074219 0.769531 -7.628906 C 0.769531 -6.40625 1.925781 -4.792969 3.371094 -4.269531 C 4.648438 -3.800781 5.664062 -2.890625 5.664062 -2.332031 C 5.664062 -1.183594 4.792969 -0.0507812 3.894531 -0.0507812 C 3.398438 -0.0507812 2.734375 -0.417969 2.160156 -0.9375 C 2.5 -0.636719 1.875 -1.433594 0.886719 -2.566406 L 0.792969 -2.667969 L 0.613281 -2.644531 L 0.613281 -0.742188 L 0.675781 -0.742188 L 0.691406 -1.003906 C 0.703125 -1.289062 1.066406 -1.261719 1.433594 -0.976562 C 2.148438 -0.339844 3.125 0.128906 3.894531 0.128906 Z M 3.894531 0.128906 "></path></g></g></g><g fill="#000000" fill-opacity="1"><g transform="translate(7.577385, 16.936545)"><g><path d="M 1.121094 0 L 7.589844 0 L 7.605469 -0.0507812 C 7.617188 -0.0507812 7.773438 -1.027344 7.785156 -1.09375 L 7.667969 -1.09375 L 7.605469 -0.9375 C 7.433594 -0.519531 6.613281 -0.117188 5.925781 -0.117188 L 3.320312 -0.117188 C 2.980469 -0.117188 2.878906 -0.273438 2.878906 -0.441406 L 2.878906 -5.3125 L 5.117188 -5.3125 C 5.636719 -5.3125 6.238281 -4.84375 6.328125 -4.375 L 6.367188 -4.207031 L 6.484375 -4.207031 L 6.484375 -6.535156 L 6.367188 -6.535156 L 6.328125 -6.367188 C 6.238281 -5.898438 5.636719 -5.429688 5.117188 -5.429688 L 2.878906 -5.429688 L 2.878906 -10.222656 L 5.910156 -10.222656 C 6.433594 -10.222656 7.082031 -9.753906 7.226562 -9.285156 L 7.292969 -9.113281 L 7.410156 -9.113281 L 7.265625 -10.285156 L 7.277344 -10.285156 L 7.265625 -10.339844 L 1.121094 -10.339844 Z M 1.121094 0 "></path></g></g></g><g fill="#000000" fill-opacity="1"><g transform="translate(15.779709, 16.936545)"><g><path d="M 5.714844 0.128906 C 8.527344 0.128906 11.289062 -2.488281 11.289062 -5.167969 C 11.289062 -7.851562 8.59375 -10.46875 5.847656 -10.46875 C 3.152344 -10.46875 0.519531 -7.851562 0.519531 -5.167969 C 0.519531 -2.488281 3.097656 0.128906 5.714844 0.128906 Z M 5.742188 0 C 4.074219 0 2.433594 -2.566406 2.433594 -5.167969 C 2.433594 -7.773438 4.113281 -10.339844 5.820312 -10.339844 C 7.617188 -10.339844 9.375 -7.773438 9.375 -5.167969 C 9.375 -2.566406 7.578125 0 5.742188 0 Z M 5.742188 0 "></path></g></g></g></svg>