<svg xmlns="http://www.w3.org/2000/svg" width="300" viewBox="0 0 224.88 225" height="300" version="1.0"><defs><clipPath id="a"><path d="M32 30.723h156V191H32zm0 0"/></clipPath></defs><g clip-path="url(#a)"><path fill="#fff96f" d="M112.957 30.836c7.676-.055 28.117.105 46.512 14.523 14 10.973 19.617 24.578 22.094 30.79 11.476 28.785 2.37 55.171-.583 63.324-3.48 9.613-8.68 23.98-22.675 35.437-23.434 19.184-57.422 18.649-81.395 6.969-3.906-1.899-19.164-9.758-30.812-27.305-2.137-3.21-12.696-19.617-13.375-43.57-.227-8.043-.871-30.59 14.535-49.961 9.808-12.324 21.715-17.828 29.652-21.492 6.45-2.98 18.953-8.598 36.047-8.715zm0 0"/></g><path d="M23.344 102.406c9.605 0 19.054-8.746 19.054-17.722 0-6.95-7.027-16.32-15.851-19.52-7.652-2.812-13.742-9.058-13.742-13.273 0-6.168 4.293-12.262 8.746-12.262 2.652 0 5.855 1.328 8.664 3.281.86.86 4.375 4.762 7.73 8.59l.547.625h1.016v-8.512h-.39l-.079.86c-.078.86-1.64.625-3.277-.469-3.828-2.969-9.528-5.23-14.211-5.23-8.59 0-16.946 8.43-16.946 17.097 0 7.34 6.95 17.02 15.618 20.145 7.652 2.808 13.742 8.277 13.742 11.633 0 6.87-5.23 13.664-10.621 13.664-2.965 0-6.95-2.188-10.383-5.309 2.031 1.797-1.719-2.969-7.652-9.762l-.547-.625-1.094.157v11.402h.39l.079-1.563c.078-1.718 2.265-1.562 4.453.157 4.293 3.824 10.148 6.636 14.754 6.636zM52.155 101.625H90.96l.078-.312c.078 0 1.015-5.856 1.093-6.247h-.703l-.39.938c-1.016 2.496-5.934 4.918-10.07 4.918H65.35c-2.031 0-2.656-.938-2.656-1.953v-29.2h13.43c3.125 0 6.714 2.81 7.261 5.622l.235 1.015h.703V62.43h-.703l-.235 1.015c-.547 2.809-4.136 5.621-7.261 5.621h-13.43V40.332h18.195c3.121 0 7.028 2.813 7.883 5.621l.39 1.016h.704l-.86-7.028h.079l-.079-.312H52.155zM128.905 102.406c16.863 0 33.418-15.695 33.418-31.777 0-16.086-16.164-31.777-32.637-31.777-16.164 0-31.933 15.691-31.933 31.777 0 16.082 15.457 31.777 31.152 31.777zm.156-.78c-9.996 0-19.832-15.384-19.832-30.997 0-15.617 10.07-31 20.301-31 10.774 0 21.313 15.383 21.313 31 0 15.613-10.774 30.996-21.782 30.996zm0 0"/></svg>