<svg xmlns="http://www.w3.org/2000/svg" xmlns:xlink="http://www.w3.org/1999/xlink" width="50" viewBox="0 0 37.5 37.499999" height="50" preserveAspectRatio="xMidYMid meet"><defs><g></g><clipPath id="5101f8fff4"><path d="M 5.3125 5.113281 L 32 5.113281 L 32 32 L 5.3125 32 Z M 5.3125 5.113281 " clip-rule="nonzero"></path></clipPath></defs><g clip-path="url(#5101f8fff4)"><path fill="#fff96f" d="M 18.898438 5.132812 C 20.183594 5.125 23.609375 5.148438 26.691406 7.53125 C 29.035156 9.34375 29.976562 11.59375 30.394531 12.621094 C 32.316406 17.375 30.789062 21.734375 30.296875 23.082031 C 29.710938 24.667969 28.839844 27.042969 26.496094 28.9375 C 22.570312 32.105469 16.875 32.015625 12.859375 30.085938 C 12.207031 29.773438 9.648438 28.476562 7.699219 25.578125 C 7.339844 25.046875 5.570312 22.335938 5.457031 18.378906 C 5.417969 17.046875 5.3125 13.324219 7.894531 10.125 C 9.535156 8.085938 11.53125 7.179688 12.859375 6.574219 C 13.941406 6.082031 16.035156 5.152344 18.898438 5.132812 Z M 18.898438 5.132812 " fill-opacity="1" fill-rule="nonzero"></path></g><g fill="#000000" fill-opacity="1"><g transform="translate(0.538331, 17.062483)"><g><path d="M 3.894531 0.128906 C 5.496094 0.128906 7.070312 -1.328125 7.070312 -2.824219 C 7.070312 -3.984375 5.898438 -5.546875 4.425781 -6.082031 C 3.152344 -6.550781 2.136719 -7.589844 2.136719 -8.292969 C 2.136719 -9.324219 2.851562 -10.339844 3.59375 -10.339844 C 4.035156 -10.339844 4.570312 -10.117188 5.039062 -9.792969 C 5.183594 -9.648438 5.769531 -8.996094 6.328125 -8.359375 L 6.417969 -8.253906 L 6.589844 -8.253906 L 6.589844 -9.675781 L 6.523438 -9.675781 L 6.511719 -9.53125 C 6.496094 -9.386719 6.238281 -9.425781 5.964844 -9.609375 C 5.324219 -10.105469 4.375 -10.480469 3.59375 -10.480469 C 2.160156 -10.480469 0.769531 -9.074219 0.769531 -7.628906 C 0.769531 -6.40625 1.925781 -4.792969 3.371094 -4.269531 C 4.648438 -3.800781 5.664062 -2.890625 5.664062 -2.332031 C 5.664062 -1.183594 4.792969 -0.0507812 3.894531 -0.0507812 C 3.398438 -0.0507812 2.734375 -0.417969 2.160156 -0.9375 C 2.5 -0.636719 1.875 -1.433594 0.886719 -2.566406 L 0.792969 -2.667969 L 0.613281 -2.644531 L 0.613281 -0.742188 L 0.675781 -0.742188 L 0.691406 -1.003906 C 0.703125 -1.289062 1.066406 -1.261719 1.433594 -0.976562 C 2.148438 -0.339844 3.125 0.128906 3.894531 0.128906 Z M 3.894531 0.128906 "></path></g></g></g><g fill="#000000" fill-opacity="1"><g transform="translate(8.942377, 17.062483)"><g><path d="M 5.714844 0.128906 C 8.527344 0.128906 11.289062 -2.488281 11.289062 -5.167969 C 11.289062 -7.851562 8.59375 -10.46875 5.847656 -10.46875 C 3.152344 -10.46875 0.519531 -7.851562 0.519531 -5.167969 C 0.519531 -2.488281 3.097656 0.128906 5.714844 0.128906 Z M 5.742188 0 C 4.074219 0 2.433594 -2.566406 2.433594 -5.167969 C 2.433594 -7.773438 4.113281 -10.339844 5.820312 -10.339844 C 7.617188 -10.339844 9.375 -7.773438 9.375 -5.167969 C 9.375 -2.566406 7.578125 0 5.742188 0 Z M 5.742188 0 "></path></g></g></g><g fill="#000000" fill-opacity="1"><g transform="translate(21.773073, 17.062483)"><g><path d="M 5.820312 0.105469 C 7.175781 0.105469 8.386719 -0.351562 9.191406 -0.949219 C 9.519531 -1.144531 9.816406 -1.160156 9.84375 -0.949219 L 9.855469 -0.769531 L 9.910156 -0.742188 L 9.910156 -2.371094 L 9.738281 -2.371094 C 9.714844 -2.34375 9.6875 -2.292969 9.660156 -2.265625 C 9.324219 -1.835938 8.761719 -1.238281 8.449219 -0.988281 C 7.707031 -0.429688 6.769531 -0.0117188 5.847656 -0.0117188 C 4.128906 -0.0117188 2.449219 -2.578125 2.449219 -5.183594 C 2.449219 -7.785156 4.207031 -10.351562 6.003906 -10.351562 C 6.796875 -10.351562 7.605469 -9.972656 8.308594 -9.453125 C 8.699219 -9.152344 9.375 -8.464844 9.660156 -8.058594 C 9.675781 -8.035156 9.726562 -7.980469 9.738281 -7.957031 L 9.910156 -7.957031 L 9.910156 -9.582031 L 9.84375 -9.582031 L 9.832031 -9.402344 C 9.804688 -9.207031 9.492188 -9.230469 9.167969 -9.425781 C 8.386719 -10.027344 7.292969 -10.492188 5.976562 -10.492188 C 3.230469 -10.492188 0.535156 -7.878906 0.535156 -5.195312 C 0.535156 -2.511719 3.152344 0.105469 5.820312 0.105469 Z M 5.820312 0.105469 "></path></g></g></g><g fill="#000000" fill-opacity="1"><g transform="translate(33.041423, 17.062483)"><g><path d="M 0.9375 0 L 2.695312 0 L 2.695312 -10.339844 L 0.9375 -10.339844 Z M 0.9375 0 "></path></g></g></g><g fill="#000000" fill-opacity="1"><g transform="translate(9.88794, 29.437482)"><g><path d="M -0.390625 0 L 1.980469 0 L 1.980469 -0.0390625 L 1.808594 -0.0390625 C 1.339844 -0.0390625 1.066406 -0.691406 1.261719 -1.339844 L 2.03125 -3.996094 L 5.402344 -3.996094 L 6.300781 -1.222656 C 6.445312 -0.597656 6.199219 -0.0390625 5.753906 -0.0390625 L 5.585938 -0.0390625 L 5.574219 0 L 9.101562 0 L 9.101562 -0.0390625 L 9.011719 -0.0390625 C 8.761719 -0.0390625 8.308594 -0.691406 8.085938 -1.339844 L 5 -10.597656 L 4.816406 -10.597656 C 4.871094 -10.285156 4.230469 -9.882812 3.515625 -9.777344 L 3.554688 -9.648438 C 2.734375 -6.875 1.925781 -4.101562 1.09375 -1.339844 C 0.898438 -0.675781 0.246094 -0.0390625 -0.222656 -0.0390625 L -0.390625 -0.0390625 Z M 2.070312 -4.140625 L 3.621094 -9.480469 L 5.351562 -4.140625 Z M 2.070312 -4.140625 "></path></g></g></g><g fill="#000000" fill-opacity="1"><g transform="translate(19.815274, 29.437482)"><g><path d="M 0.9375 0 L 7.488281 0 L 7.5 -0.15625 L 7.488281 -0.15625 L 7.695312 -1.277344 L 7.578125 -1.277344 L 7.511719 -1.121094 C 7.34375 -0.703125 6.523438 -0.300781 5.832031 -0.300781 L 3.136719 -0.300781 C 2.800781 -0.300781 2.695312 -0.363281 2.695312 -0.441406 L 2.695312 -10.339844 L 0.9375 -10.339844 Z M 0.9375 0 "></path></g></g></g></svg>