<svg xmlns="http://www.w3.org/2000/svg" xmlns:xlink="http://www.w3.org/1999/xlink" width="50" zoomAndPan="magnify" viewBox="0 0 37.5 37.499999" height="50" preserveAspectRatio="xMidYMid meet" version="1.0"><defs><g/><clipPath id="1d71868650"><path d="M 0.46875 0 L 37 0 L 37 37.007812 L 0.46875 37.007812 Z M 0.46875 0 " clip-rule="nonzero"/></clipPath></defs><g clip-path="url(#1d71868650)"><path fill="#fff96f" d="M 19.339844 0.03125 C 21.125 0.0195312 25.882812 0.0546875 30.164062 3.429688 C 33.421875 5.996094 34.726562 9.179688 35.304688 10.632812 C 37.972656 17.371094 35.855469 23.546875 35.167969 25.453125 C 34.359375 27.703125 33.148438 31.066406 29.890625 33.746094 C 24.4375 38.238281 16.53125 38.113281 10.953125 35.378906 C 10.042969 34.933594 6.492188 33.09375 3.78125 28.988281 C 3.285156 28.238281 0.828125 24.398438 0.671875 18.792969 C 0.617188 16.910156 0.46875 11.632812 4.054688 7.097656 C 6.335938 4.214844 9.105469 2.925781 10.953125 2.070312 C 12.453125 1.371094 15.363281 0.0585938 19.339844 0.03125 Z M 19.339844 0.03125 " fill-opacity="1" fill-rule="nonzero"/></g><g fill="#000000" fill-opacity="1"><g transform="translate(16.050181, 31.376565)"><g><path d="M 2.117188 0.550781 C 2.398438 1.296875 2.679688 1.835938 3.011719 2.300781 C 3.230469 2.609375 3.511719 2.949219 3.929688 3.160156 C 4.136719 3.257812 4.359375 3.316406 4.589844 3.316406 C 4.785156 3.316406 4.96875 3.269531 5.152344 3.195312 C 5.59375 3 5.925781 2.59375 6.074219 2.082031 C 6.109375 1.984375 6.058594 1.824219 5.949219 1.761719 L 5.9375 1.761719 C 5.886719 1.738281 5.816406 1.703125 5.730469 1.703125 C 5.691406 1.703125 5.65625 1.714844 5.621094 1.726562 C 5.519531 1.773438 5.449219 1.835938 5.363281 1.898438 L 5.351562 1.898438 C 5.324219 1.921875 5.300781 1.933594 5.277344 1.957031 C 5.03125 2.117188 4.835938 2.242188 4.628906 2.242188 C 4.320312 2.242188 4.078125 1.984375 3.796875 1.605469 C 3.613281 1.359375 3.476562 1.113281 3.355469 0.855469 C 3.160156 0.378906 2.914062 -0.171875 2.730469 -0.746094 C 2.324219 -1.972656 2.03125 -3.34375 1.8125 -5.070312 C 1.503906 -7.332031 1.371094 -9.746094 1.394531 -12.449219 C 1.433594 -16.808594 2.082031 -25.734375 3.046875 -30.347656 C 3.074219 -30.445312 3.144531 -30.460938 3.304688 -30.472656 C 3.488281 -30.496094 3.855469 -30.53125 3.980469 -30.570312 L 4.003906 -30.570312 C 4.101562 -30.605469 4.1875 -30.691406 4.234375 -30.816406 C 4.285156 -30.9375 4.296875 -31.058594 4.261719 -31.15625 C 4.234375 -31.253906 4.164062 -31.339844 4.066406 -31.390625 C 4.015625 -31.414062 3.953125 -31.425781 3.894531 -31.425781 C 3.84375 -31.425781 3.808594 -31.425781 3.769531 -31.414062 L 3.757812 -31.402344 C 3.710938 -31.390625 3.660156 -31.378906 3.597656 -31.351562 C 3.5 -31.316406 3.390625 -31.265625 3.292969 -31.253906 C 3.207031 -31.230469 3.132812 -31.207031 3.046875 -31.195312 C 2.976562 -31.167969 2.878906 -31.144531 2.792969 -31.132812 L 1.789062 -30.949219 C 1.40625 -30.886719 1.433594 -30.691406 1.445312 -30.632812 C 1.457031 -30.53125 1.492188 -30.460938 1.566406 -30.410156 C 1.628906 -30.386719 1.675781 -30.375 1.75 -30.375 C 1.761719 -30.375 1.789062 -30.375 1.800781 -30.375 L 2.082031 -30.375 L 2.300781 -30.386719 L 2.214844 -30.179688 C 2.117188 -29.894531 2.042969 -29.601562 1.996094 -29.359375 C 1.859375 -28.734375 1.25 -25.074219 0.84375 -20.519531 C 0.464844 -16.246094 0.171875 -10.003906 0.871094 -4.503906 C 1.113281 -2.59375 1.519531 -0.980469 2.117188 0.550781 Z M 2.117188 0.550781 "/></g></g></g></svg>