<svg xmlns="http://www.w3.org/2000/svg" xmlns:xlink="http://www.w3.org/1999/xlink" width="50" viewBox="0 0 37.5 37.499999" height="50" preserveAspectRatio="xMidYMid meet"><defs><clipPath id="f80f75ec5a"><path d="M 5.3125 5.113281 L 32 5.113281 L 32 32 L 5.3125 32 Z M 5.3125 5.113281 " clip-rule="nonzero"></path></clipPath><clipPath id="f83e51fd99"><path d="M 5 5 L 32.707031 5 L 32.707031 32.707031 L 5 32.707031 Z M 5 5 " clip-rule="nonzero"></path></clipPath></defs><g clip-path="url(#f80f75ec5a)"><path fill="#b495ed" d="M 18.898438 5.132812 C 20.183594 5.125 23.609375 5.148438 26.691406 7.53125 C 29.035156 9.34375 29.976562 11.59375 30.394531 12.621094 C 32.316406 17.375 30.789062 21.734375 30.296875 23.082031 C 29.710938 24.667969 28.839844 27.042969 26.496094 28.9375 C 22.570312 32.105469 16.875 32.015625 12.859375 30.085938 C 12.207031 29.773438 9.648438 28.476562 7.699219 25.578125 C 7.339844 25.046875 5.570312 22.335938 5.457031 18.378906 C 5.417969 17.046875 5.3125 13.324219 7.894531 10.125 C 9.535156 8.085938 11.53125 7.179688 12.859375 6.574219 C 13.941406 6.082031 16.035156 5.152344 18.898438 5.132812 Z M 18.898438 5.132812 " fill-opacity="1" fill-rule="nonzero"></path></g><g clip-path="url(#f83e51fd99)"><path fill="#040606" d="M 27.589844 5.640625 L 25.457031 7.773438 C 24.972656 8.257812 24.972656 9.039062 25.457031 9.523438 L 28.140625 12.207031 C 28.621094 12.6875 29.40625 12.6875 29.890625 12.207031 L 32.023438 10.074219 C 31.964844 12.464844 29.980469 14.355469 27.589844 14.296875 C 27.230469 14.289062 26.871094 14.234375 26.523438 14.140625 C 25.878906 13.957031 25.183594 14.140625 24.710938 14.613281 L 13.566406 25.757812 C 13.128906 26.195312 12.9375 26.820312 13.058594 27.429688 C 13.441406 29.375 12.175781 31.261719 10.234375 31.644531 C 8.289062 32.027344 6.402344 30.765625 6.019531 28.820312 C 5.632812 26.875 6.898438 24.988281 8.84375 24.605469 C 9.300781 24.511719 9.773438 24.511719 10.234375 24.605469 C 10.839844 24.722656 11.464844 24.535156 11.90625 24.097656 L 23.050781 12.949219 C 23.523438 12.476562 23.707031 11.785156 23.527344 11.140625 C 22.878906 8.835938 24.222656 6.445312 26.523438 5.800781 C 26.871094 5.703125 27.230469 5.648438 27.589844 5.640625 Z M 27.851562 5.019531 C 25.121094 4.933594 22.832031 7.078125 22.746094 9.808594 C 22.730469 10.316406 22.792969 10.820312 22.925781 11.308594 C 23.046875 11.734375 22.925781 12.195312 22.613281 12.511719 L 11.464844 23.65625 C 11.175781 23.949219 10.757812 24.078125 10.355469 23.996094 C 8.074219 23.546875 5.859375 25.027344 5.410156 27.308594 C 4.957031 29.589844 6.441406 31.804688 8.722656 32.253906 C 11.003906 32.707031 13.21875 31.222656 13.667969 28.941406 C 13.773438 28.402344 13.773438 27.847656 13.667969 27.308594 C 13.585938 26.90625 13.714844 26.488281 14.003906 26.195312 L 25.152344 15.050781 C 25.464844 14.734375 25.925781 14.613281 26.355469 14.734375 C 28.988281 15.476562 31.722656 13.9375 32.460938 11.308594 C 32.640625 10.660156 32.691406 9.984375 32.601562 9.316406 C 32.578125 9.148438 32.421875 9.03125 32.257812 9.050781 C 32.1875 9.0625 32.125 9.09375 32.078125 9.140625 L 29.449219 11.765625 C 29.210938 12.007812 28.820312 12.007812 28.578125 11.765625 L 25.894531 9.085938 C 25.65625 8.84375 25.65625 8.453125 25.894531 8.210938 L 28.523438 5.585938 C 28.644531 5.464844 28.644531 5.269531 28.523438 5.148438 C 28.476562 5.101562 28.414062 5.070312 28.34375 5.0625 C 28.183594 5.039062 28.015625 5.027344 27.851562 5.019531 " fill-opacity="1" fill-rule="nonzero"></path></g><path fill="#040606" d="M 9.984375 26.148438 L 11.472656 27.523438 L 11.027344 29.496094 L 9.09375 30.101562 L 7.605469 28.726562 L 8.050781 26.75 Z M 10.140625 25.449219 L 7.523438 26.265625 L 6.921875 28.941406 L 8.9375 30.800781 L 11.554688 29.980469 L 12.15625 27.308594 L 10.140625 25.449219 " fill-opacity="1" fill-rule="nonzero"></path></svg>