<svg xmlns="http://www.w3.org/2000/svg" width="150" viewBox="0 0 112.5 112.5" height="150"><g style="display:inline"><path style="display:inline;fill:none;fill-opacity:1;stroke:#000;stroke-width:.99975;stroke-linecap:round;stroke-linejoin:round;stroke-dasharray:none;stroke-opacity:1" d="M81.574 46.879c.024 0 .051.004.074.004h-.003c-2.06.781-3.418 1.203-4.075 1.265 1.914-.843 3.25-1.27 4.004-1.27zm20.262 64.778c-1.469.11-2.867.164-4.195.164-5.813 0-10.25-1.043-13.313-3.125-.992-.746-1.676-1.508-2.128-2.494-.257-.78-.302-1.468-.141-2.061h-.004c.945-2.04 2.289-3.059 4.031-3.059h0c.133 0 .27.008.406.02h-.004c.489.375.813.746.969 1.105.457 1.043-.55 2.105-3.027 3.188h-.004c-.809.261-1.677.446-2.823.533-2.173.018-3.79-.54-5.244-1.658-1.964-1.625-3.011-3.766-3.194-6.731-.058-.75.062-1.11.192-1.685a6.96 6.96 0 0 1 .64-1.666c.702-1.325 1.585-1.985 2.644-1.985h0c.496 0 1.281.405 1.365.804.144.558-.76 3.434-3.986 4.24h-.004a8.5 8.5 0 0 1-1.115.087c-2.685-.001-5.236-.904-7.943-2.697-4.535-3.121-6.583-8.461-6.282-16.02.898-10.469 4.484-18.648 10.758-24.543a.277.277 0 0 0 .082-.187.263.263 0 0 0-.078-.188c-.766-.77-1.32-1.539-1.764-2.558-.483-1.418-.393-2.594.178-3.778l.003-.008c.016-.03.028-.058.047-.078.059-.062.145-.093.254-.093h0c.457 0 1.36.554 2.875 1.806.754.638 1.485 1.283 1.951 1.785.467.502.643.807.952 1.493.414 1.209.25 1.752-.332 2.029a3.27 3.27 0 0 1-.125-.555c-.086-.617.043-1.049.676-1.46.349-.156.613-.231.788-.262h.004l4.547 4.554c.23.239.477.36.738.36.157 0 .317-.043.481-.125a.252.252 0 0 0 .125-.137c1.508-3.73 2.168-6.883 1.977-9.461l-.004-.035c-.016-.059-.032-.117-.055-.172h-.004c1.445-.555 3.152-1.25 5.125-2.086l.004-.004a31.137 31.137 0 0 0 7.422-4.793c2.535-1.926 5.761-6.031 9.68-12.324 1.269-1.89 1.84-3.188 1.714-3.887-.086-.476-.41-.715-.972-.715h0a2.6 2.6 0 0 0-.465.047h-.004c-1.63.043-5.89.356-12.79.946h-.003c-1.113.109-1.785.351-2.016.73h-.004c-.785.996 2.75 5.78 3.344 7.035.152.322.325.652.358 1.007.028.3.017.548-.14.892H94c-1.84 1.183-3.414 1.777-4.727 1.777-1.296 0-2.34-.578-2.687-1.256-.348-.678-.25-.873-.145-1.053.77-1.324 1.88-1.984 3.329-1.984h0c1.222 0 2.635.454 4.582 1.542.411.333.656.63.777.813 1.113 1.688.305 3.43-2.426 5.23h-.004a6.137 6.137 0 0 1-2.066.368c-2.586 0-5.13-1.738-7.63-5.215H83a20.28 20.28 0 0 1-.188-.488c-.542-1.445-.836-2.767-.88-4.167.143-2.028 1.142-3.192 2.818-3.837h.004c.246.023.426.074.543.152.207.133.172.422-.11.864h-.003a170.63 170.63 0 0 0-3.398 2.68c-3.072 2.507-5.06 4.355-5.861 5.505-.903 1.123-1.757 2.092-2.583 3.18-1.6 2.126-2.205 3.217-2.092 3.658a.443.443 0 0 0 .316.328c.051.016.106.02.168.02.149 0 .328-.04.543-.125a.217.217 0 0 0 .067-.035c1.836-1.434 2.68-2.508 2.531-3.23-.203-.467-.503-.602-1.056-.782a7.845 7.845 0 0 0-1.538-.152c-1.64 0-4.054.324-7.246.98a.268.268 0 0 0-.172.125.26.26 0 0 0-.023.215c.984 2.93 2.742 4.98 5.277 6.16h-.004c.18.2.446.297.793.297 1.149 0 3.203-1.07 6.164-3.211h-.004.032c.097 0 .187.004.273.008.813.05 1.2.36 1.164.922-.004.035 0 .07.012.101h-.004c-.098.383-1.355 1.453-3.773 3.215a145.608 145.608 0 0 0-3.645 2.25c-1.356.868-2.45 1.552-3.77 2.393-5.94 3.794-8.867 5.959-9.226 6.904h-.004c-6.71 7.668-11.137 14.207-13.27 19.617-2.855 6.727-3.414 11.774-1.675 15.14l.007.016c.481.801.977 1.54 1.674 2.463 2.85 3.58 5.877 5.252 9.268 5.252.101 0 .203-.004.305-.008.07 0 .136-.03.183-.082a.25.25 0 0 0 .07-.19 7.234 7.234 0 0 0-.042-.517c-.403-3.226-2.891-4.84-7.473-4.84-.594 0-1.219.028-2.193.112-.518.049-.729.072-1.971.422s-3.055 1.13-4.84 2.312c-1.73 1.31-2.563 2.487-2.742 3.44-.18.953-.137 1.433-.031 1.855.414 1.684 1.691 2.524 3.835 2.524.895 0 1.938-.145 3.137-.596 1.2-.451 2.094-1.04 2.746-1.635 1.606-1.465 1.742-2.925.354-4.142-1.389-1.217-3.35-1.698-6.39-1.73a34.42 34.42 0 0 0-4.972.462h-.011c-5.383 1.152-9.672 2.863-13.187 5.381-.707.542-1.087.85-1.434 1.162-.012.012-.024.023-.032.035-1.59 2.016-2.277 3.473-2.058 4.371.172.72.86 1.078 2.062 1.078.743 0 1.68-.132 3.221-1.167 1.541-1.036 2.467-2.426 2.49-3.477.028-1.184-.975-1.895-3.09-2.166-.647-.037-.764-.022-1.276 0-3.837.684-11.25 3.748-14.454 7.787" transform="translate(.033 -.021)"></path></g><path style="fill:none;stroke:#fff96f;stroke-width:.99975;stroke-linecap:round;stroke-linejoin:round;stroke-dasharray:none;stroke-opacity:1" d="M21.002 57.225c10.059-6.98 26.655-15.392 26.655-15.392-3.936 2.67-14.75 9.472-18.295 12.34 3.374-1.99 13.82-7.554 16.683-8.864-2.58 1.893-9.19 6.145-9.592 6.933 1.627-.845 6.399-2.933 7.941-3.071" transform="translate(26.346 7.27)"></path></svg>