<svg xmlns="http://www.w3.org/2000/svg" height="150" viewBox="0 0 112.5 112.5" width="150"><path style="fill:none;stroke:#272727;stroke-width:.999749;stroke-linecap:round;stroke-linejoin:round;stroke-dasharray:none" d="M37.695 55.273c.07-.884.483-2.597 1.597-3.58 1.988-1.755 5.042-2.598 7.583-3.044a46.418 46.418 0 0 1 2.539-.351c.566-.067.956-.044 1.562-.059.826-.02 1.301-.169 2.149-.19 1.661-.04 2.45.175 3.906.192.985.012 1.487-.047 2.344.034.59.056.951.144 1.562.16.448.011.738-.006 1.172.036.526.05.85.129 1.367.154 1.022.05 2.12.139 3.125.236.897.087 2.028.237 2.93.324.45.044.738.025 1.172.067.517.05.85.132 1.367.154.61.027 1.573.094 2.107-.305 1.512-1.134.874-3.968 1.409-5.644.973-1.545 2.04-1.62 3.71-.684-1.056 1.197-2.753.603-3.613.391-1.39-.43-3.246-.519-5.175-1.001-3.416-.854-7.626-1.863-9.997-4.68-2.007-2.386-1.4-5.674-.414-8.382 2.259-6.202 7.931-10.44 14.317-10.954.58-.046.967-.15 1.562-.17.92-.03 1.33.14 2.149.18.435.02.744.01 1.172.063 2.468.303 6.387.885 8.047 3.087.702.931.931 2.283.931 3.302 0 .622-.097.948-.156 1.563-.092.966-.144 2.09-.284 3.125-.123.914-.293 1.798-.45 2.734-.474 2.826-.684 5.908-1.9 8.594-1.16 2.565-4.506 2.53-5.426 5.078-.62 1.717-.435 3.459.372 5.078.583 1.168 2.063 2.738 1.064 4.048-.786 1.032-2.703 1.472-3.956 1.787-3.022.759-6.798 1.598-9.57 3.007-.732.372-1.22.661-1.884.974-.748.332-1.614.873-2.218 1.122 0 0 2.426-.896 3.092-1.045.666-.148 3.26-.929 5.111-1.25 2.533-.44 5.123-.82 7.617-1.376 1.358-.302 3.657-1.217 3.711-1.798.055-.582-1.468-1.025-2.539-1.074-1.07-.05-3.313.237-4.492.49-2.516.543-5.053 1.499-7.422 2.508-3.126 1.332-6.188 2.914-9.57 3.459-1.011.163-2.426.229-3.32.314-1.017.097-1.548.168-2.735.162-.852-.004-1.39-.126-2.148-.178-.59-.04-.961.007-1.563-.05-1.671-.16-3.86-.244-5.468-.64-1.738-.429-4.118-1.972-4.241-2.003.06.208 1.513 1.438 2.946 1.95 1.326.473 4.23.963 4.3.978 2.463.517 4.89 1.151 7.346 1.554.78.128 1.622.275 2.344.325.592.04.941.018 1.562.017.6 0 .982.025 1.563-.058.556-.08 1.15-.4 1.713-.197.835.302.808 2.256.826 2.99l.25 2.285c.598 1.226 1.55 1.274 3.07 1.06.71-.1 1.297-.232 1.953-.61-.772-.42-1.372-.516-2.148-.57-1.144-.078-1.3-.017-2.88.062-1.179.351-1.021 1.065-1.026 2.07-.012 2.36-.028 7.198.116 8.615.143 1.417.19 2.586 1.097 3.417 1.829 1.675 5.085 1.038 7.185 2.692 2.298 1.81 2.983 4.426 5.14 5.992.087-.102-.106-.567-.564-.664-.281-.059-.535.16-.636.26-.4.398-.681.99-.394 1.758.695 1.862 3.165 1.988 3.775-.003.327-1.064-.276-2.553-.971-3.513-1.19-1.64-2.722-2.917-4.202-4.28-.617-.569-1.722-1.257-1.903-2.144-.153-.751.86-.77 1.318-.817.894-.09 1.295-.217 2.343-.173.748.032 1.19.166 1.953.185.687.017 1.116-.017 1.758.058 2.574.304 5.448.589 8.203 2.288 1.01.743 4.21 2.043 2.137 3.087-1.493.752-2.033-1.55-2.106-2.5-.05-.649 0-1.168-.232-1.758-.496-1.257-1.924-1.926-3.119-2.38-2.502-.952-5.505-1.394-8.008-1.534-.617-.034-.95-.129-1.562-.17-.57-.04-.962-.023-1.563-.018l-10.001.087s-4.639.378-5.625.472c-.774.074-2.045.204-2.733.306-2.339.346-6.527 2.36-6.985 2.588-.458.229-.674.459-.828.844-.153.385.074 1.522.54 1.45.466-.072.526-1.297-.032-1.685-.558-.387-2.532.827-1.195 2.024 1.632 1.46 1.797-.99 1.517-2.064l-.203-.782c-.223-.856-.346-1.618.571-2.322 1.245-.955 3.126-.953 4.466-1.08.53-.05.912-.033 1.368-.033.747 0 2.085-.06 3.125 0 1.772.105 4.482.407 5.29.625-.34.502-2.664 1.472-4.314 2.365-2.378 1.286-5.213 2.74-6.99 4.823-.792.93-1.086 1.874-.996 2.94.068.808.14 2.439-1.193 2.439-1.06 0-1.377-1.279-.832-2.03.57-.787 1.618-.555 2.134-.326 1.292.572 1.987 1.558 1.509 2.827-.508 1.349-2.283 1.286-3.397 1.43-.572.075-.944.133-1.563.14-1.246.015-1.851-.082-3.32.019-.59.04-.967.144-1.563.17-1.324.058-3.12.007-4.492.007H.195m-.195 0h.195"></path><path fill="#fff96f" d="M51.254 95.543c-1.43.074-2.844.18-4.25.223-1.176.043-2.356.02-3.535.02-.848 0-1.692-.009-2.535.01-1.426.032-2.844.13-4.27.13-.82 0-1.629.043-2.434.082-.847.043-1.69.012-2.523.055-2.594.128-5.187.242-7.797.148-.457.172-.941-.074-1.402.031-.645.16-1.266.149-1.914.024-.184-.043-.407-.012-.606 0-.574.03-1.144.074-1.715.093-1.527.063-3.043.063-4.558-.129-.098-.007-.223-.039-.297 0-.57.266-1.18.012-1.773.11a4.57 4.57 0 0 1-1.305-.012c-.758-.117-1.516-.086-2.274-.16-.484-.05-.93.098-1.402.086-.707-.024-1.43-.024-2.137-.055A85.565 85.565 0 0 1 1.398 96c-.41-.074-1.26 0-1.67.012" style="fill:none;stroke:#fff96f;stroke-width:.99974999;stroke-dasharray:none;stroke-opacity:1;stroke-linejoin:round;stroke-linecap:round"></path></svg>