<svg xmlns="http://www.w3.org/2000/svg" xmlns:xlink="http://www.w3.org/1999/xlink" width="50" zoomAndPan="magnify" viewBox="0 0 37.5 37.499999" height="50" preserveAspectRatio="xMidYMid meet" version="1.0"><defs><g/><clipPath id="51249bea39"><path d="M 0.46875 0 L 37 0 L 37 37.007812 L 0.46875 37.007812 Z M 0.46875 0 " clip-rule="nonzero"/></clipPath></defs><g clip-path="url(#51249bea39)"><path fill="#b495ed" d="M 19.339844 0.03125 C 21.125 0.0195312 25.882812 0.0546875 30.164062 3.429688 C 33.421875 5.996094 34.726562 9.179688 35.304688 10.632812 C 37.972656 17.371094 35.855469 23.546875 35.167969 25.453125 C 34.359375 27.703125 33.148438 31.066406 29.890625 33.746094 C 24.4375 38.238281 16.53125 38.113281 10.953125 35.378906 C 10.042969 34.933594 6.492188 33.09375 3.78125 28.988281 C 3.285156 28.238281 0.828125 24.398438 0.671875 18.792969 C 0.617188 16.910156 0.46875 11.632812 4.054688 7.097656 C 6.335938 4.214844 9.105469 2.925781 10.953125 2.070312 C 12.453125 1.371094 15.363281 0.0585938 19.339844 0.03125 Z M 19.339844 0.03125 " fill-opacity="1" fill-rule="nonzero"/></g><g fill="#000000" fill-opacity="1"><g transform="translate(9.849636, 32.689059)"><g><path d="M 17.25 -23.933594 C 16.945312 -25.808594 16.453125 -27.386719 15.757812 -28.695312 C 15.230469 -29.726562 14.605469 -30.496094 13.894531 -31 C 13.34375 -31.390625 12.816406 -31.609375 12.316406 -31.660156 C 11.335938 -31.757812 10.46875 -31.660156 9.71875 -31.351562 C 8.914062 -31.035156 8.128906 -30.582031 7.394531 -29.96875 C 6.085938 -28.90625 4.957031 -27.484375 3.992188 -25.710938 C 2.191406 -22.378906 1.273438 -18.65625 1.261719 -14.554688 C 1.25 -12.929688 1.457031 -11.507812 1.847656 -10.296875 C 2.019531 -9.769531 2.09375 -9.207031 2.058594 -8.570312 C 1.972656 -7.015625 1.972656 -5.449219 2.070312 -3.84375 C 2.128906 -2.828125 2.289062 -1.789062 2.570312 -0.746094 C 2.828125 0.207031 3.246094 1.015625 3.820312 1.691406 C 4.566406 2.558594 5.535156 3.023438 6.695312 3.085938 C 6.792969 3.085938 6.878906 3.085938 6.964844 3.085938 C 8.105469 3.085938 9.144531 2.753906 10.085938 2.082031 C 10.601562 1.726562 11.054688 1.382812 11.421875 1.039062 C 11.800781 0.710938 12.023438 0.5 12.070312 0.441406 C 13.332031 -0.96875 14.371094 -2.730469 15.207031 -4.847656 C 16.773438 -8.863281 17.605469 -13.34375 17.703125 -18.289062 C 17.714844 -20.140625 17.566406 -22.023438 17.25 -23.933594 Z M 3.011719 -7.894531 C 2.988281 -7.933594 2.976562 -7.945312 2.988281 -7.945312 C 2.988281 -7.933594 3.011719 -7.921875 3.035156 -7.882812 C 3.0625 -7.859375 3.097656 -7.824219 3.121094 -7.785156 C 3.160156 -7.75 3.195312 -7.699219 3.230469 -7.664062 C 3.257812 -7.640625 3.28125 -7.601562 3.304688 -7.589844 C 3.316406 -7.566406 3.328125 -7.554688 3.34375 -7.542969 C 4.003906 -6.878906 4.761719 -6.453125 5.632812 -6.257812 C 6.390625 -6.121094 7.0625 -6.085938 7.652344 -6.171875 C 8.507812 -6.257812 9.304688 -6.464844 10.050781 -6.808594 C 10.050781 -6.820312 10.0625 -6.820312 10.074219 -6.820312 C 10.085938 -6.832031 10.101562 -6.832031 10.113281 -6.84375 C 10.199219 -6.878906 10.273438 -6.929688 10.332031 -6.964844 C 10.394531 -7.015625 10.429688 -7.050781 10.46875 -7.101562 C 10.492188 -7.136719 10.515625 -7.175781 10.527344 -7.199219 C 10.539062 -7.234375 10.539062 -7.261719 10.554688 -7.273438 C 10.554688 -7.285156 10.554688 -7.296875 10.554688 -7.296875 C 10.554688 -7.320312 10.539062 -7.34375 10.539062 -7.359375 C 10.527344 -7.382812 10.515625 -7.394531 10.503906 -7.40625 C 10.492188 -7.417969 10.480469 -7.429688 10.46875 -7.445312 C 10.457031 -7.445312 10.457031 -7.457031 10.457031 -7.457031 C 10.382812 -7.492188 10.273438 -7.503906 10.125 -7.480469 C 9.988281 -7.46875 9.84375 -7.417969 9.683594 -7.371094 C 9.535156 -7.320312 9.402344 -7.261719 9.304688 -7.210938 C 9.195312 -7.160156 9.132812 -7.136719 9.132812 -7.136719 C 9.070312 -7.125 9 -7.113281 8.925781 -7.101562 C 8.300781 -6.964844 7.640625 -6.890625 6.964844 -6.890625 C 6.269531 -6.878906 5.644531 -6.976562 5.117188 -7.175781 C 4.578125 -7.371094 4.101562 -7.75 3.695312 -8.324219 C 3.625 -8.410156 3.5625 -8.496094 3.5 -8.570312 C 3.390625 -8.714844 3.292969 -8.851562 3.21875 -8.984375 C 3.132812 -9.132812 3.074219 -9.304688 3.035156 -9.511719 C 3.035156 -10.441406 3.121094 -11.570312 3.304688 -12.878906 C 3.476562 -14.175781 3.660156 -15.402344 3.867188 -16.539062 C 4.503906 -19.773438 4.996094 -21.792969 5.335938 -22.601562 C 5.460938 -22.992188 5.546875 -23.261719 5.558594 -23.40625 C 5.570312 -23.554688 5.496094 -23.640625 5.363281 -23.664062 C 5.105469 -23.738281 4.859375 -23.46875 4.628906 -22.820312 C 4.628906 -22.808594 4.617188 -22.785156 4.617188 -22.769531 C 4.617188 -22.757812 4.601562 -22.746094 4.601562 -22.734375 C 4.199219 -21.65625 3.832031 -20.394531 3.5 -18.964844 C 3.269531 -17.875 3.035156 -16.5625 2.804688 -15.046875 C 2.570312 -13.515625 2.410156 -12.316406 2.300781 -11.445312 C 1.847656 -14.019531 1.957031 -16.734375 2.609375 -19.625 C 3.269531 -22.5 4.273438 -24.9375 5.621094 -26.945312 C 6.488281 -28.144531 7.542969 -29.136719 8.753906 -29.921875 C 9.058594 -30.117188 9.414062 -30.300781 9.804688 -30.445312 C 10.199219 -30.605469 10.566406 -30.714844 10.933594 -30.765625 C 12.15625 -30.914062 13.0625 -30.582031 13.664062 -29.761719 C 14.101562 -29.210938 14.457031 -28.625 14.726562 -27.988281 C 14.738281 -27.960938 14.753906 -27.9375 14.765625 -27.914062 C 15.402344 -26.601562 15.828125 -25.160156 16.050781 -23.589844 C 16.96875 -17.113281 16.234375 -10.847656 13.835938 -4.800781 C 13.199219 -3.183594 12.339844 -1.773438 11.289062 -0.5625 C 11.238281 -0.5 11.03125 -0.292969 10.640625 0.0742188 C 10.257812 0.453125 9.757812 0.820312 9.15625 1.1875 C 8.558594 1.566406 7.910156 1.773438 7.222656 1.835938 C 6.523438 1.875 5.949219 1.75 5.484375 1.46875 C 5.410156 1.433594 5.351562 1.394531 5.289062 1.359375 C 5.09375 1.25 4.886719 1.125 4.675781 0.96875 C 4.480469 0.808594 4.273438 0.585938 4.066406 0.292969 C 3.574219 -0.527344 3.269531 -1.285156 3.144531 -2.019531 C 2.949219 -2.949219 2.851562 -3.855469 2.839844 -4.75 C 2.828125 -5.644531 2.839844 -6.378906 2.902344 -6.964844 C 2.960938 -7.566406 2.988281 -7.871094 3.011719 -7.894531 Z M 3.011719 -7.894531 "/></g></g></g></svg>