<svg xmlns="http://www.w3.org/2000/svg" width="300" viewBox="0 0 224.88 225" height="300" version="1.0"><defs><clipPath id="m"><path d="M26.914 69.637 209.012.18l47.55 124.672-182.097 69.453zm0 0"/></clipPath><clipPath id="a"><path d="M32 30.723h156V191H32zm0 0"/></clipPath><clipPath id="c"><path d="M26.914 69.637 209.012.18l47.55 124.672-182.097 69.453zm0 0"/></clipPath><clipPath id="d"><path d="M26.914 69.637 209.012.18l47.55 124.672-182.097 69.453zm0 0"/></clipPath><clipPath id="e"><path d="M26.914 69.637 209.012.18l47.55 124.672-182.097 69.453zm0 0"/></clipPath><clipPath id="f"><path d="M66 60h96v96H66zm0 0"/></clipPath><clipPath id="g"><path d="M26.914 69.637 209.012.18l47.55 124.672-182.097 69.453zm0 0"/></clipPath><clipPath id="h"><path d="M26.914 69.637 209.012.18l47.55 124.672-182.097 69.453zm0 0"/></clipPath><clipPath id="i"><path d="M26.914 69.637 209.012.18l47.55 124.672-182.097 69.453zm0 0"/></clipPath><clipPath id="j"><path d="M46 40h135v135H46zm0 0"/></clipPath><clipPath id="k"><path d="M26.914 69.637 209.012.18l47.55 124.672-182.097 69.453zm0 0"/></clipPath><clipPath id="l"><path d="M26.914 69.637 209.012.18l47.55 124.672-182.097 69.453zm0 0"/></clipPath><clipPath id="b"><path d="M85 79h58v58H85zm0 0"/></clipPath><clipPath id="n"><path d="m26.918 69.648 126.266-48.16 47.683 125.02-126.265 48.156zm0 0"/></clipPath><clipPath id="o"><path d="m26.918 69.648 126.266-48.16 47.535 124.637-126.266 48.156zm0 0"/></clipPath><clipPath id="p"><path d="M104 99h19v18h-19zm0 0"/></clipPath><clipPath id="q"><path d="M26.914 69.637 209.012.18l47.55 124.672-182.097 69.453zm0 0"/></clipPath><clipPath id="r"><path d="M26.914 69.637 209.012.18l47.55 124.672-182.097 69.453zm0 0"/></clipPath><clipPath id="s"><path d="M26.914 69.637 209.012.18l47.55 124.672-182.097 69.453zm0 0"/></clipPath><clipPath id="t"><path d="M112 11h107v99H112zm0 0"/></clipPath><clipPath id="u"><path d="M26.914 69.637 209.012.18l47.55 124.672-182.097 69.453zm0 0"/></clipPath><clipPath id="v"><path d="M26.914 69.637 209.012.18l47.55 124.672-182.097 69.453zm0 0"/></clipPath><clipPath id="w"><path d="M26.914 69.637 209.012.18l47.55 124.672-182.097 69.453zm0 0"/></clipPath><clipPath id="x"><path d="M91.172 52.207 211.699 6.234l21.957 57.575-120.523 45.968zm0 0"/></clipPath><clipPath id="y"><path d="M91.172 52.207 211.367 6.363l21.961 57.575-120.195 45.84zm0 0"/></clipPath></defs><g clip-path="url(#a)"><path fill="#fff96f" d="M112.957 30.836c7.676-.055 28.117.105 46.512 14.523 14 10.973 19.617 24.578 22.094 30.79 11.476 28.785 2.37 55.171-.583 63.324-3.48 9.613-8.68 23.98-22.675 35.437-23.434 19.184-57.422 18.649-81.395 6.969-3.906-1.899-19.164-9.758-30.812-27.3-2.137-3.216-12.696-19.622-13.375-43.575-.227-8.043-.871-30.59 14.535-49.961 9.808-12.324 21.715-17.828 29.652-21.492 6.45-2.98 18.953-8.598 36.047-8.715zm0 0"/></g><g clip-path="url(#b)"><g clip-path="url(#c)"><g clip-path="url(#d)"><g clip-path="url(#e)"><path d="M125.215 130.871c-12.149 5.582-28.05 2.7-34.309-10.062-5.996-12.23-2.644-27.309 8.977-34.653 12.922-7.242 30.308-4.37 37.101 10.043 5.977 12.688 1.125 28.75-11.77 34.672zM98.328 84.035c-20.937 13.235-15.18 48.832 10.426 51.973 11.383 1.394 23.976-3.442 29.71-13.742 5.657-10.157 4.84-24.368-3.093-33.153-9.957-11.02-24.52-12.097-37.043-5.078"/></g></g></g></g><g clip-path="url(#f)"><g clip-path="url(#g)"><g clip-path="url(#h)"><g clip-path="url(#i)"><path d="M155.621 125.086c-6.707 17.613-24.578 27.426-42.875 27.746-19.156.332-35.418-10.434-41.433-28.852-6.567-20.12-.083-42.738 18.222-54 17.985-10.293 38.992-9.69 54.824 4.45 14.012 12.515 17.871 33.304 11.262 50.656zm-67.64-57.223C70.51 78.61 63.175 99.34 67.335 119.16c4.113 19.586 18.766 33.883 38.832 36.004 19.137 2.027 40.02-6.293 49.43-23.71 8.968-16.614 7.73-39.907-4.93-54.392-16.492-18.87-41.523-21.312-62.688-9.199"/></g></g></g></g><g clip-path="url(#j)"><g clip-path="url(#k)"><g clip-path="url(#l)"><g clip-path="url(#m)"><g clip-path="url(#n)"><g clip-path="url(#o)"><path d="M112.316 172.172c-27.046.496-50.195-14.621-58.957-40.504-9.746-28.785-.726-61.856 25.762-77.961 25.332-14.637 55.242-13.93 77.774 5.762 20.546 17.957 26.378 47.96 16.695 73.172-9.649 25.12-35.149 39.054-61.274 39.53zm53.641-107.356c-10.402-12.007-24.773-20.843-40.504-23.445-16.797-2.777-33.363 1.824-47.887 10.215-24.507 14.902-34.851 44.137-29.132 71.828 5.644 27.348 25.761 47.543 53.761 50.867 26.575 3.156 56.063-7.996 69.7-31.91 13.312-23.348 12.02-56.824-5.938-77.555"/></g></g></g></g></g></g><g clip-path="url(#p)"><g clip-path="url(#q)"><g clip-path="url(#r)"><g clip-path="url(#s)"><path d="M116.32 113.559c-3.011 1.289-6.734.507-8.246-2.582-1.484-3.024-.484-6.547 2.235-8.399 3.28-1.629 7.355-1.18 9.109 2.508 1.504 3.16.086 7.11-3.098 8.473zm-7.203-13.313c-.015.008-.023.016-.039.027-.09.036-.18.079-.27.141-3.956 2.633-5.144 7.902-2.878 12.102 2.32 4.293 7.8 5.28 11.965 3.203 4.304-2.153 5.855-7.59 3.812-11.887-2.32-4.867-8.137-5.965-12.59-3.586"/></g></g></g></g><g clip-path="url(#t)"><g clip-path="url(#u)"><g clip-path="url(#v)"><g clip-path="url(#w)"><g clip-path="url(#x)"><g clip-path="url(#y)"><path d="M212.77 15.676c-3.711 3.613-7.45 7.199-11.211 10.761 1.043-4.734.683-9.886-.48-14.468-.415-1.637-2.86-.692-2.45.933 1.39 5.453 1.422 11.938-1.027 17.075a1.356 1.356 0 0 0-.102.28c-1.71 1.606-3.422 3.204-5.14 4.802 1.257-4.754 1.468-9.805.671-14.649-.27-1.664-2.883-1.422-2.61.246.977 5.926.419 12.145-1.937 17.68-.062.14-.09.277-.101.41-2.336 2.156-4.676 4.3-7.024 6.441 1.578-5.136 2.32-10.949 1.371-15.847-.316-1.649-2.93-1.41-2.609.246 1.184 6.105-.476 13.871-3.02 19.477-21.21 19.253-42.785 38.128-63.824 57.542-1.226 1.13.313 3.266 1.551 2.118 20.738-19.133 41.984-37.746 62.902-56.711.262.105.57.117.915-.051 5.601-2.727 13.351-4.64 19.601-3.566 1.668.285 2.09-2.31.43-2.594-4.961-.848-10.84.008-15.992 1.703a1953.1 1953.1 0 0 0 7.863-7.215c.023-.004.043 0 .066-.004 5.918-1.043 12.078-.258 17.637 2.031 1.559.645 2.633-1.75 1.066-2.394-4.886-2.012-10.25-2.973-15.527-2.637 1.719-1.597 3.434-3.195 5.14-4.8.239.066.489.093.778-.005 5.398-1.812 11.793-.933 17.035 1.102 1.57.61 2.645-1.781 1.067-2.395-4.739-1.84-10.207-2.785-15.329-2.035 4.141-3.914 8.254-7.851 12.333-11.828 1.203-1.176-.848-2.816-2.043-1.648"/></g></g></g></g></g></g></svg>