<svg xmlns="http://www.w3.org/2000/svg" width="150" viewBox="0 0 112.5 112.5" height="150"><path fill="#fff96f" d="M117.977 65.754c-11.395-15.281-28.559-26.477-47.09-30.715" style="fill:none;stroke:#fff96f;stroke-width:.99974999;stroke-dasharray:none;stroke-opacity:1;stroke-linecap:round;stroke-linejoin:round"></path><path fill="#fff96f" d="M115.54 59.43a83.278 83.278 0 0 0-5.759-6.438c-7.594-7.68-16.347-13.629-26.261-17.844a81.534 81.534 0 0 0-15.75-4.914 81.28 81.28 0 0 0-16.41-1.636 81.18 81.18 0 0 0-16.403 1.64 81.215 81.215 0 0 0-15.746 4.91C6.034 41.537 2.796 45.671-2.433 49.313" style="fill:none;fill-opacity:1;stroke:#fff96f;stroke-width:.99974999;stroke-dasharray:none;stroke-opacity:1;stroke-linecap:round;stroke-linejoin:round"></path><path d="M4.81 58.846a.238.238 0 0 1-.041-.284M-.507 54.93c6.504-7.142 14.216-12.77 22.992-16.737 9.046-4.113 18.737-6.2 28.748-6.2 8.654 0 17.157 1.615 25.292 4.763 8.155 3.174 15.498 7.735 21.876 13.586a75.002 75.002 0 0 1 7.786 8.38c1.164 1.461 2.249 3.001 3.474 4.86.707 1.213 2.088 3.596 2.607 3.62 0 0 .028 0 .028-.024.344-.447.368-1.192.07-1.762a2.84 2.84 0 0 0-1.373-1.256c-.372-.174-.74-.273-1.39-.39-.696-.088-1.14-.064-1.56.011-.225.024-.446.1-.668.147-.297.075-.618.15-.938.174-1.956.222-3.733-.99-5.364-2.256-.174-.123-.67-.495-.523-.99.15-.523.693-.447 1.113-.372.273.024.546.071.744 0-.123-.744-.693-1.413-1.461-1.785-.717-.325-1.556-.4-2.545-.226l-.222.051c-.542.1-1.136.198-1.768.062-.31-.113-.48-.236-.631-.41-.368-.42-.42-1.017-.146-1.686.269-.646.863-1.315 1.381-1.338.226 0 .396.099.523.324.198.396.07.84-.076 1.24-.198.494-.395 1.04-.714 1.706-.545 1.114-1.241 2.086-2.029 2.806-.768.67-1.956 1.24-3.068.816-.617-.246-1.085-.768-1.48-1.216-.618-.692-1.113-1.734-.448-2.327.32-.301.768-.301 1.164-.325.396-.024.74-.024.938-.273.198-.246.123-.618-.047-.89-.448-.797-1.56-1.169-2.55-.868-1.16.345-1.852 1.362-2.173 1.956l-.075.126c-.246.444-.495.966-1.037 1.14-.618.198-1.113-.174-1.631-.546-.396-.297-.792-.594-1.212-.546-.395.024-.669.15-.815.424-.424.744.198 2.327.566 3.048.645 1.215 1.928 2.454 3.238 3.076.15.07.297.122.448.174.269.099.566.221.815.396.542.372.89.966 1.16 1.512.15.297.372.617.594.942.641.99 1.361 2.13 1.361 3.147 0 .867-.348 1.267-.621 1.437-.443.301-1.112.301-1.876 0l-.1-.047c-.122-.052-.249-.1-.348-.1-.071 0-.146.048-.194.147-.075.15-.051.4.024.546.123.198.32.349.519.495.122.075.221.174.344.273.89.796.966 2.158.645 3.152-.348 1.064-1.112 1.931-1.757 2.727-.27.32-.567.67-1.014.867-.198.123-.42.146-.641.146h0c-.792 0-1.584-.542-2.003-1.239-.42-.669-.57-1.437-.717-2.18l-.146-.618c-.273-1.168-.744-1.912-1.386-2.285-.32-.197-.693-.273-1.088-.372-.471-.099-.939-.221-1.358-.494-1.287-.919-1.041-2.803-.768-4.141 0-.048.051-.1.099-.123 1.781-1.017 4.006-1.116 5.882-.297.1-.796-.269-1.639-.914-2.082-.443-.297-.962-.424-1.532-.57-.32-.075-.67-.15-.99-.273-.693-.273-1.16-.697-1.654-1.168l-.1-.1c-.122-.122-.273-.22-.395-.32-.42-.32-.84-.645-.84-1.338 0-.324 0-.669.1-1.017l.047-.198c.542-1.738.914-2.977.222-4.786-.665-1.71-2.546-3.246-4.549-2.902-.42.075-.64.118-1.29.576-.776.545-.836 1.035-.883 1.558-.075.546.17 1.14.594 1.56.344.324.764.498 1.183.47.448-1.04-.198-2.252-1.068-3.53-.87-1.277-1.675-2.391-2.689-3.235-.443-.372-.914-.645-1.433-.942-.296-.174-.617-.348-.914-.57-.15-.099-.344-.127-.443-.099-.052.024-.076.048-.076.071-.075.226.274.646.543.97.174.198.297.372.372.495a.782.782 0 0 1-.024.768c-.15.32-.495.594-.843.693-.519.127-1.037-.024-1.457-.198-.372 1.663-.89 3.325-2.498 4.192-.198.123-.443.198-.641.273-.519.174-.99.345-1.037.891-.028.348.17.669.368.994.32.494.669 1.065.297 1.809-.222.447-.665.693-1.061.918l-.127.071c-1.358.772-1.801 1.612-2.522 3.001l-.099.198c-.542.867-1.753 1.017-2.592.697-.891-.325-1.56-1.018-2.154-1.64l-.887-.914c-.225-.249-.518-.522-.617-.918-.075-.348 0-.697.071-.994l.028-.047c.443-1.96.269-3.745-.523-5.06-.815-1.361-2.668-2.402-4.323-1.76l-.126.05c-.345.151-.788.321-1.16.076-.198-.127-.297-.297-.396-.471-.052-.076-.075-.15-.123-.198-.222-.273-.57-.424-.966-.57-.495-.174-.99-.372-1.211-.871-.123-.246-.123-.519-.123-.792v-.25a4.46 4.46 0 0 0-.198-.965c-.099-.349-.198-.72-.221-1.117-.076-1.512 1.136-2.727 2.347-3.297 1.089-.495 2.324-.618 3.488-.744.17-.024.344-.024 2.1-.283 3.014-.533 4.475-.929 5.884-1.4 1.655-.574 2.767-.447 3.262.396.198.32.246.768.174 1.215-.126.67-.546 1.24-1.21 1.635-.892.547-2.154.67-3.215.349-1.164-.372-2.15-1.093-3.116-1.813-.099-.072-.198-.147-.467-.32-.367-.248-.697-.472-.89-.595-.82-.522-1.683-.942-2.55-1.366-.764-.372-1.532-.744-2.272-1.187-.396-.25-.792-.523-.939-.994-.197-.645.222-1.338 1.16-1.96.642-.419 1.383-.694 2.25-1.19a17.313 17.313 0 0 1 3.585-1.485c.297-.076 1.014-.25 1.532.023a.926.926 0 0 1 .444.598c.25.915-.986 1.485-1.382 1.635a2.879 2.879 0 0 1-.594.146c-.645.103-1.583.15-2.497-.099-.42-.122-.693-.32-1.212-.716-1.31-.82-2.72-1.069-3.955-1.267-.221-.024-.42-.071-.617-.099-3.314-.594-6.872.919-9.271 3.995l-.123.146c-.32.424-.669.867-1.188 1.116-.443.222-.938.25-1.357.222a9.542 9.542 0 0 1-3.86-.84c-.222-.102-.444-.225-.665-.324-.645-.32-1.235-.617-1.904-.72-1.457-.17-2.894.673-4.327 1.615-.198.123-.42.269-.519.495a.379.379 0 0 0 0 .32c.024.052.052.1.123.127.127.047.297-.051.471-.127.938-.518 1.98-.99 3.064-.843a2.44 2.44 0 0 1 1.631 1.018c.297.423.396.918.273 1.365-.075.27-.198.519-.32.74-.198.373-.349.673-.297.994l3.337-.348c.518-.048 1.259.027 1.655.396.174.174.273.4.249.645-.024.4-.32.744-.89 1.041-.618.3-1.26.499-1.881.697-.42.122-.863.273-1.259.42-1.235.47-2.027 1.14-2.399 1.959a5.753 5.753 0 0 0-.32 1.14c-.123.622-.274 1.29-.717 1.785-.57.646-1.457.82-2.3.966-.938.174-1.829.349-2.225 1.898-.099 1.325-.174 1.847-.617 2.196-.543.395-1.287.245-1.754-.028-.273-.147-.447-.345-.519-.542-.165-.426.056-.862.33-1.002.379-.195.92-.147 1-.154l5.83.188c1.24.075 2.456.025 3.79-.101.519-.048.938-.222 1.41-.396.395-.147.815-.32 1.286-.396 1.211-.198 2.173.495 3.111 1.14.646.447 1.31.918 2.055 1.065.443.099.938.075 1.433.075.938-.024 1.928-.047 2.57.693.767.895.395 2.284-.298 3.175a7.11 7.11 0 0 1-.839.918c-.471.471-.89.942-1.188 1.489-.32.617-.42 1.361-.518 2.054l-1.037 7.34c0 .075-.076.15-.175.15-.938.099-1.904 0-2.79-.297-.297-.099-.618-.25-.816-.522-.15-.222-.198-.495-.226-.745-.17-1.484-.198-3-.047-4.485v-.051c.047-.396.075-.792-.075-1.117-.123-.297-.396-.542-.642-.744l-4.798-4.188c-.467-.42-.938-.843-1.508-1.093-1.48-.693-3.186-.221-4.845.226a9.033 9.033 0 0 1-.764.198c-1.73.447-7.565 1.71-10.63-1.041-.126-.1-.225-.226-.348-.349-.146-.146-.296-.297-.443-.42-.198-.15-.42-.249-.669-.348-.297-.122-.594-.25-.84-.447" style="display:inline;mix-blend-mode:normal;fill:none;fill-opacity:1;stroke:#000;stroke-width:.99975;stroke-linecap:round;stroke-linejoin:round;stroke-miterlimit:22.9;stroke-dasharray:none;stroke-opacity:1;paint-order:normal;image-rendering:auto"></path></svg>