<svg xmlns="http://www.w3.org/2000/svg" width="300" viewBox="0 0 224.88 225" height="300" version="1.0"><defs><clipPath id="a"><path d="M32 30.723h156V191H32zm0 0"/></clipPath><clipPath id="b"><path d="M0 73h161.164v141.652H0zm0 0"/></clipPath></defs><g clip-path="url(#a)"><path fill="#b495ed" d="M112.957 30.836c7.676-.055 28.117.105 46.512 14.523 14 10.973 19.617 24.578 22.094 30.79 11.476 28.785 2.37 55.171-.583 63.324-3.48 9.613-8.68 23.98-22.675 35.437-23.434 19.184-57.422 18.649-81.395 6.969-3.906-1.899-19.164-9.758-30.812-27.305-2.137-3.21-12.696-19.617-13.375-43.57-.227-8.043-.871-30.59 14.535-49.961 9.808-12.324 21.715-17.828 29.652-21.492 6.45-2.98 18.953-8.598 36.047-8.715zm0 0"/></g><g clip-path="url(#b)"><path d="M104.926 97.195a1.985 1.985 0 0 1 .031-2.78l21.106-20.642a1.985 1.985 0 0 1 2.78.032c.759.789.727 2.023-.03 2.78l-21.106 20.642a1.957 1.957 0 0 1-2.781-.032zm54.183 45.418-30.265 1.075a1.973 1.973 0 0 0-1.899 2.023 1.976 1.976 0 0 0 2.024 1.898l30.27-1.078a1.967 1.967 0 0 0 1.894-2.02 1.951 1.951 0 0 0-2.024-1.898zm-50.707-14.476c5.024 11.918 7.645 23.39 7.77 32.492.129 9.64-2.59 16.816-8.215 19.437a1.67 1.67 0 0 1-.379.16c-3.473 1.485-7.582 1.044-11.941-.949-16.965-3.918-28.465-5.816-39.621-5.12-2.118.128-4.23.347-6.38.695 9.919 13.625 15.766 35.464 16.176 36.98.094.348.126.762 0 1.14-.316 1.044-1.39 1.641-2.433 1.325-9.383-2.746-23.727-2.969-24.863-2.969a1.97 1.97 0 0 1-1.993-1.613c-1.578-8.63-9.226-23.137-11.753-27.75-2.18.82-4.485 1.738-6.887 2.687a1.925 1.925 0 0 1-2.117-.414C.19 171.25.03 152.254.03 150.484c-.031-.726.348-1.453 1.012-1.8 14.66-8.094 24.613-13.657 32.668-20.957 8.027-7.207 14.312-16.215 21.8-31.133 1.169-5.344 3.634-9.23 7.458-11 .125-.063.254-.125.379-.156 6.097-2.594 14.027.664 21.957 7.964 7.52 6.922 15.168 17.637 21.168 30.47.695 1.39 1.328 2.843 1.93 4.265zm-63.097 47.476c-5.149 1.075-10.614 2.684-16.805 4.93 2.684 4.96 9.414 17.953 11.563 26.867 3.695.094 13.207.535 21.074 2.242-2.086-7.015-7.649-23.8-15.832-34.039zm41.453-2.34c-.38-.347-.758-.664-1.137-1.011-7.52-6.922-15.164-17.637-21.168-30.469a121.151 121.151 0 0 1-1.894-4.3 112.413 112.413 0 0 1-4.329-12.013c-.035-.062-.035-.093-.035-.156-2.02-6.86-3.156-13.34-3.347-18.965-6.035 10.809-11.625 18.145-18.45 24.274-8.214 7.398-18.043 12.992-32.386 20.894.16 4.078 1.55 18.489 13.554 28.985a381.959 381.959 0 0 1 7.426-2.88l.063-.03c11.972-4.457 21.261-6.793 30.773-7.395 9.258-.57 18.672.57 30.93 3.066zM66.16 135.977c.567 1.39 1.2 2.75 1.832 4.14 2.528 5.371 5.309 10.367 8.278 14.824 1.925-4.171 2.75-7.777 2.78-10.875 0-3.539-1.042-6.445-2.687-8.785-1.672-2.37-3.98-4.203-6.351-5.531-2.461-1.36-5.024-2.215-7.172-2.625.95 2.91 2.055 5.879 3.32 8.852zm46.094 24.683c-.094-8.629-2.621-19.562-7.453-31.004-.57-1.39-1.203-2.75-1.836-4.14-5.781-12.36-13.11-22.633-20.281-29.239-6.762-6.257-13.239-9.168-17.79-7.238l-.218.094c-2.688 1.265-4.457 4.203-5.34 8.344 0 .128-.031.253-.066.382-.41 2.086-.598 4.489-.567 7.141.063 5.277 1.043 11.41 2.875 18.016 2.813.285 6.7 1.328 10.3 3.351 2.876 1.582 5.622 3.793 7.677 6.7 2.086 2.94 3.414 6.609 3.382 11.062-.035 4.14-1.234 8.945-4.14 14.508 3.098 4.207 6.289 7.84 9.445 10.781 2.942 2.715 5.817 4.805 8.531 6.129.192.066.348.129.508.254 3.317 1.55 6.317 1.898 8.75.855l.223-.097c4.137-1.989 6.098-7.836 6-15.899zm37.25-54.586c-.41-1.011-1.578-1.453-2.559-1.043l-27.644 11.696c-1.012.41-1.453 1.582-1.043 2.562.41 1.008 1.582 1.453 2.558 1.043l27.649-11.695c.976-.446 1.453-1.582 1.039-2.563zm0 0"/></g></svg>