<svg xmlns="http://www.w3.org/2000/svg" width="50" viewBox="0 0 37.5 37.5" height="50"><defs><clipPath id="a"><path d="M5.313 5.113H32V32H5.312zm0 0"></path></clipPath></defs><g clip-path="url(#a)"><path fill="#b495ed" d="M18.898 5.133c1.286-.008 4.711.015 7.793 2.398 2.344 1.813 3.286 4.063 3.704 5.09 1.921 4.754.394 9.113-.098 10.461-.586 1.586-1.457 3.961-3.8 5.855-3.927 3.168-9.622 3.079-13.638 1.149-.652-.313-3.21-1.61-5.16-4.508-.36-.531-2.129-3.242-2.242-7.2-.039-1.331-.144-5.054 2.438-8.253 1.64-2.04 3.636-2.945 4.964-3.55 1.082-.493 3.176-1.423 6.04-1.442zm0 0"></path></g><path d="M3.973 15.3h2.942c3.316 0 6.558-2.29 6.558-5.168 0-2.602-2.656-5.168-5.976-5.168H3.973zm2.77-.105c-.766 0-1.016-.168-1.016-.336v-9.79h1.344c2.484 0 4.476 2.512 4.476 5.063 0 2.813-2.382 5.063-4.804 5.063zM16.133 15.3h6.465l.016-.05c.011 0 .168-.977.18-1.044h-.118l-.062.156c-.168.418-.989.82-1.68.82h-2.602c-.34 0-.445-.155-.445-.323V9.99h2.238c.524 0 1.122.47 1.211.934l.04.172h.117V8.765h-.118l-.039.172c-.09.468-.687.937-1.21.937h-2.239V5.081h3.035c.52 0 1.172.469 1.313.938l.066.172h.117l-.144-1.172h.015l-.015-.055h-6.14zM16.31 30.3h6.464l.016-.05c.012 0 .168-.977.18-1.044h-.118l-.062.156c-.168.418-.988.82-1.68.82H18.51c-.34 0-.446-.155-.446-.323V24.99h2.239c.523 0 1.12.47 1.21.934l.04.172h.117v-2.332h-.117l-.04.172c-.09.468-.687.937-1.21.937h-2.239v-4.793H21.1c.52 0 1.171.469 1.312.938l.066.172h.118l-.145-1.172h.016l-.016-.055h-6.14zM32.033 30.312h.367l.117-9.735c.04-.351.207-.558.469-.558v-.04h-.992v.688l.027 6.586c-1.937-2.433-3.89-4.851-5.844-7.273h-2.601v.039c.273 0 .664.285.95.648l.792 1.031-.023 7.926c0 .324-.184.649-.38.649h-.077l.011.027h1.446v-.04h-.079c-.183 0-.378-.323-.378-.651l-.051-7.325c2.082 2.68 4.164 5.36 6.246 8.028zm0 0"></path></svg>