<svg xmlns="http://www.w3.org/2000/svg" width="50" viewBox="0 0 37.5 37.5" height="50" version="1.0"><defs><clipPath id="a"><path d="M5.242 5.047H31V31.69H5.242zm0 0"/></clipPath><clipPath id="b"><path d="M5 4.89h27.277V32H5zm0 0"/></clipPath></defs><g clip-path="url(#a)"><path fill="#fff96f" d="M18.586 5.066c1.262-.007 4.625.016 7.652 2.391 2.305 1.809 3.23 4.047 3.637 5.07 1.887 4.739.39 9.086-.098 10.426-.57 1.586-1.425 3.95-3.73 5.836-3.856 3.16-9.45 3.07-13.39 1.148-.645-.312-3.153-1.605-5.071-4.496-.352-.527-2.09-3.23-2.2-7.175-.038-1.325-.144-5.036 2.391-8.227 1.614-2.027 3.575-2.934 4.88-3.539 1.058-.492 3.116-1.414 5.929-1.434zm0 0"/></g><g clip-path="url(#b)"><path fill="#040606" d="M27.227 5.566 25.12 7.672a1.221 1.221 0 0 0 0 1.726l2.649 2.649c.476.476 1.25.476 1.726 0l2.106-2.106a4.272 4.272 0 0 1-5.426 4.012c-.637-.18-1.32 0-1.79.465l-11 11a1.84 1.84 0 0 0-.5 1.648 3.547 3.547 0 0 1-2.784 4.164 3.544 3.544 0 0 1-4.16-2.789 3.537 3.537 0 0 1 4.16-4.16 1.831 1.831 0 0 0 1.648-.504l10.996-10.996a1.839 1.839 0 0 0 .473-1.789 4.268 4.268 0 0 1 4.008-5.426zm.257-.613a4.887 4.887 0 0 0-5.039 4.727c-.011.5.047.996.18 1.476.121.426 0 .88-.309 1.192l-11 11c-.289.285-.699.414-1.097.332a4.15 4.15 0 0 0-4.88 3.27 4.15 4.15 0 0 0 3.266 4.878 4.155 4.155 0 0 0 4.883-3.265 4.31 4.31 0 0 0 0-1.614 1.216 1.216 0 0 1 .332-1.097l11-11c.313-.309.766-.43 1.188-.309a4.883 4.883 0 0 0 6.023-3.387c.18-.636.23-1.304.145-1.965a.309.309 0 0 0-.52-.171l-2.593 2.593a.613.613 0 0 1-.86 0l-2.648-2.648a.606.606 0 0 1 0-.86l2.593-2.593a.307.307 0 0 0 0-.43.3.3 0 0 0-.175-.086 5.038 5.038 0 0 0-.489-.043"/></g><path fill="#040606" d="m9.852 25.805 1.468 1.355-.437 1.95-1.906.593-1.47-1.351.438-1.954zm.156-.692-2.582.809-.594 2.64 1.988 1.833 2.582-.81.594-2.636-1.988-1.836"/></svg>