<svg xmlns="http://www.w3.org/2000/svg" width="150" viewBox="0 0 112.5 112.5" height="150"><g style="fill:none;fill-opacity:1;stroke:#000;stroke-opacity:1;stroke-width:.99974999;stroke-dasharray:none"><path stroke-linecap="round" transform="matrix(.00615 0 0 -.00615 16.892 111.722)" fill="none" stroke-linejoin="round" d="M12114.551 34.853c185.54 470.064 371.715 940.127 490.537 1413.367s170.925 949.02-5.719 1363.82c-177.279 415.434-583.306 769.252-937.865 955.372-353.923 185.484-655.743 203.27-1082.103 133.396-426.996-69.874-978.532-226.774-1558.66-383.038-580.766-156.9-1190.124-313.8-1465.892-290.296-275.768 22.868-217.946 226.139 11.438 937.586 229.383 710.812 629.69 1929.801 862.25 2580.268 231.926 649.83 296.102 731.139 855.898 818.164 560.432 87.026 1617.119 179.768 2220.758 223.598 603.64 43.83 754.232 37.478 687.514-246.466-66.718-284.579-350.746-848.02-638.587-1527.07-287.205-679.052-577.588-1474.349-1172.332-1964.74-594.743-490.39-1495.12-676.51-2342.121-789.579-847.637-113.07-1643.17-153.723-2371.35-153.723-728.816 0-1390.277 40.654-1671.764 109.893-281.487 69.874-182.998 168.969 133.436 212.164 316.434 43.83 850.179 31.76 1198.383 95.918 348.205 63.522 510.87 203.27 766.305 220.422 255.435 17.786 603.64-87.026 821.585-144.83 217.946-58.441 304.997-69.875 365.36-49.548 61 20.327 95.948 72.415 20.334 148.007-74.978 75.59-261.154 174.05-493.078 273.145-231.925 98.459-510.87 196.918-464.485 211.528 46.385 14.61 418.1-55.264 653.202-159.44 235.101-104.812 333.59-243.925 397.766-229.315 63.541 14.61 92.77 182.944 2.542 330.95-89.593 148.006-298.643 275.686-304.362 272.51-6.354-2.541 191.259-136.573 313.258-165.158 121.998-29.22 168.383 46.371 87.05 159.44-81.332 113.07-290.382 264.253-505.15 386.215-214.769 121.963-435.256 214.705-673.535 179.768-237.643-34.937-493.078-197.554-800.616-301.73-308.174-104.812-667.816-151.183-1068.125-133.397-400.943 17.151-841.918 98.46-1280.35 191.202-437.798 92.742-873.69 197.554-1250.488 334.126-377.433 135.937-697.045 304.27-789.815 307.447-92.77 3.176 40.667-159.44 220.488-110.528 179.82 49.547 406.662 310.623 557.254 705.73 151.228 394.472 226.842 922.976 299.278 1082.417 72.437 159.44 142.332-49.548 37.49-200.095-104.208-151.183-383.153-243.925-754.867-238.208-371.08 5.717-835.565 110.529-1108.156 136.573-273.226 26.044-354.558-26.044-348.84-64.158 6.354-37.478 99.124-60.98 84.51-11.434-14.615 49.548-136.613 171.51-14.615 708.272 122 536.761 487.36 1488.958 740.253 2118.462 252.258 630.139 392.048 937.586 763.128 1205.014 371.714 266.793 975.354 492.931 1300.684 626.963 324.694 133.396 371.08 174.05 484.182 63.522 113.739-110.529 293.56-371.604 583.942-644.114 289.747-273.145 690.69-557.724 1027.458-630.14 336.132-72.415 609.358 66.699 751.69 281.404 141.697 215.34 153.77 505 200.154 757.818 46.385 252.183 127.718 467.523 231.925 621.246 104.843 153.724 232.56 246.466 336.767 403.366 104.843 156.9 185.54 377.32 238.28 632.68 52.103 255.358 74.978 545.654 135.977 690.485 61 145.465 160.123 145.465 171.56 64.157 11.438-81.308-64.176-243.925-113.102-394.472-49.562-151.183-72.437-290.296-107.385-293.472-34.947-2.541-81.332 130.855-66.718 351.277 13.98 220.422 89.593 528.504 87.051 844.844-3.177 316.34-84.51 640.938-238.278 812.448-153.77 171.51-379.976 188.66-388.871 179.767-8.896-8.258 200.154-43.195 377.433 8.893 176.644 52.088 322.153 191.837 429.537 139.114 107.385-52.089 177.28-296.013 179.822-551.372 3.177-255.36-61-522.152-55.281-400.19 5.719 121.963 81.332 632.68-17.156 980.782-98.489 348.1-371.715 534.22-548.36 501.824-177.278-31.76-258.611-281.403-362.818-435.126-104.843-153.724-232.56-211.529-247.175-75.591-13.979 136.572 84.51 467.522 226.842 600.919 141.696 133.396 327.871 69.874 298.642 136.572-29.228 66.698-272.59 264.252-487.36 301.73-214.768 37.478-400.943-83.85-449.87-301.73-49.561-217.88 37.49-531.045 118.822-691.12 81.333-159.44 156.947-165.158 130.895-11.434-26.687 153.723-154.405 467.522-174.738 670.793-19.698 203.27 67.353 296.013-28.593 281.403-95.947-14.61-374.257-136.573-481.641-328.41-107.385-191.2-43.844-452.277 98.488-600.283 142.332-148.007 362.82-182.944 348.205-75.591-14.614 107.352-264.33 356.994-479.1 444.02-214.768 87.024-394.589 11.433-496.254-23.504-101.666-34.302-124.54-28.585-78.156-130.22 46.385-101.636 162.665-310.623 353.924-412.259 191.893-101.635 458.766-95.918 440.974-52.088-17.156 43.195-318.976 124.503-539.463 205.812-220.487 81.308-360.278 162.616-479.1 125.138-118.82-38.113-217.31-195.013-261.153-438.302-43.208-243.925-31.77-574.875 5.719-792.756 38.125-217.246 101.666-322.057 145.509-490.39 43.208-168.334 66.718-400.19 31.77-501.825-34.947-101.635-127.717-73.05-197.612 63.522-69.26 136.572-116.28 380.497-116.28 557.724 0 176.591 47.02 287.12 116.28 246.466 69.895-40.654 162.665-232.491 246.539-255.36 84.51-23.502 160.123 121.963 214.769 304.907 55.28 182.308 90.228 403.365 223.664 565.982 133.436 161.981 365.996 266.793 394.59 246.466 29.228-20.328-144.874-165.793-246.54-327.774-101.665-162.617-130.259-343.02-200.154-508.177-69.895-165.793-179.82-316.34-235.101-496.108-55.281-180.403-55.281-389.39-46.385-583.768 8.895-194.377 26.051-374.145 69.26-513.894 43.843-139.113 113.738-237.572 232.56-344.925 118.821-107.352 287.205-223.597 472.744-319.516 186.176-95.918 389.507-171.51 551.536-179.767 162.665-8.893 284.664 49.547 357.1 75.591 72.438 26.044 95.948 20.327 81.333-93.377-14.614-113.07-66.718-333.491 151.228-499.284 217.31-165.158 705.305-275.686 1172.331-565.982 467.662-289.66 914.355-760.36 1195.842-1276.794 281.487-516.435 397.767-1079.876 426.996-1343.492 28.593-264.252-29.23-229.315-81.333 83.849-52.739 313.164-99.124 905.825-247.174 1306.014-148.051 400.824-397.132 609.812-551.536 873.429-153.77 264.252-211.592 583.768-322.153 839.127-109.926 255.359-272.591 447.195-295.466 560.265-23.51 113.069 92.77 148.006 185.54 113.069s162.665-139.113 237.643-130.856c75.614 8.893 156.946 130.856 331.049 139.749 174.102 8.258 440.974-95.918 618.254-153.723 177.28-58.44 264.33-69.875 310.715-125.139 46.385-55.264 52.104-153.723 118.822-258.535 66.718-104.176 194.435-214.705 232.56-353.818 37.49-139.113-14.614-307.447-3.177-531.045 11.437-223.598 87.051-502.46 191.258-882.322 104.843-380.497 238.28-861.994 334.226-1175.794 95.312-313.164 153.77-458.63 98.489-487.214-55.281-29.22-223.665 57.805-429.538 37.478-205.872-20.327-449.87-148.007-751.69-362.711-301.82-214.705-661.461-516.435-908.636-597.743-246.539-81.308-379.975 57.805-403.485 444.02-22.875 385.578 64.176 1018.894 113.103 1088.133 49.562 69.874 60.999-423.693-92.77-1015.719-153.77-592.025-472.745-1283.146-644.306-1701.121-170.925-417.976-194.435-562.806-217.31-707.636" stroke="#231f20" stroke-width="55.312" stroke-miterlimit="22.926" style="fill:none;fill-opacity:1;stroke:#000;stroke-opacity:1;stroke-width:162.600105;stroke-dasharray:none"></path></g><path fill="#fff96f" d="M80.086 93.492c-.027-.492-.027-.472-.606-.426-.742.055-1.492.055-2.234.121-.504.043-1.023-.046-1.523.137-.243.094-.54.047-.797-.047-.512-.164-1.059.196-1.57-.082-.036-.02-.102 0-.157.02-.047.015-.094.055-.14.082-.149.074-.317.113-.473.039-.242-.113-.473-.031-.715-.031-.371-.008-.742-.055-1.105 0-.391.066-.778-.25-1.168.02-.047.027-.149-.02-.223-.036a1.88 1.88 0 0 0-1.04 0c-.132.035-.308.102-.39.047-.297-.195-.566-.066-.843.008-.106.027-.235.066-.317.027-.531-.23-1.058-.074-1.597-.047a3.048 3.048 0 0 1-.883-.074c-.196-.047-.371-.094-.547.012-.278.164-.567.129-.863.054a2.214 2.214 0 0 0-.56-.074c-.683 0-1.37.23-2.058-.027-.039-.02-.113.008-.148.035-.336.203-.688.04-1.031.086-.332.035-.676.102-1.012-.094-.094-.055-.277-.039-.39.008-.52.188-1.06.188-1.587.195-.992.02-1.976.008-2.968.02-.403.008-.809-.012-1.2.062-.64.121-1.289.067-1.921.032-.852-.047-1.708-.04-2.563-.04-.398 0-.797.008-1.195-.019-.399-.027-.809.027-1.207.066-.13.008-.27.082-.399.055-.457-.094-.902.02-1.347.055-.11.011-.223.039-.325.02-.586-.13-1.152-.02-1.726.081a3.56 3.56 0 0 1-.797.075c-.336-.008-.688.058-1.023.14-.137.04-.313.14-.286.344a.35.35 0 0 0 .313.324c.27.035.539.094.8.082a7.49 7.49 0 0 1 1.356.102c.371.066.75.039 1.121.011.473-.039.965-.148 1.442.028a.584.584 0 0 0 .398-.012c.176-.062.36-.055.555-.035.64.047 1.3.14 1.933.066.63-.066 1.282.164 1.89-.093.688.156 1.384.035 2.071.062.715.04 1.442.149 2.164 0 .242-.043.555-.101.782.086.25.195.546.129.77.055.39-.14.76-.168 1.148-.11a.619.619 0 0 0 .316-.039c.316-.148.633-.082.95-.027.296.055.593.102.87.008.324-.11.649-.102.957-.063.352.047.676-.066 1.04-.011.398.066.843.093 1.253.058.668-.066 1.336-.066 1.992-.058.747.011 1.477.187 2.22-.008.046-.008.12-.02.16.008.277.207.593.046.85 0 .31-.055.579.101.876.046.473-.082.957-.007 1.43.012.472.016.945.11 1.43.008.296-.066.628-.242.91.074.027.028.109.028.148 0 .277-.176.574-.082.863-.101.34-.028.695-.121 1.028.046.484-.308 1.07.122 1.562-.234.102-.074.313-.016.473 0 .129.02.285.133.39.086.387-.187.785-.055 1.188-.066.527-.008 1.058-.176 1.566.101.04.02.133.02.16-.02.23-.277.594-.175.88-.324.214-.109.437-.21.652-.304.027-.176.035-.39.027-.602zM84.05 97.172c-.073-.168-.374-.305-.612-.29-.399.04-.801.095-1.2.122-.445.02-.863.297-1.316.14-.04-.011-.102.028-.149.047-.382.164-.789.149-1.187.11-.418-.035-.8.14-1.207.12a7.652 7.652 0 0 0-1.664.122c-.445.074-.89.156-1.356.11-.23-.028-.48.019-.714.074a4.654 4.654 0 0 1-1.04.14c-.296.008-.582.035-.89.02-.305-.012-.602.222-.926.035-.039-.02-.105.012-.16.027-.613.223-1.27.16-1.902.235-.743.09-1.497.156-2.247.203-.613.035-1.226.156-1.855.11-.371-.028-.773-.036-1.125.054-.379.105-.75.14-1.121.113-.39-.027-.734.148-1.106.129-.52-.027-1.023.055-1.53.14a2.92 2.92 0 0 1-.485.055c-1.067-.008-2.125.168-3.192.157-.808-.008-1.597.296-2.406.132-.09-.02-.203.043-.312.063-.16.027-.317.086-.477.074-.863-.047-1.715.086-2.57.176-1.364.14-2.719.351-4.082.492-1.293.129-2.563.363-3.836.555-.668.101-1.336.215-1.996.324-.075.012-.157.012-.223.031-.035.016-.062.082-.062.13 0 .1.09.1.164.1.058 0 .105-.027.148-.038.54-.028 1.078-.036 1.617-.09.782-.074 1.551-.188 2.32-.262a664.73 664.73 0 0 1 4.012-.371c.965-.082 1.93-.176 2.895-.238.722-.047 1.457-.04 2.172-.102.742-.066 1.496-.066 2.238-.133 1.336-.11 2.68-.136 4.027-.222 1.45-.09 2.895-.25 4.352-.278.371-.008.754-.027 1.117-.11.297-.066.582-.093.879-.046.133.02.27.047.398.027 1.301-.261 2.63-.187 3.946-.261.586-.035 1.187-.063 1.754-.192a4.35 4.35 0 0 1 1.199-.113c1.105.074 2.18-.129 3.265-.211.715-.047 1.403-.371 2.137-.14.047.019.121.019.156-.008.477-.282.997-.176 1.497-.207.585-.036 1.18-.075 1.761-.075.297 0 .512-.148.727-.312.156-.14.242-.5.168-.668zm0 0"></path></svg>