<svg xmlns="http://www.w3.org/2000/svg" width="50" viewBox="0 0 37.5 37.5" height="50"><defs><clipPath id="a"><path d="M5.313 5.113H32V32H5.312zm0 0"></path></clipPath><clipPath id="b"><path d="M4.96 8.324h27.75v21H4.96zm0 0"></path></clipPath></defs><g clip-path="url(#a)"><path fill="#fff96f" d="M18.898 5.133c1.286-.008 4.711.015 7.793 2.398 2.344 1.813 3.286 4.063 3.704 5.09 1.921 4.754.394 9.113-.098 10.461-.586 1.586-1.457 3.961-3.8 5.855-3.927 3.168-9.622 3.079-13.638 1.149-.652-.313-3.21-1.61-5.16-4.508-.36-.531-2.129-3.242-2.242-7.2-.039-1.331-.144-5.054 2.438-8.253 1.64-2.04 3.636-2.945 4.964-3.55 1.082-.493 3.176-1.423 6.04-1.442zm0 0"></path></g><g clip-path="url(#b)"><path fill="#100f0d" d="M31.684 25.355a.633.633 0 0 1-.559.32H29.77a.633.633 0 0 1-.56-.32.642.642 0 0 1 0-.648l1.188-2.059c.016 0 .032.008.047.008.02 0 .035-.008.051-.008l1.188 2.059a.642.642 0 0 1 0 .648zm-6.622 1.516v.024c-.007.527-2.535 1.554-7.14 1.554-4.606 0-7.133-1.027-7.14-1.578v-6.555l6.913 4.258c.07.043.149.063.227.063.078 0 .156-.02.226-.063l6.915-4.258zm-7.14-17.578 10.992 6.766H18.098a.433.433 0 1 0 0 .867h10.816l-10.992 6.77-11.7-7.204zm14.515 14.98-1.554-2.695v-5.086a.45.45 0 0 0-.051-.191c-.008-.02-.02-.031-.031-.047a.374.374 0 0 0-.102-.106c-.012-.007-.015-.02-.023-.027l-12.528-7.71a.43.43 0 0 0-.453 0L5.168 16.12a.442.442 0 0 0-.207.371c0 .153.078.293.207.371l4.746 2.922v7.121c.024 1.657 4.168 2.41 8.008 2.41 3.84 0 7.98-.753 8.008-2.425v-7.11l4.082-2.511v4.308l-1.555 2.695a1.503 1.503 0 0 0 0 1.516c.273.473.766.758 1.313.758h1.355c.547 0 1.04-.285 1.313-.758a1.503 1.503 0 0 0 0-1.516"></path></g></svg>