<svg xmlns="http://www.w3.org/2000/svg" xmlns:xlink="http://www.w3.org/1999/xlink" width="50" viewBox="0 0 37.5 37.499999" height="50" preserveAspectRatio="xMidYMid meet"><defs><clipPath id="293ab25430"><path d="M 5.3125 5.113281 L 32 5.113281 L 32 32 L 5.3125 32 Z M 5.3125 5.113281 " clip-rule="nonzero"></path></clipPath><clipPath id="e02c9c0604"><path d="M 5.3125 1.871094 L 24.8125 1.871094 L 24.8125 26.621094 L 5.3125 26.621094 Z M 5.3125 1.871094 " clip-rule="nonzero"></path></clipPath></defs><g clip-path="url(#293ab25430)"><path fill="#b495ed" d="M 18.898438 5.132812 C 20.183594 5.125 23.609375 5.148438 26.691406 7.53125 C 29.035156 9.34375 29.976562 11.59375 30.394531 12.621094 C 32.316406 17.375 30.789062 21.734375 30.296875 23.082031 C 29.710938 24.667969 28.839844 27.042969 26.496094 28.9375 C 22.570312 32.105469 16.875 32.015625 12.859375 30.085938 C 12.207031 29.773438 9.648438 28.476562 7.699219 25.578125 C 7.339844 25.046875 5.570312 22.335938 5.457031 18.378906 C 5.417969 17.046875 5.3125 13.324219 7.894531 10.125 C 9.535156 8.085938 11.53125 7.179688 12.859375 6.574219 C 13.941406 6.082031 16.035156 5.152344 18.898438 5.132812 Z M 18.898438 5.132812 " fill-opacity="1" fill-rule="nonzero"></path></g><g clip-path="url(#e02c9c0604)"><path fill="#1c161b" d="M 5.320312 4.535156 C 7.019531 3.726562 8.847656 3.613281 10.625 3.316406 C 14.058594 2.738281 17.523438 2.429688 20.972656 2.007812 C 21.484375 1.945312 22 1.917969 22.515625 1.894531 C 22.84375 1.882812 23.015625 2.015625 23.132812 2.386719 C 23.746094 4.308594 23.964844 6.300781 24.230469 8.28125 C 24.4375 9.832031 24.570312 11.390625 24.703125 12.949219 C 24.808594 14.167969 24.625 15.347656 24.140625 16.480469 C 23.949219 16.933594 23.761719 17.390625 23.601562 17.855469 C 22.847656 20.03125 21.523438 21.816406 19.929688 23.429688 C 18.445312 24.929688 16.6875 25.71875 14.554688 25.773438 C 12.304688 25.828125 10.054688 25.996094 7.824219 26.355469 C 7.664062 26.378906 7.5 26.386719 7.34375 26.429688 C 6.605469 26.628906 6.5 26.589844 6.398438 25.816406 C 6.285156 24.976562 6.226562 24.125 6.171875 23.277344 C 5.878906 18.644531 5.726562 14.003906 5.601562 9.363281 C 5.566406 8.019531 5.511719 6.675781 5.355469 5.339844 C 5.324219 5.070312 5.328125 4.796875 5.320312 4.535156 Z M 5.933594 4.695312 C 6.226562 6.09375 6.375 7.433594 6.445312 8.773438 C 6.640625 12.421875 6.785156 16.070312 6.96875 19.71875 C 7.0625 21.558594 7.203125 23.394531 7.320312 25.230469 C 7.378906 26.085938 7.503906 25.90625 8.109375 25.789062 C 9.148438 25.585938 10.199219 25.449219 11.257812 25.378906 C 12.695312 25.28125 14.132812 25.175781 15.566406 25.050781 C 16.917969 24.933594 16.894531 24.921875 16.832031 23.59375 C 16.777344 22.441406 16.761719 21.289062 16.75 20.132812 C 16.746094 19.65625 16.839844 19.597656 17.265625 19.660156 C 18.921875 19.898438 20.449219 19.5625 21.839844 18.621094 C 22.363281 18.265625 22.828125 17.839844 23.082031 17.238281 C 23.558594 16.125 23.972656 14.992188 23.898438 13.746094 C 23.867188 13.253906 23.808594 12.765625 23.773438 12.273438 C 23.5625 9.257812 23.160156 6.265625 22.761719 3.269531 C 22.683594 2.671875 22.667969 2.671875 22.027344 2.742188 C 19.871094 2.976562 17.710938 3.230469 15.550781 3.445312 C 12.363281 3.765625 9.207031 4.308594 5.933594 4.695312 Z M 22.347656 19.074219 C 21.175781 19.832031 20.046875 20.230469 18.796875 20.277344 C 18.371094 20.292969 17.824219 20.035156 17.554688 20.34375 C 17.265625 20.667969 17.46875 21.234375 17.460938 21.695312 C 17.445312 22.664062 17.457031 23.632812 17.457031 24.613281 C 18.925781 24 21.601562 21.011719 22.347656 19.074219 Z M 22.347656 19.074219 " fill-opacity="1" fill-rule="nonzero"></path></g><path fill="#1c161b" d="M 7.988281 9.957031 C 8.515625 9.699219 8.949219 9.625 9.378906 9.507812 C 12.917969 8.542969 16.539062 8.039062 20.148438 7.460938 C 20.496094 7.40625 20.847656 7.386719 21.203125 7.429688 C 21.351562 7.445312 21.449219 7.53125 21.457031 7.691406 C 21.464844 7.816406 21.382812 7.886719 21.289062 7.949219 C 21.121094 8.054688 20.929688 8.0625 20.742188 8.085938 C 17.820312 8.492188 14.894531 8.898438 11.988281 9.40625 C 10.953125 9.585938 9.917969 9.789062 8.882812 9.980469 C 8.632812 10.023438 8.378906 10.082031 7.988281 9.957031 Z M 7.988281 9.957031 " fill-opacity="1" fill-rule="nonzero"></path><path fill="#1c161b" d="M 9.148438 17.726562 C 10.828125 17.207031 12.554688 16.886719 14.296875 16.65625 C 16.617188 16.351562 18.953125 16.296875 21.285156 16.199219 C 21.441406 16.195312 21.644531 16.117188 21.683594 16.34375 C 21.714844 16.53125 21.554688 16.617188 21.390625 16.679688 C 21 16.828125 20.589844 16.808594 20.183594 16.816406 C 18.203125 16.859375 16.21875 16.921875 14.25 17.152344 C 12.875 17.3125 11.507812 17.523438 10.136719 17.71875 C 9.8125 17.765625 9.492188 17.808594 9.148438 17.726562 Z M 9.148438 17.726562 " fill-opacity="1" fill-rule="nonzero"></path><path fill="#1c161b" d="M 20.890625 10.554688 C 20.703125 10.898438 20.410156 10.871094 20.148438 10.894531 C 17.722656 11.105469 15.296875 11.335938 12.886719 11.710938 C 11.816406 11.875 10.753906 12.089844 9.6875 12.28125 C 9.402344 12.332031 9.117188 12.421875 8.820312 12.324219 C 8.855469 12.054688 9.082031 12.082031 9.25 12.03125 C 11.511719 11.332031 13.84375 10.980469 16.1875 10.722656 C 17.476562 10.582031 18.761719 10.339844 20.070312 10.382812 C 20.328125 10.390625 20.609375 10.3125 20.890625 10.554688 Z M 20.890625 10.554688 " fill-opacity="1" fill-rule="nonzero"></path><path fill="#1c161b" d="M 20.652344 13.753906 C 20.554688 14.023438 20.421875 14.097656 20.296875 14.105469 C 16.347656 14.367188 12.429688 14.9375 8.488281 15.3125 C 9.101562 14.941406 9.796875 14.882812 10.464844 14.765625 C 13.433594 14.257812 16.410156 13.820312 19.421875 13.664062 C 19.816406 13.644531 20.214844 13.613281 20.652344 13.753906 Z M 20.652344 13.753906 " fill-opacity="1" fill-rule="nonzero"></path><path fill="#1c161b" d="M 20.476562 5.464844 C 16.324219 6.710938 12.039062 6.855469 7.808594 7.363281 C 7.792969 7.296875 7.777344 7.230469 7.761719 7.164062 C 8.113281 7.089844 8.460938 7.003906 8.8125 6.941406 C 10.285156 6.683594 11.765625 6.515625 13.25 6.402344 C 15.175781 6.257812 17.050781 5.816406 18.925781 5.371094 C 19.242188 5.296875 19.5625 5.238281 19.886719 5.207031 C 20.085938 5.183594 20.324219 5.148438 20.476562 5.464844 Z M 20.476562 5.464844 " fill-opacity="1" fill-rule="nonzero"></path><path fill="#1c161b" d="M 8.839844 20.644531 C 10.050781 20.253906 11.285156 20.097656 12.519531 19.980469 C 13.675781 19.871094 14.847656 19.886719 16.003906 19.722656 C 16.167969 19.699219 16.367188 19.6875 16.410156 19.882812 C 16.453125 20.085938 16.257812 20.148438 16.109375 20.207031 C 16.007812 20.246094 15.898438 20.273438 15.792969 20.28125 C 13.472656 20.417969 11.148438 20.453125 8.839844 20.644531 Z M 8.839844 20.644531 " fill-opacity="1" fill-rule="nonzero"></path></svg>