<svg xmlns="http://www.w3.org/2000/svg" width="50" viewBox="0 0 37.5 37.5" height="50"><defs><clipPath id="a"><path d="M5.313 5.113H32V32H5.312zm0 0"></path></clipPath><clipPath id="b"><path d="M1.54 9.137h35.468v2.25H1.539zm0 0"></path></clipPath><clipPath id="c"><path d="M1.39 9.137h26.028V36H1.391zm0 0"></path></clipPath></defs><g clip-path="url(#a)"><path fill="#b495ed" d="M18.898 5.133c1.286-.008 4.711.015 7.793 2.398 2.344 1.813 3.286 4.063 3.704 5.09 1.921 4.754.394 9.113-.098 10.461-.586 1.586-1.457 3.961-3.8 5.855-3.927 3.168-9.622 3.079-13.638 1.149-.652-.313-3.21-1.61-5.16-4.508-.36-.531-2.129-3.242-2.242-7.2-.039-1.331-.144-5.054 2.438-8.253 1.64-2.04 3.636-2.945 4.964-3.55 1.082-.493 3.176-1.423 6.04-1.442zm0 0"></path></g><g clip-path="url(#b)"><path fill="#fff96f" d="M23.965 11.387c.246 0 .484-.032.648-.2h2.645c.656 0 1.312.004 1.969.004.05.012.105.02.156.028.078.015.156.031.238.031.75.016 1.5.023 2.25.035h.031c.25 0 .477-.043.61-.191.113-.121.3-.16.511-.176.27-.023.54-.055.809-.09a.517.517 0 0 0 .355-.176c.098-.129 0-.27-.218-.297a3.27 3.27 0 0 0-.39-.02h-.017c-.523 0-1.046.009-1.57.013-1.441.004-2.883.004-4.32.011-.246 0-.488.043-.735.067-.199-.07-.421-.082-.644-.082h-.152c-.207.004-.414.004-.625.004-.45 0-.899-.012-1.348-.07-.035-.005-.078-.005-.117-.005h-.321c-.562 0-1.125-.023-1.683-.046a40.178 40.178 0 0 0-1.684-.047H20.028c-.782 0-1.551-.086-2.329-.11-.406-.015-.812-.062-1.222-.062a.573.573 0 0 1-.305-.07c.226-.004.45-.012.672-.012 1.136-.004 2.277-.004 3.414-.008h.09c.187 0 .379 0 .558-.035a.396.396 0 0 0 .153-.035c1.023-.012 2.046-.004 3.07-.063.324-.02.652-.023.98-.023h.399c.152 0 .308 0 .465-.004 1.84-.031 3.683-.043 5.523-.106 1.203-.043 2.41-.039 3.613-.078.66-.02 1.317-.043 1.977-.066.09-.004.184-.012.266-.031.054-.012.113-.055.125-.086.015-.063-.055-.11-.153-.118-.27-.015-.543-.03-.812-.03a33.4 33.4 0 0 1-2.582-.102c-.059-.004-.121-.004-.18-.004h-.16c-1.09.011-2.184.031-3.274.043-.73.004-1.457-.008-2.183.05-.043.004-.09.008-.137.008-1.59.016-3.18.035-4.773.094-.996.04-2 .031-3 .043-.438.004-.875.023-1.317.023-.285 0-.574-.007-.863-.035a2.092 2.092 0 0 0-.156-.008c-.04 0-.078.004-.117.004-.649.02-1.301.032-1.954.032-1.644 0-3.289-.055-4.93-.082-1.706-.028-3.41-.051-5.116-.059-.094-.004-.184-.004-.278-.004-.246 0-.496.012-.726.086a5.176 5.176 0 0 1-.246.008c-.004.027-.008.055-.008.082a6.39 6.39 0 0 0-.274.168c-.144.058-.273.12-.093.226.062.04.175.086-.004.098a5.283 5.283 0 0 1-.352.012c-.062 0-.125-.004-.187-.004H2.379c-.438.008-.727.137-.828.406-.02.008-.04.016-.059.027.121.028.238.055.36.075.207.035.132.105.07.175l.004-.003c-.059.023-.098.054-.145.085-.062.184-.035.231.18.235.586.008 1.176.008 1.766.008 1.566.008 3.132.011 4.695.027.75.008 1.496.04 2.242.063h.274c.484.171 1.015.199 1.554.203.328.004.66.004.988.004.36 0 .715 0 1.07-.004h1.547c2.516.007 5.028.074 7.54.152.105.004.218.012.328.012"></path></g><g clip-path="url(#c)"><path d="M5.281 15.008c-.664-.395-1.238-.906-1.84-1.38-.285-.222.118-.608.399-.386.539.422 1.05.871 1.633 1.235-.54-.704-.957-1.477-1.461-2.207-.203-.293.289-.57.492-.278.539.79.976 1.645 1.594 2.38-.086-.981-.297-1.892-1.032-2.626-.425-.422-1.218-.531-1.773-.707-.461-.144-.992-.336-1.36-.652.13 2.054 1.004 4.718 3.348 4.62zm3.367 4.168c.215-.582.856-1.164 1.457-1.414-1.164-.938-2.27-1.942-3.437-2.871-.02.015-.031.035-.055.05a2.1 2.1 0 0 0-.625.606l-.008.008c1.063 1.074 1.723 2.453 2.668 3.62zm.653.797c.414-.606 1.14-1.04 1.812-1.336l-.21-.223c-.532-.57-1.415.516-1.665.86-.152.214-.097.456.063.699zm1.62 1.375c.829.715 1.606 1.492 2.407 2.238 1.414 1.32 2.875 2.594 4.262 3.953 1.527 1.504 3.137 2.941 4.71 4.402.704.649 1.438 1.278 2.106 1.961.203.207.383.446.567.664.105.125.215.246.332.364.058.054.117.105.172.164.355.394.73.297 1.125-.29-.387-.73-1.274-1.374-1.84-1.964-.774-.809-1.547-1.61-2.32-2.414a2560.946 2560.946 0 0 0-4.516-4.696c-1.297-1.351-2.57-2.699-3.88-4.046-.718-.739-1.429-1.48-2.144-2.223-.129-.133-.254-.27-.386-.406-.676.289-1.446.71-1.82 1.355.437.395 1.007.75 1.226.938zM1.708 9.16c.156-.023.332.059.328.258-.012 1.059 2.23 1.281 3.004 1.633 1.168.531 1.5 2.027 1.617 3.187a.31.31 0 0 1 .16.059c1.38 1.074 2.645 2.273 4.024 3.348a.052.052 0 0 1 .02.023c.253.082.484.402.644.57.523.563 1.066 1.114 1.601 1.668.954.996 1.872 2.07 2.903 2.985.941.836 1.715 1.82 2.586 2.722l3.078 3.207c1.07 1.11 2.137 2.223 3.207 3.336.691.723 1.742 1.473 2.21 2.367a.27.27 0 0 1 .063.125c.223 1.29-1.261 1.489-2.074.832-.738-.597-1.336-1.445-2.039-2.097-1.074-.996-2.148-1.992-3.223-2.992-1.937-1.801-3.906-3.57-5.851-5.356-1.067-.984-2.078-2.027-3.14-3.015-.688-.641-1.59-1.13-2.075-1.942a.211.211 0 0 1-.121-.074c-1.277-1.367-1.98-3.164-3.41-4.402-.016-.012-.02-.024-.032-.04-3 .079-3.964-3.816-3.824-6.144.012-.195.192-.277.344-.258"></path></g></svg>