<svg xmlns="http://www.w3.org/2000/svg" width="50" viewBox="0 0 37.5 37.5" height="50" version="1.0"><defs><clipPath id="h"><path d="M6 5h24v13H6zm0 0"/></clipPath><clipPath id="a"><path d="M5.242 5.047H31V31.69H5.242zm0 0"/></clipPath><clipPath id="c"><path d="M8.91 20.887h3.55a1.478 1.478 0 0 1 1.481 1.48v9.457a1.478 1.478 0 0 1-1.48 1.48H8.91c-.391 0-.77-.156-1.048-.433a1.485 1.485 0 0 1-.433-1.047v-9.457a1.478 1.478 0 0 1 1.48-1.48zm0 0"/></clipPath><clipPath id="d"><path d="M16.031 16.137h6.59v17.02h-6.59zm0 0"/></clipPath><clipPath id="e"><path d="M17.512 16.137h3.55c.391 0 .77.152 1.047.43.278.277.434.656.434 1.046v14.203a1.478 1.478 0 0 1-1.48 1.48h-3.551a1.478 1.478 0 0 1-1.48-1.48V17.613a1.474 1.474 0 0 1 1.48-1.477zm0 0"/></clipPath><clipPath id="f"><path d="M24.633 12.047h6.59v21.332h-6.59zm0 0"/></clipPath><clipPath id="g"><path d="M26.11 12.047h3.554c.39 0 .766.156 1.043.433.281.278.434.657.434 1.047V31.82c0 .395-.153.77-.434 1.047a1.476 1.476 0 0 1-1.043.434H26.11a1.478 1.478 0 0 1-1.477-1.48V13.526c0-.39.157-.77.434-1.047a1.476 1.476 0 0 1 1.043-.433zm0 0"/></clipPath><clipPath id="b"><path d="M7.43 20.883H14V33.37H7.43zm0 0"/></clipPath><clipPath id="i"><path d="M6.086 15.406 29.152 3.61l2.02 3.957L8.109 19.36zm0 0"/></clipPath><clipPath id="j"><path d="M6.086 15.406 29.152 3.61l2.02 3.957L8.109 19.36zm0 0"/></clipPath><clipPath id="k"><path d="M6.086 15.406 29.152 3.61l2.02 3.957L8.109 19.36zm0 0"/></clipPath><clipPath id="l"><path d="M25 5h6v5h-6zm0 0"/></clipPath><clipPath id="m"><path d="M6.086 15.406 29.152 3.61l2.02 3.957L8.109 19.36zm0 0"/></clipPath><clipPath id="n"><path d="M6.086 15.406 29.152 3.61l2.02 3.957L8.109 19.36zm0 0"/></clipPath><clipPath id="o"><path d="M6.086 15.406 29.152 3.61l2.02 3.957L8.109 19.36zm0 0"/></clipPath></defs><g clip-path="url(#a)"><path fill="#fff96f" d="M18.586 5.066c1.262-.007 4.625.016 7.652 2.391 2.305 1.809 3.23 4.047 3.637 5.07 1.887 4.739.39 9.086-.098 10.426-.57 1.586-1.425 3.95-3.73 5.836-3.856 3.16-9.45 3.07-13.39 1.148-.645-.312-3.153-1.605-5.071-4.496-.352-.527-2.09-3.23-2.2-7.175-.038-1.325-.144-5.036 2.391-8.227 1.614-2.027 3.575-2.934 4.88-3.539 1.058-.492 3.116-1.414 5.929-1.434zm0 0"/></g><g clip-path="url(#b)"><g clip-path="url(#c)"><path fill="none" d="M8.91 20.887h3.55a1.478 1.478 0 0 1 1.481 1.48v9.457a1.478 1.478 0 0 1-1.48 1.48H8.91c-.391 0-.77-.156-1.048-.433a1.485 1.485 0 0 1-.433-1.047v-9.457a1.478 1.478 0 0 1 1.48-1.48zm0 0" stroke="#000" stroke-width="1.184208"/></g></g><g clip-path="url(#d)"><g clip-path="url(#e)"><path fill="none" d="M17.512 16.137h3.55c.391 0 .77.152 1.047.43.278.277.434.656.434 1.046v14.203a1.478 1.478 0 0 1-1.48 1.48h-3.551a1.478 1.478 0 0 1-1.48-1.48V17.613a1.474 1.474 0 0 1 1.48-1.477zm0 0" stroke="#000" stroke-width="1.184208"/></g></g><g clip-path="url(#f)"><g clip-path="url(#g)"><path fill="none" d="M26.11 12.047h3.554c.39 0 .766.156 1.043.433.281.278.434.657.434 1.047V31.82c0 .395-.153.77-.434 1.047a1.476 1.476 0 0 1-1.043.434H26.11a1.478 1.478 0 0 1-1.477-1.48V13.526c0-.39.157-.77.434-1.047a1.476 1.476 0 0 1 1.043-.433zm0 0" stroke="#000" stroke-width="1.184208"/></g></g><g clip-path="url(#h)"><g clip-path="url(#i)"><g clip-path="url(#j)"><g clip-path="url(#k)"><path d="M7.254 16.695c7.133-3.648 14.266-7.293 21.398-10.941.215-.11.45-.078.528.066.074.149-.04.36-.254.47-7.133 3.644-14.266 7.292-21.399 10.94-.215.11-.449.079-.523-.07-.078-.144.035-.355.25-.465zm0 0" fill-rule="evenodd"/></g></g></g></g><g clip-path="url(#l)"><g clip-path="url(#m)"><g clip-path="url(#n)"><g clip-path="url(#o)"><path d="M25.715 5.441c.46-.023 4.137-.363 4.305-.062.171.3-2.008 3.418-2.31 3.875a.291.291 0 0 1-.41.055.308.308 0 0 1-.062-.418c.664-1.008 1.282-2.028 1.942-3.028-1.133.082-2.282.114-3.414.172a.306.306 0 0 1-.317-.281.285.285 0 0 1 .266-.313zm0 0" fill-rule="evenodd"/></g></g></g></g></svg>