<svg xmlns="http://www.w3.org/2000/svg" xmlns:xlink="http://www.w3.org/1999/xlink" width="50" viewBox="0 0 37.5 37.499999" height="50" preserveAspectRatio="xMidYMid meet"><defs><g></g><clipPath id="20e800abc2"><path d="M 5.3125 5.113281 L 32 5.113281 L 32 32 L 5.3125 32 Z M 5.3125 5.113281 " clip-rule="nonzero"></path></clipPath></defs><g clip-path="url(#20e800abc2)"><path fill="#fff96f" d="M 18.898438 5.132812 C 20.183594 5.125 23.609375 5.148438 26.691406 7.53125 C 29.035156 9.34375 29.976562 11.59375 30.394531 12.621094 C 32.316406 17.375 30.789062 21.734375 30.296875 23.082031 C 29.710938 24.667969 28.839844 27.042969 26.496094 28.9375 C 22.570312 32.105469 16.875 32.015625 12.859375 30.085938 C 12.207031 29.773438 9.648438 28.476562 7.699219 25.578125 C 7.339844 25.046875 5.570312 22.335938 5.457031 18.378906 C 5.417969 17.046875 5.3125 13.324219 7.894531 10.125 C 9.535156 8.085938 11.53125 7.179688 12.859375 6.574219 C 13.941406 6.082031 16.035156 5.152344 18.898438 5.132812 Z M 18.898438 5.132812 " fill-opacity="1" fill-rule="nonzero"></path></g><g fill="#000000" fill-opacity="1"><g transform="translate(9.776611, 17.062497)"><g><path d="M 1.105469 0 L 4.441406 0 C 6.640625 0 8.800781 -0.859375 8.800781 -2.707031 C 8.800781 -3.996094 7.019531 -5.261719 5.089844 -5.390625 C 6.824219 -5.691406 8.308594 -6.769531 8.308594 -7.863281 C 8.308594 -9.113281 6.980469 -10.339844 4.113281 -10.339844 L 1.105469 -10.339844 Z M 2.863281 -5.402344 L 2.863281 -10.234375 L 3.90625 -10.234375 C 5.714844 -10.234375 6.5625 -8.972656 6.5625 -7.683594 C 6.5625 -6.535156 5.351562 -5.402344 4.113281 -5.402344 Z M 3.621094 -0.0507812 C 3.242188 -0.0507812 2.878906 -0.246094 2.878906 -0.441406 L 2.878906 -5.3125 L 4.414062 -5.3125 C 5.652344 -5.3125 6.863281 -4.023438 6.863281 -2.707031 C 6.863281 -0.898438 5.574219 -0.0507812 4.269531 -0.0507812 Z M 3.621094 -0.0507812 "></path></g></g></g><g fill="#000000" fill-opacity="1"><g transform="translate(19.925278, 17.062497)"><g><path d="M 0.9375 0 L 7.488281 0 L 7.5 -0.15625 L 7.488281 -0.15625 L 7.695312 -1.277344 L 7.578125 -1.277344 L 7.511719 -1.121094 C 7.34375 -0.703125 6.523438 -0.300781 5.832031 -0.300781 L 3.136719 -0.300781 C 2.800781 -0.300781 2.695312 -0.363281 2.695312 -0.441406 L 2.695312 -10.339844 L 0.9375 -10.339844 Z M 0.9375 0 "></path></g></g></g><g fill="#000000" fill-opacity="1"><g transform="translate(6.899658, 29.437497)"><g><path d="M 5.714844 0.128906 C 8.527344 0.128906 11.289062 -2.488281 11.289062 -5.167969 C 11.289062 -7.851562 8.59375 -10.46875 5.847656 -10.46875 C 3.152344 -10.46875 0.519531 -7.851562 0.519531 -5.167969 C 0.519531 -2.488281 3.097656 0.128906 5.714844 0.128906 Z M 5.742188 0 C 4.074219 0 2.433594 -2.566406 2.433594 -5.167969 C 2.433594 -7.773438 4.113281 -10.339844 5.820312 -10.339844 C 7.617188 -10.339844 9.375 -7.773438 9.375 -5.167969 C 9.375 -2.566406 7.578125 0 5.742188 0 Z M 5.742188 0 "></path></g></g></g><g fill="#000000" fill-opacity="1"><g transform="translate(19.730355, 29.437497)"><g><path d="M 5.949219 0.117188 C 7.683594 0.117188 9.582031 -0.351562 10.597656 -0.820312 L 10.558594 -0.886719 C 10.351562 -0.792969 10.050781 -0.703125 9.6875 -0.613281 C 9.699219 -1.289062 9.699219 -3.425781 9.699219 -4.492188 L 7.929688 -4.492188 L 7.929688 -3.347656 C 7.941406 -3.347656 7.941406 -1.953125 7.941406 -1.785156 C 7.839844 -0.964844 7.058594 -0.222656 6.25 -0.222656 C 4.347656 -0.222656 2.488281 -2.667969 2.488281 -5.167969 C 2.488281 -7.773438 4.246094 -10.339844 6.042969 -10.339844 C 6.835938 -10.339844 7.644531 -9.960938 8.347656 -9.441406 C 8.738281 -9.140625 9.414062 -8.449219 9.699219 -8.046875 C 9.714844 -8.019531 9.765625 -7.96875 9.777344 -7.941406 L 9.910156 -7.941406 L 9.910156 -9.570312 L 9.84375 -9.570312 L 9.832031 -9.386719 C 9.804688 -9.191406 9.492188 -9.21875 9.167969 -9.414062 C 8.386719 -10.011719 7.292969 -10.480469 5.976562 -10.480469 C 3.230469 -10.480469 0.535156 -7.863281 0.535156 -5.183594 C 0.535156 -2.5 3.214844 0.117188 5.949219 0.117188 Z M 5.949219 0.117188 "></path></g></g></g></svg>