<svg xmlns="http://www.w3.org/2000/svg" xmlns:xlink="http://www.w3.org/1999/xlink" width="50" zoomAndPan="magnify" viewBox="0 0 37.5 37.499999" height="50" preserveAspectRatio="xMidYMid meet" version="1.0"><defs><g/><clipPath id="38ffd7d7f8"><path d="M 0.46875 0 L 37 0 L 37 37.007812 L 0.46875 37.007812 Z M 0.46875 0 " clip-rule="nonzero"/></clipPath></defs><g clip-path="url(#38ffd7d7f8)"><path fill="#fff96f" d="M 19.339844 0.03125 C 21.125 0.0195312 25.882812 0.0546875 30.164062 3.429688 C 33.421875 5.996094 34.726562 9.179688 35.304688 10.632812 C 37.972656 17.371094 35.855469 23.546875 35.167969 25.453125 C 34.359375 27.703125 33.148438 31.066406 29.890625 33.746094 C 24.4375 38.238281 16.53125 38.113281 10.953125 35.378906 C 10.042969 34.933594 6.492188 33.09375 3.78125 28.988281 C 3.285156 28.238281 0.828125 24.398438 0.671875 18.792969 C 0.617188 16.910156 0.46875 11.632812 4.054688 7.097656 C 6.335938 4.214844 9.105469 2.925781 10.953125 2.070312 C 12.453125 1.371094 15.363281 0.0585938 19.339844 0.03125 Z M 19.339844 0.03125 " fill-opacity="1" fill-rule="nonzero"/></g><g fill="#000000" fill-opacity="1"><g transform="translate(10.234268, 31.376562)"><g><path d="M 17.445312 -7.785156 C 17.398438 -7.824219 17.335938 -7.824219 17.261719 -7.796875 C 17.199219 -7.761719 17.140625 -7.726562 17.078125 -7.664062 C 17.03125 -7.613281 16.992188 -7.566406 16.96875 -7.527344 C 16.859375 -7.332031 16.234375 -6.5625 15.09375 -5.191406 C 13.957031 -3.820312 12.546875 -2.398438 10.859375 -0.941406 C 9.167969 0.527344 7.457031 1.480469 5.71875 1.945312 L 5.703125 1.957031 C 5.59375 1.984375 5.484375 1.996094 5.363281 2.007812 C 5.324219 2.007812 5.289062 2.019531 5.253906 2.019531 C 5.191406 2.019531 5.140625 2.03125 5.09375 2.03125 C 5.09375 2.03125 5.09375 2.03125 5.082031 2.03125 L 5.03125 2.03125 C 4.996094 2.03125 4.96875 2.03125 4.933594 2.019531 C 4.886719 2.019531 4.847656 2.019531 4.800781 2.019531 C 4.492188 1.984375 4.222656 1.910156 3.964844 1.773438 C 3.476562 1.519531 3.074219 1.078125 2.742188 0.441406 C 2.460938 -0.0859375 2.242188 -0.722656 2.070312 -1.46875 C 1.933594 -2.082031 1.835938 -2.777344 1.773438 -3.539062 C 1.714844 -4.210938 1.691406 -4.921875 1.691406 -5.667969 C 1.703125 -7.089844 1.789062 -8.507812 1.945312 -9.964844 C 2.105469 -11.410156 2.324219 -12.832031 2.609375 -14.226562 C 2.890625 -15.660156 3.246094 -17.042969 3.671875 -18.386719 C 4.125 -19.832031 4.628906 -21.179688 5.179688 -22.417969 C 5.828125 -23.886719 6.5 -25.132812 7.199219 -26.175781 C 7.628906 -26.824219 8.054688 -27.375 8.484375 -27.828125 C 8.703125 -28.058594 8.949219 -28.28125 9.230469 -28.511719 C 9.523438 -28.734375 9.804688 -28.917969 10.0625 -29.027344 C 10.355469 -29.160156 10.652344 -29.246094 10.933594 -29.273438 C 11.238281 -29.296875 11.53125 -29.257812 11.828125 -29.160156 C 12.109375 -29.074219 12.378906 -28.941406 12.632812 -28.746094 C 12.867188 -28.5625 13.085938 -28.339844 13.28125 -28.058594 L 13.429688 -27.863281 L 13.578125 -27.605469 C 13.578125 -27.59375 13.589844 -27.59375 13.589844 -27.59375 C 13.601562 -27.570312 13.601562 -27.558594 13.613281 -27.546875 L 13.773438 -27.203125 C 14.3125 -26.078125 14.570312 -24.875 14.554688 -23.589844 C 14.554688 -22.304688 14.410156 -21.082031 14.128906 -19.917969 C 13.835938 -18.753906 13.550781 -17.800781 13.246094 -17.042969 C 12.953125 -16.292969 12.78125 -15.890625 12.746094 -15.828125 C 12.746094 -15.828125 12.730469 -15.816406 12.71875 -15.792969 C 12.707031 -15.78125 12.683594 -15.742188 12.671875 -15.71875 C 12.648438 -15.683594 12.632812 -15.644531 12.609375 -15.621094 C 12.597656 -15.585938 12.585938 -15.558594 12.574219 -15.535156 C 12.476562 -15.253906 12.585938 -15.09375 12.878906 -15.058594 C 13.039062 -15.046875 13.183594 -15.082031 13.308594 -15.179688 C 13.429688 -15.277344 13.503906 -15.402344 13.527344 -15.558594 C 13.550781 -15.71875 13.601562 -15.878906 13.664062 -16.050781 L 13.835938 -16.578125 L 14.152344 -17.628906 C 14.1875 -17.777344 14.238281 -17.921875 14.273438 -18.070312 C 14.433594 -18.621094 14.59375 -19.183594 14.726562 -19.757812 C 14.898438 -20.457031 15.035156 -21.191406 15.144531 -21.949219 C 15.242188 -22.683594 15.289062 -23.433594 15.277344 -24.203125 C 15.277344 -25.023438 15.179688 -25.78125 15.023438 -26.46875 C 14.949219 -26.785156 14.824219 -27.152344 14.65625 -27.582031 C 14.628906 -27.644531 14.605469 -27.703125 14.570312 -27.753906 L 14.46875 -27.988281 C 14.445312 -28.011719 14.433594 -28.046875 14.421875 -28.070312 L 14.25 -28.367188 L 14.078125 -28.625 C 13.808594 -28.992188 13.527344 -29.285156 13.234375 -29.515625 C 12.890625 -29.785156 12.523438 -29.980469 12.121094 -30.117188 C 11.714844 -30.238281 11.289062 -30.300781 10.859375 -30.277344 C 10.457031 -30.238281 10.050781 -30.140625 9.636719 -29.957031 C 9.304688 -29.8125 8.960938 -29.601562 8.605469 -29.332031 C 8.277344 -29.0625 7.980469 -28.808594 7.738281 -28.550781 C 7.261719 -28.058594 6.78125 -27.460938 6.316406 -26.785156 C 5.558594 -25.695312 4.847656 -24.398438 4.148438 -22.882812 C 2.9375 -20.210938 2.03125 -17.410156 1.421875 -14.46875 C 0.769531 -11.324219 0.441406 -8.386719 0.453125 -5.667969 C 0.464844 -3.941406 0.613281 -2.449219 0.917969 -1.199219 C 1.113281 -0.355469 1.382812 0.378906 1.714844 0.992188 C 1.921875 1.382812 2.167969 1.726562 2.425781 2.007812 C 2.730469 2.339844 3.074219 2.59375 3.453125 2.792969 C 3.832031 2.976562 4.261719 3.097656 4.699219 3.132812 C 4.773438 3.132812 4.847656 3.144531 4.910156 3.144531 C 4.945312 3.144531 4.984375 3.144531 5.007812 3.144531 L 5.070312 3.144531 C 5.152344 3.144531 5.238281 3.132812 5.324219 3.132812 L 5.460938 3.121094 C 5.621094 3.097656 5.789062 3.074219 5.960938 3.035156 C 6.792969 2.792969 7.515625 2.484375 8.105469 2.09375 C 8.679688 1.738281 9.292969 1.308594 9.941406 0.785156 C 10.480469 0.355469 11.03125 -0.121094 11.617188 -0.671875 C 12.585938 -1.578125 13.613281 -2.632812 14.691406 -3.84375 C 15.207031 -4.433594 15.683594 -4.984375 16.109375 -5.519531 L 16.796875 -6.390625 L 16.847656 -6.441406 C 17.042969 -6.707031 17.261719 -6.976562 17.480469 -7.234375 C 17.480469 -7.246094 17.496094 -7.261719 17.496094 -7.273438 C 17.640625 -7.46875 17.628906 -7.640625 17.445312 -7.785156 Z M 17.445312 -7.785156 "/></g></g></g></svg>