<svg xmlns="http://www.w3.org/2000/svg" width="50" viewBox="0 0 37.5 37.5" height="50" xml:space="preserve"><defs><clipPath id="a"><path d="M5.313 5.113H32V32H5.312zm0 0"></path></clipPath></defs><g clip-path="url(#a)"><path fill="#fff96f" d="M18.898 5.133c1.286-.008 4.711.015 7.793 2.398 2.344 1.813 3.286 4.063 3.704 5.09 1.921 4.754.394 9.113-.098 10.461-.586 1.586-1.457 3.961-3.8 5.855-3.927 3.168-9.622 3.079-13.638 1.149-.652-.313-3.21-1.61-5.16-4.508-.36-.531-2.129-3.242-2.242-7.2-.039-1.331-.144-5.054 2.438-8.253 1.64-2.04 3.636-2.945 4.964-3.55 1.082-.493 3.176-1.423 6.04-1.442zm0 0"></path></g><g transform="matrix(.01445 0 0 .01434 .829 2.956)" style="stroke-width:196.874;stroke-dasharray:none" clip-path="url(#clipPath5099)"><path d="M1395.1 1539.7c-102.2 0-206.8-17.5-308.2-53.1-27.2-9.6-54.1-20.9-79.8-33.5-79.9-33.8-177.2-119.8-181.4-123.5-133.9-121.5-220.7-281.3-244.6-450-26.1-184.5 28.3-382 149.2-542C850.9 178.2 1025.7 71.4 1210 44.5c118.9-17.4 245-9.4 374.8 23.9 142.2 36.3 338.6 114.7 466.9 282C2164 496.8 2208 697.9 2169.3 888.1c-40.1 197.8-152.6 388-293.5 496.5-132.5 102.1-302.8 155-480.7 155.1zM630.42 876.45c22.8 160.9 98.61 306.253 226.61 422.353.8.7 88.87 92.097 163.77 123.497l.9.4c24.6 12.1 50.4 22.9 76.5 32.1 267.4 94.1 522.982 42.508 722.582-111.292 134.8-103.8 276.918-271.908 315.518-462.008 36.8-180.9-29.35-367.352-135.75-506.252-122.5-159.7-471.994-321.087-742.411-292.508C917.924 118.694 577.92 506.05 630.42 876.45z" style="fill:#000;fill-opacity:1;fill-rule:nonzero;stroke:none;stroke-width:196.874;stroke-dasharray:none"></path><path d="M1394.776 1401.648c-82.7 0-190.512 1.841-272.612-27.059-214.3-75.4-373.247-304.983-404.247-523.983C696.717 701.006 755.2 552.4 853.3 422.7c97.7-129.3 233.647-220.248 383.147-242.048 152.392-14 218.536-7.5 323.636 19.3C1675.283 229.352 1820 297.3 1924 432.9c91.1 118.9 155.565 282 124.265 436.3-32.5 160.2-143.836 323.095-258.036 411.095-107.4 82.8-251.253 121.353-395.453 121.353zM1343 211.5c-32.6 0-64.6 2.3-96 6.9-298.5 43.5-523.4 342.2-481.4 639.1 29.3 206.9 182.323 403.945 385.023 475.245 214.6 75.5 450.277 35.655 610.377-87.745 108.1-83.2 194.5-229.8 225.5-382.4 29.4-144.9-3.9-297.9-89.2-409.1-98.1-128-249.9-188.4-360-216.5-66.3-17-131.4-25.5-194.3-25.5zM651.885 2255.25c-34.6 0-74.8-11.9-121.3-35.8-43.5-22.4-90-52-105-102-4.3-14.5-5.7-30-4.2-46 1.8-19 7.9-39.3 18.5-62.1 8.4-17.9 18.5-34.9 26.4-47.7 172.6-280.9 262.215-337.45 445.515-585.35 5.5-7.5 16.1-9 23.5-3.5 7.5 5.5 24.92 42.186 17.883 40.89-200.16 241.603-253.186 268.69-425.086 548.49-7.4 12.1-37.908 46.194-45.608 62.494-8.9 19.1-15.017 34.775-16.517 49.975-1.2 11.9-1.32 28.497 1.78 38.897 11.4 37.9 40.833 56.803 78.033 75.903 67.5 34.7 101.579 33.854 136.879 12.554 25.8-15.7 53.553-49.926 67.553-76.526 33.9-64.2 71.768-117.128 105.568-181.328l232.47-471.04c-14.758-10.597 18.745 7.09 23.445-.41 5-7.9 15.3-10.2 23.2-5.3 7.9 5 10.2 15.3 5.3 23.2-4.2 6.7-7.1 11.6-9.2 15.6l-245.515 453.65c-33.8 64.2-67.6 128.4-101.5 192.6-15.3 29-34.3 65.1-68.1 85.6-18.7 11.5-40 17.2-64 17.2zM336.4 2218c-258.862-1524.182-129.43-762.09 0 0z" style="fill:#000;fill-opacity:1;fill-rule:nonzero;stroke:none;stroke-width:196.874;stroke-dasharray:none"></path></g></svg>