<svg xmlns="http://www.w3.org/2000/svg" width="150" viewBox="0 0 112.5 75" height="100" version="1.0"><defs><clipPath id="a"><path d="M36.547 8.621h39.75v57.746h-39.75zm0 0"/></clipPath><clipPath id="b"><path d="M0 15.73h112.004v44.207H0zm0 0"/></clipPath></defs><g clip-path="url(#a)"><path fill="#fff96f" d="M42.695 19.66c-.027.008-.058.012-.09.016.02.097.036.195.051.293.032-.008.063-.012.094-.02-.02-.097-.035-.191-.055-.289zm28.106 37.844c.035-.004.066-.008.101-.008-.007-.082-.02-.164-.03-.246-.024.004-.048.004-.071.008v.246zm-20.567-40.23v-.54c-.086.172-.39.344 0 .54zm-.347.449v.582c.164-.184.316-.371 0-.582zm-.801-4.746c.055.238.078.367.11.488.038.14.085.281.144.46.11-.214.11-.214-.254-.948zm10.852 42.101c-.04-.457-.086-.914-.372-1.297.063.45.028.926.371 1.297zM57.742 9.344c-.234.004-.472.062-.523.324-.063.309.117.55.37.855.06-.453.106-.8.153-1.18zm-14.894 6.77c0 .327-.008.538.004.75.007.195.097.41.043.581-.168.543.07.989.27 1.457.05-.117.046-.234.05-.347.004-.48-.16-.946-.067-1.45.051-.273-.027-.625-.3-.992zm32.406 28.593c-.027-.137-.059-.273-.086-.41-.469.101-.676.316-.691.703-.016.34-.016.664-.235.965-.094.129-.094.351-.086.527.012.219-.101.336-.265.43-.215.125-.383.078-.489-.145-.03-.062-.03-.14-.05-.21-.012-.051-.036-.098-.07-.188-.739.226-.852 1.164-1.61 1.367.039.516.008 1.024.101 1.547.141.785.114 1.602.028 2.402a.415.415 0 0 1-.114.235c-.175.14-.148.347-.218.523-.2.524-.176.973.191 1.41.055.07.028.254-.02.36-.148.351-.1.703-.07 1.062.016.188-.054.406.012.57.16.383-.086.766.027 1.114.106.34.036.562-.16.836-.144.203-.168.5-.261.808-.07-.242-.13-.437-.192-.652-.144.758-.129.922.137 1.344-.067.16-.238.332-.004.515.043.032.05.2.008.242-.18.18-.16.376-.114.594.051.223-.101.324-.27.414-.327.18-.66.356-.991.535-.024-.738-.024-.738-.465-.87-.184.285.121.683-.215.949-.23.183-.414.43-.625.652.023.992.05 2.02.066 3.047.008.441-.273.71-.636.984-.067-.148-.157-.258-.157-.367-.011-.57-.19-1.113-.277-1.668-.043-.27.129-.602.281-.86.11-.183.196-.253-.027-.417-.098-.07-.102-.29-.117-.446-.024-.265-.133-.441-.422-.523-.215.258-.168.523-.023.789.156.293.144.55-.145.805-.254-.457-.313-.953-.406-1.438-.055-.281-.067-.265-.266-.578-.125-.195-.11-.473-.324-.648-.192-.157-.36-.348-.531-.536-.153-.167-.29-.347-.446-.535-.148.274-.18.946-.078 1.703.078.551.176 1.102.262 1.641-.152 0-.316-.035-.457.012-.145.047-.262.172-.422.285-.555-1.117-.512-2.34-.871-3.457-.035.004-.074.008-.113.016.043.617.093 1.23.132 1.847.016.27.2.567-.113.793h.024c-.118-.129-.325-.246-.336-.383-.051-.547-.297-1.027-.446-1.539-.027-.078-.007-.172-.004-.261 0-.106.036-.223.008-.317-.156-.515-.34-1.015-.484-1.531-.133-.48-.227-.977-.348-1.461-.054-.223-.129-.441-.195-.656-.398.035-.164.363-.277.508-.317-.149-.157-.653-.621-.68-.06.117-.122.25-.223.472-.082-.453-.184-.816-.508-1.109 0 .34-.031.684.008 1.02.043.367.07.715-.102 1.058-.039.074-.031.18-.031.27.016.52.02 1.043.055 1.562.02.266.101.528.144.793.035.211.055.426.086.637.051.367.168.742.14 1.105-.062.723.138 1.477-.198 2.172-.121.254-.29.485-.446.723a3.996 3.996 0 0 1-.285.39c-.625.743-1.02.758-1.703.114-.125-.117-.234-.254-.352-.379-.039.012-.082.023-.125.035-.007.211-.02.422-.03.68-.102-.07-.212-.11-.255-.184-.433-.707-.855-1.422-1.277-2.133-.027-.043-.055-.117-.094-.125-.437-.066-.297-.347-.207-.609-.11.008-.262.047-.273.023-.223-.468-1.016-.492-.926-1.218.02-.145-.234-.325-.406-.535.11-.973-.746-1.598-1.09-2.454-.297.11-.465.325-.594.598-.187.414-.406.813-.957.883-.047-.066-.11-.149-.187-.254-.286.082-.543.172-.82.363-.356.242-.86.278-1.31.367-.09.02-.21-.113-.343-.195-.082.16.09.488-.191.477-.262-.008-.586.187-.793-.145-.188-.304-.375-.61-.56-.918-.112-.191-.214-.39-.323-.59-.52.356-.387.864-.414 1.332-.594-.043-.883-.382-1.137-.796-.106-.18-.258-.333-.395-.489-.203-.23-.453-.43-.609-.687-.195-.324-.36-.63-.867-.512.055-.176.117-.289.113-.398 0-.153-.012-.336-.094-.45-.226-.293-.496-.554-.742-.832-.023-.027-.035-.062-.066-.117.086-.066.172-.137.273-.219-.219-.074-.36-.195-.433-.363-.282-.621-.282-.621-.723-.894.133-.098.25-.184.371-.278-.008-.054.004-.12-.023-.152-.286-.316-.457-.68-.582-1.086a8.715 8.715 0 0 0-.547-1.328c-.137-.281-.196-.563-.254-.867-.067-.352-.32-.672-.492-1.004-.055-.114-.145-.211-.176-.328-.219-.868-.422-1.735-.645-2.602-.136-.52-.3-1.031-.449-1.55-.012-.051-.016-.106-.02-.16-.046-1.009-.331-1.985-.425-2.977-.047-.512-.07-1.032-.137-1.543-.062-.48-.07-.97-.144-1.446a121.25 121.25 0 0 0-.63-3.562c-.097-.512-.28-1.008-.406-1.516-.05-.203-.05-.422-.07-.633-.012-.14-.023-.28-.031-.422-.008-.175-.008-.351-.012-.527-.004-.086.024-.187-.012-.258-.199-.379-.125-.777-.129-1.172-.011-.554-.066-1.109-.054-1.664.011-.754.066-1.504.101-2.257.008-.137.035-.29-.004-.415-.097-.324-.074-.632-.007-.96.156-.739.277-1.489.414-2.23.02-.106.02-.231.07-.317.465-.73.465-1.578.633-2.383.039-.192.094-.414.219-.543.332-.34.363-.723.289-1.149-.012-.062.004-.132.011-.199 0-.008.032-.015.098-.047.031.125.066.239.102.371.035-.039.082-.07.097-.109.047-.156.063-.324.133-.465.047-.097.145-.203.242-.23.059-.02.172.094.235.168.062.074.093.172.238.258.05-.395.105-.79.156-1.176.242-.031.434-.051.602-.074-.07-.809-.133-1.614-.207-2.418-.032-.332.039-.598.37-.79.184.286.286.563.298.876.015.394.156.73.449 1.015.543.535.77 1.246 1.004 1.945.144.422.176.485.441.727.156-.168.184-.336.028-.516-.286-.324-.336-.664-.098-1.043a.638.638 0 0 0 .078-.363 57.214 57.214 0 0 0-.184-2.316c-.027-.262-.144-.508-.195-.77-.047-.222-.055-.453-.082-.695.488.074.5.125.605.52.126.46.204.93.254 1.406.04-.004.075-.004.11-.008.011-.07.035-.14.035-.211-.008-.106-.066-.223-.04-.316.192-.653-.054-1.278-.077-1.918-.024-.622.097-1.235.402-1.774.16-.277.484-.46.73-.68.286.094.54.176.786.254.144-.308.246-.593.394-.851.18-.309.801-.422 1.16-.223.364.195.739.383 1.063.633.187.144.324.387.41.613.09.23.094.496.125.746.031.235.086.45.344.61.07-.168.125-.301.176-.434.488.172.765.555 1.039.938.242.34.257.761.273 1.156.004.148-.234.3-.363.453.426.172.453.21.457.71.004.25-.008.5-.004.747.004.145 0 .328.207.309.066-.008.172-.172.172-.266-.008-.238.16-.477-.043-.727-.086-.105.008-.308.191-.304.211.004.39-.004.602-.09.164-.067.43.125.652.176.153.035.313.02.551.03 0-.253.023-.46-.008-.667a5.913 5.913 0 0 1 .008-1.598c.02-.133-.035-.273-.063-.41-.042-.223-.117-.441-.14-.668a3.024 3.024 0 0 1-.004-.703c.027-.203.113-.398.168-.602.039-.136.07-.277.113-.41.11-.363.215-.726.344-1.086.102-.289.309-.437.644-.34.25.301.32.665.325 1.055.004.176.015.356.058.528.024.09.11.218.184.234.367.059.547.316.715.598.015.023.066.02.136.039.317-.598.293-1.512 1.305-1.54.172-.18.094-.55.442-.617l.55.524c.063-.227.114-.371.145-.516.043-.203.105-.402.332-.445.234-.043.36.125.45.32.21.457.425.914.644 1.38.12-.024.265-.102.382-.067.122.039.22.168.313.273.2.223.39.453.637.742.172-.468.058-.793-.118-1.113-.085-.164-.175-.336.141-.426.027.094.047.18.074.258.106.297.157.637.575.672.066.004.144.05.19.098.345.382.7.757 1.02 1.16.098.125.122.324.141.492.063.488.266.906.54 1.328.273-.285-.032-.437-.052-.71.23.194.418.35.606.507l.117-.07c-.05-.196-.105-.387-.191-.703.507.558.949 1.023 1.367 1.511.105.13.117.336.207.48.11.18.262.337.45.567.163-.21.28-.367.42-.547.161.211.321.418.478.617.433-.136.035-.582.39-.757.113.449.192.898.348 1.32.152.414.25.871.586 1.215.293-.074.285-.301.304-.512.059-.586.063-.586.477-.789.039-.438.043-.852.125-1.25.066-.305.234-.586.363-.879.09-.203.246-.309.477-.27.246.044.496.047.62.348.177.43.388.848.782 1.133.102.07.207.191.317.195.41.02.535.34.687.614.32.574.559 1.18.785 1.796.11.297.332.555.516.825.078.12.203.215.082.379-.027.035-.031.12-.004.152.496.59.266 1.375.55 2.023-.116.434-.038.868.09 1.274.18.586.254 1.187.368 1.785.02.105.039.223.101.305.305.402.207.898.325 1.34.023.078.043.19.003.25-.234.351-.113.64.137.921.082.094.153.2.238.32-.097.255-.195.481-.027.786.137.246.082.598.113.898.055.551.11 1.102.168 1.653.012.12.051.238.082.355.024.082.098.176.082.25-.101.492.114.914.274 1.352.086.238.031.28-.305.308.153.785.266 1.578.477 2.352.203.754.297 1.515.34 2.293.03.554.129 1.105.203 1.656.011.106.039.219.093.305.27.418.211.855.11 1.3a1.537 1.537 0 0 0-.047.422c.016.356.164.711-.059 1.051.184.57-.168 1.086-.175 1.64-.004.153-.102.306-.157.458-.07.2-.14.398-.226.637-.094-.047-.196-.102-.301-.153l.004.008"/></g><path fill="#fff96f" d="M51.883 15.023c-.059-.214-.094-.437-.176-.644-.086-.219-.238-.41-.312-.629-.075-.207-.254-.414-.036-.746.145.379.29.691.391 1.016.098.32.34.62.133 1.003M48.438 10.996c.374.195.144.527.238.79-.313-.2-.098-.544-.239-.79M63.39 62.785h-.023c.07.086.14.176.227.285-.285 0-.285 0-.203-.285M75.25 44.7c.023.148.043.3.066.448-.035.004-.07.004-.105.008l.047-.449c-.004 0-.008-.008-.008-.008"/><g clip-path="url(#b)"><path d="M42.156 32.922c-.105-.008-.218-.02-.34-.031-.73-.09-1.636-.293-2.629-.59-1.968-.59-3.874-1.426-4.738-2.074-.469-.356-.433-.504-.433-.504.011-.035.043-.141.297-.192.085-.015.183-.023.289-.023.859 0 2.43.5 4.156 1.34 1.328.64 2.52 1.379 3.398 2.074zm1.883 12.863c-5.234-6.398-10.242-13.023-10.754-13.898-1.078-1.852-.254-3.551 1.317-5.532.367-.457.691-.878 1.007-1.289 1.043-1.347 1.797-2.324 2.614-2.93.203-.156.332-.238.515-.238.227 0 .543.133 1.211.43 1.051.469 2.813 1.254 6.27 2.34.078.023.14.086.187.187.371.79-.246 3.247-1.011 5.16-.57 1.426-1.415 2.36-2.02 2.762-.082.055-.246.125-.566.153-.922-.817-2.29-1.692-3.871-2.457-1.61-.782-3.688-1.543-4.7-1.348-.414.078-.562.305-.613.477-.086.285.105.597.582.957.898.675 2.852 1.535 4.863 2.14 1.012.301 1.946.512 2.696.602.34.043.636.058.894.05.235.22.434.426.59.626 1.863 2.37 8.629 17.21 9.969 20.16a70.837 70.837 0 0 0 1.562 3.246c.13.25.246.469.356.664-2.18-1.82-6-6.035-11.098-12.262zM77.707 29.68c-1.57 1.367-4.516 2.754-7.73 3.027-.528.043-.754.008-.844-.02.078-.093.324-.324 1.113-.722.719-.367 1.684-.762 2.711-1.121 1.746-.606 3.418-1.012 4.75-1.164zm-5.273-7.856-.051.024c-1.051.48-2.633.949-4.336 1.28-1.621.313-2.633.368-2.875.306.18-.18.898-.579 2.402-.985.946-.254 2.817-.668 4.86-.625zM56.98 57.938c.34-.653.743-1.512 1.13-2.344.417-.899.812-1.746 1.109-2.29.457-.831 2.644-5.413 4.613-9.788 2.637-5.864 3.957-9.262 3.93-10.094-.012-.281-.215-.527-.606-.734-.004-.004-.008-.008-.015-.012.09-.211.156-.477.222-.805.309-1.52-.851-3.863-1.363-4.8-.793-1.446-1.95-3.055-2.629-3.333-.633-.258-4.371-.285-9.586-.293-2.789-.004-5.422-.011-6.105-.097-.742-.094-2.516-.66-4.313-1.371a28.236 28.236 0 0 1-2.258-1c-.699-.36-.918-.551-.988-.63 1.262-1.253 6.953-3.628 8.008-3.992.46-.16 3.559-.238 8.086-.203 3.77.028 7.566.125 8.125.211.61.094 2.816.977 5.129 2.047a49.878 49.878 0 0 1 2.969 1.48c1.042.583 1.304.829 1.367.907-.078.168-.266.394-.692.664a3.891 3.891 0 0 0-.527-.047c-1.598-.05-3.496.191-5.2.656-.71.196-1.335.418-1.808.64-.703.33-.824.552-.851.692-.012.067-.036.29.27.41.706.278 5.198-.507 7.554-1.585.242-.11.457-.223.644-.332.98.183 1.868.734 2.493 1.558 2.269 2.977 3.105 4.317 3.132 4.578.024.246-.136.594-.457.985a4.016 4.016 0 0 1-.175.199c-1.934.129-4.22.844-5.22 1.187-1.85.633-3.87 1.528-4.21 2.11-.11.183-.059.32-.016.386.133.22.516.286 1.266.22a15.61 15.61 0 0 0 5.367-1.466c1.227-.59 2.293-1.316 2.996-2.03.29-.017.555-.017.797 0 .16.01.184.077.2.112.042.11.066.407-.263 1.157-.246.566-.656 1.3-1.21 2.18-.985 1.554-2.426 3.558-4.286 5.96-3.39 4.383-7.16 8.774-8.636 10.36-.856.914-1.77 1.964-2.739 3.078-1.828 2.093-3.82 4.379-5.363 5.672.035-.063.07-.133.11-.203zm8.41-24.735c-.226.047-.488.102-.788.168-1.207.277-5.754.434-10.133.356-2.352-.043-4.383-.149-5.875-.309-.828-.086-1.48-.188-1.946-.3-.574-.145-.707-.27-.734-.302a.516.516 0 0 1 .16-.136c.168-.106.84-.375 3.461-.582 1.824-.145 4.11-.22 6.442-.211 4.953.02 8.875.386 10.543.976-.207.153-.56.227-1.13.34zm26.688 26.258c-8.187 0-15.27.012-18.082.043-2.207.02-4.332 0-4.355 0-.114 0-11.164.012-12.97-.473a1.888 1.888 0 0 1-.19-.066c.554-.39 1.206-.961 1.984-1.735 1.273-1.27 2.7-2.906 4.078-4.488a125.06 125.06 0 0 1 2.727-3.066c1.484-1.594 5.261-5.996 8.664-10.39 1.867-2.411 3.316-4.427 4.304-5.993 1.64-2.594 1.649-3.36 1.512-3.711-.09-.223-.285-.355-.555-.375a8.4 8.4 0 0 0-.449-.012c.356-.453.516-.86.48-1.207-.015-.164-.066-.656-3.21-4.789a4.532 4.532 0 0 0-2.356-1.62c.281-.224.465-.454.55-.688a.337.337 0 0 0-.038-.282c-.336-.57-3.02-1.875-4.59-2.601-2.02-.938-4.45-1.942-5.18-2.055-.586-.09-4.332-.187-8.183-.215-2.766-.02-7.516-.02-8.223.227-.476.164-2.2.851-4.023 1.703-2.258 1.05-3.672 1.875-4.203 2.45a.32.32 0 0 0-.063.331c.055.153.242.395 1.195.887.59.305 1.383.656 2.293 1.016 1.836.73 3.657 1.308 4.43 1.406.71.094 3.238.097 6.16.101 2.102.004 4.278.008 6.055.043 2.465.051 3.2.149 3.379.223.441.18 1.468 1.406 2.422 3.145 1.02 1.87 1.515 3.558 1.32 4.515-.066.328-.125.559-.195.727-2.434-.934-8.801-1.032-10.79-1.04-4.203-.011-9.163.247-10.12.856-.383.242-.391.48-.325.637.114.281.563.605 3 .867 1.5.156 3.543.266 5.914.309 4.414.082 9.008-.082 10.246-.364.297-.066.555-.12.782-.168.656-.132 1.054-.214 1.336-.449.043-.039.086-.078.125-.125.007.008.023.012.03.02.247.129.384.265.388.383.023.734-1.395 4.347-3.895 9.906-2.098 4.672-4.2 9.035-4.598 9.761-.3.551-.699 1.407-1.12 2.313-.364.777-.739 1.582-1.063 2.21-.371.72-.555.97-.637 1.06-.102-.114-.363-.473-.965-1.633a76.668 76.668 0 0 1-1.484-3.09c-1.34-2.961-8.125-17.836-10.016-20.246a5.22 5.22 0 0 0-.383-.426c.164-.04.301-.094.41-.168.317-.21 1.415-1.05 2.176-2.953.407-1.012.75-2.129.95-3.067.25-1.156.265-1.972.05-2.425-.097-.211-.242-.348-.433-.41-3.438-1.079-5.184-1.856-6.227-2.32-1.183-.528-1.465-.653-2.14-.15-.86.641-1.625 1.637-2.692 3.012-.312.407-.64.829-1.004 1.286-1.449 1.828-2.617 3.82-1.351 5.996.53.914 5.453 7.43 10.793 13.957 3.011 3.676 5.593 6.672 7.672 8.902 1.894 2.031 3.308 3.36 4.28 4.02-.198.101-.382.168-.542.195-1.516.246-39.676.355-60.254.355h-3.691v.414h3.687c7.55 0 17.512-.015 27.152-.042 11.899-.04 32.028-.13 33.168-.317.258-.043.551-.16.883-.355.184.101.348.172.488.21 1.856.5 12.606.485 13.075.485.07 0 2.175.023 4.359 0 2.813-.031 9.887-.04 18.074-.04 9.848 0 21.297.013 28.867.024v-.414c-7.566-.011-19.02-.027-28.863-.027"/></g></svg>