<svg xmlns="http://www.w3.org/2000/svg" width="50" viewBox="0 0 37.5 37.5" height="50"><defs><clipPath id="a"><path d="M5.313 5.113H32V32H5.312zm0 0"></path></clipPath></defs><g clip-path="url(#a)"><path fill="#b495ed" d="M18.898 5.133c1.286-.008 4.711.015 7.793 2.398 2.344 1.813 3.286 4.063 3.704 5.09 1.921 4.754.394 9.113-.098 10.461-.586 1.586-1.457 3.961-3.8 5.855-3.927 3.168-9.622 3.079-13.638 1.149-.652-.313-3.21-1.61-5.16-4.508-.36-.531-2.129-3.242-2.242-7.2-.039-1.331-.144-5.054 2.438-8.253 1.64-2.04 3.636-2.945 4.964-3.55 1.082-.493 3.176-1.423 6.04-1.442zm0 0"></path></g><path d="M13.884 14.078c.742 0 1.473-.652 1.473-1.32 0-.492-.602-1.195-1.352-1.473-.75-.273-1.356-.902-1.356-1.336 0-.5.458-.996.934-.996.191 0 .414.067.621.176.266.145.688.559.844.86.008.007.02.046.027.054l.047.008v-.586h-.027c0 .02-.012.04-.012.055 0 0-.695-.39-.84-.465l-.011.008a1.912 1.912 0 0 0-.649-.137c-.668 0-1.324.605-1.324 1.227 0 .511.664 1.261 1.508 1.562.648.238 1.172.809 1.172 1.2 0 .577-.524 1.136-1.055 1.136-.235 0-.527-.121-.793-.305-.25-.18-.613-.62-.777-.922-.012-.007-.02-.046-.028-.054h-.039v.683h.04v-.07c.007-.047.26.09.519.281.328.25.742.414 1.078.414zM18.496 14.094c.852 0 1.903-.695 2.122-1.399h-.028c-.191.622-1.207 1.235-2.039 1.235-.879 0-1.738-1.227-1.738-2.477 0-.304.035-.578.101-.836h3.84c-.097-1.023-1.086-1.68-2.031-1.68-1.25 0-2.488 1.079-2.488 2.735 0 1.227 1.117 2.422 2.261 2.422zm-1.574-3.512c.285-.996 1.035-1.61 1.793-1.61.633 0 1.309.63 1.426 1.602zM21.76 7.977a.38.38 0 0 0 .36-.36.377.377 0 0 0-.36-.355.376.376 0 0 0-.355.355c0 .184.175.36.355.36zm-.273 6.027h.55V9.028h-.277l-.41.109v.047h.027c.055.015.11.226.11.437zM24.524 14.094c.375 0 .961-.418 1.18-.848l-.062-.039c-.157.313-.633.625-.954.625-.41 0-.812-.422-.812-1.082l.016-3.43h1.519v-.292h-1.52v-1.2h-.042l-1.11 1.317v.093h.598v3.395c0 .887.582 1.46 1.187 1.46zM9.217 19.4c0 .343-.058.679-.171 1-.106.312-.262.64-.47.984-.21.336-.464.683-.765 1.047-.305.367-.64.757-1.015 1.171l-2.454 2.72h3.344c.219 0 .395-.032.531-.095.145-.062.266-.14.36-.234a.965.965 0 0 0 .203-.344 2.79 2.79 0 0 0 .125-.422l.062-.25h.61l-.078 2.5H3.264v-1.062l2.422-2.797c.383-.445.707-.848.969-1.203.27-.352.484-.688.64-1 .157-.313.27-.617.344-.922.07-.3.11-.617.11-.953 0-.27-.032-.516-.094-.734a1.616 1.616 0 0 0-.266-.594 1.118 1.118 0 0 0-.453-.375 1.677 1.677 0 0 0-.672-.125c-.324 0-.59.058-.797.172-.21.117-.375.273-.5.468-.117.2-.195.43-.234.688-.043.262-.062.539-.062.828-.168 0-.329-.016-.485-.047a1.123 1.123 0 0 1-.39-.156.707.707 0 0 1-.266-.281.997.997 0 0 1-.094-.453c0-.282.055-.54.172-.782.125-.238.3-.441.531-.61.239-.175.535-.312.89-.405a4.473 4.473 0 0 1 1.235-.157c.457 0 .867.059 1.235.172.363.117.672.282.922.5.257.211.457.465.593.766.133.293.203.621.203.984zM18.09 22.29c0 .793-.074 1.516-.218 2.172-.137.656-.344 1.219-.625 1.687a3.137 3.137 0 0 1-1.063 1.094c-.43.25-.922.375-1.484.375-.594 0-1.11-.125-1.547-.375a3.104 3.104 0 0 1-1.062-1.094c-.274-.468-.477-1.031-.61-1.687a11.71 11.71 0 0 1-.187-2.188c0-.8.062-1.523.187-2.172.133-.656.336-1.21.61-1.671a2.993 2.993 0 0 1 1.062-1.079c.438-.25.957-.375 1.563-.375.562 0 1.05.125 1.468.375.426.25.782.61 1.063 1.079.281.46.488 1.015.625 1.671.144.649.219 1.375.219 2.188zm-5.296 0c0 .719.031 1.36.093 1.922.07.562.18 1.043.329 1.437.144.387.336.684.578.89.25.2.55.298.906.298.352 0 .648-.098.89-.297.239-.207.43-.504.579-.89.144-.395.25-.876.312-1.438.07-.563.11-1.203.11-1.922 0-.719-.04-1.36-.11-1.922-.062-.562-.168-1.035-.312-1.422-.149-.383-.34-.676-.578-.875a1.298 1.298 0 0 0-.875-.312c-.356 0-.657.105-.907.312-.242.2-.437.492-.593.875-.149.387-.258.86-.329 1.422a17.571 17.571 0 0 0-.093 1.922zM20.136 27.477v-.609h.968c.164 0 .32-.008.47-.031.144-.031.269-.082.374-.156a.753.753 0 0 0 .25-.313c.063-.133.094-.316.094-.547v-7.61c-.18.231-.352.438-.516.626-.168.18-.328.336-.484.469a2.167 2.167 0 0 1-.438.296.942.942 0 0 1-.421.11c-.22 0-.399-.067-.532-.203a.784.784 0 0 1-.203-.563c.145-.039.29-.086.438-.14.156-.063.316-.133.484-.22.164-.081.348-.187.547-.312.195-.125.414-.273.656-.453l1.016-.75h.922v8.75c0 .23.03.414.093.547a.724.724 0 0 0 .25.313c.114.074.243.125.391.156.145.023.297.031.453.031h.719v.61zM27.524 24.884c0-.352.051-.66.157-.922a2.46 2.46 0 0 1 .468-.703c.196-.207.43-.391.704-.547.27-.164.562-.328.875-.485a7.18 7.18 0 0 1-.766-.5 3.709 3.709 0 0 1-.594-.593 2.924 2.924 0 0 1-.375-.72 2.452 2.452 0 0 1-.14-.843c0-.332.054-.656.171-.969.125-.312.313-.586.563-.828.25-.238.57-.43.969-.578.394-.144.875-.219 1.437-.219.446 0 .848.063 1.203.188.352.125.649.305.891.531.25.219.437.48.562.781.125.305.188.637.188 1 0 .313-.047.594-.14.844-.094.242-.231.453-.407.64-.168.188-.371.36-.61.516a8.397 8.397 0 0 1-.796.454c.363.168.691.351.984.546.29.188.54.399.75.625.219.23.383.477.5.735.113.262.172.554.172.875 0 .46-.086.87-.25 1.234a2.445 2.445 0 0 1-.687.906c-.305.25-.672.446-1.11.579-.43.125-.906.187-1.437.187-.543 0-1.024-.07-1.438-.203a3.095 3.095 0 0 1-1.031-.594 2.334 2.334 0 0 1-.61-.875 2.766 2.766 0 0 1-.203-1.062zm3.36 2.062c.312 0 .597-.047.86-.14.257-.094.476-.223.655-.391.176-.176.317-.379.422-.61.102-.238.157-.5.157-.78 0-.239-.047-.462-.141-.673a1.772 1.772 0 0 0-.453-.609c-.2-.195-.461-.39-.781-.578a13.378 13.378 0 0 0-1.188-.594c-.46.25-.824.574-1.094.969-.261.387-.39.855-.39 1.406 0 .305.039.578.125.828.082.242.203.45.36.625.163.18.366.313.608.407.25.093.536.14.86.14zm1.672-7.5c0-.226-.032-.445-.094-.656a1.81 1.81 0 0 0-.281-.563 1.195 1.195 0 0 0-.516-.406 1.747 1.747 0 0 0-.766-.156c-.273 0-.511.047-.718.14-.211.086-.387.204-.532.36a1.333 1.333 0 0 0-.328.547c-.074.21-.109.437-.109.687 0 .262.039.496.125.703.082.211.203.399.36.563.163.168.374.328.624.484.25.149.532.293.844.438.281-.133.508-.27.688-.406.175-.145.316-.301.421-.47.102-.175.176-.366.22-.577.038-.207.062-.438.062-.688zm0 0"></path></svg>