<svg xmlns="http://www.w3.org/2000/svg" xmlns:xlink="http://www.w3.org/1999/xlink" width="50" zoomAndPan="magnify" viewBox="0 0 37.5 37.499999" height="50" preserveAspectRatio="xMidYMid meet" version="1.0"><defs><g/><clipPath id="38c779888a"><path d="M 0.46875 0 L 37 0 L 37 37.007812 L 0.46875 37.007812 Z M 0.46875 0 " clip-rule="nonzero"/></clipPath></defs><g clip-path="url(#38c779888a)"><path fill="#b495ed" d="M 19.339844 0.03125 C 21.125 0.0195312 25.882812 0.0546875 30.164062 3.429688 C 33.421875 5.996094 34.726562 9.179688 35.304688 10.632812 C 37.972656 17.371094 35.855469 23.546875 35.167969 25.453125 C 34.359375 27.703125 33.148438 31.066406 29.890625 33.746094 C 24.4375 38.238281 16.53125 38.113281 10.953125 35.378906 C 10.042969 34.933594 6.492188 33.09375 3.78125 28.988281 C 3.285156 28.238281 0.828125 24.398438 0.671875 18.792969 C 0.617188 16.910156 0.46875 11.632812 4.054688 7.097656 C 6.335938 4.214844 9.105469 2.925781 10.953125 2.070312 C 12.453125 1.371094 15.363281 0.0585938 19.339844 0.03125 Z M 19.339844 0.03125 " fill-opacity="1" fill-rule="nonzero"/></g><g fill="#000000" fill-opacity="1"><g transform="translate(12.707855, 31.376568)"><g><path d="M 0.304688 -0.785156 C 0.257812 -0.378906 0.21875 0.0351562 0.316406 0.464844 C 0.453125 1.003906 0.871094 1.359375 1.445312 1.421875 C 1.53125 1.433594 1.628906 1.433594 1.714844 1.433594 L 1.738281 1.433594 C 1.898438 1.433594 2.082031 1.421875 2.253906 1.394531 C 2.65625 1.335938 3.085938 1.25 3.550781 1.125 C 8.347656 -0.0507812 10.074219 -0.246094 12.695312 -0.539062 C 13.0625 -0.574219 13.46875 -0.625 13.882812 -0.671875 C 14.140625 -0.710938 14.347656 -0.722656 14.570312 -0.746094 C 15.328125 -0.820312 15.925781 -0.882812 16.871094 -1.199219 L 16.882812 -1.210938 C 16.980469 -1.273438 17.03125 -1.394531 17.003906 -1.503906 C 16.992188 -1.605469 16.917969 -1.691406 16.820312 -1.738281 L 16.808594 -1.75 C 16.773438 -1.761719 16.746094 -1.761719 16.734375 -1.773438 C 16.636719 -1.824219 16.578125 -1.847656 16.292969 -1.847656 C 15.828125 -1.847656 14.875 -1.761719 13.085938 -1.542969 C 8.644531 -0.980469 7.175781 -0.648438 2.765625 0.390625 C 2.449219 0.464844 2.105469 0.527344 1.714844 0.550781 C 1.703125 0.5625 1.675781 0.5625 1.664062 0.5625 C 1.53125 0.5625 1.421875 0.527344 1.335938 0.453125 C 1.25 0.367188 1.199219 0.246094 1.199219 0.0976562 C 1.210938 -0.269531 1.238281 -0.648438 1.296875 -1.015625 C 1.933594 -5.519531 2.324219 -9.734375 2.484375 -13.871094 C 2.65625 -18.105469 2.632812 -22.355469 2.582031 -26.308594 C 2.582031 -26.40625 2.570312 -26.515625 2.570312 -26.628906 C 2.546875 -27.007812 2.523438 -27.410156 2.71875 -27.667969 C 3.023438 -28.058594 2.960938 -28.453125 2.890625 -28.917969 C 2.777344 -29.566406 2.65625 -30.25 2.535156 -30.949219 L 2.535156 -30.984375 C 2.496094 -31.132812 2.472656 -31.304688 2.386719 -31.449219 C 2.324219 -31.5625 2.15625 -31.683594 2.03125 -31.695312 C 2.019531 -31.695312 2.007812 -31.695312 2.007812 -31.695312 C 1.886719 -31.695312 1.761719 -31.621094 1.714844 -31.5625 C 1.578125 -31.328125 1.578125 -31.046875 1.589844 -30.753906 C 1.589844 -30.703125 1.589844 -30.65625 1.589844 -30.605469 C 1.605469 -29.578125 1.617188 -28.550781 1.628906 -27.519531 L 1.628906 -27.449219 C 1.652344 -24.765625 1.691406 -21.988281 1.675781 -19.269531 C 1.664062 -14.140625 1.40625 -9.574219 0.894531 -5.3125 C 0.722656 -3.917969 0.539062 -2.496094 0.355469 -1.125 Z M 0.304688 -0.785156 "/></g></g></g></svg>