<svg xmlns="http://www.w3.org/2000/svg" xmlns:xlink="http://www.w3.org/1999/xlink" width="50" viewBox="0 0 37.5 37.499999" height="50" preserveAspectRatio="xMidYMid meet"><defs><clipPath id="d384c71a2c"><path d="M 5.3125 5.113281 L 32 5.113281 L 32 32 L 5.3125 32 Z M 5.3125 5.113281 " clip-rule="nonzero"></path></clipPath><clipPath id="078f822dcf"><path d="M 11.265625 2.976562 L 37.007812 2.976562 L 37.007812 21.726562 L 11.265625 21.726562 Z M 11.265625 2.976562 " clip-rule="nonzero"></path></clipPath></defs><g clip-path="url(#d384c71a2c)"><path fill="#b495ed" d="M 18.898438 5.132812 C 20.183594 5.125 23.609375 5.148438 26.691406 7.53125 C 29.035156 9.34375 29.976562 11.59375 30.394531 12.621094 C 32.316406 17.375 30.789062 21.734375 30.296875 23.082031 C 29.710938 24.667969 28.839844 27.042969 26.496094 28.9375 C 22.570312 32.105469 16.875 32.015625 12.859375 30.085938 C 12.207031 29.773438 9.648438 28.476562 7.699219 25.578125 C 7.339844 25.046875 5.570312 22.335938 5.457031 18.378906 C 5.417969 17.046875 5.3125 13.324219 7.894531 10.125 C 9.535156 8.085938 11.53125 7.179688 12.859375 6.574219 C 13.941406 6.082031 16.035156 5.152344 18.898438 5.132812 Z M 18.898438 5.132812 " fill-opacity="1" fill-rule="nonzero"></path></g><g clip-path="url(#078f822dcf)"><path fill="#020202" d="M 36.417969 19.625 C 36.351562 19.984375 36.296875 20.371094 36.148438 20.664062 C 33.4375 17.535156 30.648438 14.402344 27.570312 11.617188 C 27.457031 11.515625 27.339844 11.410156 27.226562 11.308594 C 28.933594 10.421875 30.570312 9.378906 32.191406 8.355469 C 33.265625 7.679688 34.335938 6.988281 35.378906 6.265625 C 35.722656 6.03125 36.160156 5.785156 36.515625 5.496094 C 36.699219 6.925781 36.765625 8.375 36.808594 9.8125 C 36.914062 13.042969 37.007812 16.433594 36.417969 19.625 Z M 32.433594 21.347656 C 28.917969 21.433594 25.394531 21.320312 21.882812 21.15625 C 19.070312 21.023438 16.160156 20.976562 13.386719 20.457031 C 13.230469 20.429688 13.078125 20.398438 12.925781 20.355469 C 12.90625 20.347656 12.882812 20.339844 12.859375 20.332031 C 13.34375 19.738281 13.949219 19.214844 14.507812 18.691406 C 15.484375 17.769531 16.484375 16.867188 17.492188 15.976562 C 19.1875 14.472656 20.902344 12.949219 22.707031 11.558594 C 22.722656 11.5625 22.738281 11.570312 22.753906 11.574219 C 23.402344 11.8125 24.097656 12.121094 24.789062 12.21875 C 25.28125 12.289062 25.773438 12.019531 26.203125 11.816406 C 26.355469 11.746094 26.503906 11.671875 26.652344 11.597656 C 26.753906 11.6875 26.851562 11.777344 26.953125 11.867188 C 28.875 13.589844 30.644531 15.488281 32.390625 17.386719 C 33.511719 18.605469 34.617188 19.835938 35.703125 21.085938 C 35.660156 21.101562 35.613281 21.117188 35.5625 21.128906 C 34.546875 21.335938 33.460938 21.324219 32.433594 21.347656 Z M 11.980469 14.949219 C 11.859375 12.304688 11.765625 9.578125 11.976562 6.914062 C 12.316406 7.125 12.703125 7.285156 13.046875 7.457031 C 14.007812 7.929688 14.988281 8.367188 15.972656 8.800781 C 18.039062 9.710938 20.125 10.59375 22.242188 11.386719 C 20.808594 12.488281 19.457031 13.738281 18.117188 14.90625 C 16.859375 16 15.617188 17.109375 14.402344 18.246094 C 13.792969 18.8125 13.144531 19.375 12.589844 20.003906 C 12.503906 19.785156 12.460938 19.523438 12.421875 19.332031 C 12.113281 17.902344 12.050781 16.40625 11.980469 14.949219 Z M 14.15625 3.789062 C 15.511719 3.660156 16.871094 3.59375 18.230469 3.535156 C 21.757812 3.382812 25.292969 3.324219 28.824219 3.335938 C 30.335938 3.34375 31.851562 3.359375 33.367188 3.421875 C 34.222656 3.457031 35.152344 3.472656 35.972656 3.640625 C 36.054688 3.660156 36.089844 3.675781 36.097656 3.679688 C 36.140625 3.734375 36.1875 3.855469 36.21875 3.941406 C 36.3125 4.195312 36.371094 4.46875 36.414062 4.742188 C 36.105469 5.070312 35.640625 5.320312 35.292969 5.566406 C 34.441406 6.160156 33.574219 6.726562 32.703125 7.289062 C 30.75 8.542969 28.769531 9.78125 26.710938 10.863281 C 26.1875 11.136719 25.515625 11.589844 24.90625 11.644531 C 24.449219 11.6875 23.84375 11.398438 23.40625 11.246094 C 21.257812 10.496094 19.152344 9.605469 17.066406 8.707031 C 15.925781 8.214844 14.789062 7.714844 13.667969 7.183594 C 13.191406 6.957031 12.449219 6.664062 12.023438 6.363281 C 12.066406 5.9375 12.113281 5.515625 12.171875 5.09375 C 12.21875 4.761719 12.246094 4.367188 12.414062 4.070312 C 12.421875 4.0625 12.710938 3.984375 12.890625 3.949219 C 13.308594 3.871094 13.734375 3.832031 14.15625 3.789062 Z M 37.480469 12.269531 C 37.476562 10.460938 37.421875 8.652344 37.277344 6.851562 C 37.222656 6.199219 37.160156 5.550781 37.058594 4.90625 C 36.996094 4.527344 36.949219 4.078125 36.765625 3.730469 C 36.484375 3.210938 35.703125 3.230469 35.183594 3.183594 C 33.90625 3.0625 32.625 3.039062 31.34375 3.011719 C 27.667969 2.9375 23.988281 2.984375 20.316406 3.097656 C 18.667969 3.148438 17.023438 3.214844 15.378906 3.328125 C 14.394531 3.394531 13.363281 3.433594 12.394531 3.65625 C 12.222656 3.695312 11.984375 3.738281 11.855469 3.875 C 11.839844 3.882812 11.828125 3.898438 11.816406 3.914062 C 11.632812 4.238281 11.59375 4.664062 11.542969 5.023438 C 11.453125 5.6875 11.40625 6.359375 11.367188 7.027344 C 11.261719 8.859375 11.25 10.695312 11.28125 12.53125 C 11.308594 14.308594 11.371094 16.089844 11.574219 17.859375 C 11.644531 18.46875 11.71875 19.089844 11.882812 19.6875 C 11.960938 19.980469 12.058594 20.320312 12.316406 20.507812 C 12.882812 20.917969 13.945312 20.90625 14.605469 20.984375 C 16.125 21.164062 17.648438 21.269531 19.171875 21.363281 C 22.976562 21.597656 26.789062 21.730469 30.601562 21.726562 C 32.011719 21.722656 33.429688 21.714844 34.832031 21.59375 C 35.410156 21.542969 36.3125 21.5625 36.652344 21.003906 C 37.199219 20.105469 37.203125 18.742188 37.292969 17.738281 C 37.449219 15.921875 37.488281 14.089844 37.480469 12.269531 " fill-opacity="1" fill-rule="nonzero"></path></g></svg>