<svg xmlns="http://www.w3.org/2000/svg" width="50" viewBox="0 0 37.5 37.5" height="50"><defs><clipPath id="a"><path d="M5.313 5.113H32V32H5.312zm0 0"></path></clipPath></defs><g clip-path="url(#a)"><path fill="#b495ed" d="M18.898 5.133c1.286-.008 4.711.015 7.793 2.398 2.344 1.813 3.286 4.063 3.704 5.09 1.921 4.754.394 9.113-.098 10.461-.586 1.586-1.457 3.961-3.8 5.855-3.927 3.168-9.622 3.079-13.638 1.149-.652-.313-3.21-1.61-5.16-4.508-.36-.531-2.129-3.242-2.242-7.2-.039-1.331-.144-5.054 2.438-8.253 1.64-2.04 3.636-2.945 4.964-3.55 1.082-.493 3.176-1.423 6.04-1.442zm0 0"></path></g><path d="M4.585 19.125v2.953h-.969v-2.953H.68v-.953h2.937v-2.953h.97v2.953h2.952v.953zM10.135 24.375v-.672h1.063c.187 0 .359-.008.515-.031a1 1 0 0 0 .407-.172.744.744 0 0 0 .28-.344c.071-.156.11-.36.11-.61v-8.405c-.2.25-.39.48-.578.687-.18.2-.352.371-.516.516a2.341 2.341 0 0 1-.5.343c-.156.075-.312.11-.468.11a.783.783 0 0 1-.578-.235c-.149-.156-.22-.363-.22-.625.157-.039.317-.085.485-.14.164-.063.336-.14.516-.235.187-.101.39-.222.61-.359.218-.133.456-.3.718-.5l1.125-.828h1.031v9.672c0 .25.031.453.094.61.07.148.164.261.281.343.125.086.266.14.422.172.156.023.328.031.516.031h.78v.672zM25.779 18.64c0 .887-.078 1.696-.234 2.422-.157.72-.391 1.34-.704 1.86a3.447 3.447 0 0 1-1.171 1.187c-.47.282-1.016.422-1.641.422-.656 0-1.227-.14-1.703-.422a3.447 3.447 0 0 1-1.172-1.187c-.305-.52-.527-1.145-.672-1.875a12.155 12.155 0 0 1-.219-2.422c0-.883.07-1.688.219-2.406.145-.719.367-1.332.672-1.844a3.364 3.364 0 0 1 1.172-1.172c.476-.281 1.05-.422 1.719-.422.625 0 1.164.14 1.625.422.468.274.859.664 1.171 1.172.313.512.547 1.133.704 1.86.156.718.234 1.523.234 2.406zm-5.844 0c0 .794.035 1.5.11 2.126.07.625.187 1.152.343 1.578.164.43.383.758.657.984.269.23.597.344.984.344.383 0 .707-.113.969-.344.27-.226.488-.555.656-.984.164-.426.281-.953.344-1.578.07-.625.109-1.332.109-2.125 0-.79-.04-1.493-.11-2.11-.062-.625-.18-1.148-.343-1.578-.168-.426-.383-.75-.64-.969a1.433 1.433 0 0 0-.97-.343c-.398 0-.73.117-1 .343-.261.22-.476.543-.64.97-.168.429-.29.952-.36 1.577-.074.617-.109 1.32-.109 2.11zM34.735 18.64c0 .887-.078 1.696-.234 2.422-.157.72-.39 1.34-.703 1.86a3.447 3.447 0 0 1-1.172 1.187c-.469.282-1.016.422-1.64.422-.657 0-1.227-.14-1.704-.422a3.447 3.447 0 0 1-1.172-1.187c-.305-.52-.527-1.145-.672-1.875a12.155 12.155 0 0 1-.219-2.422c0-.883.07-1.688.22-2.406.144-.719.366-1.332.671-1.844a3.364 3.364 0 0 1 1.172-1.172c.477-.281 1.05-.422 1.719-.422.625 0 1.164.14 1.625.422.468.274.86.664 1.172 1.172.312.512.546 1.133.703 1.86.156.718.234 1.523.234 2.406zm-5.844 0c0 .794.036 1.5.11 2.126.07.625.187 1.152.343 1.578.165.43.383.758.657.984.27.23.597.344.984.344.383 0 .707-.113.969-.344.27-.226.488-.555.656-.984.164-.426.281-.953.344-1.578.07-.625.11-1.332.11-2.125 0-.79-.04-1.493-.11-2.11-.063-.625-.18-1.148-.344-1.578-.168-.426-.383-.75-.64-.969a1.433 1.433 0 0 0-.97-.343c-.398 0-.73.117-1 .343-.261.22-.476.543-.64.97-.168.429-.289.952-.36 1.577-.073.617-.109 1.32-.109 2.11zm0 0"></path></svg>