<svg xmlns="http://www.w3.org/2000/svg" width="50" viewBox="0 0 37.5 37.5" height="50"><defs><clipPath id="a"><path d="M5.313 5.113H32V32H5.312zm0 0"></path></clipPath><clipPath id="b"><path d="M7.89 9.125h21.75v19.5H7.89zm0 0"></path></clipPath></defs><g clip-path="url(#a)"><path fill="#fff96f" d="M18.898 5.133c1.286-.008 4.711.015 7.793 2.398 2.344 1.813 3.286 4.063 3.704 5.09 1.921 4.754.394 9.113-.098 10.461-.586 1.586-1.457 3.961-3.8 5.855-3.927 3.168-9.622 3.079-13.638 1.149-.652-.313-3.21-1.61-5.16-4.508-.36-.531-2.129-3.242-2.242-7.2-.039-1.331-.144-5.054 2.438-8.253 1.64-2.04 3.636-2.945 4.964-3.55 1.082-.493 3.176-1.423 6.04-1.442zm0 0"></path></g><g clip-path="url(#b)"><path d="m18.766 28.621-.23-.156c-.028-.02-2.677-1.852-5.286-4.383-1.54-1.496-2.773-2.937-3.66-4.293-1.125-1.734-1.7-3.34-1.7-4.766 0-3.25 2.614-5.894 5.825-5.894 1.191 0 2.344.371 3.328 1.074a6.009 6.009 0 0 1 1.723 1.91 5.844 5.844 0 0 1 1.722-1.91 5.692 5.692 0 0 1 3.328-1.074c3.207 0 5.825 2.644 5.825 5.894v.004c-.016 1.418-.594 3.008-1.723 4.739-.887 1.355-2.113 2.8-3.656 4.3-2.606 2.54-5.242 4.38-5.266 4.399zM13.715 9.953c-2.762 0-5.012 2.274-5.012 5.07 0 1.262.527 2.711 1.567 4.305.847 1.3 2.039 2.7 3.535 4.152a46.053 46.053 0 0 0 4.96 4.137 46.472 46.472 0 0 0 4.942-4.152c1.492-1.457 2.68-2.852 3.531-4.156 1.04-1.594 1.575-3.032 1.582-4.286 0-2.796-2.246-5.066-5.008-5.066-2.05 0-3.925 1.313-4.671 3.266l-.38.992-.374-.992c-.75-1.953-2.625-3.27-4.672-3.27zm0 0"></path></g></svg>