<svg xmlns="http://www.w3.org/2000/svg" width="50" viewBox="0 0 37.5 37.5" height="50" version="1.0"><defs><clipPath id="a"><path d="M5.242 5.047H31V31.69H5.242zm0 0"/></clipPath></defs><g clip-path="url(#a)"><path fill="#b495ed" d="M18.586 5.066c1.262-.007 4.625.016 7.652 2.391 2.305 1.809 3.23 4.047 3.637 5.07 1.887 4.739.39 9.086-.098 10.426-.57 1.586-1.425 3.95-3.73 5.836-3.856 3.16-9.45 3.07-13.39 1.148-.645-.312-3.153-1.605-5.071-4.496-.352-.527-2.09-3.23-2.2-7.175-.038-1.325-.144-5.036 2.391-8.227 1.614-2.027 3.575-2.934 4.88-3.539 1.058-.492 3.116-1.414 5.929-1.434zm0 0"/></g><path d="M9.81 11.98v-.485h.782c.125 0 .242-.008.36-.031a.793.793 0 0 0 .296-.11.533.533 0 0 0 .203-.25 1.07 1.07 0 0 0 .078-.437V4.589c-.148.18-.289.344-.422.5-.125.148-.25.273-.375.375-.117.105-.23.187-.343.25a.799.799 0 0 1-.344.078.56.56 0 0 1-.422-.172.64.64 0 0 1-.156-.453c.113-.031.226-.066.344-.11.125-.038.25-.093.375-.156.132-.07.28-.156.437-.25.156-.101.332-.226.531-.375l.813-.593h.734v6.984c0 .18.024.324.078.437.051.106.118.188.203.25.083.055.18.09.297.11.114.023.239.031.375.031h.563v.484zM15.883 11.276c0-.156.015-.28.046-.375a.587.587 0 0 1 .157-.234.57.57 0 0 1 .234-.125.927.927 0 0 1 .297-.047.76.76 0 0 1 .266.047.487.487 0 0 1 .234.125c.07.055.125.133.156.234.04.094.063.22.063.375 0 .149-.024.274-.063.375a.54.54 0 0 1-.156.235.487.487 0 0 1-.234.125.76.76 0 0 1-.266.047.927.927 0 0 1-.297-.047.57.57 0 0 1-.234-.125.724.724 0 0 1-.157-.235 1.29 1.29 0 0 1-.046-.375zM14.03 15.98c0 .274-.048.54-.141.797-.086.25-.211.512-.375.781a6.107 6.107 0 0 1-.594.844c-.242.281-.512.59-.813.922l-1.953 2.172h2.657c.175 0 .32-.024.437-.078a.734.734 0 0 0 .266-.188c.07-.082.129-.176.172-.281.039-.102.078-.211.109-.328l.031-.203h.5l-.062 2H9.295v-.844l1.922-2.235c.312-.351.57-.671.781-.953.207-.28.375-.547.5-.797a3.58 3.58 0 0 0 .266-.734c.062-.238.093-.492.093-.766 0-.218-.027-.414-.078-.593a1.236 1.236 0 0 0-.203-.453.95.95 0 0 0-.375-.313c-.148-.07-.32-.11-.515-.11-.274 0-.493.048-.657.141a1.06 1.06 0 0 0-.375.39c-.093.157-.164.34-.203.548-.031.21-.047.43-.047.656a2.11 2.11 0 0 1-.39-.031 1.244 1.244 0 0 1-.313-.125.69.69 0 0 1-.203-.235.7.7 0 0 1-.078-.359c0-.226.047-.437.14-.625a1.34 1.34 0 0 1 .422-.484c.196-.145.438-.254.72-.328.28-.082.609-.125.984-.125.363 0 .687.046.968.14.29.094.536.227.735.39.207.169.363.372.468.61.114.242.172.508.172.797zM15.883 21.714c0-.156.015-.28.046-.375a.587.587 0 0 1 .157-.234.57.57 0 0 1 .234-.125.927.927 0 0 1 .297-.047.76.76 0 0 1 .266.047.487.487 0 0 1 .234.125c.07.055.125.133.156.234.04.094.063.22.063.375 0 .149-.024.274-.063.375a.54.54 0 0 1-.156.235.487.487 0 0 1-.234.125.76.76 0 0 1-.266.047.927.927 0 0 1-.297-.047.57.57 0 0 1-.234-.125.724.724 0 0 1-.157-.235 1.29 1.29 0 0 1-.046-.375zM11.576 32.34c.227 0 .442-.031.64-.094.208-.062.391-.164.548-.312.164-.145.297-.336.39-.578.094-.239.141-.532.141-.875 0-.239-.055-.457-.156-.657a1.394 1.394 0 0 0-.407-.5 1.85 1.85 0 0 0-.656-.328 2.922 2.922 0 0 0-.875-.125h-.375v-.578h.375c.25 0 .485-.039.703-.125.227-.094.422-.21.578-.36.165-.155.297-.343.391-.562.094-.218.14-.468.14-.75 0-.226-.027-.43-.077-.61a1.028 1.028 0 0 0-.22-.437.853.853 0 0 0-.374-.28 1.362 1.362 0 0 0-.563-.11c-.261 0-.476.047-.64.14a1.015 1.015 0 0 0-.39.391c-.095.156-.165.34-.204.547-.031.21-.047.43-.047.656a2.11 2.11 0 0 1-.39-.031 1.244 1.244 0 0 1-.313-.125.66.66 0 0 1-.219-.234.86.86 0 0 1-.062-.36c0-.226.047-.437.14-.625a1.34 1.34 0 0 1 .422-.484c.196-.145.438-.254.719-.328.281-.082.61-.125.984-.125.364 0 .692.043.985.125.3.086.554.203.765.359.22.156.383.352.5.578.114.23.172.492.172.781 0 .262-.047.508-.14.735-.086.23-.211.437-.375.625a2.48 2.48 0 0 1-.594.484c-.23.125-.477.219-.735.281.145.024.297.047.454.079.164.03.328.085.484.156.156.062.305.148.453.25.145.105.27.23.375.375.113.148.203.32.266.515.07.188.11.414.11.672 0 .313-.044.594-.126.844-.086.242-.2.453-.344.64-.148.18-.32.329-.515.454-.188.125-.39.23-.61.312a3.644 3.644 0 0 1-.672.157 4.02 4.02 0 0 1-.671.062c-.387 0-.715-.04-.985-.11a2.216 2.216 0 0 1-.687-.265 1.2 1.2 0 0 1-.39-.422.984.984 0 0 1-.126-.484c0-.227.063-.406.188-.531.132-.133.316-.204.546-.204 0 .2.032.387.094.563.063.168.156.312.281.437.125.125.274.227.454.297.187.063.398.094.64.094zM15.883 32.153c0-.157.015-.282.046-.375a.587.587 0 0 1 .157-.235.57.57 0 0 1 .234-.125.927.927 0 0 1 .297-.047.76.76 0 0 1 .266.047.487.487 0 0 1 .234.125c.07.055.125.133.156.235.04.093.063.218.063.375 0 .148-.024.273-.063.375a.54.54 0 0 1-.156.234.487.487 0 0 1-.234.125.76.76 0 0 1-.266.047.927.927 0 0 1-.297-.047.57.57 0 0 1-.234-.125.724.724 0 0 1-.157-.234 1.29 1.29 0 0 1-.046-.375zm0 0"/></svg>