<svg xmlns="http://www.w3.org/2000/svg" xmlns:xlink="http://www.w3.org/1999/xlink" width="50" viewBox="0 0 37.5 37.499999" height="50" preserveAspectRatio="xMidYMid meet"><defs><clipPath id="cbbc90cdc7"><path d="M 5.3125 5.113281 L 32 5.113281 L 32 32 L 5.3125 32 Z M 5.3125 5.113281 " clip-rule="nonzero"></path></clipPath><clipPath id="72e4831cc8"><path d="M 13.089844 6.320312 L 34 6.320312 L 34 34.820312 L 13.089844 34.820312 Z M 13.089844 6.320312 " clip-rule="nonzero"></path></clipPath></defs><g clip-path="url(#cbbc90cdc7)"><path fill="#fff96f" d="M 18.898438 5.132812 C 20.183594 5.125 23.609375 5.148438 26.691406 7.53125 C 29.035156 9.34375 29.976562 11.59375 30.394531 12.621094 C 32.316406 17.375 30.789062 21.734375 30.296875 23.082031 C 29.710938 24.667969 28.839844 27.042969 26.496094 28.9375 C 22.570312 32.105469 16.875 32.015625 12.859375 30.085938 C 12.207031 29.773438 9.648438 28.476562 7.699219 25.578125 C 7.339844 25.046875 5.570312 22.335938 5.457031 18.378906 C 5.417969 17.046875 5.3125 13.324219 7.894531 10.125 C 9.535156 8.085938 11.53125 7.179688 12.859375 6.574219 C 13.941406 6.082031 16.035156 5.152344 18.898438 5.132812 Z M 18.898438 5.132812 " fill-opacity="1" fill-rule="nonzero"></path></g><g clip-path="url(#72e4831cc8)"><path fill="#000000" d="M 25.335938 19.875 C 23.886719 21.691406 22.476562 23.535156 21.046875 25.363281 C 20.824219 25.644531 20.570312 25.902344 20.324219 26.164062 C 20.046875 26.457031 19.710938 26.539062 19.324219 26.410156 C 18.824219 26.242188 18.328125 26.066406 17.980469 25.589844 C 18.152344 24.695312 18.507812 23.855469 18.953125 23.054688 C 20.097656 21 21.269531 18.957031 22.425781 16.910156 C 22.859375 16.144531 23.273438 15.375 23.703125 14.609375 C 24.285156 13.566406 24.871094 12.519531 25.464844 11.480469 C 25.640625 11.179688 25.769531 10.824219 26.234375 10.679688 C 26.664062 10.839844 26.925781 11.277344 27.324219 11.53125 C 27.695312 11.773438 28.082031 11.996094 28.441406 12.257812 C 28.824219 12.539062 29.28125 12.753906 29.496094 13.199219 C 29.523438 13.636719 29.316406 13.980469 29.097656 14.316406 C 27.886719 16.195312 26.738281 18.117188 25.335938 19.875 Z M 14.039062 33.71875 C 13.949219 33.53125 13.832031 33.402344 13.835938 33.273438 C 13.84375 32.882812 13.871094 32.484375 13.941406 32.101562 C 14.011719 31.726562 14.339844 31.574219 14.671875 31.730469 C 14.851562 31.816406 15.027344 31.921875 15.191406 32.03125 C 15.351562 32.140625 15.496094 32.265625 15.6875 32.414062 C 15.28125 33.066406 14.679688 33.351562 14.039062 33.71875 Z M 17.457031 26.085938 C 17.828125 26.089844 17.980469 26.410156 18.21875 26.605469 C 18.433594 26.78125 18.625 26.976562 18.851562 27.1875 C 18.5 28.375 17.632812 29.261719 17.113281 30.324219 C 16.875 30.808594 16.535156 31.273438 16.03125 31.59375 C 15.457031 31.460938 14.96875 31.21875 14.628906 30.773438 C 15.082031 29.464844 16.664062 26.851562 17.457031 26.085938 Z M 27.648438 8.226562 C 28.648438 7.054688 29.375 6.945312 30.703125 7.738281 C 31.246094 8.0625 31.519531 8.503906 31.425781 9.125 C 31.371094 9.476562 31.316406 9.835938 31.1875 10.167969 C 30.84375 11.074219 30.609375 11.207031 29.78125 10.691406 C 29.507812 10.523438 29.214844 10.378906 28.839844 10.171875 C 28.480469 9.820312 28.039062 9.414062 27.625 8.980469 C 27.40625 8.753906 27.4375 8.472656 27.648438 8.226562 Z M 30.707031 21.546875 C 31.273438 20.585938 31.789062 19.597656 32.332031 18.621094 C 32.917969 17.574219 33.492188 16.527344 33.878906 15.390625 C 34.089844 14.769531 33.980469 14.214844 33.636719 13.6875 C 33.351562 13.25 33.023438 12.84375 32.574219 12.550781 C 32.371094 12.417969 32.167969 12.285156 31.960938 12.160156 C 31.394531 11.8125 31.242188 11.460938 31.59375 10.875 C 31.953125 10.28125 32.050781 9.609375 32.140625 8.9375 C 32.1875 8.613281 32.152344 8.289062 31.925781 8.035156 C 31.519531 7.59375 31.105469 7.15625 30.667969 6.742188 C 30.328125 6.421875 29.902344 6.324219 29.425781 6.386719 C 28.964844 6.449219 28.578125 6.628906 28.226562 6.921875 C 27.476562 7.546875 26.828125 8.257812 26.324219 9.078125 C 25.550781 10.339844 24.800781 11.609375 24.046875 12.878906 C 23.820312 13.257812 23.585938 13.632812 23.398438 14.027344 C 22.542969 15.828125 21.480469 17.519531 20.496094 19.253906 C 19.707031 20.640625 18.929688 22.035156 18.152344 23.425781 C 17.957031 23.773438 17.78125 24.132812 17.574219 24.476562 C 16.992188 25.429688 16.402344 26.378906 15.8125 27.328125 C 15.21875 28.277344 14.613281 29.21875 14.03125 30.171875 C 13.84375 30.476562 13.710938 30.808594 13.5625 31.132812 C 13.105469 32.117188 13.214844 33.175781 13.089844 34.226562 C 13.140625 34.46875 13.214844 34.660156 13.328125 34.816406 C 13.488281 34.816406 13.625 34.773438 13.746094 34.691406 C 14.636719 34.066406 15.523438 33.4375 16.394531 32.785156 C 16.578125 32.648438 16.746094 32.433594 16.820312 32.222656 C 17.382812 30.671875 18.355469 29.34375 19.238281 27.964844 C 19.410156 27.695312 19.601562 27.4375 19.921875 27.3125 C 20.476562 27.09375 20.84375 26.675781 21.1875 26.222656 C 22.292969 24.75 23.398438 23.277344 24.511719 21.8125 C 26.40625 19.328125 28.335938 16.871094 29.882812 14.152344 C 30.300781 13.417969 31.117188 13.117188 31.941406 13.765625 C 32.183594 13.957031 32.335938 14.175781 32.289062 14.472656 C 32.222656 14.863281 32.167969 15.265625 32.019531 15.628906 C 31.792969 16.179688 31.519531 16.71875 31.210938 17.226562 C 30.550781 18.320312 29.84375 19.390625 29.167969 20.476562 C 28.976562 20.777344 28.789062 21.089844 28.65625 21.417969 C 28.515625 21.753906 28.515625 22.113281 28.707031 22.453125 C 28.941406 22.882812 29.492188 23.023438 29.832031 22.679688 C 30.164062 22.339844 30.464844 21.953125 30.707031 21.546875 " fill-opacity="1" fill-rule="nonzero"></path></g></svg>