<svg xmlns="http://www.w3.org/2000/svg" width="500" viewBox="0 0 375 225" height="300"><defs><clipPath id="a"><path d="M28 139.078h315.46V201H28zm0 0"></path></clipPath><clipPath id="b"><path d="M187 69h134.563v153H187zm0 0"></path></clipPath><clipPath id="c"><path d="M83.063 125H270v99H83.062zm0 0"></path></clipPath><clipPath id="d"><path d="M233 1.293h53V72h-53zm0 0"></path></clipPath><clipPath id="e"><path d="M83.063 29H233v106H83.062zm0 0"></path></clipPath></defs><g clip-path="url(#a)"><path fill="#fff96f" d="M64.406 199.086c-.492-1.363.262-2.941.977-4.066.582-.922 1.312-1.762 2.117-2.512-7.29-1.309 1.223-9.946 4.805-11.055-4.618-.332-24.008 2.621-25.54-1.187-.554-5.207 5.59-9.41 10.215-10.274 23.012-2.472 46.243-.992 69.29-3.14-17.391-.075-34.774.375-52.165.636-2.937-.379-9.777 1.27-11.253-1.656-.66-2.707 1.617-5.18 3.449-6.894-9.957 1.23-19.922 2.53-29.703 4.8-2.41 1.414-6.63 3.344-8.399.203-.523-1.437.184-3.039.946-4.242 3.511-5.586 10.257-7.047 16.296-8.273 54.555-9.996 110.438-9.246 165.723-9.79 29.184.231 58.309-2.452 87.512-2.136 10.82.027 21.648.242 32.457.777 3.324.512 11.797-.297 12.258 3.38-.168 3.863-3.762 6.73-6.914 8.468-4.13 1.965-8.864 1.723-13.332 1.89-5.31.114-10.614.188-15.922.137-40.754.016-81.575-2.136-122.215 1.766 33.898 1.309 67.785 3.242 101.601 5.93 14.707.953 29.72.683 44.168 3.738 3.024.95 1.465 4.73-.027 6.398-3.773 5.27-10.238 5.922-16.2 5.098-4.66-.41-9.312-.879-13.972-1.309 1.723 1.649.27 4.274-.91 5.817 4.398 1.039 12.715 1.02 14.527 5.746.672 4.082-3.566 7.402-6.777 9.164-7.883 3.914-17.293 2.16-25.828 2.402-62.438-3.195-124.992.032-187.477.516-4.746-.61-29.543 3.285-29.707-.332"></path></g><g clip-path="url(#b)"><path fill="#2b2a29" d="m320.027 139.734.903.344.664.215c-1.543 4.656-3.082 9.312-3.719 16.102-.242 2.582-.348 5.48-.48 8.566-.188 5.164-.426 10.809-1.274 16.394-.691 4.524-1.836 8.97-3.695 13.227-1.887 4.285-4.492 8.332-8.188 12.031-3.773 3.778-8.664 7.157-14.218 9.793a58.628 58.628 0 0 1-17.25 5.055c-5.872.746-11.985.559-17.993-.316-6.804-.989-13.527-2.825-19.746-5.114a102.762 102.762 0 0 1-11.164-4.844 50.39 50.39 0 0 1-3.453-1.703c-3.402-1.78-6.86-3.937-9.594-6.066-2.445-1.914-4.36-3.86-5.21-5.59-1.036-2.101-.587-3.883.16-5.055.265-.398.558-.746.851-.984.316-.293.664-.48.93-.559.476-.132.875-.027 1.168.32.347.427.238.852.082 1.516-.266 1.196-.852 3.672 1.777 6.868 1.863 2.261 5.29 4.843 9.703 7.398 1.356.797 2.79 1.57 4.332 2.34 1.942.879 3.852 1.598 5.742 2.078 2.95.77 5.844 1.008 8.665.504 2.894-.531 5.738-1.918 8.37-4.23 2.473-2.184 4.782-5.192 6.778-9.157 2.39-4.738 4.36-10.832 6.324-16.926 1.488-4.605 2.977-9.207 4.653-13.304 1.992-4.817 4.25-8.89 7.015-12.352 2.79-3.484 6.059-6.36 10.074-8.726 3.348-1.97 7.176-3.621 11.055-4.926l-.476-.156c-1.782-.641-2.977-1.57-3.645-2.848-.664-1.254-.82-2.77-.504-4.606.266-1.597.902-3.433 1.543-5.347.691-2.078 1.434-4.235 1.727-6.149.238-1.597.21-3.113.187-4.738-.055-2.184-.082-4.496.504-7.453.398-2.047 1.117-4.414 1.887-6.89 1.117-3.7 2.34-7.692 2.71-11.337.294-2.93.079-5.695-.585-8.199a19.678 19.678 0 0 0-3.453-7c-1.329-1.703-2.926-3.164-4.387-4.281-1.14-.879-2.125-1.52-2.817-1.89.532 1.382 1.118 3.273-.957 4.55-2.097 1.305-7.336 1.543-12.386 1.781-1.54.082-3.055.133-4.516.243-2.898.21-5.262.53-7.23.957-1.942.425-3.508.906-4.836 1.464-1.356.559-2.5 1.196-3.59 1.809-1.113.613-2.23 1.223-3.48 1.758-.372.156-.77.293-1.169.449-2.101.773-4.414 1.652-5.93 4.473a9.89 9.89 0 0 1 2.02-1.918c1.809-1.301 3.828-1.782 5.664-1.836 1.649-.051 3.16.265 4.543.96 1.383.692 2.606 1.755 3.723 3.247 1.09 1.46 2.07 3.3 2.871 5.43a37.092 37.092 0 0 1 1.805 6.863c.398 2.531.586 5.191.504 7.531-.079 2.29-.422 4.285-1.036 5.563-.293.585-.609 1.066-.984 1.41.082 4.285.082 8.836-.398 14.636-.293 3.567-.77 7.641-1.328 11.578-.586 4.047-1.25 7.958-1.915 11.125-.664 3.168-1.328 5.59-2.046 7.399a10.941 10.941 0 0 1-1.036 2.023 4.262 4.262 0 0 1-.37 1.196c-.243.453-.56.906-1.012 1.25-.72.586-1.727.906-2.79.984-1.09.082-2.285-.05-3.242-.426-.984-.37-1.73-.902-2.632-1.62a27.139 27.139 0 0 0-2.739-1.891 56.087 56.087 0 0 0-2.02-1.118c-2.71-1.464-6.456-3.484-11.027-7.265-5.847-4.817-12.996-12.426-17.039-16.711l-.05-.055c-1.997-2.101-3.192-3.379-4.094-4.18-.852-.718-1.461-1.035-2.313-1.25-.851-.238-1.965-.398-3.11-.558-1.433-.211-2.898-.426-4.093-.797-1.672-.535-2.683-1.305-3.586-1.969-.293-.215-.558-.426-.797-.586-.558-.375-1.199-.64-1.754-.879a9.648 9.648 0 0 1-1.277-.613 4.337 4.337 0 0 1-1.223-1.039c-.347-.45-.53-.957-.453-1.434.082-.668.532-1.066 1.012-1.464.133-.106.266-.239.371-.348.133-.16.238-.316.32-.477.079-.187.106-.425.079-.718 0-.188-.028-.403-.079-.614-.105-.746-.214-1.492.211-1.996l-.53-.32c-.61-.371-1.169-.742-1.622-1.168-.531-.48-.902-1.012-1.008-1.652-.027-.133-.027-.239-.027-.344 0-.535.21-1.094.61-1.547.37-.426.906-.742 1.62-.852.188-.023.371-.05.586-.05.32 0 .692.05 1.035.105a2.235 2.235 0 0 1-.05-.719c.023-.293.132-.558.289-.796.187-.266.453-.454.773-.536.317-.078.664-.05 1.035.11.453.21.852.586 1.383 1.062.692.64 1.594 1.465 2.817 2.078 1.171.582 2.66 1.035 4.12 1.461 1.169.348 2.337.692 3.321 1.094 2.074.875 3.352 1.996 5.316 3.777l.797.72c1.117.984 2.524 2.206 4.094 3.538 1.676 1.41 3.43 2.875 5.074 4.23 1.676 1.36 3.27 2.665 4.867 3.833 1.594 1.172 3.188 2.265 4.864 3.222.93.532 1.832.985 2.734 1.461 2.074 1.067 4.066 2.078 5.61 3.434a118.372 118.372 0 0 1-.266-3.54c-.055-.769-.078-1.57-.133-2.366a2.477 2.477 0 0 1-.742-.586c-.613-.692-1.305-1.918-1.942-3.301-.664-1.41-1.304-3.031-1.726-4.684-.426-1.703-.668-3.433-.453-5.054.187-1.598.77-3.008 1.433-4.711.664-1.676 1.465-3.649 2.075-6.282.32-1.382.585-3.007.851-4.71l.05-1.223c.134-2.582.4-5.59.852-8.383.48-2.848 1.168-5.562 2.18-7.48 1.781-3.407 4.465-4.418 6.856-5.297.375-.133.746-.293 1.117-.426 1.195-.477 2.234-1.063 3.324-1.649 1.14-.64 2.313-1.277 3.746-1.89 1.434-.586 3.082-1.117 5.129-1.57 2.047-.426 4.465-.77 7.441-.985 1.383-.105 2.95-.16 4.547-.238 4.836-.215 9.832-.453 11.559-1.516 1.039-.64.508-1.945.16-2.824a7.638 7.638 0 0 1-.32-.902c-.157-.72.027-1.2.8-1.383.692-.137 2.79.797 5.024 2.527 1.566 1.196 3.266 2.766 4.676 4.602a21.265 21.265 0 0 1 3.746 7.613c.719 2.688.957 5.64.64 8.809-.398 3.832-1.62 7.902-2.765 11.656-.742 2.422-1.434 4.738-1.832 6.734-.559 2.793-.508 5.028-.48 7.106.027 1.676.054 3.273-.212 5.027-.32 2.106-1.09 4.313-1.808 6.442-.61 1.835-1.223 3.593-1.461 5.082-.238 1.464-.16 2.636.316 3.539.48.879 1.356 1.57 2.739 2.05.878.32 1.968.559 3.164.72 4.253-1.25 8.398-2.157 11.746-2.661 4.304-.668 7.363-.746 8.93-.508.507.082.906.188 1.171.32.582.293.824.72.715 1.278-.05.238-.183.453-.371.64-.559.532-2.23 1.09-4.438 1.543-2.101.454-4.785.852-7.468 1.09-2.79.266-5.61.348-8.106.188a51.14 51.14 0 0 1-2.074-.188c-.719.215-1.46.453-2.18.692-3.984 1.332-7.972 2.98-11.402 5.004a34.386 34.386 0 0 0-9.621 8.328c-2.656 3.328-4.836 7.293-6.777 11.949-1.645 4.02-3.133 8.598-4.598 13.176-1.992 6.172-3.957 12.32-6.402 17.164-2.102 4.152-4.52 7.344-7.176 9.66-2.871 2.504-5.98 4.02-9.145 4.605-1.46.266-2.922.344-4.386.293l.718.266c6.14 2.262 12.73 4.07 19.403 5.031 5.875.852 11.828 1.035 17.539.317 5.93-.743 11.644-2.5 16.746-4.895 5.367-2.527 10.097-5.8 13.738-9.45 3.535-3.538 6.035-7.425 7.844-11.495 1.805-4.098 2.894-8.438 3.558-12.801.852-5.48 1.063-11.098 1.278-16.207.105-3.113.238-6.016.476-8.648.664-7 2.235-11.739 3.801-16.473v-.027zM207.203 197.27c-.344-1.168-.398-2.18-.316-3.008-.293.746-.32 1.707.21 2.824zm101.29-56.684a79.624 79.624 0 0 0-6.513 1.277 56.38 56.38 0 0 0 4.676-.265c2.606-.243 5.211-.641 7.258-1.067a37.956 37.956 0 0 0 2.207-.531c-1.598-.105-4.176.055-7.629.586zm-69.634-34.918a72.987 72.987 0 0 0-.054 4.766c.054 1.648.187 2.742.37 3.191.11.293-.105-.293-.05-.316.637-.27 1.594-.696 3.242-.72 2.738-.054 7.254 1.09 10.871 1.997l1.09.266c1.754.453 3.188.77 4.2.718.238-.027.476-.054.687-.132l-.05-2.184 1.593-.027c.293-1.04.453-2.368.504-3.86.082-2.234-.078-4.789-.477-7.21a33.68 33.68 0 0 0-1.726-6.548c-.747-1.968-1.649-3.699-2.633-5.004-.957-1.277-1.992-2.18-3.137-2.765a7.691 7.691 0 0 0-3.746-.774c-1.543.055-3.215.454-4.73 1.516-1.223.879-2.34 2.184-3.165 4.125-1.25 2.93-1.914 7.266-2.523 11.367l-.238 1.594zm-1.222 8.57c-.106-.265-.215-.691-.293-1.25-.48 1.598-1.012 2.926-1.489 4.125-.636 1.57-1.167 2.899-1.328 4.285-.16 1.41.028 2.954.426 4.446.399 1.543 1.008 3.058 1.621 4.39.371.77.715 1.489 1.09 2.047-.055-1.304-.082-2.605-.11-3.883-.05-2.609-.05-5.058-.023-7.082.024-2.156.106-3.804.211-4.601.055-.375.106-.613.188-.8.183-.4.398-.638.61-.72-.345-.05-.61-.316-.876-.957zm2.152.614c-.371.16-.691.293-.957.343.211.082.426.32.664.72.078.132.133.347.188.585.132.691.265 2.184.398 4.363.133 2.29.238 5.352.211 7.961-.027 1.969-.16 3.7-.426 4.656-.133.426-.293.747-.476.985.027.879.078 1.758.132 2.633.133 2.183.293 4.234.504 5.937.426.719.77 1.461 1.012 2.18.61 1.758.742 3.433.61 3.965-.051.242-.184.453-.344.586-.48.402-.93.32-1.356-.184a2.383 2.383 0 0 1-.347-.613c-.344-.852-.825-2.637-1.168-5.164l-.028-.184c-.16-.27-.37-.508-.558-.746-1.407-1.652-3.696-2.848-6.114-4.074a90.049 90.049 0 0 1-2.789-1.488 49.776 49.776 0 0 1-5.05-3.329c-1.649-1.222-3.27-2.527-4.918-3.882-1.754-1.438-3.532-2.93-5.102-4.235-1.488-1.277-2.922-2.5-4.117-3.566l-.801-.719c-1.832-1.648-3.027-2.71-4.863-3.484-.93-.371-2.02-.72-3.137-1.04-1.539-.453-3.133-.902-4.41-1.57a10.817 10.817 0 0 1-1.914-1.25c.054.133.054.32-.028.559l-.023.055c-.215.53-.535.664-1.066.503a1.514 1.514 0 0 1-.399-.16c-.664-.265-2.125-.875-3.11-.875-.105 0-.21 0-.292.024-.29.054-.504.16-.637.32a.644.644 0 0 0-.16.398v.083c.027.21.215.425.48.664.344.32.852.64 1.383.984.344.215.848.508 1.301.773.797.477 1.434.852 1.566 1.196v.027c.215.531.028.879-.476 1.09-.293.11-.504.055-.824-.024-.266-.054-.692-.16-.72-.16-.132.078.188.266.243.637.024.242.078.508.078.746.028.504-.027.957-.187 1.356a2.858 2.858 0 0 1-.664 1.066c-.16.16-.317.32-.477.453-.215.184-.426.371-.453.426 0 .027.055.078.133.183.16.215.398.403.746.614.289.16.664.347 1.09.508.636.265 1.328.586 2.02 1.035.316.215.609.426.902.64.77.586 1.675 1.278 3.054 1.704 1.067.32 2.473.53 3.828.746 1.196.183 2.368.343 3.297.609 1.117.293 1.914.691 2.977 1.598.984.851 2.207 2.156 4.226 4.285l.051.054c3.988 4.258 11.11 11.84 16.88 16.579 4.437 3.671 8.105 5.64 10.76 7.078.798.425 1.49.8 2.102 1.172a26.06 26.06 0 0 1 2.895 1.996c.8.613 1.437 1.09 2.207 1.382.371.133.797.243 1.25.293a7.286 7.286 0 0 1-1.649-.902c-.609-.48-.69-.879-.32-1.387.27-.37.586-.37 1.067-.37.316 0 .796 0 1.328-.16.425-.134.93-.372 1.406-.587 1.066-.504 2.047-.984 2.871-.558l.16.082.211-.48c.692-1.677 1.332-4.02 1.969-7.106.664-3.14 1.328-7.028 1.887-11.02.558-3.91 1.035-7.93 1.328-11.469.453-5.402.48-9.687.426-13.707a40.27 40.27 0 0 1-.61.082c-1.277.079-2.82-.265-4.73-.746l-1.09-.265c-3.512-.88-7.922-1.996-10.422-1.969-1.273.027-2.07.371-2.602.586zm-46.191-1.465-.692-.614c.188.215.453.426.692.614zm58.894 49.18c0-.079-.027-.133-.027-.184-.184.023-.742.293-1.356.586-.398.183-.824.398-1.246.558l.211.051c.531.082 1.09.082 1.567-.21.293-.161.586-.427.879-.802zm0 0"></path></g><g clip-path="url(#c)"><path fill="#2b2a29" d="M257.355 149.688c5.262 2.289 10.528 4.55 11.723 6.44.848 1.329.238 2.18-1.012 3.884-.957 1.332-2.39 3.3-3.8 6.68-1.383 3.273-2.739 7.906-4.172 12.773-1.621 5.457-3.32 11.234-5.235 15.836-1.863 4.418-3.91 7.773-6.195 10.113-2.336 2.395-4.89 3.754-7.68 4.098-2.632.347-5.449-.211-8.238-1.383-3.004-1.277-5.98-3.274-8.691-5.723-3.801-3.406-7.07-7.636-10.125-11.601a208.91 208.91 0 0 0-3.192-4.047l-.93-1.145c.294.801.481 1.598.481 2.371.024 1.063-.266 1.996-.559 2.953-.375 1.25-.773 2.555-.32 4.125.453 1.598 1.809 3.594 3.215 5.747 1.09 1.625 2.207 3.328 3.086 5.03a26.562 26.562 0 0 1 2.18 5.99c.449 1.917.687 3.698.902 5.296.184 1.648.344 3.113.078 4.285-.316 1.383-1.14 2.29-2.922 2.473-1.676.16-4.304-.399-7.015-2.047-1.996-1.254-4.067-3.113-5.797-5.777-1.965-3.032-3.48-7.079-4.703-11.496-1.223-4.391-2.18-9.18-3.004-13.758-.825-4.606-1.54-8.97-1.887-12.856-.344-3.937-.266-7.426.48-10.14l.106-.344c-5.45 2.527-11.27 5.215-16.531 7.637-4.012 1.835-7.707 3.539-11.243 5.191-2.101.984-3.535 1.648-4.703 2.207-5.316 2.504-6.273 2.953-7.601 2.742-.774-.133-1.543-.508-3.64-1.543-2.024-.984-5.372-2.637-11.27-5.351-10.766-4.895-30.192-13.36-41.782-18.387l-3.004-1.305c-11.16-4.87-11.16-4.898-10.921-9.902l.027-.344c.105-2.262.21-5.59.289-8.914.082-3.7.137-7.535.137-10.008v-.238c0-2.555 0-3.727 1.832-3.781 1.011-.028 2.605.558 5.527 1.625 1.012.37 2.18.797 3.508 1.277 4.973 1.781 12.254 4.203 19.8 6.73 7.895 2.637 16.106 5.38 22.008 7.454 5.981 2.129 9.887 3.672 12.516 5.535 2.738 1.941 4.121 4.152 4.89 7.558 1.278 5.536.985 14.266.825 19.348l-.05 2.207c-.028.906-.509 1.305-.266 1.305.265 0 1.14-.531 2.789-1.516 1.78-1.066 4.359-2.637 8.16-4.605 11.558-5.989 34.152-15.621 56.77-25.282l.663 1.543c-22.566 9.633-45.156 19.27-56.636 25.23-3.723 1.915-6.301 3.485-8.055 4.552-1.887 1.144-2.922 1.754-3.691 1.754-1.305-.024-1.41-.985-1.356-3.032l.078-2.234c.16-5.004.453-13.602-.77-18.922-.69-2.957-1.863-4.898-4.226-6.547-2.473-1.758-6.273-3.25-12.121-5.324-6.113-2.156-14.191-4.871-21.98-7.453-7.653-2.555-15.04-5-19.825-6.73-1.382-.508-2.55-.934-3.535-1.278-2.71-1.012-4.226-1.543-4.89-1.52-.211 0-.211.668-.211 2.106v.238c0 2.317-.055 6.149-.133 10.032-.082 3.382-.16 6.734-.293 8.968l-.028.348c-.187 3.86-.187 3.887 9.915 8.277l3.003 1.305c11.56 5.027 30.934 13.465 41.805 18.414 5.926 2.688 9.278 4.363 11.32 5.348 1.942.96 2.633 1.304 3.192 1.386.797.133 1.7-.265 6.617-2.609l4.703-2.207c2.555-1.2 6.7-3.09 11.27-5.191 5.793-2.66 12.254-5.641 18.18-8.41.796-1.489 1.859-2.66 3.081-3.618 1.864-1.437 4.094-2.398 6.485-3.222 2.34-.797 4.84-1.461 7.336-1.704.347-.027.664-.05 1.011-.078 5.34-2.582 8.426-3.804 10.95-3.46 2.55.347 4.277 2.21 5.875 3.937.742.8 1.433 1.57 2.152 2.078 1.008.719 2.152 1.012 3.055 1.223 1.328.32 2.261.558 2.261 1.757 0 .133-.027.293-.054.426-.188.692-.852 1.598-1.809 2.317-.957.691-2.203 1.222-3.613 1.222-.453 0-.93-.054-1.434-.187-1.758-.453-3.535-1.754-5.476-3.164-1.887-1.387-3.907-2.848-6.059-3.649-1.73-.636-3.562-.851-5.422-.797l-3.375 1.649c-1.62.8-3.43 1.676-5.37 2.61a817.474 817.474 0 0 1-8.372 3.964 11.292 11.292 0 0 0-.664 1.809c-.691 2.504-.746 5.777-.426 9.554.32 3.86 1.035 8.172 1.86 12.696.824 4.523 1.754 9.289 2.976 13.625 1.2 4.285 2.633 8.172 4.492 11.043 1.57 2.422 3.457 4.125 5.262 5.27 2.367 1.464 4.598 1.972 5.953 1.812.906-.082 1.305-.535 1.465-1.2.211-.878.078-2.207-.11-3.699-.183-1.57-.421-3.3-.847-5.082-.426-1.785-1.063-3.699-2.047-5.59-.851-1.62-1.941-3.273-3.004-4.87-1.488-2.262-2.922-4.364-3.457-6.2-.582-2.05-.105-3.594.348-5.082.265-.828.504-1.652.476-2.45-.023-.956-.398-2.05-.98-3.085a12.252 12.252 0 0 0-2.66-3.168c-1.035-.879-2.125-1.492-3.082-2.024-.957-.53-1.781-.984-2.367-1.597-.504-.531-.797-1.145-.797-1.676 0-.32.082-.637.265-.906.215-.266.48-.45.88-.531.476-.079 1.167.054 2.019.558 1.117.64 2.71 1.969 4.52 3.781 1.726 1.704 3.667 3.86 5.632 6.305 1.063 1.305 2.125 2.688 3.215 4.074 3.031 3.91 6.246 8.09 9.914 11.39 2.578 2.313 5.395 4.231 8.238 5.427 2.528 1.066 5.051 1.57 7.364 1.281 2.39-.32 4.652-1.492 6.699-3.621 2.125-2.184 4.066-5.348 5.844-9.582 1.89-4.524 3.59-10.246 5.183-15.649 1.438-4.921 2.817-9.578 4.227-12.933 1.488-3.54 2.976-5.613 3.988-7.024.797-1.093 1.195-1.652.957-1.996-.934-1.465-5.957-3.62-10.977-5.804h-.027l.477-1.063.214-.48zm-54.562 28.609a14.915 14.915 0 0 0-1.727-1.277c-.187-.11-.32-.188-.453-.243l.16.188c.399.398 1.118.824 1.965 1.277l.082.055zm-3.59-15.488a8.38 8.38 0 0 0-.875.77c1.992-.93 3.879-1.837 5.633-2.688 1.328-.637 2.55-1.25 3.695-1.782-.824.239-1.648.477-2.445.743-2.23.746-4.305 1.652-5.98 2.957zm17.41-6.176c.957.133 1.887.37 2.79.719 2.367.878 4.492 2.449 6.46 3.886 1.805 1.328 3.48 2.555 4.89 2.899.345.082.688.133 1.009.133 1.035 0 1.941-.399 2.633-.875.664-.48 1.09-1.012 1.167-1.36v-.027c0-.106-.398 0-.984-.133-1.008-.238-2.363-.559-3.64-1.488-.852-.614-1.622-1.438-2.418-2.317-1.41-1.515-2.899-3.14-4.836-3.406-1.649-.215-3.801.453-7.125 1.969zm0 0"></path></g><path fill="#2b2a29" d="M158.195 176.832c.055-3.91.106-7.852.055-11.176-.082-3.273-.266-6.015-.719-7.586a10.227 10.227 0 0 0-.558-1.41c-.453-.906-.692-1.383.082-2.101.476-.454 1.488-.801 3.613-1.547.664-.239 1.434-.504 2.894-1.035 2.844-1.012 6.727-2.477 11.032-4.075l-.399-.078c-1.277-.265-2.898-.32-5.129-.027-1.941.238-4.359.746-6.406 1.172-2.578.531-4.625.957-5.074.32-.348-.508-.242-.96.398-1.387.77-.53 3.453-1.703 7.094-3.164 3.988-1.625 9.117-3.593 14.008-5.379 9.14-3.379 17.383-6.12 25.621-8.859l.05-.027.532 1.597-.05.028c-8.16 2.71-16.321 5.425-25.567 8.859-4.84 1.785-9.969 3.754-13.953 5.375l-1.781.719c1.648-.344 3.402-.664 4.914-.852 2.445-.316 4.226-.238 5.664.028.957.187 1.754.48 2.496.824l1.09-.399c8.082-3.03 16.93-6.359 22.59-8.328 10.206-3.515 10.953-2.797 12.226-1.437l.027.027c1.196 1.277 2.977 3.14 2.153 5-.637 1.438-2.739 2.422-6.407 4.125l-2.152 1.012-2.656 1.277c-4.492 2.156-9.836 4.738-13.367 5.75-2.262.64-3.801.664-5.024.348-1.25-.32-2.101-.961-2.976-1.653l-.348-.265c-1.488-1.145-3.11-2.395-4.863-3.406l-.371-.215c-5.079 1.918-9.727 3.648-12.786 4.738-.851.293-1.992.691-2.921 1.04-1.915.663-2.793.983-3.032 1.17-.16.134.188-.054.293.134.188.398.453.93.664 1.676.477 1.73.692 4.578.77 8.011.082 3.352.027 7.29-.05 11.23l-1.677-.027zm43.032-36.965c-5.692 1.969-14.356 5.215-22.274 8.196 1.516.96 2.922 2.023 4.227 3.035l.343.265c.747.559 1.438 1.117 2.368 1.332.957.239 2.23.211 4.172-.347 3.402-.957 8.664-3.512 13.101-5.641l2.684-1.277 2.152-1.012c3.297-1.543 5.21-2.422 5.582-3.273.375-.825-.93-2.211-1.805-3.141l-.027-.027c-.797-.852-1.25-1.329-10.473 1.863zm0 0"></path><g clip-path="url(#d)"><path fill="#2b2a29" d="m284.52 71.285-.028-.027c-4.652-2.207-9.328-4.418-11.64-7.504-1.676-2.207-2.047-4.766-2.286-6.387-.507-.105-.773-.453-.906-.851-.105-.32-.05-.664.082-.934.133-.293.344-.531.61-.664.53-.266 1.117-.188 1.488.559v.027c1.09-.48 2.71-1.543 4.254-3.219 1.25-1.387 2.39-3.14 3.054-5.27.852-2.687.934-5.988.375-9.288-.558-3.247-1.78-6.442-3.617-9.047-2.097-3.008-4.969-5.22-6.988-6.121-.504-.243-.957-.375-1.277-.403.214.774 1.25 2.317 2.527 4.207 2.312 3.434 5.394 8.012 6.297 12.293.664 3.117.187 6.07-.902 8.625-1.383 3.246-3.723 5.907-5.903 7.559-1.594 1.222-3.133 1.914-4.383 2.156-.746.133-1.41.133-1.941-.055-.664-.214-1.14-.613-1.383-1.199-.16-.37-.21-.797-.16-1.277.133-1.117.906-2.473 1.89-4.203 1.223-2.184 2.79-4.95 3.641-8.2.715-2.738.957-5.878.797-8.886-.16-3.196-.773-6.2-1.726-8.465-.801-1.969-1.836-3.324-2.766-3.965-.293-.21-.531-.316-.746-.344-.078 0-.133 0-.156.028-.082.05-.133.21-.16.449-.133.933.16 2.637.53 4.683.56 3.09 1.25 6.922.876 10.567-.371 3.832-1.91 7.348-3.188 10.3-.77 1.755-1.433 3.301-1.676 4.497-.37 1.863.348 2.98.746 3.594.16.238.266.425.344.664.188.64 0 1.039-.691 1.226-.531.16-2.418-.187-4.067-1.387a7.586 7.586 0 0 1-2.152-2.394 5.335 5.335 0 0 1-.184 1.094 7.312 7.312 0 0 1-1.914 3.297 10.23 10.23 0 0 1-3.507 2.289c-1.356.535-2.844.824-4.282.8-1.406 0-2.761-.293-3.933-.906a7.918 7.918 0 0 1-2.871-2.582c-.743-1.117-1.223-2.422-1.328-3.672-.106-1.222.132-2.367.37-3.566.215-1.012.426-2.051.403-3.113-.027-1.223-.375-2.66-.746-4.313-.32-1.41-.692-2.953-.957-4.734-.293-2.106-.453-4.528-.344-6.762.106-1.996.399-3.86.93-5.297.61-1.621 1.539-2.687 2.605-3.484 1.008-.746 2.125-1.227 3.188-1.653 1.035-.425 2.02-.824 2.71-1.062 1.782-.613 2.712-.48 2.048 1.039-.106.238-.32.45-.637.77-.719.718-2.074 2.128-2.899 4.417-.53 1.493-.824 3.38-.902 5.325-.11 2.129.05 4.285.399 6.12a15.49 15.49 0 0 0 1.46 4.337c.32.586.637 1.117 1.008 1.625l.719-.082c1.383-.078 2.578.214 3.695.691-.77-1.648-1.41-3.43-1.515-5.535-.078-1.621.132-3.379.558-5.137.477-2.074 1.25-4.148 2.047-5.933.32-.72.586-1.25.852-1.782.875-1.812 1.593-3.273 1.379-4.605a2.91 2.91 0 0 1-1.114.133c-.773-.028-1.703-.293-2.71-.852-1.333-.746-2.794-2.047-3.856-3.7-.875-1.355-1.461-2.952-1.488-4.71-.028-1.996.718-4.176 2.047-5.934 1.25-1.625 2.976-2.925 5.05-3.46 1.594-.399 3.403-.372 5.075-.106 2.738.398 5.183 1.383 5.902 1.73.582.293.824.614.691 1.04.344.05.688.183 1.008.425.426.317.852.797 1.223 1.356.613.933 1.117 2.183 1.46 3.351.4 1.387.587 2.742.294 4.02-.293 1.332-1.063 2.527-2.551 3.539l-.055.027c-.742.508-1.644.957-2.629 1.332.399 1.278.719 2.633.504 4.39-.265 2.29-1.383 5.138-2.605 8.278-.77 1.969-1.594 4.07-2.258 6.149-.902 2.847-1.566 5.746-1.781 8.328-.184 2.234-.051 4.18.558 5.613.453 1.121 1.196 1.918 1.965 2.504a9.18 9.18 0 0 0 1.465.852c-.426-.88-.797-2.13-.453-3.915.265-1.355.984-2.98 1.781-4.843 1.223-2.82 2.684-6.2 3.055-9.793.347-3.407-.317-7.133-.848-10.114-.398-2.207-.719-4.043-.558-5.242.105-.636.343-1.117.69-1.437.427-.399.958-.531 1.54-.45.48.079.984.294 1.488.665.531.37 1.09.93 1.621 1.648.348-.426.88-.61 1.57-.531.505.055 1.118.238 1.805.531 2.207 1.012 5.371 3.406 7.657 6.707 1.964 2.82 3.27 6.254 3.878 9.715.614 3.539.508 7.133-.425 10.059-.742 2.394-2.043 4.363-3.426 5.91-1.809 1.996-3.856 3.246-5.129 3.75.211 1.465.555 3.754 1.965 5.644 2.074 2.739 6.539 4.867 11.004 6.996l-.32.668-.372.875zm-16.903-49.312h-.027c0 .027 0 0 .027 0zm7.254 16.976c-.797-3.804-3.562-8.035-5.766-11.308.372 1.675.61 3.511.715 5.375.16 3.168-.078 6.468-.847 9.394-.907 3.488-2.528 6.36-3.801 8.598-.879 1.57-1.57 2.82-1.676 3.59-.027.187 0 .32.027.425.051.11.16.188.344.243.293.078.664.078 1.145 0 1.008-.188 2.285-.801 3.668-1.836 1.965-1.52 4.117-3.914 5.367-6.867.957-2.262 1.383-4.872.797-7.614zm-22.644 8.09c0-.559.027-1.117.078-1.703.215-2.688.906-5.719 1.863-8.7.691-2.183 1.516-4.284 2.285-6.253 1.195-3.063 2.258-5.805 2.496-7.88.16-1.437-.078-2.608-.422-3.698-.375.078-.718.16-1.09.215-1.835.265-3.59 0-4.68-1.094.083.16.134.293.161.453.078.16.16.32.238.48.88 2.153-.05 4.098-1.25 6.57-.289.587-.582 1.2-.82 1.731-.746 1.676-1.465 3.649-1.941 5.617-.372 1.621-.586 3.22-.504 4.657.132 2.582 1.246 4.738 2.285 6.785.265.508.504 1.011.715 1.41.214.453.425.906.613 1.36zm5.742-29.832c-.32-.957-.614-1.941-.719-3.14-.133-1.704.133-3.778.613-5.536.399-1.383.93-2.633 1.567-3.406-.852.16-2.02.531-3.032 1.57-1.195 1.227-2.23 3.328-2.738 5.375-.45 1.813-.504 3.516.137 4.418.582.852 1.937 1.04 3.426.825.265-.024.504-.079.773-.133zm.957-3.273c.078 1.039.344 1.945.664 2.796.824-.32 1.594-.718 2.203-1.144l.055-.027c1.09-.774 1.675-1.625 1.859-2.528.215-.96.082-2.023-.266-3.168-.293-1.039-.742-2.101-1.273-2.93-.266-.398-.531-.714-.773-.902-.133-.105-.266-.16-.344-.133l-.078.051c-.536.348-1.09 1.547-1.516 3.035-.453 1.57-.691 3.434-.559 4.95zm-6.778 3.168c-.691-1.356-.664-3.38-.16-5.403.586-2.316 1.782-4.738 3.188-6.148a6.742 6.742 0 0 1 2.527-1.649c-.93-.293-2.02-.558-3.191-.746-1.489-.21-3.055-.265-4.41.078-1.704.426-3.11 1.493-4.149 2.848-1.113 1.465-1.726 3.25-1.726 4.898.027 1.383.503 2.688 1.222 3.832.903 1.41 2.153 2.528 3.27 3.141.77.426 1.46.64 1.965.664h.347c-.398-.558-.902-1.144-1.41-1.754-1.246-1.437-2.578-2.98-2.894-4.793-.293-1.648.265-3.379.957-4.629.289-.53.609-.957.902-1.277.426-.426.851-.691 1.25-.664a.92.92 0 0 1 .664.266c.559.504.371 1.703.133 3.218-.238 1.438-.531 3.274-.371 4.606.21 1.515 1.09 2.582 1.726 3.351l.16.188zm-3.617-4.766c.028-1.25.242-2.555.426-3.645l.027-.187c-.476.934-.824 2.156-.636 3.25.027.184.078.398.16.582zm1.57 34.094-.398-.825c-1.383-.746-2.766-1.464-4.332-1.52.316.321.637.669.98.985 1.438 1.41 2.766 2.742 3.165 4.766.265 1.355.105 2.953-.453 4.39-.532 1.356-1.38 2.555-2.551 3.247-1.223.746-2.762.906-4.227.53-1.406-.343-2.762-1.167-3.664-2.421-.851-1.195-1.305-2.738-1.355-4.336-.028-.426 0-.824.023-1.25-.184.93-.344 1.836-.266 2.715.082.984.454 1.996 1.04 2.871a6.245 6.245 0 0 0 2.23 2.023c.93.48 2.047.692 3.191.72 1.246 0 2.524-.24 3.668-.692 1.141-.453 2.153-1.117 2.922-1.914.719-.746 1.25-1.598 1.488-2.532.239-.957.188-2.023-.078-3.14-.265-1.168-.773-2.422-1.355-3.645zm-12.304-.242c0 .64-.055 1.253-.133 1.812.156-.508.344-.96.555-1.41.64-1.254 1.597-2.211 2.687-2.903.45-.292.93-.53 1.406-.718a14.904 14.904 0 0 1-.769-1.305c-.691-1.328-1.277-2.898-1.648-4.789-.372-1.941-.532-4.258-.426-6.492.105-2.106.426-4.153 1.011-5.805.504-1.41 1.196-2.527 1.833-3.406l-.848.348c-.957.398-1.969.796-2.82 1.437-.825.613-1.54 1.465-2.047 2.715-.477 1.277-.743 2.953-.825 4.789a34.46 34.46 0 0 0 .32 6.441c.239 1.703.614 3.22.93 4.602.399 1.73.774 3.223.797 4.66zm6.191-1.118c-.215-.21-.398-.449-.613-.691a6.335 6.335 0 0 0-1.566.719 5.916 5.916 0 0 0-2.075 2.261c-.558 1.094-.847 2.504-.797 3.86.055 1.277.399 2.504 1.063 3.406.664.906 1.648 1.52 2.688 1.785 1.035.266 2.125.16 2.949-.347.824-.504 1.46-1.383 1.86-2.422.452-1.145.585-2.422.37-3.461-.316-1.543-1.46-2.688-2.71-3.91-.372-.372-.77-.747-1.196-1.223zm0 0"></path></g><path fill="#2b2a29" d="M237.531 24.02c-3.27 3.14-6.511 6.28-7.816 9.234-.559 1.305-.77 2.582-.692 3.781a8.836 8.836 0 0 0 1.063 3.7c.242.425.508.796.746 1.117a8.592 8.592 0 0 1-.344-2.875c.051-1.063.371-2.235.77-3.274a8.994 8.994 0 0 1 1.14-2.101c.532-.692 1.172-1.09 1.809-1.067.16 0 .293.055.426.11.875.343 1.433 1.835 1.62 3.539.161 1.515.056 3.3-.425 4.55-.586 1.57-1.621 2.317-2.578 2.953.027.188.027.372-.05.56-.055.16-.16.265-.27.374-.266.211-.61.29-.98.184-.321.718-.055 1.996.16 3.09.077.343.132.664.183.984a8.97 8.97 0 0 1 .105 1.941v.106c.266.054.586.16.957.398.348.242.665.614.93 1.012.27.426.508.906.613 1.305.133.425.133.773.133 1.011.239.188.504.453.692 1.04.105.316.16.69.238 1.117.082.558.215 1.195.426 1.78.265.692.718 1.411 1.222 2.184.188.266.371.559.637.985.238.398.426.746.64 1.09.532.906 1.114 1.918 1.938 3.007.508.692 1.09 1.36 1.676 2.051.824.985 1.676 1.996 2.285 2.899.293.453.531.851.746 1.226.504.852.875 1.516 1.54 1.754.452.16 1.09.188 1.78.16.93-.05 1.887-.265 2.551-.449.16-.055.293-.11.399-.137-.531-.558-1.035-1.144-1.461-1.808-.797-1.305-1.195-2.875-1.278-3.86-.023-.343 0-.636.055-.879.106-.476.344-.796.77-.93.215-.054.425-.054.64.028.477.188 1.036 1.04 1.54 2.102.53 1.117 1.09 2.527 1.382 3.511.16.559.266 1.012.293 1.41l.586.563c.742.692 1.434 1.3 1.887 1.992.582.852.742 1.707.691 2.532-.054.77-.293 1.46-.508 2.156l-1.593-.535c.187-.61.398-1.196.425-1.754.028-.48-.054-.985-.398-1.465-.348-.508-.957-1.067-1.648-1.703l-.16-.133c-.294.238-.692.398-1.169.531-.77.238-1.859.453-2.925.531-.875.055-1.727 0-2.418-.238-1.25-.453-1.782-1.332-2.446-2.5-.21-.347-.425-.746-.691-1.12-.582-.853-1.379-1.81-2.176-2.767-.613-.746-1.222-1.464-1.73-2.128-.875-1.172-1.489-2.235-2.047-3.196-.211-.398-.45-.77-.61-1.035-.16-.242-.37-.613-.613-.96-.558-.852-1.062-1.622-1.379-2.528-.265-.746-.398-1.489-.507-2.102-.051-.37-.106-.691-.16-.851a.524.524 0 0 0-.212-.293c-.16-.133-.293-.215-.425-.453-.16-.266-.16-.477-.16-.77 0-.16 0-.348-.079-.586a3.68 3.68 0 0 0-.425-.879c-.16-.238-.32-.426-.477-.531a1.28 1.28 0 0 0-.453-.16c-.426-.106-.797-.16-1.063-.668-.187-.317-.16-.637-.16-1.09 0-.371.028-.906-.105-1.621-.055-.27-.106-.586-.188-.906-.293-1.41-.636-3.063.055-4.313a10.079 10.079 0 0 1-1.914-2.367 10.162 10.162 0 0 1-1.277-4.445c-.079-1.438.16-2.953.851-4.524 1.434-3.273 4.813-6.52 8.188-9.793l1.168 1.196zm-5.344 15.062c-.078 1.172.211 2.211.504 2.98.641-.449 1.25-.984 1.594-1.914.375-1.011.453-2.5.348-3.804-.106-1.04-.293-1.89-.504-2.106-.055.055-.188.188-.348.403-.316.425-.636 1.011-.902 1.675-.348.88-.613 1.864-.664 2.743zm.211 12.004v.027c.055.106.028.051 0-.027zm2.606 3.594.027.05zm0 0"></path><g clip-path="url(#e)"><path fill="#2b2a29" d="M83.566 124.617h.051c7.762-2.129 15.496-4.23 19.645-5.164 2.125-.45 3.398-.637 4.304-.504l-.214-.719c-.504-1.808-.93-3.832-1.036-5.882-.132-2.739.266-5.508.93-8.223.664-2.688 1.621-5.348 2.606-7.957.984-2.582 1.964-5.082 2.921-7.16l.16-.371c-.343.027-.663 0-.984-.106-1.09-.375-1.539-1.52-2.047-2.847-.37-.934-.77-1.996-1.433-2.743-.664-.77-1.676-1.332-2.684-1.89-1.277-.719-2.55-1.41-3.375-2.578-1.172-1.625-1.277-3.942-1.328-5.352-.531.082-1.223-.027-2.129-.664-1.062-.746-2.523-2.394-3.879-4.312-1.195-1.704-2.312-3.672-2.976-5.43-.746-1.969-.903-3.75-.532-5.27.399-1.57 1.383-2.847 2.922-3.832 1.543-.984 3.668-1.648 5.582-1.836l.48-.027c.77-.316 1.54-.531 2.231-.531 2.899-.078 4.305 2.527 5.903 5.508a59.99 59.99 0 0 0 1.007 1.812c1.036 1.809 2.286 3.566 3.536 4.629.851.746 1.675 1.145 2.34.934.714-.215 1.433-1.094 2.07-2.239.824-1.46 1.465-3.3 1.886-4.867a3.173 3.173 0 0 0-1.168-.215c-.824 0-1.859.266-2.898.504-1.594.375-3.16.774-4.355.375a3.005 3.005 0 0 1-1.332-.906 3.037 3.037 0 0 1-.637-1.488 3.524 3.524 0 0 1 .16-1.653 4.115 4.115 0 0 1 1.355-1.941c.825-.664 1.993-1.09 3.27-1.332-.16-.133-.293-.238-.426-.371-.476-.48-.691-1.012-.558-1.57a1.25 1.25 0 0 1 .398-.692c.691-.691 2.684-1.066 5.023-1.117 2.258-.055 4.891.16 6.993.637 2.175.507 3.773 1.277 4.754 2.449.293.347.507.691.691 1.09a20.883 20.883 0 0 1 4.121 3.433 20.988 20.988 0 0 1 1.434 1.758c-.317-4.523-.582-8.676-.743-11.922-.32-5.855-.32-8.89 1.329-10.648 1.648-1.782 4.625-1.992 10.34-2.262 5.898-.293 14.91-.691 23.624-1.035 7.364-.293 14.567-.535 19.563-.64 5.633-.106 8.531-.052 10.258 1.491 1.726 1.57 1.969 4.364 2.261 9.688.266 4.734.583 11.656.875 18.734.348 8.012.665 16.18.852 21.61.184 5.136.211 7.797-.133 9.312-.453 1.89-1.328 2.238-3.031 2.77a179.15 179.15 0 0 1-6.113 1.703 641.48 641.48 0 0 1-9.621 2.476c-3.72.93-8.024 2.02-12.278 3.059l-6.246 1.516c.078.082.211.187.32.27.504.37 1.223.663 2.125.769 1.036.132 2.286.027 4.094-.32 1.914-.372 4.36-1.008 7.707-1.915 3.215-.879 7.309-2.05 11.403-3.246 4.359-1.277 8.664-2.555 11.773-3.488 2.977-.902 4.918-1.543 6.324-1.996 1.383-.453 2.207-.719 3.082-.93a14.963 14.963 0 0 1 2.766-.48c.691-.051 1.434-.051 2.23 0l-.289-1.063a37.126 37.126 0 0 1-1.011-4.047c-.371-1.863-.637-4.152-.93-6.414-.293-2.34-.586-4.629-.93-6.304-.238-1.094-.504-1.973-.719-2.692-.398-1.3-.69-2.234-.476-3.246-.16-.426-.293-.879-.399-1.328-.292-1.465-.242-3.09.079-4.473.37-1.625 1.09-2.875 1.675-3.91.317-.535.582-1.012.715-1.414.242-.664.082-1.25-.078-1.996-.078-.371-.187-.742-.266-1.277-.16-.957-.214-2.13-.078-3.192.133-.906.422-1.758.98-2.344l.188-.183c.637-.559 1.489-.8 2.364-.719a4.104 4.104 0 0 1 2.34 1.063c.105.082.187.187.265.265.613.696.984 1.57 1.356 2.504.347.879.746 1.809 1.355 2.527.586.692 1.438 1.25 2.285 1.836 1.012.692 2.047 1.383 2.844 2.344 1.543 1.863 1.914 4.418 2.285 6.973l-.289.05c.156.692-.055 1.41-.664 2.184-.559.719-1.488 1.516-2.527 2.207-1.036.719-2.23 1.36-3.27 1.73-1.09.4-2.047.56-2.871.4h-.023a9.011 9.011 0 0 1-3.403.269c-1.039-.11-2.02-.426-2.87-.961l.054.16c.238.773.504 1.676.77 2.848.37 1.785.663 4.097.956 6.44.266 2.235.559 4.47.903 6.31.32 1.62.691 2.898.984 3.882.188.668.344 1.227.453 1.73 1.14.161 2.39.454 3.531.774 1.305.371 2.5.797 3.297 1.25.532.293.93.637 1.172.985.238.37.344.746.266 1.144-.082.371-.293.692-.668.957-.422.32-1.09.586-2.043.797-1.356.293-3.43.508-5.582.535-1.914.028-3.906-.105-5.555-.398-1.781-.32-3.164-.88-4.066-1.438-.453-.265-.824-.558-1.063-.851a2.763 2.763 0 0 1-.265-.375 446.37 446.37 0 0 1-4.68 1.465c-3.137.957-7.441 2.234-11.774 3.511a657.2 657.2 0 0 1-11.43 3.246c-3.425.934-5.898 1.598-7.812 1.973-1.328.266-2.39.398-3.32.398.531.239.953.56 1.246.903l.133-.106c.664-.425 1.598-.636 3.031-.664 1.383-.027 3.32.106 5.235.32 1.73.212 3.457.504 4.785.903.797.242 1.433.48 1.965.746.718.371 1.222.773 1.542 1.2.399.53.504 1.116.348 1.648.238.16.399.398.582.718.133.239.32.532.586.825.266.32.664.664 1.063 1.011.824.72 1.675 1.465 2.074 2.422.344.797.344 1.676.027 2.633-.293.856-.824 1.758-1.543 2.742a22.072 22.072 0 0 1-2.976 3.301c-.985.906-2.075 1.73-3.215 2.344l-.133.078c-.133.078-.266.16-.426.238-.105.055-.215.082-.32.133-.902.402-1.832.668-2.762.852-1.355.242-2.71.242-3.988.082-1.328-.16-2.633-.48-3.746-1.09a6.754 6.754 0 0 1-2.262-1.89l-4.648-1.25-1.836-.481c-3.453-.907-5.34-1.41-5.422-2.5-.078-1.012 1.222-1.57 2.87-2.29.638-.269 1.302-.558 1.888-.851 1.062-.508 2.074-1.121 2.898-1.785l.024-.027c-.583.132-1.196.187-1.86.214-1.539.028-3.32-.293-5.05-.824-1.993-.613-3.958-1.57-5.712-2.398-1.117-.532-2.128-1.008-2.925-1.328-.957-.348-1.672-.48-2.418-.426-.77.05-1.649.265-2.871.586-1.141.293-2.551.636-3.801 1.035.027.242.054.426.11.613.05.215.105.399.183.531.265.082.48.16.664.243.347.16.558.398.664.636l.027.055c.16-.105.266-.215.348-.293.316-.293.476-.453.93-.32.796.215.714.531.582 1.25-.024.16-.051.375-.106.691-.105.8-.183 2.156-.21 3.621a80 80 0 0 0-.055 4.418l.027 1.41c.055 2.29.105 4.02-.613 5.508-.399.828-1.063 1.543-1.778 2.13-.851.69-1.863 1.198-2.765 1.546-.825.316-1.594.477-2.418.582-.797.082-1.621.082-2.684.082-1.039 0-2.285-.055-3.457-.133-1.223-.082-2.445-.215-3.426-.453-1.09-.266-1.941-.64-2.554-1.332-.61-.691-.957-1.648-1.09-3.031-.106-1.04-.078-2.344 0-3.754-1.301 1.25-2.735 2.289-4.117 2.98-2.047 1.012-4.016 1.278-5.477 1.145-.691-.055-1.273-.211-1.727-.426-.586-.266-.984-.691-1.117-1.144-.05-.266-.05-.532.055-.774.21-.531.715-.875 1.406-1.383 1.383-.984 3.75-2.632 4.52-6.68.879-4.55-.211-12.136-1.09-18.413a144.643 144.643 0 0 1-.664-5.059 75.952 75.952 0 0 1-.477-6.332c-.082-1.652.051-2.316-.027-2.344-.16-.027-.746.266-1.383.586l-.293.133c-.293.559-.61 1.2-.93 1.89-.93 2.047-1.914 4.497-2.87 7.024-.958 2.531-1.887 5.137-2.551 7.773-.637 2.582-1.036 5.188-.903 7.743a24.14 24.14 0 0 0 .98 5.511 34.42 34.42 0 0 0 1.118 3.274c.48.851.984 1.941 1.222 2.527l.16.399c.692 1.011.743 1.73.532 2.101.055.668-.188.774-.746.215-.422-.133-.93-.64-1.274-1.543a4.04 4.04 0 0 1-.214-.375c-.239-.453-.665-1.355-1.168-2.605l-.133-.243c-.32-.53-.559-.824-1.035-.902-.664-.11-1.782.05-3.774.477-4.2.933-11.883 3.035-19.562 5.136l-.055.028-.426-1.625zm30.43-38.055c.559-.984 1.063-1.812 1.57-2.37 1.168-1.305 2.23-1.462 3.32-.61.825.637 1.571 1.941 2.368 3.91.61 1.516 1.273 3.461 1.992 5.563l.664 1.968c.348-.21.77-.238 1.305-.132.555.105 1.168.453 1.805.796.69.376 1.46.801 1.992.829.133 0 .242 0 .347-.028.239-.082.426-.265.61-.531.215-.348.347-.828.375-1.437.05-.852-.082-1.918-.453-3.141-.371-1.172-.957-2.45-1.594-3.727-.774.078-1.57.028-2.367-.238-1.434-.48-2.762-1.57-3.774-2.875-1.035-1.36-1.699-2.953-1.676-4.312 0-1.356.668-2.45 1.676-3.301 1.063-.875 2.551-1.461 4.121-1.754.93-.16 1.832-.215 2.711-.293 1.672-.106 3.27-.215 4.25-1.04l.188-.187c.61-.609 1.008-1.543 1.117-2.5.105-.93-.082-1.863-.64-2.5l-.157-.16c-.691-.668-1.863-1.039-3.137-1.066-1.382-.051-2.82.265-3.855.879-1.461.906-2.125 2.582-2.473 3.433-.183.453-.289.746-.558.93a.781.781 0 0 1-.582.16c-.48-.027-.774-.344-.852-.902-.027-.16-.027-.403-.027-.696.054-1.007.453-2.98 1.57-5.453.316-.718.715-1.52 1.14-2.316-.874-.957-1.566-2.05-2.23-3.059l-.32-.507c-.477-.747-.93-1.383-1.41-1.915-.45 1.543-1.086 3.247-1.86 4.63-.824 1.492-1.859 2.66-3.027 3.035-1.305.398-2.66-.16-3.934-1.278-1.382-1.199-2.765-3.113-3.882-5.058-.371-.61-.692-1.25-1.036-1.864-.718-1.328-1.382-2.554-2.125-3.406.133.824-.054 1.758-.48 2.688a9.66 9.66 0 0 1-2.445 3.195 9.568 9.568 0 0 1-1.516 1.039c-1.434.742-3.055.902-4.277.586-.48-.11-.903-.32-1.278-.563a2.827 2.827 0 0 1-.93-1.007c-.292-.563-.37-1.227-.183-1.946.266-1.117 1.246-2.449 2.496-3.644-.398.187-.77.37-1.09.586-1.168.746-1.914 1.703-2.207 2.82-.316 1.195-.133 2.633.453 4.258.614 1.625 1.649 3.46 2.766 5.054 1.223 1.758 2.55 3.25 3.453 3.887.746.531 1.04.32 1.195.215.16-.11.293-.215.532-.242.613-.078.957.16 1.039.906.027.16.027.426.027.774.024 1.168.05 3.378 1.008 4.734.613.851 1.727 1.492 2.816 2.101 1.145.641 2.29 1.278 3.137 2.266.852.984 1.328 2.152 1.727 3.219.375.93.691 1.758 1.039 1.863.293.106.875-.105 1.488-.398zm2.817-1.253-.106.136a.878.878 0 0 1 .453.024c1.223.242 1.278 1.332 1.383 3.914.078 1.437.16 3.46.477 6.226.187 1.516.425 3.22.664 5.004.906 6.414 1.996 14.133 1.062 18.973-.902 4.687-3.613 6.602-5.207 7.746l-.586.426c.266.105.664.215 1.145.238 1.195.11 2.843-.133 4.57-.984 1.727-.852 3.535-2.34 5.05-4.125l.294-3.407c.133-1.57.183-2.953.133-4.445-.055-1.488-.266-3.164-.692-5.402-.238-1.301-.558-2.66-.851-4.043-.586-2.715-1.196-5.485-1.41-7.426a194.231 194.231 0 0 1-1.567-4.523c-.719-2.079-1.355-3.965-1.969-5.485-.687-1.676-1.273-2.793-1.832-3.219-.265-.21-.61-.078-1.062.399zm8.054 12.375a76.755 76.755 0 0 0 1.809 4.605c.426.984.902 1.996 1.355 2.953.664 1.438 1.328 2.82 1.832 4.207-.133-1.039-.078-2.238.106-3.488.265-1.598.773-3.352 1.57-4.762.719-1.226 1.649-2.238 2.871-2.687 1.38-.535 3.028-.32 4.516.449.375.187.719.426 1.062.695-.238-1.945-.554-5.086-1.035-10.46-.558-6.333-1.3-15.86-1.965-25.071v-.05c-.453.609-1.144 1.09-1.996 1.46-.637.27-1.355.48-2.097.586.796.266 1.488.64 2.046 1.172l.239.266c.851 1.039 1.168 2.421 1.007 3.78-.132 1.329-.714 2.634-1.593 3.513-.078.078-.184.187-.293.293-1.38 1.171-3.266 1.304-5.207 1.41-.852.054-1.727.105-2.528.265-1.3.239-2.496.692-3.32 1.383-.637.535-1.062 1.227-1.062 2.024 0 .984.53 2.21 1.328 3.3.797 1.063 1.86 1.942 2.949 2.317.348.105.664.183 1.012.183l-.215-.398c-1.113-2.156-2.07-3.992-1.938-4.95.051-.398.239-.663.532-.878.37-.239.851-.266 1.382-.133.371.105.825.293 1.246.531 1.333.774 2.844 2.211 3.22 3.516.155.558.155 1.117-.028 1.594a3.014 3.014 0 0 1-.957 1.359 3.94 3.94 0 0 1-.797.504c.61 1.254 1.195 2.531 1.566 3.7.453 1.437.614 2.714.532 3.78a5.123 5.123 0 0 1-.61 2.18c-.37.64-.906 1.094-1.543 1.277-.316.11-.636.137-.984.11-.902-.055-1.832-.559-2.684-1.04-.504-.292-1.007-.53-1.328-.613-.055.266-.055.692-.027 1.172zm1.621 8.25-.105-.239c.293 1.278.558 2.528.742 3.567.375 1.996.586 3.566.691 5.004.266-.454.746-.957 1.278-1.465-.426-2.207-1.461-4.446-2.606-6.89zm4.387 7.48a9.23 9.23 0 0 1 .05 1.914c.56.055 1.2.11 1.837.16 1.008.082 2.047.16 2.949.32.93.16 1.7.372 2.312.747.211-.106.454-.188.72-.293l.155-.055c.801-.293 2.075-.797 3.325-1.328l.851-.375a2.12 2.12 0 0 1-.586-.453l-.265-.078c-.692-.188-1.461-.371-2.02-.614-.879-.37-1.355-.902-.984-1.703.215-.504 1.09-.984 2.234-1.41l-.027-1.144c-.028-1.329-.028-2.793-.266-4.125-.238-.532-.398-1.118-.531-1.704l-.106-.425c-.558-1.09-1.41-1.942-2.367-2.45-1.062-.558-2.207-.718-3.136-.37-.797.32-1.461 1.038-1.993 1.94-.691 1.227-1.144 2.77-1.382 4.18-.211 1.305-.211 2.528-.028 3.512l.082.399c.61-.637 1.246-1.223 2.02-1.649.824-.453 1.781-.691 2.605-.691.903 0 1.727.293 2.203.906l.082.105c.399.614.477 1.465.239 2.29a3.909 3.909 0 0 1-1.41 2.074l-.239.16c-.824.558-1.914.824-3.004.746-1.007-.055-2.02-.426-2.789-1.145l-.054-.054-.477.508zm-.16 3.594c-.48 2.152-1.649 4.363-3.192 6.305l-.156.187c-.16 2.102-.293 4.18-.16 5.59.106 1.012.316 1.676.691 2.074.344.399.903.64 1.672.824.88.215 1.996.348 3.164.399 1.196.082 2.368.11 3.348.136.984 0 1.754 0 2.5-.082.691-.078 1.3-.21 1.992-.48.77-.29 1.594-.715 2.313-1.3.558-.454 1.035-.962 1.328-1.571.558-1.117.508-2.688.453-4.738l-.027-1.41c-.028-1.41 0-3.036.054-4.497.028-1.12.078-2.156.16-2.957-.558.293-1.222.64-1.94.934a79.577 79.577 0 0 1-3.43 1.383l-.239.078c.344.695.531 1.625.559 2.875.027 2.05-.371 5.137-.746 6.894-.106.453-.184.825-.266 1.118-.211.69-.582 1.011-1.113.93l-.082-.024-.188-.082-.05-.055c-.665-.426-.505-4.789-.4-7.93l.08-1.968c.026-.77.054-1.305.105-1.73-.399-.24-.93-.372-1.622-.477-.796-.133-1.804-.215-2.816-.293a44.154 44.154 0 0 1-1.937-.188zm-3.059 3.113c.64-1.117 1.117-2.262 1.383-3.406a2.896 2.896 0 0 1-.797-.32 1.596 1.596 0 0 1-.398-.293c0 1.144-.055 2.234-.16 3.433l-.051.559zm-24.344-66.187c-.37-.426-1.25-.614-2.34-.559-.769.348-1.566.879-2.312 1.465-1.488 1.168-2.71 2.605-2.976 3.644-.079.32-.051.559.054.774.078.156.211.293.371.398.188.133.454.239.72.32.878.212 2.046.106 3.109-.453.398-.214.824-.48 1.195-.8a7.831 7.831 0 0 0 2.02-2.633c.374-.8.507-1.543.265-1.996-.023-.055-.05-.082-.078-.133zm16.637 1.332c.16-.907.188-1.625.055-2.157-.133-.507-.48-.851-1.063-1.066-.613-.05-1.195-.184-1.78-.344a11.357 11.357 0 0 0-2.313.078c-1.223.16-2.368.532-3.082 1.094a2.352 2.352 0 0 0-.797 1.14c-.11.321-.133.614-.082.907.027.266.133.508.293.691.132.16.32.293.53.375.747.239 2.103-.082 3.458-.402 1.14-.266 2.285-.559 3.293-.559.559 0 1.09.082 1.57.243zm1.649-2.582c.238.902.187 2.023-.106 3.46l.106.079c.824.691 1.515 1.648 2.234 2.765l.316.508c.508.774 1.04 1.625 1.676 2.367l.211-.398c.348-.637.692-1.278 1.04-1.914a2.61 2.61 0 0 1-.427-.934 2.525 2.525 0 0 1 0-1.332 2.31 2.31 0 0 1 .77-1.117c.398-.293.906-.477 1.516-.531.21-.586.398-1.145.504-1.649.187-.851.187-1.57 0-2.21a7.367 7.367 0 0 0-1.036-.505c-1.914-.773-3.457-.32-4.996.16-.664.212-1.355.399-2.074.532.106.21.215.453.293.719zm-2.418-2.317.132.028c.211.027.426.027.637.027 1.04-.027 1.996-.32 2.953-.613 1.141-.348 2.258-.692 3.532-.664-.45-.16-.93-.293-1.434-.399-1.941-.453-4.465-.64-6.59-.586-1.73.024-3.164.211-3.722.504l.027.027c.21.211.558.454.984.664.504.266 1.09.508 1.7.692.663.055 1.25.16 1.753.32zm7.867 12.746c.664.535 1.383.961 2.258 1.172a7.917 7.917 0 0 0 1.836.215c1.117 0 2.285-.215 3.187-.613.774-.348 1.356-.774 1.461-1.25.027-.055.027-.133.027-.215 0-.238-.078-.531-.238-.824l-.398.105c-.88.215-1.914.242-2.95.16-1.355-.133-2.738-.504-3.695-1.062l-.16-.106-1.3 2.395zm1.516 2.715a7.333 7.333 0 0 1-2.313-1.195c-.32.637-.637 1.25-.902 1.836-.188.398-.32.746-.48 1.117.292-.266.612-.531.984-.773.77-.477 1.699-.797 2.683-.985zm5.87-5.64a6.629 6.629 0 0 0-.636-.56c-1.195-1.01-2.656-1.862-3.8-2.183a52.84 52.84 0 0 1-.852 1.785l.214.133c.77.453 1.887.746 3.032.852a7.344 7.344 0 0 0 2.043-.055zm.454-1.836c.398.347.77.691 1.117 1.062a.48.48 0 0 0 .05-.21c.083-.907-.902-2.45-2.308-3.966-.746-.8-1.598-1.57-2.473-2.234a8.932 8.932 0 0 1-.187 1.355 12.148 12.148 0 0 1-.453 1.543c1.355.426 2.953 1.36 4.254 2.45zm-5.715 27.277c.187-.078.348-.184.48-.293a1.57 1.57 0 0 0 .45-.61 1.162 1.162 0 0 0 0-.613c-.266-.879-1.434-1.941-2.446-2.527-.21-.133-.422-.215-.582-.293.239.691.903 1.996 1.672 3.457l.453.852zm5.316 24.297c-.718.402-1.355 1.039-1.992 1.758l.05.054c.454.426 1.09.637 1.755.692.719.05 1.437-.133 1.941-.48l.133-.106c.426-.32.719-.774.824-1.223.106-.375.106-.695-.027-.906l-.027-.028c-.133-.187-.477-.265-.875-.265-.56 0-1.223.16-1.81.48zm8.504-3.406c.055.878.082 1.757.082 2.582v.613c1.168-.348 2.418-.664 3.453-.934 1.305-.316 2.235-.558 3.192-.61h.265a1.513 1.513 0 0 1-.453-1.093c0-.371.106-.77.32-1.144.294-.532.797-1.063 1.489-1.516 1.539-.984 4.012-1.57 9.008-2.766l4.89-1.172c.133-.668.637-1.277 1.809-1.918 1.168-.609 3.11-1.277 6.324-2.074 2.899-.746 6.832-1.597 10.79-2.449 4.651-1.012 9.355-2.05 12.413-2.875 2.711-.742 4.067-1.305 4.73-1.836.477-.371.505-.824.56-1.41.077-.797.16-1.781.183-2.61.055-.851.055-1.648 0-2.128 0-.024-.024.054-.531.11-1.246.132-3.801.69-8.743 1.78l-19.48 4.258-20.227 4.418c-9.25 1.996-10.367 2.234-10.632 3.461-.184.824-.184 2.047.027 3.273.187 1.063.504 2.075.984 2.743.637.902 1.676 1.14 2.207 1.277.582.133.957.21 1.036.875v.11l-.028.183-.027.082c-.106.32-.477.586-.98.746a8.46 8.46 0 0 1-1.09.211c-.508.055-1.09.055-1.598-.055zm-1.433 5.562-.028-.105-.16.054zm11.004-3.484.265.105c.902.348 1.938.824 3.082 1.383 1.676.8 3.586 1.73 5.477 2.316 1.593.504 3.187.774 4.543.774 1.195 0 2.207-.242 2.87-.746.372-.266.665-.64.903-1.067v-.531c0-.559.027-1.09.133-1.648.133-.559.348-1.04.559-1.493.238-.53.453-1.039.37-1.222-.105-.242-.53-.453-1.167-.64-.77-.212-1.754-.345-2.926-.321-1.219.027-2.629.215-4.09.508-1.488.293-3.031.691-4.465 1.09l-1.754.507c-1.437.426-2.738.825-3.8.985zm19.718.183-.133.586c.348-.265.77-.476 1.25-.637 1.7-.507 4.227-.027 6.672.426 1.063.184 2.098.399 3 .504 1.305.133 2.368.11 3.137-.05.719-.16 1.117-.376 1.25-.614v-.027a.752.752 0 0 0-.078-.211c-.16-.215-.48-.453-.957-.695-.426-.211-.984-.426-1.649-.637-1.222-.348-2.87-.64-4.52-.852-1.858-.238-3.718-.347-5.023-.32-1.113.027-1.753.133-2.125.375-.32.21-.476.582-.636 1.168-.055.242-.133.586-.215.933zm15.016 2.266a6.13 6.13 0 0 1-.715.21c-.934.216-2.18.266-3.668.079-.957-.106-2.047-.316-3.137-.504-2.234-.426-4.57-.852-5.902-.48-.797.242-1.223.828-1.488 1.625-.317.957-.371 2.207-.399 3.484-.027 1.332.028 2.691.215 3.941.16 1.09.426 2.102.875 2.899 3.11.828 6.3 1.625 8.399 1.918 1.328.187 2.18.187 2.738.027l.453-.215c.266-.21.398-.504.531-.902.344-.984.531-2.344.742-4.102l.243-1.648c.21-1.383.449-2.98.714-4.34.16-.797.293-1.516.426-2.047zm-16.98 4.414.023-.984a7.96 7.96 0 0 1-1.512 1.464c-.906.72-2.02 1.383-3.191 1.97-.719.347-1.383.64-1.965.878-1.04.453-1.887.426-1.863.613 0 .078 1.464.293 4.175 1.012l1.832.477 3.215.879a13.146 13.146 0 0 1-.476-2.13c-.188-1.331-.239-2.792-.215-4.203zm16.796 6.922c.211-.188.426-.375.637-.559a21.959 21.959 0 0 0 2.766-3.035c.636-.852 1.09-1.625 1.3-2.289.188-.559.211-1.04.028-1.438-.266-.585-.957-1.195-1.649-1.808-.453-.399-.879-.774-1.222-1.172l-.16-.21c-.106.425-.188.956-.293 1.515a99.002 99.002 0 0 0-.692 4.258l-.238 1.625c-.16 1.195-.293 2.207-.477 3.085zm-20.492-18.578h.824a5.969 5.969 0 0 1-.851-.504 3.859 3.859 0 0 1-1.09-1.2l-4.785 1.145c-4.836 1.145-7.227 1.703-8.504 2.531-.45.293-.77.61-.93.903-.055.105-.105.215-.105.265h.05c.72.16 2.5-.37 4.602-.984l1.777-.504a55.468 55.468 0 0 1 4.598-1.117c1.543-.293 3.031-.508 4.387-.535zm2.23-4.23 4.282-1.04c4.066-1.008 8.37-2.074 12.25-3.058l.398-.106-1.273.266c-3.961.879-7.895 1.73-10.738 2.449-2.258.559-3.829 1.062-4.942 1.488zm32.641-8.41c.61-.212 1.008-.427 1.246-.903-.105.105-.238.238-.37.343a4.789 4.789 0 0 1-.876.56zm1.54-9.528-.028-.742c-.184-5.38-.504-13.547-.848-21.586-.293-7.024-.613-13.918-.879-18.707-.265-4.872-.453-7.399-1.699-8.516-1.25-1.145-3.91-1.172-9.117-1.066-4.945.105-12.121.347-19.535.64-8.692.344-17.672.719-23.63 1.035-5.233.266-7.972.453-9.167 1.73-1.195 1.305-1.168 4.02-.875 9.423.266 5.082.77 12.453 1.328 20.117a2545.28 2545.28 0 0 0 1.965 25.043c.242 2.824.453 5.031.613 6.762.824-1.383 3.11-1.891 11.535-3.727l20.223-4.418 19.484-4.258c4.996-1.09 7.575-1.648 8.93-1.808.77-.082 1.3-.055 1.648.078zm20.89 11.23a25.813 25.813 0 0 0-3.164-.691c-.317.746-1.063 1.094-2.07 1.226-.825.106-1.836.078-2.977.024h-.266c-1.515-.051-3.218-.133-3.882-.051.105.105.265.21.453.32.742.45 1.941.93 3.507 1.196 1.543.293 3.43.398 5.235.37 2.02-.023 3.96-.21 5.238-.476.637-.133 1.063-.293 1.328-.453-.105-.105-.265-.21-.504-.348-.691-.398-1.73-.77-2.898-1.09zm-7.414-26.48-.028.054c.188.371.426.692.72.957.636.586 1.566.934 2.55 1.04.344.054.715.054 1.063.027l-.055-.082c-.531-.742-.903-1.781-1.035-2.82-.106-.825-.055-1.704.187-2.422a14.37 14.37 0 0 0-1.222.8c-1.067.797-1.864 1.704-2.18 2.446zm-.64-2.075c.48-.585 1.116-1.199 1.835-1.73 1.117-.852 2.496-1.598 3.961-1.996 1.379-.398 2.816-.477 4.145-.398 1.648.105 3.164.48 4.226.933.184.078.371.156.559.266-.293-1.57-.746-3.008-1.594-4.075-.64-.769-1.57-1.41-2.473-2.023-.957-.637-1.914-1.3-2.632-2.129-.77-.902-1.223-1.969-1.622-2.98-.316-.797-.636-1.543-1.062-2.02l-.16-.16c-.399-.375-.875-.586-1.356-.613-.425-.055-.824.054-1.09.293l-.078.078c-.293.32-.453.828-.53 1.437-.134.88-.083 1.89.05 2.688.055.402.16.773.242 1.144.238 1.04.422 1.836.05 2.957-.183.532-.476 1.063-.85 1.676-.532.93-1.169 2.074-1.512 3.461-.243.984-.293 2.129-.16 3.191zm13.53-1.648c-.824-.348-1.914-.64-3.164-.773.133.16.239.32.344.507.399.715.613 1.594.559 2.5a4.978 4.978 0 0 1-.742 2.422 15.654 15.654 0 0 0 1.78-1.066c.903-.61 1.7-1.277 2.126-1.86.293-.402.398-.695.32-.878-.133-.293-.535-.586-1.25-.88zm-7.257 4.711c.214.316.48.531.797.664l.187-.082c.77-.316 1.3-.742 1.7-1.277.425-.582.64-1.25.663-1.887a3.146 3.146 0 0 0-.343-1.598c-.211-.37-.532-.664-.93-.797-.453-.16-1.04-.136-1.543.079-.45.187-.852.503-1.063.93-.238.507-.293 1.171-.21 1.863.105.773.37 1.543.742 2.078zm0 0"></path></g><path fill="#2b2a29" d="m239.258 97.977-11.297-2.313.32-1.625 11.293 2.29zM235.059 112.8c-.399-.902-.825-1.808-1.278-2.605a7.781 7.781 0 0 0-1.699-2.05c-1.012-.825-2.445-1.41-3.8-1.97-.587-.241-1.173-.48-1.704-.745a28.756 28.756 0 0 1-2.469-1.332l-.16-.106.344.348c.508.504.984 1.062 1.46 1.648 1.81 1.57 3.38 2.98 4.044 3.7.316.347.476.64.531.851.16.64-.055 1.012-.586 1.117.824.508 1.488.934 2.18 1.73.453.532.93 1.2 1.328 1.891a19.51 19.51 0 0 1 1.25 2.45c.32.742.426 1.25.293 1.62-.266.774-.824.88-1.754.454-.32-.16-.691-.348-1.09-.586-.664-.371-1.488-.852-2.262-1.145-.398-.16-.796-.293-1.167-.398-.93-.293-1.754-.531-2.34-1.172-.45-.477-.664-1.04-.903-1.703-.21-.531-.453-1.172-.851-1.758-.77-1.117-2.203-2.367-3.293-3.297l-.957-.828.023.082c.11.453.32.984.64 1.516.61.933 1.65 1.918 2.048 2.289.449.398.691.64.289 1.226-.266.399-.664.532-1.113.266.957.77 1.804 1.488 2.312 2.129.398.504.61.957.664 1.383.027.293 0 .558-.105.824-.11.266-.27.48-.508.64-.344.266-.797.454-1.406.504-.399.055-.907.055-1.438.055-.477 0-.98 0-1.488.05-.106.481-.317.934-.559 1.36-.476.825-1.168 1.57-1.781 1.996-.316.239-.664.426-.93.477a1.13 1.13 0 0 1-.98-.156c-.32-.215-.508-.559-.531-.985-.028-.27.023-.562.105-.855.238-.875.957-2.047 1.937-2.711.348-.215.692-.402 1.067-.508a.608.608 0 0 0-.133-.21c-.586-.774-2.18-1.411-4.2-1.919-2.155-.558-4.757-.957-7.151-1.277-2.364-.344-4.625-.613-6.801-.88-2.235-.265-4.227-.503-6.246-.718l.183-1.676c2.102.239 4.2.48 6.246.72 2.125.265 4.36.53 6.832.905 2.473.344 5.102.743 7.336 1.329 2.364.613 4.278 1.41 5.13 2.554.21.293.37.614.448.906.508-.027 1.012-.027 1.489-.027.453 0 .879 0 1.222-.05.243-.028.426-.083.536-.137-.028-.133-.137-.29-.293-.532-.641-.796-2.047-1.886-3.508-2.98l-1.305-.984a28.644 28.644 0 0 1-2.656-2.29 11.842 11.842 0 0 1-1.488-1.78c-.692-.536-1.383-1.145-1.942-1.813-1.41-1.727-1.754-3.7-2.047-5.32l-.21-1.118c-.188-.984-.321-1.73-.216-2.156l.082-.238c-.32-.32-.613-.614-.851-.88-.77-.905-1.117-1.652-1.145-2.155-.023-.934.508-1.305 1.41-1.278.454 0 1.036.16 1.649.344.586.187 1.25.453 1.992.828.746.371 1.57.875 2.528 1.57 1.355.985 3 2.368 4.886 4.016.16-.05.375-.105.586-.105.504 0 1.278.132 2.047.453.664.265 1.356.664 2.102 1.117.687.426 1.488.879 2.308 1.277.508.238 1.067.48 1.649.692 1.464.613 3.004 1.25 4.199 2.21.879.72 1.543 1.57 2.074 2.473.531.906.957 1.836 1.383 2.77l-1.543.691zm-9.993-4.921-.558-.719-4.309-3.726c-2.363-2.051-4.332-3.754-5.898-4.899-.88-.637-1.649-1.117-2.313-1.433a12.187 12.187 0 0 0-1.754-.747c-.187-.054-.37-.132-.558-.16.105.16.265.344.426.532.503.585 1.277 1.332 2.34 2.183 1.46 1.195 3.535 2.633 5.581 4.098 1.274.906 2.551 1.808 3.774 2.687a133.57 133.57 0 0 1 3.933 3.063l-.718-.906zm-11.535-6.016-.746-.558c.082.215.16.453.238.691.188.559.375 1.227.559 1.89.16.614.348 1.223.531 1.837l-.023-.078c-.242-.801-.453-1.598-.586-2.239-.106-.61-.133-1.172 0-1.57zm7.281 5.215c-1.011-.742-2.18-1.57-3.375-2.422l.184.64c.215.72.453 1.516.8 2.317a.98.98 0 0 1 .134-.347c.37-.72.875-.797 1.593-.426.344.187.743.531 1.274.984l.691.614c1.172.984 2.711 2.316 3.59 3.617.531.773.797 1.492 1.035 2.105.188.504.348.93.559 1.145.293.316.902.504 1.621.718.398.133.824.266 1.3.45.825.32 1.65.8 2.34 1.172a21.045 21.045 0 0 0-.824-1.543 14.33 14.33 0 0 0-1.14-1.649c-.559-.64-1.145-.984-1.864-1.437a22.623 22.623 0 0 1-1.406-.934c-.719-.504-1.515-1.144-2.5-1.941a101.743 101.743 0 0 0-4.039-3.141zm.239 6.496a30.74 30.74 0 0 1-1.09-.984h-.05l-.11.05 1.25.962zm-3.668-4.207c-.664-1.222-1.035-2.472-1.356-3.566-.183-.61-.343-1.196-.558-1.649l-.133-.293c.11.426.242.88.375 1.36.238.77.476 1.566.742 2.285.266.695.531 1.305.852 1.758zm0 0"></path><path fill="#2b2a29" d="M212.625 107.852c-3.11-.586-6.219-1.172-8.875-1.649-2.844-.535-5.555-.984-7.973-1.387-2.394-.37-4.492-.691-6.273-.879-1.754-.183-3.215-.265-4.332-.21-1.063.054-1.809.21-2.34.425-.504.211-.824.453-1.062.664-.454.426-.61.852-.77 1.254l-.027.078-.77-.37-.773-.294c.215-.586.453-1.171 1.199-1.89a4.791 4.791 0 0 1 1.594-1.012c.691-.266 1.62-.48 2.894-.559 1.2-.054 2.738.028 4.574.211 1.805.188 3.934.48 6.38.88 2.39.374 5.128.878 8 1.386 3.054.559 5.976 1.117 8.874 1.648l-.32 1.649zM217.355 127.145l16-6.653.641 1.543-16 6.653zM219.828 130.02l14.008-4.762.559 1.594-14.036 4.765zm0 0"></path></svg>