<svg xmlns="http://www.w3.org/2000/svg" width="500" viewBox="0 0 375 375" height="500"><defs><clipPath id="a"><path d="M47.262 250h280.5v55h-280.5zm0 0"></path></clipPath><clipPath id="b"><path d="M35 23.336h146V185H35zm0 0"></path></clipPath></defs><g clip-path="url(#a)"><path fill="#fff96f" d="M79.86 303.395c-.438-1.22.234-2.63.867-3.637a11.475 11.475 0 0 1 1.882-2.246c-6.476-1.168 1.086-8.89 4.266-9.883-4.098-.297-21.328 2.344-22.688-1.063-.492-4.652 4.97-8.414 9.079-9.187 20.437-2.211 41.078-.887 61.55-2.805-15.449-.07-30.894.336-46.34.567-2.609-.336-8.687 1.136-9.996-1.477-.585-2.422 1.434-4.633 3.063-6.168-8.844 1.102-17.7 2.266-26.39 4.293-2.141 1.266-5.883 2.992-7.462.18-.46-1.285.168-2.715.844-3.79 3.121-4.995 9.113-6.304 14.477-7.398 48.465-8.937 98.11-8.265 147.218-8.754 25.93.207 51.805-2.191 77.747-1.91 9.609.024 19.23.219 28.832.696 2.953.457 10.48-.266 10.89 3.019-.152 3.457-3.344 6.02-6.14 7.574-3.672 1.758-7.88 1.54-11.848 1.692-4.715.101-9.43.164-14.14.12-36.208.012-72.47-1.91-108.575 1.579 30.117 1.172 60.219 2.898 90.258 5.305 13.066.847 26.402.609 39.238 3.34 2.684.847 1.305 4.23-.023 5.718-3.352 4.715-9.098 5.297-14.39 4.563-4.142-.371-8.274-.79-12.415-1.172 1.531 1.472.242 3.82-.809 5.199 3.907.93 11.297.914 12.907 5.14.597 3.65-3.168 6.618-6.02 8.192-7.004 3.5-15.363 1.93-22.945 2.148-55.469-2.859-111.035.028-166.547.461-4.215-.546-26.246 2.938-26.39-.296"></path></g><g clip-path="url(#b)"><path fill="#1a1a1a" d="m168.895 142.945.156-.695c.383-1.855.402-4.047.426-6.285.023-3.2.043-6.531 1.097-9.531.781-2.235 2.102-4.184 3.418-6.13 1.633-2.394 3.266-4.808 3.692-7.652.445-2.863-.27-6.351-.985-10.02-.582-2.952-1.207-5.972-1.273-8.948-.09-3.356.492-6.512 1.074-9.711.578-3.22 1.184-6.465 1.07-9.864-.11-3.156-.847-6.488-1.965-9.71-1.253-3.579-2.976-7-4.855-9.864-2.055-3.11-4.336-5.57-6.328-7.742-1.543-1.656-2.93-3.176-3.98-4.695-.962-1.391-1.633-2.754-2.301-4.118-1.008-2.058-2.012-4.117-4.047-5.996-1.79-1.68-4.406-3.265-8.051-4.386-3.11-.961-6.934-1.586-11.586-1.633-5.723-.067-12.676.719-19.809 3.023-5.75 1.856-11.585 4.672-16.953 8.813-5.433 4.183-10.418 9.73-14.847 15.84C77.395 61.133 72.742 69.5 69.05 77.242 66.504 82.61 64.402 87.645 62.5 92.23c-3.176 7.672-5.836 14.07-9.21 18.5-4.25 5.57-9.462 7.829-12.907 9.13l.449-.09c2.637-.516 6.328-1.59 9.973-3.602 2.617-1.457 5.21-3.426 7.379-6.043 3.398-4.113 5.793-9.91 8.543-16.621 1.496-3.645 3.109-7.563 5.074-11.656 3.043-6.375 6.91-13.11 11.539-19.239 3.89-5.144 8.32-9.886 13.285-13.601 5.434-4.07 11.45-6.934 17.375-8.95 5.902-2.011 11.691-3.199 16.656-3.956 4.989-.762 9.192-1.098 12.746-.942 3.645.156 6.621.852 9.078 2.106 2.618 1.34 4.63 3.355 5.68 5.164a6.77 6.77 0 0 1 .809 1.949c.156.738.086 1.406-.203 1.969a2.296 2.296 0 0 1-.871.914c-1.32.785-3.735.336-6.82-.223-2.528-.469-5.571-1.008-8.677-1.05-3.265-.044-6.644.491-10.289 1.632-3.687 1.164-7.625 2.93-11.96 5.39-4.047 2.282-8.544 5.235-12.993 8.145-5.031 3.313-9.996 6.555-14.312 8.813-2.168 1.14-4.18 2.039-5.969 2.844-4.52 2.011-7.559 3.374-8.5 6.843-.648 2.395-.445 5.906-.223 9.711.246 4.45.54 9.281-.468 13.465-.895 3.672-2.727 6.781-5.145 9.398-2.816 3.043-6.394 5.391-10.039 7.114-2.727 1.297-5.477 2.238-7.691 2.93a63.654 63.654 0 0 0 3.843-.18c3.176-.223 6.91-.649 10.489-1.41 4.472-.938 8.722-2.391 12.277-4.407 3.086-1.765 5.637-3.957 7.289-6.62 1.746-2.84 2.527-6.286 2.773-9.778.27-3.602 0-7.246-.289-10.402l-.09-.915c-.605-6.445-1.03-10.964 5.075-12.976 4.832-1.59 13.976-1.254 23.75-.895 1.875.067 3.777.133 5.61.2 5.769.18 11.519.226 16.66-.09 5.054-.332 9.48-1.028 12.722-2.371 2.82-1.16 4.719-2.797 5.973-4.63.535-.784.937-1.609 1.25-2.46l-.38-1.254c-1.05-3.602-1.656-7-1.585-8.547.02-.758.246-1.273.578-1.586.516-.492 1.098-.516 1.703-.137.29.18.578.473.848.875.761 1.118 1.59 3.446 1.699 6.063a13.832 13.832 0 0 1-.582 4.61c.738 2.257 1.61 4.472 2.574 6.261 1.117 2.059 2.367 3.559 3.508 4.922 1.7 2.016 3.2 3.805 3.914 6.8.672 2.91.559 6.848.426 10.895-.09 2.84-.18 5.75.023 8.367.156 1.946.469 3.758.758 5.414.672 3.758 1.188 6.758-.512 9.532-1.008 1.632-2.75 3.02-4.52 4.406-2.19 1.746-4.448 3.512-4.85 5.57-.337 1.656.468 3.805 1.32 6.176 1.027 2.816 2.167 5.926 1.878 9.238zm2.28-.27c-1.003 4.9-4.136 8.098-7.312 11.298l-1.093 1.613c-1.7 2.48-3.446 5.008-4.61 7.469-2.77 5.863-2.523 11.812-2.414 15.168l.024.629c.066 1.968-.024 3.062-.47 3.488-.984.984-1.769.293-2.82-1.5-.625-1.074-1.496-2.684-2.035-4.875-.535-2.172-.734-4.899-.02-8.121.65-2.887 2.012-6.153 3.423-9.465 1.609-3.8 3.261-7.695 3.824-11.094.558-3.469-.024-6.531-.563-9.394-.445-2.352-.87-4.567-.648-6.848l.047-.402c-1.992 3.156-4.07 6.98-5.145 10.625-1.25 4.207-1.16 8.234-1.093 12.082.042 2.953.109 5.816-.403 8.656-.582 3.133-1.836 6.129-2.976 8.86-1.207 2.863-2.282 5.413-2.145 7.226.11 1.32.895 2.37 1.723 3.11.668.425 1.25.738 1.652.96.246.137.426.227.559.313.203.113.336.27.425.449.852 1.543.313 2.191-1.566 1.476a8.897 8.897 0 0 1-.848-.402 8.396 8.396 0 0 1-1.476-1.031c-2.305-1.453-5.5-4.07-6.485-8.074-.96-3.914.313-8.926 1.477-13.602.578-2.328 1.16-4.586 1.387-6.512.332-2.816 0-4.922-.563-6.039l-.043-.113c-.203.652-.379 1.77-.558 3.066-.426 2.82-1.008 6.465-2.594 9.485-1.297 2.484-3.242 4.43-4.922 6.133-1.543 1.543-2.86 2.863-3.062 3.957a1.647 1.647 0 0 0 0 .648c.695.918 1.386 1.68 1.902 2.262.445.512.781.87.937 1.14.18.313.246.625.18.918-.223.985-.918 1.184-1.879.625a4.84 4.84 0 0 1-.804-.605c-.829-.715-1.856-1.945-2.282-3.375-1.496-2.016-3.039-4.61-3.332-7.363-.379-3.489 1.254-7 2.64-10 .692-1.52 1.34-2.907 1.563-3.98a3.67 3.67 0 0 0 .047-1.388l-.047.09c-.511.762-1.363 1.633-2.347 2.594-1.88 1.879-4.227 4.23-4.696 6.691-.402 2.192.625 4.762 1.278 6.329.379.964.648 1.632.511 2.195-.199.758-.691 1.05-1.52.824-.714-.2-2.57-1.742-4.675-3.758-1.945-1.879-4.18-4.203-5.855-6.218-1.77-2.102-2.953-3.891-3.578-5.637-.672-1.856-.696-3.625-.114-5.637.582-1.945 1.766-4.074 3.133-6.488 1.207-2.172 2.57-4.586 3.711-7.27.336-.804.672-1.633.96-2.508-1.41-1.921-2.683-4.093-3.8-6.574-1.61-3.605-2.797-7.808-3.465-11.86-.672-4.093-.808-8.05-.293-11.093.493-2.887 1.61-5.012 2.907-6.219a4.848 4.848 0 0 1 1.632-1.007 3.499 3.499 0 0 1 1.856-.157c.875.157 1.7.602 2.418 1.41 1.297 1.43 2.3 4.024 2.95 7.204.67 3.285 1.007 7.222.94 11.093a59.751 59.751 0 0 1-1.164 10.672 55.246 55.246 0 0 1-1.609 6.153l.691.851c2.192 2.594 4.54 4.563 6.778 5.973 1.988 1.273 3.844 2.101 5.457 2.504 1.543.379 2.793.36 3.644-.043 1.16-.563 1.766-2.125 2.325-3.625.246-.63.468-1.254.78-1.86.673-1.34 1.524-2.324 2.263-3.175a7.907 7.907 0 0 1-1.836-.672c-.918-.446-1.88-1.118-2.817-1.832a48.117 48.117 0 0 1-3.308-2.887c-1.008-.961-1.79-1.813-2.149-2.328a2.277 2.277 0 0 1-.312-.625c-.18-.738.043-1.207.78-1.43h.024c.223-.07.493-.07.762.02.266.09.649.246 1.117.492.672.27 1.61.629 2.57.851 1.051.246 2.258.38 3.356.516.984.11 1.879.223 2.617.402.98.246 1.563.582 2.055.871.246.157.492.293.695.336.29.067.692.067 1.051.067h.066c0-.223-.066-.492-.132-.805-.114-.492-.246-1.074-.246-1.789 0-.648.109-1.387.265-2.191-2.3-.45-3.441-1.055-3.531-1.567-.313-.203-.246-.336.2-.426.202-.156.558-.27 1.05-.335a3.411 3.411 0 0 1-.668-.47c-.606-.538-1.008-1.23-1.098-2.058-.09-.785.156-1.68.582-2.437.426-.739 1.051-1.41 1.79-1.77l.042-.023a3.213 3.213 0 0 1 2.438-.157c.785.247 1.453.81 1.86 1.614l.019.043c.36.715.449 1.61.402 2.574-.02.512-.09 1.05-.18 1.586.317.047.606.113.895.226.648.247 1.121.649 1.387 1.075.136.222.246.468.293.691v.023c.648.067 1.34.09 2.011.043.805-.066 1.567-.289 2.149-.648.422-.27.734-.602.847-1.008.18-.578.024-1.496-.199-2.66l-.562-.605.406-.38a23.56 23.56 0 0 1-.316-2.484c-.11-1.586-.09-3.465.07-5.277.156-1.813.445-3.602.824-5.012l.024-.113c0-.133.023-.27.046-.426.086-.535.313-1.05.602-1.566.18-.313.379-.649.625-.961l.293-.426a7.428 7.428 0 0 1 2.348-2.078c.87-.516 1.855-.895 2.773-1.164.984-.27 1.945-.379 2.75-.313.828.067 1.453.336 1.945.692a2.94 2.94 0 0 1 1.14 1.722c.09.383.067.762 0 1.075a1.904 1.904 0 0 1-.382.804 1.6 1.6 0 0 1-.89.582h-.024a1.321 1.321 0 0 1-.605 0c-.38-.09-.625-.289-.914-.535-.247-.203-.583-.492-1.141-.625-.516-.113-1.23-.136-1.969-.07-.222.023-.45.047-.672.09.403.293.739.738.918 1.297.2.629.2 1.386-.09 2.261a5.86 5.86 0 0 1-.359.895c.313.426.27.937.246 1.52-.02.292-.043.581 0 .761.024.09.09.18.113.246.157.246.27.426.246.805v.023c-.066.762-.425 1.098-1.296 1.028-.246-.02-.739-.11-1.297-.266l-.137.379c-.332 1.008-.512 2.035-.648 2.996-.133.875-.246 1.68-.489 2.418-.336 1.027-.851 1.79-1.41 2.438.246 1.386.426 2.484.133 3.535-.266.96-.914 1.699-1.79 2.238-.847.535-1.921.848-3.062.96-1.832.18-3.777-.202-4.515-.358l-.27-.043-.761-.067c-.133.715-.247 1.363-.247 1.88 0 .491.09.917.18 1.296.133.559.246 1.074.156 1.68-.023.222-.09.445-.18.668.071.402-.066.808-.378 1.164a2.96 2.96 0 0 1-.738.539 4.376 4.376 0 0 1-1.407.402l.02.336c.023.602-.133 1.406-.715 2.012-.113.113-.223.222-.36.312l-.132.203c-.336.512-.758 1.004-1.25 1.567-.672.758-1.457 1.633-2.016 2.773-.246.492-.469 1.074-.691 1.656-.715 1.88-1.453 3.848-3.422 4.786-1.297.625-3.063.714-5.098.203-1.836-.45-3.914-1.387-6.105-2.774-2.348-1.5-4.852-3.582-7.157-6.265-.18.468-.355.918-.535 1.363-1.207 2.844-2.57 5.305-3.8 7.496-1.297 2.305-2.418 4.316-2.954 6.04-.468 1.542-.445 2.91.067 4.296.539 1.477 1.61 3.062 3.222 4.988 1.63 1.946 3.801 4.227 5.7 6.04.558.538 1.074 1.03 1.543 1.452-.602-1.699-1.141-3.824-.739-5.906.582-3.11 3.2-5.726 5.301-7.828.871-.871 1.656-1.656 2.078-2.258.473-.695.407-1.074.27-1.254l-.27-.203a.933.933 0 0 1-.312-.379v-.023c-.692-1.43-.223-2.684 1.746-1.274.09.067.18.133.289.247.96.69 2.906 2.46 2.191 5.816-.265 1.32-.96 2.797-1.722 4.43-1.274 2.75-2.75 5.972-2.457 8.879.156 1.457.757 2.933 1.543 4.253.648-1.23 1.832-2.418 3.152-3.761 1.586-1.586 3.398-3.399 4.539-5.614 1.41-2.683 1.945-6.152 2.371-8.835.29-1.88.535-3.403 1.027-4.274.293-.492.696-.805 1.141-.941.559-.157 1.117-.02 1.633.402.336.27.648.695.918 1.23.691 1.434 1.16 3.961.758 7.227-.246 2.035-.828 4.363-1.43 6.781-1.117 4.426-2.305 9.172-1.477 12.57.313 1.32.961 2.485 1.766 3.47-.02-2.239 1.098-4.88 2.328-7.81 1.094-2.616 2.301-5.48 2.84-8.41.492-2.64.422-5.39.379-8.234-.066-4.027-.156-8.21 1.184-12.726 2.28-7.676 8.656-15.977 10.109-17.899l.27-.336c1.003-2.73 1.988-3.445 2.503-3.086.668-.672.848-.425.38 1.184 0 .785-.29 1.812-.962 2.863-.047.114-.113.203-.18.36-.492.851-2.48 4.183-2.816 7.515-.203 1.969.2 4.028.625 6.242.559 3.02 1.184 6.286.559 10.133-.602 3.625-2.301 7.653-3.957 11.59-1.363 3.242-2.707 6.399-3.309 9.106-.629 2.84-.449 5.234.02 7.156a14.498 14.498 0 0 0 1.097 2.953v-.133c-.132-3.559-.379-9.844 2.618-16.176 1.25-2.617 3.02-5.21 4.785-7.785 2.617-3.8 5.187-7.582 5.703-11.05.422-3.02-.695-6.063-1.703-8.837-.98-2.66-1.856-5.101-1.43-7.335.559-2.844 3.133-4.856 5.637-6.848 1.61-1.274 3.195-2.528 4-3.848 1.254-2.058.785-4.719.203-8.031-.293-1.7-.625-3.555-.781-5.637-.203-2.664-.114-5.66-.024-8.59.11-3.894.246-7.695-.383-10.336-.578-2.503-1.922-4.093-3.441-5.906-1.207-1.43-2.55-3.02-3.758-5.281-.691-1.297-1.34-2.793-1.945-4.36-.156.247-.29.493-.469.739-1.453 2.144-3.691 4.07-6.934 5.414-3.488 1.43-8.136 2.191-13.414 2.527-5.187.336-11.003.266-16.84.09-1.921-.066-3.777-.137-5.613-.203-9.547-.356-18.515-.691-23.007.805-4.473 1.476-4.118 5.28-3.602 10.738l.09.918c.289 3.266.558 7.047.289 10.762-.29 3.8-1.14 7.558-3.106 10.757-1.855 3-4.652 5.438-8.05 7.364-3.758 2.125-8.23 3.644-12.88 4.652-3.69.781-7.515 1.23-10.78 1.453-4.583.313-8.227.133-9.102-.222-.805-.336-1.05-.875-.734-1.59.289-.715 1.609-1.118 3.62-1.743 2.305-.718 5.704-1.746 8.989-3.312 3.422-1.61 6.754-3.805 9.371-6.621 2.168-2.352 3.844-5.145 4.629-8.434.937-3.87.668-8.547.422-12.863-.223-3.984-.446-7.676.293-10.383 1.207-4.449 4.652-5.996 9.703-8.254 1.746-.78 3.715-1.656 5.86-2.797 4.183-2.214 9.124-5.433 14.132-8.722 4.426-2.887 8.898-5.84 13.125-8.211 4.496-2.528 8.566-4.387 12.367-5.57 3.848-1.208 7.446-1.77 10.957-1.723 3.285.043 6.418.601 9.012 1.094 2.66.492 4.719.851 5.367.472l.043-.047c.047-.109.047-.289 0-.535-.066-.383-.266-.828-.535-1.297-.871-1.5-2.594-3.18-4.809-4.34-2.168-1.12-4.851-1.722-8.183-1.878-3.399-.16-7.469.175-12.32.914-4.876.738-10.532 1.902-16.282 3.847-5.722 1.95-11.558 4.7-16.77 8.614-4.761 3.582-9.054 8.168-12.859 13.175-4.539 5.996-8.316 12.621-11.312 18.86-1.926 4.004-3.535 7.922-5.012 11.543-2.84 6.87-5.277 12.844-8.875 17.183-2.348 2.84-5.168 4.965-7.984 6.532-3.89 2.171-7.805 3.289-10.621 3.847-2.258.45-3.868.516-4.72.313-.491-.11-.847-.313-1.093-.602-.402-.515-.426-1.074 0-1.633.266-.382.848-.785 1.719-1.164.45-.203 1.008-.402 1.656-.648 3.176-1.188 8.543-3.18 12.77-8.727 3.175-4.183 5.789-10.492 8.922-18.03 1.921-4.63 4.046-9.755 6.597-15.099 3.754-7.855 8.45-16.332 13.996-23.937 4.563-6.266 9.66-11.95 15.297-16.266 5.59-4.293 11.649-7.226 17.621-9.148 7.356-2.371 14.578-3.176 20.48-3.133 4.9.043 8.923.715 12.212 1.723 3.98 1.23 6.886 3.02 8.875 4.875 2.304 2.148 3.402 4.363 4.496 6.625.625 1.273 1.273 2.57 2.148 3.824 1.004 1.43 2.324 2.863 3.778 4.453 2.058 2.234 4.406 4.762 6.55 8.031a47.197 47.197 0 0 1 5.078 10.332c1.184 3.403 1.97 6.961 2.079 10.336.136 3.625-.493 7.004-1.094 10.336-.559 3.09-1.121 6.153-1.051 9.262.066 2.797.668 5.726 1.227 8.59.761 3.847 1.523 7.539 1.007 10.761-.515 3.313-2.28 5.93-4.046 8.524-1.23 1.836-2.461 3.648-3.153 5.617-.918 2.66-.96 5.793-.984 8.836-.024 2.348-.047 4.629-.469 6.688zm-17.398 38.165c.024-.02.024-.043 0-.11-.175.223-.265.356 0 .11zm-37.41-52.035a43.786 43.786 0 0 0 1.074-4.383 56.932 56.932 0 0 0 1.118-10.27c.07-3.71-.246-7.492-.895-10.625-.578-2.797-1.387-5.035-2.437-6.175-.38-.426-.805-.672-1.184-.739a1.639 1.639 0 0 0-.781.067 2.787 2.787 0 0 0-.895.562c-.984.895-1.836 2.594-2.238 4.988-.492 2.817-.356 6.532.293 10.38.625 3.87 1.766 7.898 3.285 11.32a34.747 34.747 0 0 0 2.66 4.875zm24.957.785c.156-.426.246-.828.29-1.074v-.024c-.56-.09-1.141-.199-1.743-.355-1.05-.27-2.191-.672-3.332-1.145l-.894-.332c.312.246.601.512.917.738.848.668 1.7 1.25 2.458 1.61.738.379 1.386.535 1.902.558.156 0 .289 0 .402-.023zm3.867-12.617c.09-.516.157-1.008.18-1.477.024-.629-.023-1.187-.2-1.543-.136-.27-.358-.45-.605-.539a1.085 1.085 0 0 0-.828.066h-.023c-.332.157-.625.516-.848.895-.222.406-.36.809-.312 1.145.02.246.156.468.379.668.312.269.78.492 1.32.628.289.067.625.11.96.157zm11.227-10.582c-.133 1.609-.18 3.265-.09 4.699.113-.473.203-1.008.29-1.59.16-1.05.335-2.215.737-3.379l.18-.469a6.075 6.075 0 0 1-.96-.625c-.067.446-.114.914-.157 1.364zm1.05-4.946c.134.137.36.293.583.403.336.18.691.293.984.293.067 0 .156 0 .223-.024.246-.492.445-.937.582-1.32.133-.445.156-.781.09-1.008a.478.478 0 0 0-.203-.246c-.157-.043-.356-.02-.602.047a2.224 2.224 0 0 0-.895.605c-.316.313-.558.739-.718 1.16l-.02.07zm0 0"></path></g><path fill="#1a1a1a" d="M126.922 169.77c-11.223 3.71-22.473 7.425-31.84 5.726-4.742-.851-8.945-3.09-12.746-6.086-3.758-2.953-7.133-6.62-10.266-10.426-1.52-1.836-2.953-3.668-4.382-5.48-4.426-5.637-8.676-11.05-13.641-14.453-3.285-2.258-6.93-3.645-10.754-4.028-3.668-.355-7.492.204-11.36 1.836-3.804 1.61-7.671 4.25-11.203 7.383-3.914 3.488-7.425 7.563-9.996 11.477-3.8 5.773-5.636 11.273-6.73 14.539-.336 1.008-.606 1.793-.852 2.375-.18.402-.355.715-.535.96l.043.09c.672 1.676 2.082 5.169 4.809 7.493 1.722 1.457 3.98 2.484 5.703 2.91.445.11.848.18 1.16.2-.445-.536-1.25-1.388-2.191-2.349-1.766-1.812-3.844-3.96-4.805-5.972a5.791 5.791 0 0 1-.383-.961c-.535-1.68-.336-3.2.383-4.52.691-1.254 1.898-2.28 3.398-3 .446-.222.938-.402 1.43-.582 1.188-.379 2.484-.601 3.8-.824 2.774-.45 5.727-.941 7.782-3.156 1.77-1.902 3.043-5.168 4.274-8.3.937-2.415 1.855-4.767 2.996-6.509 1.297-1.968 2.882-3.09 4.18-3.468.581-.157 1.12-.2 1.59-.09.581.136 1.05.449 1.362.918.336.535.45 1.254.247 2.125-.313 1.273-1.41 2.976-2.57 4.742-1.368 2.105-2.821 4.34-2.774 5.527.043.895 1.676 1.41 3.644 2.035 1.52.493 3.2 1.028 4.696 1.922 3.8 2.285 6.105 6.602 8.074 10.317l.176.332c.941 1.793 1.836 3.402 2.886 4.812 1.028 1.363 2.215 2.528 3.868 3.512 1.097.648 2.394 1.23 3.734 1.836 3.02 1.363 6.238 2.793 8.254 5.457 1.34 1.765 2.055 3.98 2.57 5.996l-.066-.629c-.426-4.316-.762-10.312-.805-15.008-.047-4.117.2-7.383.848-8.101.18-.176.379-.29.605-.356.758-.203 1.387.266 1.856 1.274.246.539.511 1.32.78 2.261 1.032 3.711 2.102 10.29 2.102 15.278 0 3.824-.625 6.777-1.406 8.703-.293.695-.605 1.273-.941 1.722a10.1 10.1 0 0 0 .605 1.747c.559 1.207 1.34 1.699 2.504 1.812 1.387.133 3.356-.203 4.985-.492.918-.16 1.722-.293 2.351-.336 1.207-.09 1.965.223 2.031 1.25v.27c-.109.714-1.363 1.992-3.039 2.976-1.543.918-3.511 1.742-5.277 1.879-.426.023-.828.023-1.23-.047a2.192 2.192 0 0 1-.446-.09 14.162 14.162 0 0 0 4.18 3.313c2.816 1.5 6.687 2.37 10.71 2.84 4.114.492 8.364.582 11.919.515 3.488-.066 6.285-.246 8.23-.984 1.7-.649 2.75-1.766 3.063-3.715.09-.492.113-1.05.113-1.652l-.023-.809c-1.34-2.39-2.215-5.234-2.684-7.402-.2-.961-.336-1.836-.356-2.461-.07-.985.157-1.723.626-2.016.199-.11.402-.176.624-.176l.18.02c.692.113 1.813 2.172 2.551 4.902.535 1.969 1.027 4.36 1.184 6.555.402.668.847 1.297 1.34 1.809 1.523 1.636 3.468 2.394 5.39 2.55 2.348.18 4.629-.511 6.082-1.652 1.254-.984 1.856-2.352 2.078-3.895.137-.918.113-1.902.024-2.953-.446-.894-.848-1.968-1.184-3.066-.852-2.75-1.387-5.817-1.387-6.73 0-.337.067-.583.18-.786.648-1.164 1.34-1.05 2.035.09.11.18.246.469.38.805.491 1.297 1.25 4.004 1.741 6.668.156.804.27 1.61.36 2.394.156.29.336.535.515.739.715.804 1.88.132 3.196-.649.828-.473 1.699-.984 2.66-1.32 1.164-.403 2.328-.492 3.468-.582.356-.024.715-.067 1.051-.09.426-1.477.758-2.996.938-4.52.293-2.437.18-4.898.066-6.914-.086-2.078-.176-3.71.246-4.652.203-.445.473-.738.828-.938a1.818 1.818 0 0 1 1.633-.046c.403.18.828.472 1.207.894.828.895 1.633 2.418 2.035 4.363.403 1.993.36 4.454-.066 6.688-.402 2.172-1.184 4.164-2.305 5.371-.87.938-1.875 1.41-2.93 1.656l-.199.559a43.224 43.224 0 0 1-3.175 6.957c-1.028 1.789-1.989 3.2-3.532 4.719-1.5 1.5-3.511 3.09-6.644 5.304a203.416 203.416 0 0 1-14.356 9.282c-4.382 2.574-9.234 5.191-14.332 7.539-5.972 2.777-12.277 5.191-18.226 7.226a296.813 296.813 0 0 1-16.055 4.988l-3.734 1.032c-6.598 1.812-10.621 2.906-14.446 5.77-2.28 1.722-4.562 4.073-6.328 5.906-.535.558-1.027 1.074-1.453 1.5-1.453 1.476-2.594 2.19-3.445 1.363l-.11-.133c-.492-.625-.066-2.707 1.141-5.055 1.074-2.082 2.703-4.586 4.719-6.601a16.348 16.348 0 0 1 1.742-1.52c2.996-2.304 6.484-3.289 9.504-4.117 1.969-.559 3.71-1.027 4.785-1.766 1.723-1.21 1.879-3.558 2.082-7.34.086-1.386.176-2.93.356-4.699.425-4.093 1.32-9.125 2.168-13.98.628-3.512 1.23-6.957 1.613-9.73.914-6.692.691-10.426.469-14.141v-.067l.222-.023c-.469-1.988-1.117-4.293-2.37-5.973-1.677-2.215-4.63-3.554-7.403-4.785-1.406-.629-2.77-1.254-3.98-1.969-1.9-1.14-3.31-2.507-4.47-4.07-1.14-1.523-2.081-3.223-3.066-5.082l-.18-.332c-1.832-3.469-3.976-7.496-7.265-9.465-1.297-.781-2.84-1.273-4.25-1.722-2.727-.872-5.031-1.61-5.121-4.004-.086-1.856 1.566-4.407 3.11-6.778 1.05-1.613 2.058-3.156 2.28-4.094.067-.246.067-.382.047-.425v.023c-.136-.023-.316 0-.539.043-.87.246-1.988 1.074-2.972 2.574-1.008 1.52-1.88 3.778-2.797 6.106-1.297 3.312-2.66 6.8-4.696 8.992-2.55 2.73-5.902 3.29-9.011 3.805-1.254.199-2.461.402-3.489.738-.402.133-.804.289-1.164.469-1.093.539-1.965 1.254-2.437 2.105-.446.805-.559 1.742-.223 2.817.067.222.156.449.27.695.828 1.723 2.773 3.71 4.425 5.414 1.68 1.723 3.086 3.176 3.133 4.27 0 .292-.047.562-.18.785-.335.605-.984.918-1.855.937-.582.024-1.32-.066-2.125-.289-1.992-.492-4.605-1.68-6.574-3.355-3.129-2.664-4.672-6.489-5.41-8.325l-.18-.445a1.361 1.361 0 0 1-.36-.492v-.024c-.245-.582 0-1.23.516-1.496l.024-.023c.175-.09.379-.137.578-.113-.043-.043-.067-.114-.043-.157.223-.515.469-1.254.781-2.214 1.121-3.356 3.02-9.016 6.977-15.032 2.683-4.074 6.308-8.3 10.355-11.902 3.688-3.266 7.738-6.063 11.785-7.762 4.203-1.77 8.407-2.394 12.41-1.992 4.204.426 8.184 1.945 11.762 4.383 5.254 3.601 9.594 9.129 14.133 14.898 1.43 1.813 2.863 3.649 4.336 5.438 3.066 3.715 6.328 7.27 9.93 10.09 3.554 2.797 7.445 4.855 11.808 5.66 8.832 1.59 19.809-2.035 30.79-5.66l.671 2.058zm-55.367 30.757a1.518 1.518 0 0 1-.403-.132c.024 2.527-.132 5.503-.691 9.527-.402 2.953-1.008 6.332-1.61 9.824-.851 4.852-1.746 9.887-2.148 13.824-.18 1.7-.266 3.243-.336 4.61-.246 4.406-.402 7.18-3.015 8.992-1.344.937-3.266 1.476-5.438 2.082-2.816.781-6.102 1.7-8.766 3.734-.511.403-1.027.852-1.52 1.344-1.855 1.856-3.35 4.137-4.335 6.04l-.293.581.695-.719c1.832-1.898 4.157-4.34 6.575-6.148 4.136-3.09 8.316-4.23 15.16-6.11l3.71-1.027a288.643 288.643 0 0 0 15.946-4.969c5.902-2.035 12.14-4.43 18.023-7.156 5.051-2.328 9.836-4.922 14.153-7.449a197.898 197.898 0 0 0 14.199-9.176c3.02-2.144 4.965-3.691 6.375-5.078 1.363-1.363 2.258-2.637 3.176-4.25a39.64 39.64 0 0 0 2.84-6.152l-.157.023c-1.007.09-2.035.156-2.93.469-.761.27-1.542.719-2.28 1.14-1.676.985-3.22 1.86-4.72 1.145-.023.246-.042.512-.09.758-.288 2.082-1.116 3.914-2.882 5.305-1.836 1.43-4.7 2.324-7.582 2.101-2.371-.18-4.762-1.117-6.664-3.086-.445 2.84-1.969 4.45-4.45 5.39-2.234.849-5.234 1.075-8.945 1.118-3.644.066-8.027-.023-12.207-.535-4.273-.516-8.386-1.457-11.449-3.09-2.238-1.184-3.914-2.727-5.168-4.25-2.258-2.797-3.105-5.613-3.195-6.062-.137-.739.11-1.141.824-1.297h.023c.204-.043.36-.043.493-.024a8.184 8.184 0 0 1-.47-1.273c-.155.023-.312 0-.468-.024zm1.699-4.922c.492-1.656.851-3.914.851-6.734 0-4.605-.937-10.601-1.878-14.226-.024 1.074-.024 2.394-.024 3.847.047 4.633.383 10.559.809 14.832.086.828.156 1.59.242 2.281zm3.535 9.399c-1.027-.09-1.902-.383-2.617-.918.672.937 1.656 1.945 2.93 2.144.246.047.492.047.78.024 1.388-.09 3.02-.781 4.317-1.566l.403-.247-.266.047c-1.746.313-3.848.672-5.547.516zm70.215-5.215c.2-.133.402-.289.582-.492.828-.895 1.43-2.504 1.789-4.293.379-1.992.402-4.14.066-5.863-.312-1.52-.894-2.66-1.5-3.313l-.199-.2c-.113.65-.047 1.88.024 3.38.086 2.078.222 4.652-.09 7.246a29.127 29.127 0 0 1-.649 3.559zM41.949 263.121c.067.047.09-.043.067-.18zm0 0"></path><path fill="#1a1a1a" d="M19.926 166.637v.289c.715 19.015 1.406 38.031 2.168 54.855.379 8.387.781 16.262 1.297 23.219.511 6.89 1.117 12.82 1.945 17.34.715 4.004 1.61 6.933 2.527 9.015 1.075 2.395 2.125 3.579 3.04 4.047 1.163.582 2.37-.468 4.16-2.035l.738-.648a97.828 97.828 0 0 1 4.449-3.578c1.344-1.008 2.55-1.836 3.29-2.192.468-.246.847-.336 1.16-.316.737.07 1.097.472 1.12 1.164v.023c0 .27-.07.559-.246.871-.316.582-1.097 1.5-2.261 2.551a51.882 51.882 0 0 1-3.508 2.887 115.816 115.816 0 0 1-4.473 3.242l-.45.293c-1.339.895-1.831 1.23-1.429 2.414.356 1.098 1.184 2.73 2.348 4.387a20.635 20.635 0 0 0 3.355 3.8c1.473 1.278 3.153 2.262 4.961 2.778.672.2 1.367.332 2.059.402h-.043c-2.707-.738-4.586-1.992-5.278-2.597-.785-.692-.894-1.274-.335-1.903.445-.492 1.074-.445 2.144-.379.852.047 2.148.133 3.758.067 1.207-.043 2.594-.18 3.98-.313 3.512-.336 6.934-.672 7.871.47.157.202.27.425.313.67.047.247.047.493-.023.74 4.027-1.43 8.746-3.645 14.222-6.22l3.555-1.656c9.101-4.273 19.902-9.328 29.652-14.988 3.938-2.281 7.762-4.719 11.383-7 5.969-3.781 11.36-7.203 16.078-9.242 6.797-2.906 12.031-2.864 16.836-2.817h1.77c2.703 0 5.296-.136 7.511-.402 1.97-.246 3.645-.629 4.875-1.164 1.41-.606 2.235-1.434 2.996-2.172.672-.668 1.297-1.297 2.215-1.742 1.32-.672 3.02-.828 4.809-1.008.894-.09 1.808-.18 2.75-.336 1.23-.223 2.414-.582 3.531-1.14 1.117-.56 2.168-1.364 3.176-2.461.918-1.028 1.789-2.305 2.48-3.489l.137-.226c-1.008.246-2.035.449-2.996.582-2.977.449-5.547.492-5.992.449-.785-.066-1.121-.45-1.031-1.207.09-.899.714-.941 1.746-1.074 1.273-.157 3.867-.473 5.789-1.075 1.254-.402 2.261-.917 2.976-1.296.758-.407 1.297-.696 1.856-.63.558.067.918.294 1.074.739 1.766-.848 3.332-1.902 4.629-2.906a36.248 36.248 0 0 1-4.207.87c-2.211.313-4.672.427-6.953.516-2.637.47-5.055.829-6.551.961-1.027.09-1.7.09-2.012.024-1.097-.223-1.344-.805-.875-1.68.156-.265.426-.492.828-.648.516-.2 1.633-.426 3.086-.559 1.254-.113 2.797-.18 4.45-.223l.804-.023 1.656-.312c2.551-.493 5.145-1.122 7.157-1.747 2.214-.691 3.687-1.43 4.672-2.148.894-.648 1.343-1.25 1.566-1.79.156-.355.203-.648.066-.804-.246-.312-.847-.558-1.988-.715-1.77-.246-4.539-.203-7.738-.156-1.88.02-3.89.067-5.95.043-3.038-.023-6.148-.18-8.855-.469-2.437-.27-4.605-.648-6.172-1.164-2.793-.941-3.754-2.257-4.629-3.511a11.44 11.44 0 0 0-.625-.829c-.468-.535-1.093-1.027-1.879-1.433-.824-.422-1.879-.781-3.129-1.05a29.978 29.978 0 0 0-4.472-.583c-1.5-.09-2.996-.043-4.293.113-1.274.157-2.305.426-3.219.828-.894.403-1.7.918-2.437 1.52-1.567 1.3-2.977 3.043-4.383 4.813l-.672-.54-1.027-.761.02-.043c1.476-1.856 2.976-3.692 4.675-5.121.894-.739 1.832-1.368 2.95-1.836 1.097-.492 2.347-.828 3.823-1.008 1.41-.18 3.02-.2 4.653-.11 1.699.09 3.398.313 4.828.626 1.453.312 2.664.738 3.668 1.253 1.05.536 1.879 1.184 2.527 1.946.293.336.516.648.762.984.668.961 1.406 1.992 3.555 2.707 1.41.469 3.421.828 5.722 1.074 2.684.29 5.727.446 8.656.47 2.036.023 4.024-.024 5.903-.044 3.289-.047 6.148-.113 8.074.176 1.742.246 2.816.809 3.398 1.547.668.87.668 1.898.223 2.953-.312.758-.894 1.586-1.879 2.39l.985-.402c1.007-1.117 1.699-1.183 1.988-.781 1.387-.45 1.476-.023-.559 2.437-.11.133-.265.27-.535.47-.289.226-.762.605-1.344 1.073l-.578.493c-1.926 1.632-4.898 4.207-8.855 5.75a23.599 23.599 0 0 1-1.117 2.214c-.762 1.32-1.723 2.73-2.754 3.872a13.14 13.14 0 0 1-3.801 2.953c-1.34.691-2.727 1.093-4.137 1.34-.937.156-1.945.27-2.906.359-1.586.156-3.086.289-4.047.781-.605.293-1.098.809-1.656 1.344-.895.894-1.88 1.879-3.668 2.64-1.406.602-3.285 1.028-5.453 1.297-2.348.313-5.032.45-7.782.45l-1.789-.024c-4.586-.047-9.593-.09-15.968 2.64-4.54 1.946-9.86 5.325-15.762 9.083-3.602 2.281-7.402 4.695-11.45 7.047-9.796 5.68-20.64 10.781-29.808 15.078l-3.555 1.656c-7.582 3.555-13.71 6.442-18.761 7.582-1.524.828-3.356 1.567-5.145 1.926-2.191.422-4.316.289-6.305-.293-2.125-.625-4.07-1.746-5.77-3.223-1.433-1.25-2.706-2.75-3.71-4.203-1.277-1.836-2.191-3.672-2.617-4.945-.492-1.453-.469-2.305 0-3.02a3.882 3.882 0 0 1-1.453-.449c-1.297-.648-2.75-2.191-4.047-5.098-.985-2.238-1.926-5.304-2.684-9.507-.828-4.633-1.453-10.63-1.969-17.563-.515-6.867-.918-14.789-1.296-23.289-.762-16.777-1.477-35.816-2.168-54.875v-.293l2.144-.066zm34.277 122.816c.606-.36 1.14-.715 1.567-1.074.156-.113.289-.246.402-.36-.961-.042-3.219.18-5.524.403-1.43.137-2.863.27-4.093.336-.559.023-1.051.023-1.52.023.516.203 1.074.403 1.7.582 1.476.403 3.265.625 5.277.45.695-.07 1.433-.18 2.215-.36zm0 0"></path><path fill="#1a1a1a" d="M159.324 340.66c-18.047-2.953-36.07-5.906-58.562-6.957-11.922-.558-25.114-.605-37.211.067-10.688.582-20.485 1.699-27.797 3.445-9.254 2.238-14.512 5.504-17.688 7.496-2.503 1.562-3.933 2.46-5.363 1.61-1.5-.895-2.238-4.094-2.015-8.903.18-4.117 1.007-9.531 2.574-15.75 1.273-5.078 3.062-10.762 4.918-16.063 2.816-8.12 5.703-15.324 7.023-18.39.914-2.125 1.563-2.84 2.414-2.48.758.331.758 1.07.715 2.214-.043 1.34-.113 3.621.605 5.301.715 1.656 2.278 2.863 4.696 3.758 2.594.96 6.125 1.543 10.531 1.922 5.633.472 12.613.605 19.477.738 4.226.09 8.43.16 12.23.316 1.61.067 3.086.133 4.52.223 5.609.29 10.328.516 14.199-.223 0-1.386.11-3.023.312-4.742.38-3.133 1.051-6.578 2.012-9.039 1.074-2.82 2.527-4.406 4.16-5.258 1.653-.851 3.442-.894 5.254-.625 1.79.266 3.578.805 5.145 1.297 1.297.403 2.414.738 3.015.758.293 0 .45-.512.875-2.168.223-.871.512-1.945.914-3.312.965-3.13 2.575-7.582 3.871-11.094.739-2.035 1.364-3.738 1.676-4.676l.067-.246a3.58 3.58 0 0 1 .156-.606l.047-.109c.828-4.008 1.855-5.996 2.504-6.242.312-.426.492-.336.515.289.332.805.176 3.043-.941 6.488l-.024.113c-.02.11-.066.313-.156.602-.156.828-.289 2.352.156 3.895.473 1.632 1.59 3.332 3.176 4.652 1.41 1.164 3.2 2.012 5.211 2.238 2.215.246 4.762-.246 7.649-1.32 2.996-1.098 6.328-2.82 10.062-4.988a176.484 176.484 0 0 0 12.656-8.098c3.692-2.598 7.2-5.348 10.13-8.031 3.109-2.844 5.546-5.57 7.359-7.875a65.624 65.624 0 0 0 3.71-5.168l.11-.18c.695-1.074.965-1.476 1.68-1.543.492-.047.738.133 1.093.379.227.156.606.426 1.297.625 1.031.316 2.84.563 4.809.852 2.347.335 4.922.695 7 1.273 2.414.672 4.09 1.613 5.457 2.395.781.449 1.473.828 2.078 1.03.605.2 1.184.223 1.586.11a.49.49 0 0 0 .293-.133v-.066c-.09-.36-.559-1.008-1.05-1.656-.872-1.164-1.813-2.438-1.813-3.735 0-.918.425-1.656.984-2.304a29.723 29.723 0 0 1-2.617-2.059c-1.25-1.14-2.48-2.418-3.242-3.492-.871-1.23-1.184-2.371-.602-3.2.559-.804 1.899-.937 3.422-.6 1.297.269 2.816.87 4.047 1.608 1.273.762 2.258 1.723 2.84 2.73.265.47.468.962.535 1.454.113-.469.27-.937.449-1.453.246-.695.535-1.363.848-2.035a26.26 26.26 0 0 0-1.7-.559c-1.027-.336-2.101-.672-3.152-1.097-1.812-.739-3.625-1.723-5.078-2.774-1.473-1.05-2.613-2.191-3.152-3.246-.336-.668-.426-1.297-.336-1.879a2.43 2.43 0 0 1 .515-1.14c.246-.313.582-.56.961-.758.805-.407 1.946-.54 3.223-.317.691.137 1.473.36 2.258.672v-.023c.199-.961 1.05-1.633 2.234-2.192.961-.445 2.149-.804 3.356-1.164 1.25-.379 2.57-.758 3.757-.715 1.454.067 2.66.696 3.286 2.438.113.316.203.648.27 1.031 1.362-2.418 3.62-2.484 7.444-2.598l1.297-.043 2.102-.09c5.164-.245 11.828-.558 15.43 1.59.828.493 1.476 1.075 1.992 1.766.355-2.93.804-5.95 1.136-8.23l.317-1.97c.402-2.507.558-3.534.332-4.14-.133-.336-.469-.715-.805-1.074-.469-.512-.914-1.027-1.207-1.742a8.206 8.206 0 0 1-.246-.899c-.133-.648-.312-1.406-1.855-1.988-1.25-.473-3.243-.851-5.633-1.098-2.418-.246-5.188-.335-7.961-.27-1.098.048-2.192.09-3.242.18.96-.023 1.964-.042 2.972-.042 2.817 0 5.926.066 8.14.199.895.047 1.634.137 2.169.203 1.117.156 1.742.602 1.7 1.363l-.024.137c-.157.738-2.282 1.363-5.207 1.586-2.149.156-4.899.27-7.559.203-3.512-.066-6.89-.426-8.922-.894-1.12.199-2.191.445-3.265.78-1.903.606-3.758 1.434-5.883 2.618-2.192 1.207-4.696 2.797-7.848 4.809l-1.566 1.007c-6.262 4.004-14.309 9.172-18.535 10.961-2.887 1.211-4.43.942-5.055-.265-.559-1.032-.156-2.618.648-4.41.758-1.7 1.899-3.645 3.285-5.48 1.188-1.544 2.551-3.02 4.028-4.114a13.273 13.273 0 0 1 4.851-2.305c1.766-.402 3.465-.36 4.786.156.222.09.425.18.648.29 1.05.558 1.832 1.433 2.238 2.394.266.625.38 1.297.332 1.992l3.176-2.035c3.223-2.059 5.746-3.648 7.961-4.879 2.281-1.254 4.25-2.168 6.285-2.797.402-.133.805-.246 1.23-.355a1.702 1.702 0 0 1-.046-.36v-.023c0-.09.023-.2.047-.29.246-.894 2.011-1.612 4.539-2.034 2.191-.383 5.12-.672 8.05-.762 2.86-.09 5.723.023 8.227.27 2.57.265 4.762.69 6.172 1.23 2.64 1.004 2.93 2.348 3.2 3.531.042.227.089.426.155.563.133.336.47.715.805 1.093.469.516.918 1.032 1.207 1.747.445 1.14.246 2.347-.223 5.257l-.312 1.97c-.36 2.304-.809 5.503-1.211 8.679-.156 1.23-.29 2.46-.402 3.601.27 2.012.09 4.16-.176 6.153a9.406 9.406 0 0 1 1.316-.27c3.871-.625 10.625-.222 16.414.113 1.52.09 2.977.18 4.227.223l2.66.113c3.602.133 5.926.223 7.29 1.141l.226-.805c3.308-12.394 8.34-31.343 11.625-44.699 2.238-9.058 3.668-15.637 4.718-20.426.829-3.734 1.387-6.375 1.946-8.367.648-2.347 1.297-3.758 1.992-4.742.758-1.05 1.543-1.566 2.48-2.102a27.719 27.719 0 0 1 3.086-1.543c.918-.402 1.813-.695 2.504-.828 1.477-.246 2.461-.156 2.305 3.11-.113 2.058-.781 6.062-2.348 13.715-1.765 8.59-4.672 21.765-7.715 34.605-2.394 10.047-4.875 19.957-7 27.45-2.437 8.57-4.402 13.937-6.105 17.515-1.742 3.672-3.242 5.527-4.649 6.98a25.757 25.757 0 0 1-3.265 2.82c-1.027.739-1.945 1.231-2.57 1.454 5.433.695 11.582 1.5 17.82 2.328 7.918 1.027 15.922 2.078 22.094 2.863l2.882.356c10.422 1.32 15.88 2.015 17.063 3.27 1.273 1.339.223 2.503-2.371 3.577-1.719.715-4.313 1.5-7.332 2.328-1.856.512-3.488.961-5.235 1.407-4.918 1.32-10.507 2.82-16.03 4.586l-1.321.425c-.133.223-.27.47-.45.715-.757 1.074-2.03 2.125-3.843 3.18-1.723 1.027-3.98 2.101-6.754 3.266-2.93 1.23-6.484 2.57-9.793 3.69-2.93.985-5.68 1.79-7.605 2.169-2.524.492-3.664.27-7.266-.426-2.504-.469-6.238-1.183-12.5-2.055-9.348-1.277-24.441-2.91-37.95-4.386-8.25-.895-15.917-1.723-21.195-2.348-12.5-1.5-14.132-2.484-13.976-3.828.043-.313.156-.535.265-.758l.114-.246c.539-1.23 1.254-2.82 11.406-2.215 7.89.469 21.844 2.125 35.309 3.735 3.98.468 7.96.941 11.449 1.363 8.137.941 15.27 1.703 21.597 2.129 1.32.086 2.618.156 3.895.199-1.992-.246-4.227-.648-6.934-1.117-3.824-.672-8.609-1.5-14.757-2.328-11.54-1.543-28.223-3.133-40.79-4.317-4.226-.402-8.003-.761-10.89-1.05-7.152-.72-10.04-1.301-9.906-2.688.113-1.14 2.172-1.723 5.523-2.707l2.64-.758c7.067-2.035 17.821-5.125 24.575-6.644l1.836-.403a5.95 5.95 0 0 1-.942-.894c-2.058-2.485-1.921-7.004-1.742-13.133l.067-2.594c.043-1.433.066-2.887.09-4.363l.02-1.926c-.267-1.273-.56-2.55-1.185-3.355-.312-.426-.761-.758-1.296-1.075-.29.63-.582 1.278-.782 1.88-.246.695-.425 1.456-.582 2.124-.425 1.746-.738 3.114-2.125 3.516-.625.2-1.41.066-2.238-.27-.422.446-.758.871-.758 1.23 0 .606.715 1.567 1.387 2.462.625.847 1.207 1.633 1.406 2.414.113.45.113.875-.02 1.254-.136.426-.402.762-.738 1.031a2.985 2.985 0 0 1-1.074.512c-.781.203-1.789.18-2.797-.156-.824-.27-1.586-.692-2.48-1.208-1.254-.714-2.797-1.59-4.965-2.19-1.945-.54-4.45-.895-6.73-1.212-2.06-.289-3.915-.558-5.122-.914-.757-.226-1.25-.492-1.586-.719.043.067.043.18-.046.313l-.11.18A68.33 68.33 0 0 1 182 242.16a68.457 68.457 0 0 1-7.605 8.121c-2.973 2.707-6.575 5.528-10.352 8.188a164.512 164.512 0 0 1-12.813 8.21c-3.824 2.216-7.289 3.981-10.398 5.145-3.2 1.188-6.059 1.723-8.633 1.434-2.457-.27-4.629-1.301-6.347-2.707-1.79-1.477-3.086-3.356-3.735-5.238l-.047.113c-1.273 3.512-2.906 7.965-3.824 10.984-.402 1.297-.672 2.371-.894 3.223-.758 2.906-1.004 3.87-3.02 3.781-.894-.047-2.121-.426-3.574-.851-1.477-.45-3.176-.985-4.809-1.208-1.433-.203-2.797-.18-3.98.403-1.188.601-2.258 1.832-3.133 4.094-.871 2.28-1.52 5.546-1.879 8.523-.176 1.453-.289 2.797-.312 3.938.558-.18 1.097-.403 1.632-.63 1.008-1.542 2.172-3.242 3.489-4.538 1.566-1.543 3.308-2.461 5.097-2.84 1.723-1.883 3.38-3.625 5.235-4.856.672-.449 1.386-.828 2.078-1.12 1.926-.806 3.89-1.028 5.613-.716 1.813.336 3.332 1.278 4.316 2.754a6.2 6.2 0 0 1 .536 1.028l.023.066c.852 2.059.715 4.879.09 7.273-.649 2.504-1.922 4.653-3.332 5.235l-.024.02c-2.035.827-3.664-1.028-5.566-3.176-1.008-1.141-2.102-2.372-3.266-3.2-1.43-1.008-3.039-1.453-4.652-1.297-2.39 2.618-4.941 5.368-8.16 7.047l-.2.313c-1.007 1.59-1.835 2.887-2.64 3.265-.848.426-1.52.247-1.988-.691-.137-.27-.246-.695-.317-1.207-4.046.715-8.808.492-14.421.2-1.454-.067-2.997-.157-4.497-.223-3.843-.157-8.004-.247-12.183-.313-6.977-.137-14.024-.27-19.633-.738-4.61-.403-8.32-1.008-11.117-2.059-2.973-1.098-4.961-2.687-5.926-4.945a9.99 9.99 0 0 1-.691-2.863 322.401 322.401 0 0 0-6.059 16.062c-1.812 5.211-3.578 10.828-4.855 15.883-1.52 6.086-2.325 11.363-2.504 15.324-.18 3.984.18 6.488.96 6.957.317.18 1.344-.445 3.133-1.566 3.286-2.059 8.72-5.434 18.336-7.762 7.446-1.79 17.399-2.93 28.176-3.512 12.164-.672 25.426-.625 37.41-.066 22.63 1.074 40.719 4.027 58.809 6.98l-.332 2.125zM26.746 286.703c-.226-.09-.203-.047-.09.086.223.024.38.047.09-.086zm86.582.692c-1.14.761-2.258 1.812-3.398 2.976 1.386.2 2.726.758 3.957 1.633 1.386.984 2.55 2.305 3.62 3.535 1.345 1.543 2.505 2.863 3.134 2.594.757-.313 1.562-1.88 2.078-3.805.535-2.012.648-4.293 0-5.906l-.024-.043a5.076 5.076 0 0 0-.355-.672c-.649-.96-1.68-1.586-2.93-1.832-1.32-.246-2.863-.07-4.383.582a11.8 11.8 0 0 0-1.722.914zm95.797-56.106c.313-.312.559-.629.691-.918.18-.426.09-.941-.222-1.453-.403-.695-1.117-1.367-2.102-1.969a11.42 11.42 0 0 0-3.398-1.344c-.719-.156-1.23-.27-1.23-.246-.048.067.288.223.624.696.672.96 1.766 2.101 2.907 3.129.917.828 1.855 1.566 2.707 2.105zm5.05-7.45c.313-.76.54-1.433.473-1.859-.09-.625-1.164-1.117-2.351-1.699-.469-.222-.938-.445-1.406-.691-1.008-.54-1.97-1.211-2.684-1.926-1.43-.715-2.816-1.297-3.957-1.5-.828-.133-1.477-.09-1.902.113-.114.067-.2.133-.246.18a.206.206 0 0 0-.067.156c-.023.133.024.313.133.535.36.696 1.254 1.567 2.484 2.442a22.827 22.827 0 0 0 4.63 2.527c1.027.422 2.034.738 2.995 1.051.668.223 1.32.426 1.922.648zm2.618-1.612c-.023.761-.29 1.59-.648 2.46.648.36 1.23.762 1.722 1.278l.024-.606c-.114-.18-.203-.425-.293-.738-.067-.2-.09-.582-.09-1.14l.023-.493-.023-.043c-.133-.246-.38-.492-.715-.738zm-7.848-7.114c-.023.133.157.403.493.762.914.445 1.808.938 2.683 1.41l1.586.848c.54.293 1.05.539 1.543.785.96.469 1.79.894 2.46 1.32.157-2.304.247-5.058-.269-6.468-.27-.739-.738-.98-1.34-1.004-.851-.047-1.968.289-3.066.625-1.16.336-2.281.695-3.086 1.05-.578.27-.98.493-1.004.672zm10.934 15.727c.27 1.23.535 2.437 1.117 3.156.582.715 1.59 1.094 2.977 1.32 1.543.246 3.507.266 5.746.246 2.258-.023 4.808-.07 7.222-.335 2.325-.247 4.473-.696 6.016-1.477a6.203 6.203 0 0 0 2.035-1.613l.02-.403c.136-2.304.246-4.293 2.148-5.57l.09-.601c-.133-.985-.113-2.149-.023-3.56.066-.87.156-1.878.246-2.905-.29-1.813-1.028-3.403-2.594-4.32-3.063-1.813-9.348-1.52-14.242-1.274l-2.125.09-1.32.043c-3.712.113-5.5.156-6.329 3.355-.761 3-.937 8.414-1.027 13.871zm3.734 6.601c-1.586-.246-2.883-.738-3.824-1.59l-.11 4.16c-.16 5.66-.292 9.821 1.25 11.7.626.738 1.567 1.187 2.528 1.41.246.066.469.113.715.137 1.41-.203 2.414-.293 3.043-.293.355 0 .625.023.805.047.78.156 1.183.445 1.23.828.445-.246 1.07-.473 1.79-.672 1.05-.293 2.546-.473 5.206-.492 1.926-.024 4.473.02 7.941.156-.515-.156-.785-.559-.894-1.164-.113-.559.066-1.14.246-1.856l.176-.695c.426-1.699.918-3.758 6.597-4.539 2.305-.316 5.57-.426 8.989-.406 4.363.023 8.945.246 12.144.516 2.93.246 4.785.515 5.95.851 1.609.469 2.19 1.164 2.234 2.078l.336-.222a23.08 23.08 0 0 0 2.973-2.57c1.273-1.321 2.64-3 4.25-6.4 1.652-3.491 3.578-8.75 5.992-17.183 2.101-7.426 4.586-17.312 6.976-27.36 3.063-12.952 5.973-26.062 7.715-34.538 1.543-7.54 2.215-11.434 2.305-13.38.043-.76.336-.894.222-.87-.539.09-1.253.336-2.035.668-.96.406-1.992.941-2.863 1.433-.715.403-1.297.782-1.79 1.477-.558.781-1.073 1.992-1.651 4.07-.54 1.903-1.098 4.52-1.926 8.235-1.051 4.742-2.457 11.25-4.738 20.492-3.29 13.375-8.34 32.324-11.653 44.742l-.847 3.2c.109 2.304-.942 5.503-1.856 8.32l-.402 1.207c-.582 1.792-1.051 3.199-2.082 2.91-.739-.246-.512-2.551 1.23-9.106l.938-3.558a1.4 1.4 0 0 0-.133-.47c-.426-1.007-2.504-1.093-6.527-1.253l-2.684-.11c-1.344-.066-2.774-.156-4.25-.222-5.68-.336-12.344-.719-15.965-.137-.246.047-.45.09-.672.137.516.355 1.274.668 2.305.96 2.012.536 4.96.962 8.027 1.274 3.086.313 6.305.54 8.809.696l.851.043c5.075.293 7.243.425 7.422 3.199.09 1.344-.582 3.379-2.101 5.215-1.14 1.363-2.774 2.636-4.965 3.488-4.649 1.789-11.762 1.52-16.5 1.32l-1.074-.047c-4.72-.175-6.797-.246-7.871-2.547-.649-1.367-.696-3.468-.583-5.617-.269.18-.582.36-.894.516-1.813.918-4.203 1.41-6.777 1.7-2.457.269-5.098.312-7.446.335-2.347.024-4.406 0-6.105-.27zm24.262-5.863c-.223.492-.492.942-.781 1.387l-.024.226c-.156 2.57-.36 5.391.27 6.711.512 1.094 2.191 1.16 5.992 1.297l1.074.043c4.582.18 11.426.45 15.676-1.183 1.809-.696 3.152-1.746 4.066-2.864 1.164-1.386 1.657-2.82 1.614-3.691-.047-.875-1.657-.965-5.39-1.188l-.852-.043a249.688 249.688 0 0 1-8.922-.695c-3.172-.336-6.258-.762-8.364-1.34-1.496-.406-2.57-.898-3.351-1.547-.246 1.055-.559 2.016-.985 2.91zm-19.855 23.715c-.583.156-2.149.355-3.848.133-1.363.203-3.129.539-5.344 1.031-6.73 1.52-17.418 4.606-24.441 6.621l-2.637.758c-2.484.719-3.938.516-3.98.828-.047.383 2.347-.223 7.98.336 2.996.293 6.71.648 10.89 1.05 12.59 1.188 29.317 2.778 40.88 4.345 6.328.847 11.042 1.675 14.824 2.324 5.523.96 9.054 1.59 12.297 1.386 3.96-.246 7.695-1.722 11.605-3.265 1.457-.582 2.93-1.164 4.586-1.746 2.48-.871 5.031-1.586 7.266-2.235 2.953-.828 5.347-1.523 6.015-2.039.426-.332-.96.45-1.699.27-2.324-.559-6.508-1.164-13.168-1.88-5.683-.624-12.973-1.32-20.394-2.034-10.532-1.008-21.38-2.059-28.2-2.93-5.925-.762-8.875-1.387-10.105-1.902-1.14-.469-1.746-.918-1.945-1.297-.137.11-.313.2-.54.27zm58.988 17.559c-3.465 1.367-6.82 2.707-10.422 3.222a71.926 71.926 0 0 0 5.121-.289c8.164-.785 14.805-3 21.176-5.144l1.633-.54c.18-.671.203-1.363.226-2.058 0-.379.02-.738.043-1.117-1.254.648-3.488 1.273-6.148 2.035-2.239.625-4.785 1.363-7.133 2.191a121.731 121.731 0 0 0-4.496 1.723zm15.875-9.84c1.164.265 2.015.558 2.597.87.29-.984.489-1.902-.07-2.484-.558-.601-1.789-1.164-4.18-1.699-2.593-.582-6.44-1.117-12.074-1.68-5.144-.511-11.851-1.027-18.695-1.496-8.164-.558-16.438-1.05-22.45-1.32-5.57-.27-9.257-.36-11.784-.336-1.141.024-2.012.043-2.75.113 1.562.336 3.933.715 7.378 1.16 6.75.852 17.622 1.903 28.13 2.91 7.535.716 14.913 1.43 20.437 2.036 6.8.738 11.047 1.363 13.441 1.926zm-57.781-10.09 3.02.133c6.105.293 14.401.785 22.495 1.32 6.797.469 13.528.984 18.762 1.52 5.746.562 9.66 1.12 12.344 1.722 2.882.649 4.425 1.41 5.277 2.328 1.453 1.59.938 3.266.402 4.989-.156.492-.293.984-.379 1.433-.09.559-.113 1.14-.136 1.723 0 .422-.024.828-.043 1.25 5.633-1.813 11.203-3.309 16.12-4.63 1.946-.515 3.825-1.03 5.212-1.41 2.953-.804 5.457-1.566 7.09-2.238.78-.312 1.875.18 1.609-.109-.648-.695-5.86-1.367-15.766-2.617l-2.886-.36c-6.485-.828-14.332-1.855-22.09-2.863-7.156-.941-14.27-1.855-19.77-2.574-5.925-.758-10.418-1.32-14.086-1.633-3.554-.312-6.172-.379-8.363-.18-3.086.294-5.434 1.122-6.957 1.657-.691.246-1.227.426-1.676.515l-.199.043zm55.68 20.937.827-.515c-5.879 1.969-12.12 3.87-19.675 4.59-5.055.468-10.668.421-17.086 0-6.395-.426-13.551-1.188-21.692-2.13a1732.26 1732.26 0 0 1-11.449-1.363c-13.46-1.609-27.414-3.265-35.172-3.714-8.676-.512-9.035.316-9.324.941l-.203.402c.27.043 2.304.246 12.054 1.41 5.524.649 13.06 1.477 21.176 2.348 13.504 1.453 28.578 3.086 37.992 4.387 6.395.87 10.13 1.586 12.61 2.058 3.289.625 4.34.825 6.465.422 1.832-.355 4.472-1.117 7.312-2.078 3.242-1.097 6.75-2.418 9.66-3.648 2.703-1.14 4.852-2.149 6.485-3.133zm-113.817-1.789v-.023zm0 0c0-.023 0-.023 0 0zm89.668-21.656.199.024c-.11-.157-.176-.38-.2-.649-.046-.469.157-.805.427-1.207.175-.27.378-.648.378-.762 0-.023-.18 0-.714-.156-1.008-.293-2.73-.559-5.5-.785a165.665 165.665 0 0 0-11.989-.512c-3.308-.023-6.484.09-8.675.38-4.204.581-4.516 1.855-4.786 2.929l-.246.918.715-.246c1.633-.582 4.117-1.453 7.492-1.766 2.348-.227 5.075-.137 8.743.18 3.535.312 8.097.87 14.18 1.652zm2.414-10.96c-.133.245-.156.358 0 .401h.023c.47.137.27-.09-.023-.425zm-94.879-24.99c2.125-.894 5.32-2.73 8.789-4.831-1.59-.625-1.969-2.371-2.328-4.117l1.031-.223 1.028-.336.046.113c.266 1.274.536 2.551 1.364 2.637.625.07 1.562-.2 2.457-.668.808-.426 1.523-1.008 1.86-1.656l.108-.246c.204-.516.157-1.051-.043-1.567-.226-.535-.671-1.027-1.277-1.343-.11-.067-.246-.11-.402-.176-.938-.36-2.168-.383-3.531-.07-1.32.316-2.727.94-4.07 1.925-1.298.961-2.528 2.281-3.602 3.692a27.468 27.468 0 0 0-3.04 5.054c-.558 1.23-.894 2.192-.714 2.508.066.133.738-.023 2.324-.695zm0 0"></path><path fill="#1a1a1a" d="M66.012 285.203h.09c8.562.762 17.105 1.52 25.355.445 2.172-.289 4.383-.691 6.508-1.093 6.105-1.164 11.45-2.172 14.469.468 2.683 2.329 3.109 7.18 3.578 12.66.246 2.778.492 5.731 1.05 8.458 1.16 5.773 3.668 11.074 5.633 15.28.805 1.7 1.524 3.22 2.016 4.474.937 2.418 1.25 4.14 1.207 5.527-.047 1.43-.402 2.437-.762 3.445l-2.011-.738c.312-.828.625-1.68.648-2.754.023-1.117-.246-2.57-1.074-4.676-.516-1.297-1.184-2.75-1.946-4.36-2.011-4.296-4.582-9.734-5.793-15.75-.578-2.929-.847-5.905-1.093-8.702-.45-5.035-.828-9.465-2.84-11.23-2.258-1.946-7.11-1.028-12.68.023-2.125.402-4.336.828-6.64 1.117-8.52 1.098-17.172.336-25.805-.426l.09-1.074zM231.73 195.18c.918.648 1.856 1.3 2.438 2.105.738 1.028.937 2.168.043 3.535-1.316 1.989-5.41 4.43-8.852 6.485l-2.437 1.457c-.606.355-1.164.691-1.68.96l-.402.247c-.02.023-.043 0-.067-.024-.894.426-1.543.516-1.878 0l-.067-.11c-.289-.581-.023-1.144.895-1.702l.132-.09c1.723-1.074 7.18-4.43 8.141-6.285.047-.09.09-.18.09-.246 0-.024-.043-.067-.113-.133-.246-.18-.649-.336-1.141-.45-1.07-.245-2.504-.269-3.934-.132-1.722.156-3.445.582-5.39 1.32-1.988.738-4.246 1.813-6.977 3.242-5.5 2.887-12.969 7.27-20.437 11.657L189 215.16c7.488-4.387 14.957-8.793 20.547-11.703 2.82-1.477 5.144-2.57 7.223-3.355 2.148-.805 4.027-1.25 5.949-1.454 1.656-.156 3.308-.113 4.605.18.805.18 1.5.445 1.992.848.649.492.985 1.144.938 1.949 1.008-.738 1.812-1.457 2.215-2.035.289-.426.246-.785.023-1.098-.383-.535-1.164-1.074-1.926-1.61l1.23-1.769zM322.25 269.656c-2.191.649-4.45 1.387-6.73 2.168l.535.09c1.812.313 4.004.606 6.484.871-.402-.312-.668-.691-.781-1.14-.156-.56-.047-1.141.36-1.723.066-.11.155-.2.245-.313l-.09.024zm-10.398 3.442h-.024v-.02c-.402-.156-.738-.312-.984-.492-1.742-1.23-1.496-2.418 1.633-3.445 1.77-.582 4.988-1.23 8.832-1.77l1.968-.266c2.864-.785 5.614-1.367 8.164-1.59a26.72 26.72 0 0 1 2.637-.113c.918-.175 1.856-.336 2.817-.511 4.496-.739 9.503-1.254 14.023-1.368 4.246-.09 8.07.18 11.312.649 3.915.582 7.067 1.476 9.192 2.418 1.476.648 2.527 1.344 3.086 2.035.379.492.558 1.008.515 1.543-.066.559-.359 1.05-.894 1.434-.649.445-1.723.78-3.309.96-.472.043-.984.09-1.543.114-2.191 1.004-5.66 1.898-9.593 2.46-3.825.56-8.164.805-12.524.872-4.36.066-8.723-.043-12.703-.223-3.957-.18-7.535-.402-10.687-.695-3.196-.29-5.903-.625-8.051-1.008-1.563-.266-2.906-.578-3.844-.937zm26.812-4.965-.156-.043c-1.633.043-3.29.11-4.965.223-1.254.066-2.504.18-3.758.289-1.41.382-2.637.761-3.601 1.164-1.25.515-1.989.984-2.282 1.367l.047.02c.516.335 1.567.538 3.02.558 2.21.023 5.187-.469 7.781-1.14 2.305-.602 4.227-1.34 4.918-1.97-.223-.156-.559-.288-1.004-.445zm3.195-.113c.067.27.09.539.047.828-.066.359-.226.695-.515 1.007-.871 1.008-3.309 2.016-6.106 2.75-1.25.336-2.613.63-3.933.829l3.152.156c3.957.18 8.297.293 12.59.226 4.27-.066 8.496-.312 12.254-.851a83.025 83.025 0 0 0 3.039-.516l-1.207-.11c-3.442-.335-6.864-.894-9.078-1.612-1.586-.512-2.618-1.141-3.153-1.79-.222-.289-.379-.582-.449-.87-2.191-.047-4.402-.09-6.66-.067zm-2.078.449zm0 0c0-.024 0-.024 0 0zm-15.965 2.617c0-.024-.023-.043 0 0zm26.118-5.367c-1.075.043-2.192.086-3.309.176l2.86.07c.136-.09.269-.18.449-.246zm22.785 4.203a3.53 3.53 0 0 0-.516-.445c.024.222 0 .445-.066.671.246-.07.425-.136.582-.226zm.113.047v-.024.024zm-11.473.265c2.618.246 5.235.383 7.336.317.582-.293 1.004-.563 1.25-.828.067-.067.157.043.137-.024l-.07-.066c-.782-.715-3.262-1.387-6.172-1.88a55.481 55.481 0 0 0-6.84-.718l-.047 1.344h-.02l-5.48-.2a6.91 6.91 0 0 0 1.344.512c2.055.672 5.32 1.211 8.61 1.524zm0 0"></path></svg>