<svg xmlns="http://www.w3.org/2000/svg" xmlns:xlink="http://www.w3.org/1999/xlink" width="300" viewBox="0 0 224.87999 149.999998" height="200" preserveAspectRatio="xMidYMid meet"><defs><clipPath id="26a9ccc720"><path d="M 8.148438 5 L 209.789062 5 L 209.789062 148 L 8.148438 148 Z M 8.148438 5 " clip-rule="nonzero"></path></clipPath></defs><g clip-path="url(#26a9ccc720)"><path fill="#1d1d1d" d="M 201.097656 68.519531 C 198.667969 73.796875 195.671875 78.359375 192.296875 81.574219 C 184.496094 89.007812 176.074219 87.441406 167.414062 84.886719 C 158.359375 82.210938 149.039062 78.5 139.828125 81.851562 C 128.417969 85.988281 123.550781 95.601562 119.164062 105.375 C 114.914062 114.820312 111.140625 124.421875 101.773438 128.902344 C 94.757812 132.261719 85.1875 131.253906 77.304688 127.375 C 81.488281 119.921875 83.304688 111.394531 81.152344 103.738281 C 79.335938 97.285156 74.222656 93.96875 69.714844 94.804688 C 66.703125 95.359375 63.875 97.765625 62.453125 102.449219 C 59.300781 112.867188 65.164062 121.808594 73.9375 127.132812 C 74.390625 127.421875 74.863281 127.691406 75.335938 127.949219 C 75.160156 128.226562 74.984375 128.511719 74.808594 128.800781 C 69.921875 136.410156 62.546875 142.558594 54.773438 144.734375 C 43.679688 147.84375 34.265625 143.9375 27.015625 136.949219 C 19.667969 129.875 14.511719 119.652344 12.023438 110.210938 C 11.132812 106.8125 9.753906 101.921875 9.621094 97.378906 C 9.539062 94.480469 9.964844 91.71875 11.441406 89.65625 C 11.664062 89.332031 11.589844 88.898438 11.273438 88.664062 C 10.949219 88.441406 10.511719 88.515625 10.28125 88.832031 C 8.648438 91.136719 8.121094 94.191406 8.214844 97.414062 C 8.34375 102.070312 9.742188 107.089844 10.652344 110.570312 C 13.203125 120.246094 18.5 130.71875 26.03125 137.964844 C 33.644531 145.300781 43.523438 149.355469 55.15625 146.09375 C 63.234375 143.828125 70.921875 137.464844 75.996094 129.558594 C 76.199219 129.246094 76.394531 128.921875 76.597656 128.597656 C 84.890625 132.699219 94.992188 133.71875 102.382812 130.179688 C 112.058594 125.550781 116.066406 115.710938 120.453125 105.949219 C 124.691406 96.515625 129.300781 87.175781 140.308594 83.175781 C 149.234375 79.933594 158.25 83.65625 167.011719 86.238281 C 176.160156 88.933594 185.035156 90.441406 193.28125 82.589844 C 201.542969 74.703125 207.683594 58.9375 208.917969 43.972656 C 209.742188 33.957031 208.371094 24.308594 204.03125 17.625 C 202.351562 15.042969 200.367188 13.734375 198.34375 13.347656 C 196.445312 12.976562 194.484375 13.421875 192.6875 14.457031 C 190.097656 15.941406 187.816406 18.660156 186.507812 21.789062 C 185.101562 25.140625 184.375 28.835938 183.921875 32.429688 C 183.894531 32.632812 183.679688 34.882812 183.402344 36.429688 C 183.375 36.558594 183.347656 36.695312 183.320312 36.816406 C 183.199219 36.667969 183.078125 36.503906 182.949219 36.316406 C 182.296875 35.402344 181.546875 34.09375 180.703125 32.539062 C 177.335938 26.328125 172.558594 16.191406 166.96875 10.246094 C 164.175781 7.28125 161.160156 5.355469 158.042969 5.3125 C 154.917969 5.265625 151.625 7.078125 148.316406 11.808594 C 142.703125 19.820312 143.789062 28.316406 148.15625 36.085938 C 154.574219 47.511719 168.144531 57.304688 177.335938 61.378906 C 182.996094 63.898438 188.984375 65.824219 195.015625 67.222656 C 197.027344 67.695312 199.070312 68.109375 201.097656 68.519531 Z M 76.050781 126.726562 C 80.058594 119.597656 81.859375 111.449219 79.789062 104.117188 C 78.210938 98.507812 73.898438 95.46875 69.976562 96.191406 C 67.378906 96.671875 65.03125 98.820312 63.800781 102.867188 C 60.851562 112.617188 66.453125 120.941406 74.667969 125.929688 C 75.125 126.207031 75.585938 126.476562 76.050781 126.726562 Z M 201.691406 67.203125 C 204.773438 60.113281 206.851562 51.863281 207.507812 43.863281 C 208.304688 34.179688 207.035156 24.855469 202.84375 18.394531 C 201.425781 16.207031 199.78125 15.058594 198.074219 14.726562 C 196.5 14.421875 194.886719 14.820312 193.390625 15.679688 C 191.046875 17.023438 189.003906 19.496094 187.808594 22.335938 C 186.453125 25.566406 185.769531 29.132812 185.324219 32.605469 C 185.285156 32.875 184.933594 36.539062 184.523438 37.828125 C 184.394531 38.269531 184.179688 38.519531 184.042969 38.613281 C 183.746094 38.816406 183.457031 38.816406 183.171875 38.621094 C 183.160156 38.621094 183.160156 38.621094 183.160156 38.621094 C 182.242188 38.011719 180.972656 36.003906 179.460938 33.214844 C 176.140625 27.078125 171.445312 17.070312 165.9375 11.21875 C 163.441406 8.570312 160.808594 6.765625 158.027344 6.726562 C 155.253906 6.679688 152.414062 8.421875 149.472656 12.617188 C 144.207031 20.132812 145.289062 28.113281 149.390625 35.402344 C 155.660156 46.558594 168.933594 56.113281 177.910156 60.09375 C 183.484375 62.566406 189.394531 64.464844 195.332031 65.851562 C 197.445312 66.34375 199.570312 66.777344 201.691406 67.203125 Z M 201.691406 67.203125 " fill-opacity="1" fill-rule="evenodd"></path></g></svg>