<svg xmlns="http://www.w3.org/2000/svg" xmlns:xlink="http://www.w3.org/1999/xlink" width="50" viewBox="0 0 37.5 37.499999" height="50" preserveAspectRatio="xMidYMid meet"><defs><clipPath id="91bccc11ac"><path d="M 5.3125 5.113281 L 32 5.113281 L 32 32 L 5.3125 32 Z M 5.3125 5.113281 " clip-rule="nonzero"></path></clipPath><clipPath id="f9b2a3fe54"><path d="M 0 12.160156 L 27 12.160156 L 27 36.160156 L 0 36.160156 Z M 0 12.160156 " clip-rule="nonzero"></path></clipPath></defs><g clip-path="url(#91bccc11ac)"><path fill="#b495ed" d="M 18.898438 5.132812 C 20.183594 5.125 23.609375 5.148438 26.691406 7.53125 C 29.035156 9.34375 29.976562 11.59375 30.394531 12.621094 C 32.316406 17.375 30.789062 21.734375 30.296875 23.082031 C 29.710938 24.667969 28.839844 27.042969 26.496094 28.9375 C 22.570312 32.105469 16.875 32.015625 12.859375 30.085938 C 12.207031 29.773438 9.648438 28.476562 7.699219 25.578125 C 7.339844 25.046875 5.570312 22.335938 5.457031 18.378906 C 5.417969 17.046875 5.3125 13.324219 7.894531 10.125 C 9.535156 8.085938 11.53125 7.179688 12.859375 6.574219 C 13.941406 6.082031 16.035156 5.152344 18.898438 5.132812 Z M 18.898438 5.132812 " fill-opacity="1" fill-rule="nonzero"></path></g><g clip-path="url(#f9b2a3fe54)"><path fill="#000000" d="M 17.578125 16.265625 C 17.453125 16.128906 17.457031 15.921875 17.582031 15.792969 L 21.121094 12.296875 C 21.25 12.167969 21.457031 12.175781 21.585938 12.304688 C 21.710938 12.4375 21.707031 12.644531 21.578125 12.773438 L 18.042969 16.269531 C 17.917969 16.398438 17.707031 16.398438 17.578125 16.265625 Z M 26.65625 23.957031 L 21.585938 24.136719 C 21.40625 24.144531 21.261719 24.296875 21.269531 24.480469 C 21.273438 24.664062 21.425781 24.808594 21.605469 24.800781 L 26.675781 24.621094 C 26.855469 24.613281 27 24.460938 26.996094 24.277344 C 26.988281 24.09375 26.839844 23.949219 26.65625 23.957031 Z M 18.160156 21.503906 C 19.003906 23.523438 19.441406 25.464844 19.460938 27.007812 C 19.484375 28.640625 19.027344 29.855469 18.085938 30.300781 C 18.066406 30.308594 18.042969 30.320312 18.023438 30.324219 C 17.441406 30.578125 16.753906 30.503906 16.023438 30.164062 C 13.179688 29.5 11.253906 29.179688 9.382812 29.296875 C 9.03125 29.320312 8.675781 29.355469 8.316406 29.414062 C 9.976562 31.722656 10.957031 35.421875 11.027344 35.679688 C 11.042969 35.738281 11.046875 35.808594 11.027344 35.871094 C 10.972656 36.046875 10.792969 36.148438 10.617188 36.097656 C 9.046875 35.628906 6.644531 35.59375 6.453125 35.59375 C 6.292969 35.597656 6.152344 35.484375 6.117188 35.320312 C 5.855469 33.859375 4.574219 31.402344 4.148438 30.621094 C 3.785156 30.757812 3.398438 30.914062 2.996094 31.074219 C 2.867188 31.128906 2.730469 31.097656 2.640625 31.003906 C 0.03125 28.804688 0.00390625 25.589844 0.00390625 25.289062 C 0 25.164062 0.0625 25.042969 0.175781 24.984375 C 2.628906 23.613281 4.296875 22.671875 5.648438 21.433594 C 6.992188 20.214844 8.046875 18.6875 9.300781 16.164062 C 9.496094 15.257812 9.910156 14.597656 10.550781 14.300781 C 10.570312 14.289062 10.589844 14.277344 10.613281 14.273438 C 11.632812 13.832031 12.960938 14.386719 14.292969 15.621094 C 15.550781 16.792969 16.832031 18.609375 17.835938 20.78125 C 17.953125 21.015625 18.058594 21.261719 18.160156 21.503906 Z M 7.589844 29.542969 C 6.726562 29.726562 5.8125 30 4.773438 30.378906 C 5.222656 31.21875 6.351562 33.417969 6.710938 34.929688 C 7.332031 34.945312 8.925781 35.019531 10.242188 35.308594 C 9.894531 34.121094 8.960938 31.277344 7.589844 29.542969 Z M 14.535156 29.148438 C 14.472656 29.089844 14.40625 29.035156 14.34375 28.976562 C 13.085938 27.804688 11.804688 25.988281 10.796875 23.816406 C 10.6875 23.574219 10.582031 23.328125 10.480469 23.089844 C 10.1875 22.398438 9.949219 21.71875 9.753906 21.054688 C 9.75 21.042969 9.75 21.039062 9.75 21.027344 C 9.410156 19.867188 9.21875 18.769531 9.1875 17.816406 C 8.179688 19.648438 7.242188 20.890625 6.097656 21.925781 C 4.722656 23.179688 3.074219 24.128906 0.671875 25.464844 C 0.699219 26.15625 0.929688 28.597656 2.941406 30.375 C 3.378906 30.199219 3.796875 30.035156 4.1875 29.886719 L 4.199219 29.882812 C 6.203125 29.125 7.757812 28.730469 9.351562 28.628906 C 10.902344 28.53125 12.480469 28.726562 14.535156 29.148438 Z M 11.082031 22.832031 C 11.179688 23.066406 11.285156 23.296875 11.390625 23.53125 C 11.8125 24.441406 12.28125 25.289062 12.777344 26.042969 C 13.101562 25.335938 13.238281 24.726562 13.242188 24.203125 C 13.242188 23.601562 13.070312 23.109375 12.792969 22.714844 C 12.511719 22.3125 12.125 22.003906 11.730469 21.777344 C 11.316406 21.546875 10.886719 21.402344 10.527344 21.332031 C 10.6875 21.824219 10.871094 22.328125 11.082031 22.832031 Z M 18.804688 27.011719 C 18.789062 25.550781 18.367188 23.699219 17.558594 21.761719 C 17.460938 21.527344 17.355469 21.296875 17.25 21.058594 C 16.28125 18.96875 15.054688 17.226562 13.851562 16.109375 C 12.71875 15.050781 11.632812 14.554688 10.871094 14.882812 L 10.835938 14.898438 C 10.386719 15.113281 10.089844 15.609375 9.941406 16.3125 C 9.941406 16.332031 9.933594 16.355469 9.929688 16.375 C 9.859375 16.730469 9.828125 17.136719 9.835938 17.585938 C 9.84375 18.480469 10.007812 19.519531 10.316406 20.636719 C 10.789062 20.683594 11.4375 20.863281 12.042969 21.203125 C 12.523438 21.472656 12.984375 21.847656 13.328125 22.339844 C 13.675781 22.835938 13.898438 23.457031 13.894531 24.214844 C 13.890625 24.914062 13.6875 25.726562 13.199219 26.667969 C 13.71875 27.382812 14.253906 27.996094 14.785156 28.496094 C 15.277344 28.957031 15.757812 29.308594 16.210938 29.535156 C 16.246094 29.542969 16.269531 29.554688 16.296875 29.578125 C 16.851562 29.839844 17.355469 29.898438 17.761719 29.722656 L 17.800781 29.703125 C 18.492188 29.367188 18.820312 28.378906 18.804688 27.011719 Z M 25.046875 17.769531 C 24.976562 17.597656 24.78125 17.523438 24.617188 17.589844 L 19.988281 19.570312 C 19.816406 19.640625 19.742188 19.839844 19.8125 20.003906 C 19.878906 20.175781 20.078125 20.25 20.242188 20.183594 L 24.871094 18.203125 C 25.035156 18.125 25.117188 17.933594 25.046875 17.769531 Z M 25.046875 17.769531 " fill-opacity="1" fill-rule="nonzero"></path></g></svg>