<svg xmlns="http://www.w3.org/2000/svg" xmlns:xlink="http://www.w3.org/1999/xlink" width="50" viewBox="0 0 37.5 37.499999" height="50" preserveAspectRatio="xMidYMid meet"><defs><clipPath id="7f287f0603"><path d="M 5.3125 5.113281 L 32 5.113281 L 32 32 L 5.3125 32 Z M 5.3125 5.113281 " clip-rule="nonzero"></path></clipPath><clipPath id="bdfbc128f6"><path d="M 3 5.113281 L 21 5.113281 L 21 33.613281 L 3 33.613281 Z M 3 5.113281 " clip-rule="nonzero"></path></clipPath></defs><g clip-path="url(#7f287f0603)"><path fill="#b495ed" d="M 18.898438 5.132812 C 20.183594 5.125 23.609375 5.148438 26.691406 7.53125 C 29.035156 9.34375 29.976562 11.59375 30.394531 12.621094 C 32.316406 17.375 30.789062 21.734375 30.296875 23.082031 C 29.710938 24.667969 28.839844 27.042969 26.496094 28.9375 C 22.570312 32.105469 16.875 32.015625 12.859375 30.085938 C 12.207031 29.773438 9.648438 28.476562 7.699219 25.578125 C 7.339844 25.046875 5.570312 22.335938 5.457031 18.378906 C 5.417969 17.046875 5.3125 13.324219 7.894531 10.125 C 9.535156 8.085938 11.53125 7.179688 12.859375 6.574219 C 13.941406 6.082031 16.035156 5.152344 18.898438 5.132812 Z M 18.898438 5.132812 " fill-opacity="1" fill-rule="nonzero"></path></g><g clip-path="url(#bdfbc128f6)"><path fill="#000000" d="M 11.203125 19.003906 C 11.203125 18.078125 11.199219 17.152344 11.203125 16.222656 C 11.207031 15.351562 11.164062 14.554688 10.191406 14.070312 C 9.699219 13.824219 9.511719 13.246094 9.679688 12.664062 C 9.746094 12.433594 9.9375 12.3125 10.175781 12.324219 C 10.824219 12.359375 11.125 12.808594 11.304688 13.332031 C 11.496094 13.886719 11.628906 14.367188 12.402344 14.429688 C 13.167969 14.492188 13.40625 14.085938 13.660156 13.535156 C 13.84375 13.136719 14.140625 12.808594 14.660156 12.839844 C 14.863281 12.855469 15.003906 12.988281 15.03125 13.175781 C 15.105469 13.644531 14.90625 14.070312 14.527344 14.285156 C 13.832031 14.671875 13.695312 15.289062 13.574219 15.972656 C 13.144531 18.371094 12.84375 20.769531 13.4375 23.183594 C 13.503906 23.457031 13.582031 23.738281 13.699219 23.996094 C 13.828125 24.289062 14 24.644531 14.359375 24.632812 C 14.722656 24.621094 14.863281 24.261719 14.957031 23.949219 C 15.546875 22.070312 16.695312 20.519531 17.890625 18.988281 C 18.890625 17.703125 19.707031 16.316406 19.871094 14.65625 C 20.203125 11.3125 17.78125 7.328125 14.625 6.023438 C 13.511719 5.5625 12.347656 5.703125 11.1875 5.734375 C 7.566406 5.828125 2.484375 11.941406 5.332031 16.25 C 6.929688 18.664062 8.125 21.238281 8.949219 23.988281 C 9.296875 25.15625 10.125 25.644531 11.3125 25.625 C 12.144531 25.609375 12.980469 25.539062 13.8125 25.558594 C 14.234375 25.570312 14.960938 25.320312 14.976562 25.9375 C 14.996094 26.488281 14.246094 26.390625 13.820312 26.429688 C 12.738281 26.535156 11.648438 26.550781 10.5625 26.617188 C 10.417969 26.625 10.203125 26.585938 10.148438 26.816406 C 10.292969 26.832031 10.433594 26.863281 10.578125 26.867188 C 11.808594 26.878906 13.042969 26.863281 14.273438 26.914062 C 14.636719 26.925781 15.207031 26.9375 15.191406 27.449219 C 15.175781 27.929688 14.640625 27.964844 14.253906 27.972656 C 13.09375 28.007812 11.933594 27.992188 10.769531 28.015625 C 10.585938 28.019531 10.242188 27.902344 10.25 28.191406 C 10.257812 28.425781 10.601562 28.351562 10.796875 28.363281 C 11.917969 28.429688 13.042969 28.472656 14.164062 28.546875 C 14.625 28.578125 15.238281 28.582031 15.230469 29.191406 C 15.222656 29.742188 14.628906 29.707031 14.207031 29.742188 C 12.90625 29.851562 11.597656 29.578125 10.300781 29.824219 C 10.109375 29.863281 9.769531 29.828125 9.773438 30.0625 C 9.78125 30.328125 10.109375 30.265625 10.308594 30.269531 C 11.324219 30.277344 12.339844 30.261719 13.355469 30.273438 C 14.804688 30.289062 14.859375 30.367188 14.296875 31.542969 C 13.5625 33.085938 12.480469 33.601562 10.839844 33.1875 C 10.574219 33.117188 10.15625 33.152344 10.167969 32.785156 C 10.183594 32.34375 10.636719 32.417969 10.933594 32.410156 C 11.660156 32.390625 12.382812 32.421875 13.109375 32.414062 C 13.308594 32.410156 13.5625 32.441406 13.632812 32.152344 C 13.464844 32.121094 13.296875 32.058594 13.128906 32.058594 C 12.183594 32.054688 11.242188 32.09375 10.296875 32.0625 C 9.871094 32.046875 9.144531 32.214844 9.152344 31.628906 C 9.160156 31.125 9.894531 31.203125 10.335938 31.183594 C 11.3125 31.140625 12.292969 31.183594 13.273438 31.152344 C 13.515625 31.144531 13.957031 31.292969 13.964844 30.917969 C 13.972656 30.6875 13.539062 30.785156 13.304688 30.773438 C 12.109375 30.71875 10.90625 30.800781 9.722656 30.578125 C 9.371094 30.515625 8.882812 30.519531 8.847656 30.109375 C 8.796875 29.5625 9.378906 29.605469 9.726562 29.535156 C 11.050781 29.265625 12.402344 29.398438 13.742188 29.371094 C 13.988281 29.367188 14.375 29.386719 14.378906 29.128906 C 14.382812 28.886719 13.992188 28.878906 13.738281 28.859375 C 12.472656 28.78125 11.207031 28.726562 9.945312 28.609375 C 9.550781 28.574219 8.917969 28.578125 8.933594 28.042969 C 8.941406 27.59375 9.554688 27.582031 9.917969 27.570312 C 11.148438 27.523438 12.378906 27.5625 13.613281 27.554688 C 13.824219 27.554688 14.035156 27.496094 14.246094 27.464844 C 14.109375 27.191406 13.816406 27.191406 13.589844 27.183594 C 12.359375 27.148438 11.125 27.160156 9.890625 27.132812 C 9.515625 27.125 8.96875 27.238281 8.886719 26.75 C 8.816406 26.300781 9.34375 26.308594 9.675781 26.207031 C 9.800781 26.167969 9.992188 26.132812 10.03125 26.042969 C 10.109375 25.863281 9.898438 25.820312 9.78125 25.773438 C 8.992188 25.449219 8.671875 24.761719 8.453125 24.039062 C 7.691406 21.488281 6.609375 19.097656 5.050781 16.917969 C 1.617188 12.128906 7.058594 5.210938 11.699219 5.164062 C 15.492188 5.121094 17.574219 7.164062 19.390625 9.851562 C 21.117188 12.410156 20.828125 15.0625 19.414062 17.652344 C 18.921875 18.554688 18.285156 19.394531 17.660156 20.222656 C 16.832031 21.316406 16.128906 22.460938 15.734375 23.785156 C 15.53125 24.46875 15.292969 25.226562 14.351562 25.191406 C 13.386719 25.15625 13.160156 24.367188 12.945312 23.648438 C 12.160156 20.996094 12.53125 18.347656 13.003906 15.707031 C 13.074219 15.3125 13.238281 14.957031 12.617188 14.816406 C 11.742188 14.621094 11.671875 15.007812 11.71875 15.722656 C 11.90625 18.460938 12.003906 21.203125 11.511719 23.925781 C 11.457031 24.230469 11.640625 24.824219 11.113281 24.730469 C 10.675781 24.65625 10.949219 24.109375 10.996094 23.800781 C 11.242188 22.210938 11.277344 20.609375 11.203125 19.003906 Z M 11.421875 31.710938 L 11.4375 31.683594 C 11.335938 31.6875 11.230469 31.6875 11.128906 31.691406 C 11.125 31.691406 11.117188 31.703125 11.113281 31.710938 C 11.21875 31.710938 11.320312 31.710938 11.421875 31.710938 Z M 14.011719 26.007812 C 14.089844 25.992188 14.1875 25.96875 14.289062 25.949219 C 14.195312 25.921875 14.101562 25.878906 14.003906 25.878906 C 13.929688 25.878906 13.855469 25.929688 13.78125 25.957031 C 13.851562 25.972656 13.917969 25.988281 14.011719 26.007812 Z M 14.273438 13.851562 L 14.269531 13.859375 L 14.246094 13.882812 Z M 10.214844 13.273438 C 10.332031 13.414062 10.449219 13.667969 10.648438 13.761719 C 10.863281 13.867188 10.84375 13.628906 10.785156 13.511719 C 10.675781 13.304688 10.570312 13.042969 10.386719 12.933594 C 10.210938 12.832031 10.214844 13.0625 10.214844 13.273438 Z M 10.214844 13.273438 " fill-opacity="1" fill-rule="nonzero"></path></g></svg>