<svg xmlns="http://www.w3.org/2000/svg" width="500" viewBox="0 0 375 375" height="500" version="1.0"><defs><clipPath id="a"><path d="M74.508 223.203h248.25v72H74.508zm0 0"/></clipPath></defs><g clip-path="url(#a)"><path fill="#fff96f" d="M322.531 229.652c-.242-4.078-1.472-4.98-5.754-4.945-1.129-.246-2.254-.48-3.414-.348-.754-.738-1.75-.625-2.66-.668-2.719-.136-5.437-.23-8.16-.257-22.918-.235-45.8 1.125-68.707 1.457-18.586.27-37.149 1.32-55.707 2.433-8.715.524-17.434.973-26.133 1.676-19.84 1.602-39.684 3.004-59.598 3.344-4.12.07-8.242.465-12.363.691-4.637.254-4.437 1.84-5.152 4.965-.145.633-.004 1.32-.074 1.977-.243 2.285.586 4.472.593 6.734.012 2.168 1.137 3.984 2.223 5.7.984 1.554 2.852 1.128 4.426 1.116 1.254-.007 1.883.426 1.879 1.817-.008 2.254.39 4.488.562 6.742.176 2.32.352 4.687 1.117 6.941.54 1.59 1.543 2.57 3.278 2.598 1.96.027 3.937.215 5.797-.645.726-.07 1.449-.144 2.171-.214.985.515 2.032.234 3.043.203 7.977-.235 15.95-.504 23.926-.723.953-.027 2.004-.344 3.016.473-.95.781-2.028.73-2.992.898-6.102 1.067-12.215 2.059-18.325 3.098-1.66.281-3.335.535-4.918 1.168-1.453.582-2.156 1.515-2.144 3.222.027 2.844.539 5.606.953 8.391.262 1.77.625 3.52 1.281 5.188.75 1.89 1.594 2.535 3.625 2.441 1.68-.078 3.36-.316 5.024-.594 11.66-1.949 23.304-4 34.976-5.867 13.344-2.133 26.727-3.996 40.137-5.668 15.176-1.89 30.371-3.633 45.625-4.84a843.055 843.055 0 0 0 31.652-3.101c12.114-1.43 24.204-3.098 36.391-3.809 2.621-.156 5.258-.191 7.86-.5 2.93-.348 3.85-1.258 4.085-4.105.313-3.844.496-7.707.563-11.559.055-3.062-1.004-4.227-3.992-4.828-3.301-.656-6.606-1.266-9.91-1.895 2.898-.843 5.832-1.195 8.738-1.703 2.851-.496 5.808-.285 8.578-1.297l.933-.023c1.211.578 2.38.121 3.551-.156 2.961-.7 3.828-1.504 3.977-4.555.183-3.648.242-7.324.023-10.973"/></g><path d="M188.495 213.254c-.375-.281-.843-.281-1.402-.094-.469.281-.937.563-1.402 1.027-.375.375-.656.75-.844 1.028-.84 1.496-5.61 7.386-14.3 17.855-8.696 10.473-19.446 21.317-32.344 32.438-12.903 11.218-25.989 18.511-39.262 22.062l-.094.094c-.844.187-1.684.281-2.617.375-.281 0-.563.094-.844.094-.465 0-.84.093-1.215.093H93.706c-.28 0-.468 0-.75-.093H91.93c-2.336-.282-4.394-.844-6.355-1.871-3.743-1.965-6.825-5.329-9.348-10.188-2.152-4.023-3.836-8.883-5.145-14.586-1.027-4.672-1.773-10-2.242-15.797-.469-5.14-.656-10.562-.656-16.265.094-10.844.75-21.688 1.965-32.813a368.78 368.78 0 0 1 5.047-32.531 288.35 288.35 0 0 1 8.133-31.781c3.46-11.032 7.292-21.313 11.5-30.754 4.953-11.219 10.093-20.754 15.421-28.7 3.274-4.956 6.547-9.164 9.817-12.62 1.683-1.778 3.55-3.458 5.703-5.235 2.242-1.684 4.394-3.086 6.355-3.926 2.246-1.027 4.489-1.683 6.637-1.87a16.9 16.9 0 0 1 6.824.843c2.153.652 4.207 1.68 6.172 3.176a24.338 24.338 0 0 1 4.953 5.234l1.121 1.496 1.122 1.965c0 .094.093.094.093.094.094.187.094.281.188.37l1.215 2.622c4.113 8.598 6.078 17.758 5.984 27.574 0 9.817-1.121 19.164-3.273 28.043-2.243 8.883-4.391 16.172-6.73 21.969-2.243 5.703-3.552 8.789-3.833 9.254 0 0-.094.094-.187.281a2.917 2.917 0 0 0-.375.563c-.184.28-.278.558-.465.746-.094.28-.188.468-.282.656-.746 2.148.094 3.363 2.336 3.644 1.215.094 2.34-.187 3.274-.933.933-.75 1.496-1.684 1.683-2.899.188-1.214.559-2.43 1.028-3.738l1.308-4.02 2.43-8.042c.281-1.121.656-2.243.934-3.364 1.218-4.207 2.433-8.507 3.46-12.898 1.31-5.332 2.337-10.938 3.18-16.734.746-5.61 1.121-11.313 1.028-17.2 0-6.265-.75-12.058-1.965-17.297-.559-2.43-1.496-5.234-2.805-8.503-.187-.47-.371-.938-.652-1.309l-.75-1.777c-.188-.188-.278-.47-.371-.657l-1.309-2.242-1.309-1.96c-2.058-2.805-4.207-5.052-6.453-6.825a27.776 27.776 0 0 0-8.504-4.582c-3.086-.934-6.359-1.402-9.628-1.215a29.442 29.442 0 0 0-9.348 2.43c-2.527 1.12-5.145 2.71-7.856 4.77-2.523 2.054-4.765 4.019-6.636 5.98-3.645 3.738-7.29 8.32-10.844 13.46-5.793 8.321-11.215 18.231-16.543 29.821-9.258 20.379-16.172 41.785-20.848 64.223-4.953 24.023-7.476 46.457-7.386 67.21.093 13.18 1.218 24.587 3.554 34.122 1.496 6.449 3.551 12.058 6.074 16.73 1.59 2.992 3.461 5.61 5.422 7.762a28.324 28.324 0 0 0 7.856 5.98 27.16 27.16 0 0 0 9.531 2.618c.563 0 1.125.093 1.59.093h1.215c.656 0 1.308-.093 1.965-.093l1.027-.094c1.215-.184 2.523-.371 3.832-.652 6.36-1.872 11.875-4.208 16.36-7.2 4.394-2.71 9.07-5.98 14.023-10 4.113-3.273 8.32-6.918 12.804-11.125 7.387-6.918 15.239-14.957 23.465-24.21 3.926-4.489 7.57-8.696 10.844-12.81l5.234-6.636.375-.375c1.497-2.055 3.18-4.113 4.86-6.074 0-.094.094-.188.094-.281 1.12-1.497 1.03-2.805-.372-3.926zm0 0"/><path d="M194.278 245.129c.843.281 1.683.469 2.617.469.844 0 1.684-.282 2.527-.563 1.586-.746 2.895-1.773 4.114-2.894a66.664 66.664 0 0 0 3.457-3.743c2.148-2.617 4.02-5.328 5.984-8.039 1.96-2.804 3.832-5.515 5.887-8.133 1.027-1.308 2.152-2.617 3.367-3.738 1.121-1.215 2.523-2.242 4.02-2.71v-.095c.28-.093.652-.468.652-.84 0-.468-.371-.843-.746-.843-.657-.184-1.403-.094-2.059.094-1.309.468-2.336 1.308-3.363 2.058-2.059 1.684-3.832 3.645-5.516 5.61-3.46 3.925-6.637 8.132-10.004 12.058-1.773 1.867-3.55 3.832-5.61 5.422-.464.371-1.026.746-1.585.934-.563.28-1.215.468-1.59.187s-.75-.84-.937-1.402c-.278-.563-.465-1.215-.653-1.778-.746-2.523-1.027-5.046-1.215-7.664-.093-2.617-.28-5.234-.375-7.851a1735.964 1735.964 0 0 1-.84-31.223v-.469c0-.093 0-.28.094-.375.653-3.27 1.309-6.543 1.961-9.812l3.926-19.727a946.961 946.961 0 0 0 6.453-39.726c1.867-13.184 3.457-26.55 4.578-39.918.563-6.637 1.028-13.367 1.121-20.004.094-3.367.094-6.73 0-10.098-.093-3.363-.37-6.73-.933-10.093a31.833 31.833 0 0 0-1.215-4.957c-.563-1.586-1.402-3.176-2.711-4.297-.75-.657-1.496-1.125-2.43-1.309-.843-.281-1.777-.281-2.617-.094-1.777.278-3.367 1.403-4.394 2.711-1.122 1.403-1.965 2.899-2.711 4.39a48.26 48.26 0 0 0-1.684 4.77c-.281.84-.465 1.684-.746 2.43l-.563 2.524c-.375 1.59-.746 3.273-1.12 4.863a243.733 243.733 0 0 0-2.805 19.91c-.653 6.637-1.215 13.367-1.496 20.098-.188 1.59-.188 3.367-.282 4.953-.093 1.683-.277 3.367-.277 5.05l-.188 5.047v4.954l-.093 10.097.093 10c.278 23.278 1.028 46.461 1.961 69.738-.933 4.114-1.96 8.32-3.082 12.528l-.187.558v.188c-.094.094-.094.094-.094.187v.47c.188.651.84 1.214 1.496 1.214.653 0 1.215-.469 1.403-1.121l.37-1.219a40.66 40.66 0 0 0 .563-1.773c.094 3.175.281 6.449.469 9.629l.277 4.953c.094 1.683.188 3.367.375 5.047.282 1.683.563 3.367 1.028 4.957.375 1.586.937 3.27 1.777 4.765.84 1.496 1.965 2.899 3.55 3.645zm7.48-209.77h-.094.094zm-10.004 123.77-.28-31.317c-.09-2.617-.09-5.234-.09-7.851v-7.852c.09-2.617.09-5.234.183-7.761l.094-3.926c0-1.309.093-2.617.187-3.926.375-10.469 1.121-20.844 2.336-31.223.281-2.523.562-5.14.937-7.757.465-2.524.84-5.141 1.403-7.665l.84-3.832c.28-1.218.656-2.433 1.027-3.742.375-1.215.844-2.43 1.402-3.55l.844-1.684c.188-.281.371-.465.559-.746.093-.094.187-.188.375-.281l.093-.094.094.094c.094.187.188.28.281.468.184.371.372.746.465 1.121.282.746.563 1.59.75 2.336.188.84.282 1.59.465 2.43l.188 1.215.093 1.308.47 4.957c.093 1.68.187 3.27.187 4.954.187 6.73-.094 13.367-.47 20.097-.651 13.367-1.964 26.645-3.55 39.918-1.59 13.274-3.46 26.547-5.516 39.82l-.843 4.958c-.278 1.585-.559 3.27-.84 4.859l-1.496 7.851zm9.91-123.582c-.093.094-.093.187-.093.187h-.094.094c-.094.094-.094.094-.094 0l-.094-.093v-.094c.094-.094.188-.094.281-.188v.188zm0 0"/><path d="M234.658 237.746c-.84.187-1.68.281-2.524.187-.84-.093-1.586-.28-2.148-.656-.656-.465-1.028-1.027-1.309-1.777a8.013 8.013 0 0 1-.562-2.149c-.094-.558-.094-1.12-.188-1.683 0-.277 0-.465-.09-.652-.093-.75-.093-1.497-.187-2.336 0-.75 0-1.497.094-2.247l.183-2.43.375-4.675c.188-1.586.281-3.176.375-4.766v-.28c.094-1.497 0-2.993-.469-4.579-.187-.844-.746-1.59-1.59-2.152-.933-.559-1.96-.746-2.988-.653-2.058.278-3.836.934-5.422 1.774l-.187.187c-.844.75-1.309 1.59-1.402 2.711 0 .469.093.934.28 1.403 0 .093 0 .093.095.093 0 .094.09.188.09.282l.093.187c.094.094.188.094.188.188.375.277.75.37 1.12.37.376.094.75 0 1.032-.093l.652-.277c.47-.188.844-.282 1.121-.282h.282l.281.282c.094.277.187.558.281.933a27.425 27.425 0 0 1 0 3.926c-.094.281-.094.656-.094 1.027l-.28 4.957c-.188 1.68-.188 3.364-.282 5.047 0 1.684.187 3.363.562 5.047.375 1.684 1.122 3.273 2.055 4.77 1.031 1.586 2.43 2.71 4.395 3.363 1.965.562 4.02.75 5.984.375 1.027-.188 1.961-.375 2.895-.656a24.268 24.268 0 0 0 2.804-1.215c5.985-2.617 11.594-6.824 16.64-12.805 5.048-5.89 8.134-10.098 9.442-12.621v-.469c0-.187-.093-.277-.093-.465-.094-.093-.465-.28-1.215-.468-2.242 3.457-6.543 8.039-12.805 13.742-6.36 5.797-12.152 8.972-17.484 9.535zm-6.45-44.777c-.28-.188-.558-.375-.84-.47-.28-.093-.468-.187-.75-.28h-.183c-1.309-.371-2.527-.559-3.836-.465a8.06 8.06 0 0 0-3.644.84c-.653.28-1.122.656-1.59 1.12-.465.563-.653 1.126-.653 1.872.188.746.559 1.308 1.215 1.777.559.371 1.215.653 1.778.84 1.308.281 2.617.375 3.925.281 1.215-.187 2.43-.468 3.551-1.12a7.503 7.503 0 0 0 1.402-1.122c.375-.469.563-1.031.47-1.59h-.095c0-.656-.28-1.215-.75-1.683zm0 0"/><path d="M306.45 216.433c-.28-.468-.656-.656-1.214-.656-.563 0-1.496.094-2.711.281-1.778.375-5.051.84-9.91 1.31.933-5.048.84-10.376-.375-15.892-1.028-4.113-3.27-7.293-6.543-9.628-5.141-3.274-10.938-2.618-17.293 2.148-3.649 2.805-6.45 6.266-8.508 10.285-2.149 4.02-2.524 7.383-1.121 10.188 1.027 1.59 2.054 2.71 2.992 3.457l.277.187c0 2.524.188 5.422.375 8.79.188 4.113 1.121 8.132 2.617 11.964 1.965 4.766 4.301 7.477 7.2 8.04.375.093.84.093 1.215.093 2.43 0 5.14-1.402 7.945-4.3 3.273-3.645 5.797-7.571 7.574-11.59 1.773-4.02 2.895-7.294 3.363-9.723a203.76 203.76 0 0 0 4.953-.84c2.06-.469 4.02-.938 5.797-1.496 1.871-.563 2.993-1.125 3.368-1.778a1.29 1.29 0 0 0 0-.84zm-36.832-2.058c.653-2.805 1.31-4.766 1.868-6.074.562-1.309 1.125-2.059 1.683-2.434.657-.371 1.215-.559 1.778-.559l1.12-.28.47-.095-.282-.468c-.746-1.309-2.148-2.055-3.926-2.149-2.523 0-4.582 1.403-6.355 4.207-.469.84-.938 1.961-1.402 3.27a13.832 13.832 0 0 1 1.214-3.082c.372-1.215 1.868-3.274 4.485-6.078 1.402-1.309 2.805-2.336 4.113-2.992 4.395-2.243 8.133-2.149 10.938.28 1.87 1.872 2.898 4.864 3.086 9.071.093 4.113-.188 7.664-.84 10.75-2.528.184-5.703-.094-9.535-.75-3.836-.746-6.637-1.59-8.415-2.617zm-.656 6.824c2.434.934 5.328 1.496 8.696 1.59 3.363.187 6.261 0 8.691-.375-1.586 7.105-4.39 12.809-8.504 17.11-1.402 1.308-2.617 1.867-3.648 1.679-1.028-.187-2.055-1.309-3.082-3.363a27.994 27.994 0 0 1-1.684-5.422c-.469-3.086-.656-5.516-.656-7.2-.09-1.683 0-3.085.187-4.019zm0 0"/><path d="M176.702 287.817h.864c0-.035.105-4.18 1.796-6.36.418-.55 1.625-1.796 3.422-1.796h1.59c.692 0 .934.277.934.933v20.531c0 .622-.309.934-.934.934h-3.316v1.105h11.683v-1.105h-3.32c-.621 0-.934-.312-.934-.934v-20.53c0-.657.313-.934.934-.934h1.59c1.8 0 3.008 1.246 3.422 1.796 1.695 2.18 1.8 6.36 1.8 6.36h.864l-.278-9.262h-19.84zM211.504 303.164h19.286l.414-9.261h-.864s-.379 4.25-1.968 6.394c-1.04 1.348-2.801 1.762-3.805 1.762h-5.527c-.66 0-.934-.312-.934-.934v-9.851h3.039c2.664 0 2.836 2.765 2.836 4.805h.898v-10.82h-.898c0 2.007-.172 4.773-2.836 4.773h-3.04v-9.438c0-.656.274-.933.935-.933h5.562c1.383 0 2.973.378 4.047 2.003 1.379 2.11 1.414 4.704 1.414 4.704h.867l-.14-7.813h-19.286v1.106h2.489c.656 0 .933.277.933.933v20.531c0 .622-.277.934-.933.934h-2.489zM245.266 303.164h9.332v-1.105h-1.867c-.863 0-1.242-.762-1.242-1.52 0-.625.344-1.382.863-2.18l3.977-6.046 4.422 8.156c.105.207.242.656.242.863 0 .38-.242.727-.934.727h-2.074v1.105H268.7v-1.105h-2.14c-.934 0-1.49-.379-2.145-1.52l-6.118-11.234 5.29-7.95c.792-1.21 1.66-1.694 3.039-1.694h1.558v-1.106h-9.332v1.106h1.07c1.036 0 1.692.726 1.692 1.453 0 .62-.274 1.347-.692 1.968l-3.28 4.907-3.735-6.91c-.172-.278-.278-.692-.278-.899 0-.348.243-.52.625-.52h2.075v-1.105h-10.715v1.106h2.105c1.66 0 2.145.726 2.73 1.796l5.153 9.54-5.844 8.746c-.793 1.175-1.726 2.316-3.422 2.316h-1.07zM282.554 287.817h.864c0-.035.105-4.18 1.797-6.36.417-.55 1.625-1.796 3.421-1.796h1.59c.692 0 .934.277.934.933v20.531c0 .622-.309.934-.934.934h-3.316v1.105h11.683v-1.105h-3.32c-.621 0-.933-.312-.933-.934v-20.53c0-.657.312-.934.933-.934h1.59c1.8 0 3.008 1.246 3.422 1.796 1.695 2.18 1.8 6.36 1.8 6.36h.864l-.277-9.262h-19.84zM317.356 303.164h19.286l.414-9.261h-.864s-.379 4.25-1.968 6.394c-1.04 1.348-2.801 1.762-3.805 1.762h-5.527c-.66 0-.934-.312-.934-.934v-9.851h3.039c2.664 0 2.836 2.765 2.836 4.805h.898v-10.82h-.898c0 2.007-.172 4.773-2.836 4.773h-3.039v-9.438c0-.656.273-.933.934-.933h5.562c1.383 0 2.973.378 4.047 2.003 1.379 2.11 1.414 4.704 1.414 4.704h.867l-.14-7.813h-19.286v1.106h2.489c.656 0 .933.277.933.933v20.531c0 .622-.277.934-.933.934h-2.489zm0 0" fill="#7a6c94"/></svg>