<?xml version="1.0" encoding="UTF-8"?>
<svg width="371.09" height="364.97" version="1.0" viewBox="0 0 278.32 273.73" xmlns="http://www.w3.org/2000/svg"><defs><clipPath id="a"><path d="m74.508 223.2h248.25v72h-248.25z"/></clipPath></defs><g transform="translate(-58.741 -29.436)" clip-path="url(#a)"><path d="m322.53 229.65c-0.242-4.078-1.472-4.98-5.754-4.945-1.129-0.246-2.254-0.48-3.414-0.348-0.754-0.738-1.75-0.625-2.66-0.668-2.719-0.136-5.437-0.23-8.16-0.257-22.918-0.235-45.8 1.125-68.707 1.457-18.586 0.27-37.149 1.32-55.707 2.433-8.715 0.524-17.434 0.973-26.133 1.676-19.84 1.602-39.684 3.004-59.598 3.344-4.12 0.07-8.242 0.465-12.363 0.691-4.637 0.254-4.437 1.84-5.152 4.965-0.145 0.633-4e-3 1.32-0.074 1.977-0.243 2.285 0.586 4.472 0.593 6.734 0.012 2.168 1.137 3.984 2.223 5.7 0.984 1.554 2.852 1.128 4.426 1.116 1.254-7e-3 1.883 0.426 1.879 1.817-8e-3 2.254 0.39 4.488 0.562 6.742 0.176 2.32 0.352 4.687 1.117 6.941 0.54 1.59 1.543 2.57 3.278 2.598 1.96 0.027 3.937 0.215 5.797-0.645 0.726-0.07 1.449-0.144 2.171-0.214 0.985 0.515 2.032 0.234 3.043 0.203 7.977-0.235 15.95-0.504 23.926-0.723 0.953-0.027 2.004-0.344 3.016 0.473-0.95 0.781-2.028 0.73-2.992 0.898-6.102 1.067-12.215 2.059-18.325 3.098-1.66 0.281-3.335 0.535-4.918 1.168-1.453 0.582-2.156 1.515-2.144 3.222 0.027 2.844 0.539 5.606 0.953 8.391 0.262 1.77 0.625 3.52 1.281 5.188 0.75 1.89 1.594 2.535 3.625 2.441 1.68-0.078 3.36-0.316 5.024-0.594 11.66-1.949 23.304-4 34.976-5.867 13.344-2.133 26.727-3.996 40.137-5.668 15.176-1.89 30.371-3.633 45.625-4.84a843.06 843.06 0 0 0 31.652-3.101c12.114-1.43 24.204-3.098 36.391-3.809 2.621-0.156 5.258-0.191 7.86-0.5 2.93-0.348 3.85-1.258 4.085-4.105 0.313-3.844 0.496-7.707 0.563-11.559 0.055-3.062-1.004-4.227-3.992-4.828-3.301-0.656-6.606-1.266-9.91-1.895 2.898-0.843 5.832-1.195 8.738-1.703 2.851-0.496 5.808-0.285 8.578-1.297l0.933-0.023c1.211 0.578 2.38 0.121 3.551-0.156 2.961-0.7 3.828-1.504 3.977-4.555 0.183-3.648 0.242-7.324 0.023-10.973" fill="#fff96f"/></g><path d="m129.75 183.82c-0.375-0.281-0.843-0.281-1.402-0.094-0.469 0.281-0.937 0.563-1.402 1.027-0.375 0.375-0.656 0.75-0.844 1.028-0.84 1.496-5.61 7.386-14.3 17.855-8.696 10.473-19.446 21.317-32.344 32.438-12.903 11.218-25.989 18.511-39.262 22.062l-0.094 0.094c-0.844 0.187-1.684 0.281-2.617 0.375-0.281 0-0.563 0.094-0.844 0.094-0.465 0-0.84 0.093-1.215 0.093h-0.465c-0.28 0-0.468 0-0.75-0.093h-1.026c-2.336-0.282-4.394-0.844-6.355-1.871-3.743-1.965-6.825-5.329-9.348-10.188-2.152-4.023-3.836-8.883-5.145-14.586-1.027-4.672-1.773-10-2.242-15.797-0.469-5.14-0.656-10.562-0.656-16.265 0.094-10.844 0.75-21.688 1.965-32.813a368.78 368.78 0 0 1 5.047-32.531 288.35 288.35 0 0 1 8.133-31.781c3.46-11.032 7.292-21.313 11.5-30.754 4.953-11.219 10.093-20.754 15.421-28.7 3.274-4.956 6.547-9.164 9.817-12.62 1.683-1.778 3.55-3.458 5.703-5.235 2.242-1.684 4.394-3.086 6.355-3.926 2.246-1.027 4.489-1.683 6.637-1.87a16.9 16.9 0 0 1 6.824 0.843c2.153 0.652 4.207 1.68 6.172 3.176a24.338 24.338 0 0 1 4.953 5.234l1.121 1.496 1.122 1.965c0 0.094 0.093 0.094 0.093 0.094 0.094 0.187 0.094 0.281 0.188 0.37l1.215 2.622c4.113 8.598 6.078 17.758 5.984 27.574 0 9.817-1.121 19.164-3.273 28.043-2.243 8.883-4.391 16.172-6.73 21.969-2.243 5.703-3.552 8.789-3.833 9.254 0 0-0.094 0.094-0.187 0.281a2.917 2.917 0 0 0-0.375 0.563c-0.184 0.28-0.278 0.558-0.465 0.746-0.094 0.28-0.188 0.468-0.282 0.656-0.746 2.148 0.094 3.363 2.336 3.644 1.215 0.094 2.34-0.187 3.274-0.933 0.933-0.75 1.496-1.684 1.683-2.899 0.188-1.214 0.559-2.43 1.028-3.738l1.308-4.02 2.43-8.042c0.281-1.121 0.656-2.243 0.934-3.364 1.218-4.207 2.433-8.507 3.46-12.898 1.31-5.332 2.337-10.938 3.18-16.734 0.746-5.61 1.121-11.313 1.028-17.2 0-6.265-0.75-12.058-1.965-17.297-0.559-2.43-1.496-5.234-2.805-8.503-0.187-0.47-0.371-0.938-0.652-1.309l-0.75-1.777c-0.188-0.188-0.278-0.47-0.371-0.657l-1.309-2.242-1.309-1.96c-2.058-2.805-4.207-5.052-6.453-6.825a27.776 27.776 0 0 0-8.504-4.582c-3.086-0.934-6.359-1.402-9.628-1.215a29.442 29.442 0 0 0-9.348 2.43c-2.527 1.12-5.145 2.71-7.856 4.77-2.523 2.054-4.765 4.019-6.636 5.98-3.645 3.738-7.29 8.32-10.844 13.46-5.793 8.321-11.215 18.231-16.543 29.821-9.258 20.379-16.172 41.785-20.848 64.223-4.953 24.023-7.476 46.457-7.386 67.21 0.093 13.18 1.218 24.587 3.554 34.122 1.496 6.449 3.551 12.058 6.074 16.73 1.59 2.992 3.461 5.61 5.422 7.762a28.324 28.324 0 0 0 7.856 5.98 27.16 27.16 0 0 0 9.531 2.618c0.563 0 1.125 0.093 1.59 0.093h1.215c0.656 0 1.308-0.093 1.965-0.093l1.027-0.094c1.215-0.184 2.523-0.371 3.832-0.652 6.36-1.872 11.875-4.208 16.36-7.2 4.394-2.71 9.07-5.98 14.023-10 4.113-3.273 8.32-6.918 12.804-11.125 7.387-6.918 15.239-14.957 23.465-24.21 3.926-4.489 7.57-8.696 10.844-12.81l5.234-6.636 0.375-0.375c1.497-2.055 3.18-4.113 4.86-6.074 0-0.094 0.094-0.188 0.094-0.281 1.12-1.497 1.03-2.805-0.372-3.926z"/><path d="m135.54 215.69c0.843 0.281 1.683 0.469 2.617 0.469 0.844 0 1.684-0.282 2.527-0.563 1.586-0.746 2.895-1.773 4.114-2.894a66.664 66.664 0 0 0 3.457-3.743c2.148-2.617 4.02-5.328 5.984-8.039 1.96-2.804 3.832-5.515 5.887-8.133 1.027-1.308 2.152-2.617 3.367-3.738 1.121-1.215 2.523-2.242 4.02-2.71v-0.095c0.28-0.093 0.652-0.468 0.652-0.84 0-0.468-0.371-0.843-0.746-0.843-0.657-0.184-1.403-0.094-2.059 0.094-1.309 0.468-2.336 1.308-3.363 2.058-2.059 1.684-3.832 3.645-5.516 5.61-3.46 3.925-6.637 8.132-10.004 12.058-1.773 1.867-3.55 3.832-5.61 5.422-0.464 0.371-1.026 0.746-1.585 0.934-0.563 0.28-1.215 0.468-1.59 0.187s-0.75-0.84-0.937-1.402c-0.278-0.563-0.465-1.215-0.653-1.778-0.746-2.523-1.027-5.046-1.215-7.664-0.093-2.617-0.28-5.234-0.375-7.851a1736 1736 0 0 1-0.84-31.223v-0.469c0-0.093 0-0.28 0.094-0.375 0.653-3.27 1.309-6.543 1.961-9.812l3.926-19.727a946.96 946.96 0 0 0 6.453-39.726c1.867-13.184 3.457-26.55 4.578-39.918 0.563-6.637 1.028-13.367 1.121-20.004 0.094-3.367 0.094-6.73 0-10.098-0.093-3.363-0.37-6.73-0.933-10.093a31.833 31.833 0 0 0-1.215-4.957c-0.563-1.586-1.402-3.176-2.711-4.297-0.75-0.657-1.496-1.125-2.43-1.309-0.843-0.281-1.777-0.281-2.617-0.094-1.777 0.278-3.367 1.403-4.394 2.711-1.122 1.403-1.965 2.899-2.711 4.39a48.26 48.26 0 0 0-1.684 4.77c-0.281 0.84-0.465 1.684-0.746 2.43l-0.563 2.524c-0.375 1.59-0.746 3.273-1.12 4.863a243.73 243.73 0 0 0-2.805 19.91c-0.653 6.637-1.215 13.367-1.496 20.098-0.188 1.59-0.188 3.367-0.282 4.953-0.093 1.683-0.277 3.367-0.277 5.05l-0.188 5.047v4.954l-0.093 10.097 0.093 10c0.278 23.278 1.028 46.461 1.961 69.738-0.933 4.114-1.96 8.32-3.082 12.528l-0.187 0.558v0.188c-0.094 0.094-0.094 0.094-0.094 0.187v0.47c0.188 0.651 0.84 1.214 1.496 1.214 0.653 0 1.215-0.469 1.403-1.121l0.37-1.219a40.66 40.66 0 0 0 0.563-1.773c0.094 3.175 0.281 6.449 0.469 9.629l0.277 4.953c0.094 1.683 0.188 3.367 0.375 5.047 0.282 1.683 0.563 3.367 1.028 4.957 0.375 1.586 0.937 3.27 1.777 4.765 0.84 1.496 1.965 2.899 3.55 3.645zm7.48-209.77h-0.094zm-10.004 123.77-0.28-31.317c-0.09-2.617-0.09-5.234-0.09-7.851v-7.852c0.09-2.617 0.09-5.234 0.183-7.761l0.094-3.926c0-1.309 0.093-2.617 0.187-3.926 0.375-10.469 1.121-20.844 2.336-31.223 0.281-2.523 0.562-5.14 0.937-7.757 0.465-2.524 0.84-5.141 1.403-7.665l0.84-3.832c0.28-1.218 0.656-2.433 1.027-3.742 0.375-1.215 0.844-2.43 1.402-3.55l0.844-1.684c0.188-0.281 0.371-0.465 0.559-0.746 0.093-0.094 0.187-0.188 0.375-0.281l0.093-0.094 0.094 0.094c0.094 0.187 0.188 0.28 0.281 0.468 0.184 0.371 0.372 0.746 0.465 1.121 0.282 0.746 0.563 1.59 0.75 2.336 0.188 0.84 0.282 1.59 0.465 2.43l0.188 1.215 0.093 1.308 0.47 4.957c0.093 1.68 0.187 3.27 0.187 4.954 0.187 6.73-0.094 13.367-0.47 20.097-0.651 13.367-1.964 26.645-3.55 39.918-1.59 13.274-3.46 26.547-5.516 39.82l-0.843 4.958c-0.278 1.585-0.559 3.27-0.84 4.859l-1.496 7.851zm9.91-123.58c-0.093 0.094-0.093 0.187-0.093 0.187h-0.094 0.094c-0.094 0.094-0.094 0.094-0.094 0l-0.094-0.093v-0.094c0.094-0.094 0.188-0.094 0.281-0.188z"/><path d="m175.92 208.31c-0.84 0.187-1.68 0.281-2.524 0.187-0.84-0.093-1.586-0.28-2.148-0.656-0.656-0.465-1.028-1.027-1.309-1.777a8.013 8.013 0 0 1-0.562-2.149c-0.094-0.558-0.094-1.12-0.188-1.683 0-0.277 0-0.465-0.09-0.652-0.093-0.75-0.093-1.497-0.187-2.336 0-0.75 0-1.497 0.094-2.247l0.183-2.43 0.375-4.675c0.188-1.586 0.281-3.176 0.375-4.766v-0.28c0.094-1.497 0-2.993-0.469-4.579-0.187-0.844-0.746-1.59-1.59-2.152-0.933-0.559-1.96-0.746-2.988-0.653-2.058 0.278-3.836 0.934-5.422 1.774l-0.187 0.187c-0.844 0.75-1.309 1.59-1.402 2.711 0 0.469 0.093 0.934 0.28 1.403 0 0.093 0 0.093 0.095 0.093 0 0.094 0.09 0.188 0.09 0.282l0.093 0.187c0.094 0.094 0.188 0.094 0.188 0.188 0.375 0.277 0.75 0.37 1.12 0.37 0.376 0.094 0.75 0 1.032-0.093l0.652-0.277c0.47-0.188 0.844-0.282 1.121-0.282h0.282l0.281 0.282c0.094 0.277 0.187 0.558 0.281 0.933a27.425 27.425 0 0 1 0 3.926c-0.094 0.281-0.094 0.656-0.094 1.027l-0.28 4.957c-0.188 1.68-0.188 3.364-0.282 5.047 0 1.684 0.187 3.363 0.562 5.047s1.122 3.273 2.055 4.77c1.031 1.586 2.43 2.71 4.395 3.363 1.965 0.562 4.02 0.75 5.984 0.375 1.027-0.188 1.961-0.375 2.895-0.656a24.268 24.268 0 0 0 2.804-1.215c5.985-2.617 11.594-6.824 16.64-12.805 5.048-5.89 8.134-10.098 9.442-12.621v-0.469c0-0.187-0.093-0.277-0.093-0.465-0.094-0.093-0.465-0.28-1.215-0.468-2.242 3.457-6.543 8.039-12.805 13.742-6.36 5.797-12.152 8.972-17.484 9.535zm-6.45-44.777c-0.28-0.188-0.558-0.375-0.84-0.47-0.28-0.093-0.468-0.187-0.75-0.28h-0.183c-1.309-0.371-2.527-0.559-3.836-0.465a8.06 8.06 0 0 0-3.644 0.84c-0.653 0.28-1.122 0.656-1.59 1.12-0.465 0.563-0.653 1.126-0.653 1.872 0.188 0.746 0.559 1.308 1.215 1.777 0.559 0.371 1.215 0.653 1.778 0.84 1.308 0.281 2.617 0.375 3.925 0.281 1.215-0.187 2.43-0.468 3.551-1.12a7.503 7.503 0 0 0 1.402-1.122c0.375-0.469 0.563-1.031 0.47-1.59h-0.095c0-0.656-0.28-1.215-0.75-1.683z"/><path d="m247.71 187c-0.28-0.468-0.656-0.656-1.214-0.656-0.563 0-1.496 0.094-2.711 0.281-1.778 0.375-5.051 0.84-9.91 1.31 0.933-5.048 0.84-10.376-0.375-15.892-1.028-4.113-3.27-7.293-6.543-9.628-5.141-3.274-10.938-2.618-17.293 2.148-3.649 2.805-6.45 6.266-8.508 10.285-2.149 4.02-2.524 7.383-1.121 10.188 1.027 1.59 2.054 2.71 2.992 3.457l0.277 0.187c0 2.524 0.188 5.422 0.375 8.79 0.188 4.113 1.121 8.132 2.617 11.964 1.965 4.766 4.301 7.477 7.2 8.04 0.375 0.093 0.84 0.093 1.215 0.093 2.43 0 5.14-1.402 7.945-4.3 3.273-3.645 5.797-7.571 7.574-11.59 1.773-4.02 2.895-7.294 3.363-9.723a203.76 203.76 0 0 0 4.953-0.84c2.06-0.469 4.02-0.938 5.797-1.496 1.871-0.563 2.993-1.125 3.368-1.778a1.29 1.29 0 0 0 0-0.84zm-36.832-2.058c0.653-2.805 1.31-4.766 1.868-6.074 0.562-1.309 1.125-2.059 1.683-2.434 0.657-0.371 1.215-0.559 1.778-0.559l1.12-0.28 0.47-0.095-0.282-0.468c-0.746-1.309-2.148-2.055-3.926-2.149-2.523 0-4.582 1.403-6.355 4.207-0.469 0.84-0.938 1.961-1.402 3.27a13.832 13.832 0 0 1 1.214-3.082c0.372-1.215 1.868-3.274 4.485-6.078 1.402-1.309 2.805-2.336 4.113-2.992 4.395-2.243 8.133-2.149 10.938 0.28 1.87 1.872 2.898 4.864 3.086 9.071 0.093 4.113-0.188 7.664-0.84 10.75-2.528 0.184-5.703-0.094-9.535-0.75-3.836-0.746-6.637-1.59-8.415-2.617zm-0.656 6.824c2.434 0.934 5.328 1.496 8.696 1.59 3.363 0.187 6.261 0 8.691-0.375-1.586 7.105-4.39 12.809-8.504 17.11-1.402 1.308-2.617 1.867-3.648 1.679-1.028-0.187-2.055-1.309-3.082-3.363a27.994 27.994 0 0 1-1.684-5.422c-0.469-3.086-0.656-5.516-0.656-7.2-0.09-1.683 0-3.085 0.187-4.019z"/><path d="m117.96 258.38h0.864c0-0.035 0.105-4.18 1.796-6.36 0.418-0.55 1.625-1.796 3.422-1.796h1.59c0.692 0 0.934 0.277 0.934 0.933v20.531c0 0.622-0.309 0.934-0.934 0.934h-3.316v1.105h11.683v-1.105h-3.32c-0.621 0-0.934-0.312-0.934-0.934v-20.53c0-0.657 0.313-0.934 0.934-0.934h1.59c1.8 0 3.008 1.246 3.422 1.796 1.695 2.18 1.8 6.36 1.8 6.36h0.864l-0.278-9.262h-19.84zm34.802 15.347h19.286l0.414-9.261h-0.864s-0.379 4.25-1.968 6.394c-1.04 1.348-2.801 1.762-3.805 1.762h-5.527c-0.66 0-0.934-0.312-0.934-0.934v-9.851h3.039c2.664 0 2.836 2.765 2.836 4.805h0.898v-10.82h-0.898c0 2.007-0.172 4.773-2.836 4.773h-3.04v-9.438c0-0.656 0.274-0.933 0.935-0.933h5.562c1.383 0 2.973 0.378 4.047 2.003 1.379 2.11 1.414 4.704 1.414 4.704h0.867l-0.14-7.813h-19.286v1.106h2.489c0.656 0 0.933 0.277 0.933 0.933v20.531c0 0.622-0.277 0.934-0.933 0.934h-2.489zm33.762 0h9.332v-1.105h-1.867c-0.863 0-1.242-0.762-1.242-1.52 0-0.625 0.344-1.382 0.863-2.18l3.977-6.046 4.422 8.156c0.105 0.207 0.242 0.656 0.242 0.863 0 0.38-0.242 0.727-0.934 0.727h-2.074v1.105h10.715v-1.105h-2.14c-0.934 0-1.49-0.379-2.145-1.52l-6.118-11.234 5.29-7.95c0.792-1.21 1.66-1.694 3.039-1.694h1.558v-1.106h-9.332v1.106h1.07c1.036 0 1.692 0.726 1.692 1.453 0 0.62-0.274 1.347-0.692 1.968l-3.28 4.907-3.735-6.91c-0.172-0.278-0.278-0.692-0.278-0.899 0-0.348 0.243-0.52 0.625-0.52h2.075v-1.105h-10.715v1.106h2.105c1.66 0 2.145 0.726 2.73 1.796l5.153 9.54-5.844 8.746c-0.793 1.175-1.726 2.316-3.422 2.316h-1.07zm37.288-15.347h0.864c0-0.035 0.105-4.18 1.797-6.36 0.417-0.55 1.625-1.796 3.421-1.796h1.59c0.692 0 0.934 0.277 0.934 0.933v20.531c0 0.622-0.309 0.934-0.934 0.934h-3.316v1.105h11.683v-1.105h-3.32c-0.621 0-0.933-0.312-0.933-0.934v-20.53c0-0.657 0.312-0.934 0.933-0.934h1.59c1.8 0 3.008 1.246 3.422 1.796 1.695 2.18 1.8 6.36 1.8 6.36h0.864l-0.277-9.262h-19.84zm34.802 15.347h19.286l0.414-9.261h-0.864s-0.379 4.25-1.968 6.394c-1.04 1.348-2.801 1.762-3.805 1.762h-5.527c-0.66 0-0.934-0.312-0.934-0.934v-9.851h3.039c2.664 0 2.836 2.765 2.836 4.805h0.898v-10.82h-0.898c0 2.007-0.172 4.773-2.836 4.773h-3.039v-9.438c0-0.656 0.273-0.933 0.934-0.933h5.562c1.383 0 2.973 0.378 4.047 2.003 1.379 2.11 1.414 4.704 1.414 4.704h0.867l-0.14-7.813h-19.286v1.106h2.489c0.656 0 0.933 0.277 0.933 0.933v20.531c0 0.622-0.277 0.934-0.933 0.934h-2.489z" fill="#7a6c94"/></svg>
